<?xml version="1.0" encoding="UTF-8" standalone="no"?>
<svg width="155px" height="26px" viewBox="0 0 155 26" version="1.1" xmlns="http://www.w3.org/2000/svg" xmlns:xlink="http://www.w3.org/1999/xlink" xmlns:sketch="http://www.bohemiancoding.com/sketch/ns">
    <!-- Generator: Sketch 3.4 (15588) - http://www.bohemiancoding.com/sketch -->
    <title>logo</title>
    <desc>Created with Sketch.</desc>
    <defs></defs>
    <g id="UI" stroke="none" stroke-width="1" fill="none" fill-rule="evenodd" sketch:type="MSPage">
        <g id="1" sketch:type="MSArtboardGroup" transform="translate(-20.000000, -19.000000)" fill="#2DA2E0">
            <g id="Menu-2" sketch:type="MSLayerGroup">
                <path d="M40.2056256,36.6383583 C40.2056256,37.1856685 40.0853552,37.6468211 39.8448109,38.0218299 C39.6042665,38.3968388 39.2785342,38.7110307 38.8676043,38.964415 C38.4566743,39.2177994 37.9705815,39.405301 37.4093113,39.5269254 C36.8480412,39.6485499 36.2466893,39.7093613 35.6052376,39.7093613 L24.4801164,39.7093613 C23.8587101,39.7093613 23.2774033,39.6333471 22.7361785,39.4813165 C22.1949536,39.3292859 21.7188834,39.1164462 21.3079534,38.8427911 C20.8970235,38.569136 20.5763025,38.2448089 20.3457808,37.8698001 C20.1152591,37.4947913 20,37.0640443 20,36.5775464 L20,27.5773793 C20,27.1314229 20.1152591,26.7108112 20.3457808,26.3155316 C20.5763025,25.920252 20.8970235,25.5857897 21.3079534,25.3121346 C21.7188834,25.0384795 22.1949536,24.8307074 22.7361785,24.6888122 C23.2774033,24.546917 23.8587101,24.4759704 24.4801164,24.4759704 L35.6052376,24.4759704 C36.9683224,24.4759704 38.0758121,24.7445538 38.9277401,25.2817286 C39.779668,25.8189034 40.2056256,26.6043831 40.2056256,27.6381913 L40.2056256,36.6383583 Z M35.1842871,27.6685972 L25.0213385,27.6685972 L25.0213385,36.5775464 L35.1842871,36.5775464 L35.1842871,27.6685972 Z M57.5247333,36.5775464 C57.4846425,37.1248566 57.3343046,37.601212 57.0737148,38.006627 C56.8131251,38.4120419 56.4773703,38.736369 56.0664403,38.979618 C55.6555104,39.222867 55.1744289,39.405301 54.6231814,39.5269254 C54.0719339,39.6485499 53.4755932,39.7093613 52.8341416,39.7093613 L46.6401552,39.7093613 C45.9987035,39.7093613 45.3973517,39.6434823 44.8360815,39.5117225 C44.2748113,39.3799626 43.7837072,39.1823258 43.3627546,38.918806 C42.941802,38.6552863 42.6110584,38.3309592 42.3705141,37.945815 C42.1299697,37.5606708 42.0096993,37.0944506 42.0096993,36.5471404 L42.0096993,24.4759704 L42.4607177,24.4759704 C43.8638932,24.4759704 44.9763942,24.7496214 45.7982541,25.2969316 C46.620114,25.8442418 47.0310378,26.6347891 47.0310378,27.6685972 L47.0310378,36.5775464 L57.5247333,36.5775464 Z M63.8089234,39.7093613 C63.2075625,39.7093613 62.6362782,39.6333471 62.0950533,39.4813165 C61.5538285,39.3292859 61.0777583,39.1164462 60.6668283,38.8427911 C60.2558984,38.569136 59.9301661,38.2397413 59.6896217,37.8545971 C59.4490774,37.4694529 59.328807,37.0336384 59.328807,36.5471404 L59.328807,24.4759704 L64.3501455,24.4759704 L64.3501455,39.7093613 L63.8089234,39.7093613 Z M83.2027158,39.7093613 L83.2027158,30.3443226 L77.2192047,37.1552598 L71.1755577,30.3443226 L71.1755577,39.7093613 L66.1542192,39.7093613 L66.1542192,24.4759704 L67.1163919,24.4759704 C67.3769816,24.4759704 67.7127364,24.481038 68.1236663,24.4911734 C68.5345963,24.5013088 68.9655652,24.5671877 69.4165858,24.6888122 C69.8676065,24.8104367 70.3236317,24.9726002 70.7846751,25.1753077 C71.2457184,25.3780152 71.6666648,25.6820719 72.0475267,26.0874868 L77.2192047,31.5605614 L82.3307468,26.0874868 C82.6915634,25.6820719 83.1024872,25.3780152 83.5635306,25.1753077 C84.0245739,24.9726002 84.4856104,24.8104367 84.9466537,24.6888122 C85.4076971,24.5671877 85.8486885,24.5013088 86.2696411,24.4911734 C86.6905938,24.481038 87.0313598,24.4759704 87.2919496,24.4759704 L88.2240543,24.4759704 L88.2240543,39.7093613 L83.2027158,39.7093613 Z M110.233754,30.4963524 C110.233754,31.5707021 109.722605,32.3764522 108.700291,32.913627 C107.677977,33.4508018 106.304891,33.7193852 104.580989,33.7193852 L97.0640155,33.7193852 C97.0640155,33.3950533 97.1191394,33.0352529 97.2293889,32.6399733 C97.3396384,32.2446937 97.5100215,31.8950286 97.7405432,31.5909673 C97.9710648,31.2869061 98.2767521,31.028458 98.657614,30.8156151 C99.0384759,30.6027723 99.4894898,30.4963524 100.010669,30.4963524 L105.182347,30.4963524 L105.182347,27.6685972 L95.0494665,27.6685972 L95.0494665,36.1518628 C95.0494665,37.5708151 94.6184977,38.5437965 93.756547,39.0708359 C93.315549,39.3343556 92.8144225,39.5066544 92.2531523,39.5877374 C91.6918821,39.6688204 91.1205978,39.7093613 90.5392823,39.7093613 L90.028128,39.7093613 L90.028128,24.4759704 L105.633366,24.4759704 C106.99645,24.4759704 108.10394,24.7496214 108.955868,25.2969316 C109.807796,25.8442418 110.233754,26.6347891 110.233754,27.6685972 L110.233754,30.4963524 Z M123.493695,21.2225316 L122.802134,21.4961854 L122.681862,21.7698391 L122.772066,22.1651167 L122.741998,22.3475525 L122.681862,22.6516122 L123.28322,22.6516122 C123.363402,22.509717 123.453604,22.3678239 123.553831,22.2259286 C123.613967,22.1448457 123.684125,22.0637639 123.764306,21.9826809 L124.846751,21.9826809 L124.846751,21.7698391 L125.448109,21.7698391 L125.448109,22.1955227 L126.590689,22.1955227 L126.590689,22.4083645 L127.85354,22.4083645 L127.85354,22.2259286 L128.064016,22.2259286 L128.064016,21.9826809 L128.064016,21.861057 L128.244423,21.861057 L128.244423,21.9826809 L128.454898,21.9826809 L128.454898,22.6212063 L129.477207,22.6212063 L129.477207,22.2259286 L129.747818,22.2259286 L129.747818,22.6820182 L130.800194,22.6820182 L130.800194,22.1955227 L131.251212,22.1955227 L131.251212,23.2293257 L132.032978,23.2293257 L132.032978,23.867851 L128.935984,23.867851 C128.935984,23.948934 128.925962,24.0300158 128.905917,24.1110988 C128.865826,24.2732648 128.775623,24.3948874 128.635306,24.4759704 C128.555124,24.5165119 128.474944,24.5519852 128.394762,24.5823913 C128.314581,24.6127974 128.244423,24.6381355 128.184287,24.6584062 C128.104106,24.678677 128.033948,24.6888122 127.973812,24.6888122 C127.933721,24.8509782 127.953766,25.0840883 128.033948,25.3881495 C128.114129,25.6922107 128.224377,25.9861322 128.364694,26.2699226 C128.505012,26.6145253 128.685418,26.9793933 128.905917,27.3645375 L128.274491,27.6685972 C127.93372,27.121287 127.69819,26.6297288 127.567895,26.1939077 C127.4376,25.7580866 127.352409,25.4590976 127.312318,25.2969316 C127.292273,25.1753071 127.262205,25.1347662 127.222114,25.1753077 C127.202069,25.1955785 127.172001,25.2361194 127.131911,25.2969316 L126.8613,25.7834271 C126.781118,25.8036979 126.700938,25.8239683 126.620757,25.8442391 C126.540575,25.8645098 126.455384,25.8797126 126.365179,25.889848 C126.274975,25.8999834 126.169739,25.905051 126.049467,25.905051 C125.929194,25.9253217 125.859037,25.9253217 125.838991,25.905051 C125.818946,25.8847802 125.788878,25.8797126 125.748788,25.889848 C125.708697,25.8999834 125.638539,25.9506595 125.538312,26.0418779 C125.438085,26.1330962 125.267702,26.3003274 125.027158,26.5435764 C125.007113,26.5638471 124.967023,26.5841175 124.906887,26.6043883 C124.84675,26.624659 124.80666,26.6449295 124.786615,26.6652002 C124.606207,26.8273662 124.385711,26.9793945 124.125121,27.1212898 C124.004849,27.2023728 123.874556,27.2733193 123.734239,27.3341316 L122.080504,27.2125077 C122.080504,27.3341322 122.070482,27.4354844 122.050436,27.5165674 C122.010346,27.7192749 121.950211,27.8206271 121.870029,27.8206271 C121.809893,27.8206271 121.769803,27.8662356 121.749758,27.9574539 C121.729712,28.0486723 121.714678,28.1550921 121.704656,28.2767166 C121.694633,28.3983411 121.68461,28.5199638 121.674588,28.6415883 C121.664565,28.7632128 121.649531,28.864565 121.629486,28.945648 C121.589395,29.026731 121.544294,29.0672718 121.49418,29.0672718 C121.444067,29.0672718 121.398966,29.1078127 121.358875,29.1888957 C121.318784,29.2294372 121.298739,29.2750457 121.298739,29.3257226 C121.298739,29.3763995 121.288717,29.422008 121.268671,29.4625495 C121.248626,29.5233617 121.238603,29.5740378 121.238603,29.6145793 L121.208535,30.8612241 C121.348853,30.7598703 121.519236,30.7801408 121.71969,30.922036 C121.920143,31.0639312 122.110571,31.23623 122.29098,31.4389375 C122.511479,31.6619157 122.731974,31.9457019 122.952473,32.2903046 C123.112836,32.4524706 123.253152,32.6349046 123.373424,32.8376121 C123.493696,33.0403196 123.593921,33.2328888 123.674103,33.4153255 C123.754284,33.6383037 123.824442,33.8612786 123.884578,34.0842569 L123.583899,34.6011583 L125.207565,36.6383583 C125.267702,36.8613365 125.337859,37.1349875 125.418041,37.4593195 C125.498222,37.7836515 125.578402,38.1231814 125.658584,38.4779195 C125.738765,38.8326576 125.803912,39.1873903 125.854025,39.5421284 C125.904139,39.8968665 125.929195,40.2262612 125.929195,40.5303224 C125.929195,40.5911347 125.899127,40.6620812 125.838991,40.7431642 C125.778855,40.8242472 125.708697,40.9002614 125.628516,40.971209 C125.548335,41.0421566 125.483188,41.1181708 125.433075,41.1992538 C125.382961,41.2803368 125.357905,41.3512833 125.357905,41.4120956 C125.357905,41.5945323 125.37795,41.7262902 125.418041,41.8073732 C125.458131,41.8884562 125.498222,42.0404845 125.538312,42.2634627 C125.67863,42.4458995 125.87908,42.608063 126.13967,42.7499582 C126.259942,42.8310412 126.380213,42.9019878 126.500485,42.9628 C126.761075,43.2263197 126.951503,43.4695651 127.071775,43.6925433 C127.192047,43.9155215 127.267216,44.1131584 127.297284,44.2854597 C127.327352,44.4577611 127.312318,44.5996542 127.252182,44.7111433 C127.192046,44.8226324 127.111866,44.8986466 127.011639,44.9391881 C126.911412,44.9797296 126.791142,45 126.650824,45 L126.229874,45 C126.069511,45 125.899128,44.9898648 125.71872,44.969594 C125.478175,44.969594 125.232623,44.8733094 124.982056,44.6807373 C124.731489,44.4881652 124.505982,44.2803932 124.305529,44.0574149 C124.285483,44.0371442 124.275461,43.9763329 124.275461,43.8749791 C124.275461,43.8344376 124.285483,43.7938967 124.305529,43.7533552 C124.225347,43.7533552 124.155189,43.74322 124.095053,43.7229493 C123.954736,43.6824078 123.884578,43.6621373 123.884578,43.6621373 C123.96476,43.1350979 123.984805,42.7144862 123.944714,42.4002896 C123.904623,42.086093 123.85451,41.8377801 123.794374,41.6553433 C123.774329,41.5742603 123.744261,41.4931786 123.704171,41.4120956 C123.684125,41.3715541 123.66408,41.3411484 123.644035,41.3208777 C123.603944,41.2600654 123.538798,41.2144569 123.448594,41.1840508 C123.358389,41.1536447 123.293243,41.097901 123.253152,41.016818 C123.152925,40.7330275 123.057711,40.4036328 122.967507,40.0286239 C122.877303,39.6536151 122.802134,39.2938147 122.741998,38.949212 C122.661817,38.5437971 122.591659,38.128253 122.531523,37.7025673 L119.224054,33.962633 C118.943419,34.6112969 118.682833,35.2396807 118.442289,35.8478031 C118.22179,36.3748425 118.006306,36.9069417 117.795829,37.4441165 C117.585353,37.9812913 117.430004,38.4120383 117.329777,38.7363702 C117.109278,39.4053049 116.91885,39.8765927 116.758487,40.1502478 C116.598124,40.4239029 116.437763,40.6418102 116.277401,40.8039762 C116.23731,40.8445177 116.127062,40.9255994 115.946654,41.0472239 C115.766245,41.1688484 115.560784,41.2904711 115.330262,41.4120956 C115.09974,41.5337201 114.874233,41.6300047 114.653734,41.7009523 C114.433235,41.7718999 114.262852,41.7566971 114.14258,41.6553433 C114.122535,41.6756141 114.122535,41.7313578 114.14258,41.8225762 C114.162625,41.9137945 114.192693,42.0202144 114.232784,42.1418388 C114.272874,42.2634633 114.307953,42.3901536 114.338021,42.5219135 C114.368089,42.6536733 114.383123,42.7803636 114.383123,42.9019881 C114.383123,42.9425296 114.418202,42.9729352 114.488361,42.993206 C114.55852,43.0134767 114.628677,43.0337472 114.698836,43.0540179 C114.768995,43.0742887 114.82913,43.109762 114.879243,43.1604388 C114.929357,43.2111157 114.944391,43.2769946 114.924345,43.3580776 C114.884255,43.4594314 114.799063,43.5253103 114.668768,43.5557164 C114.538473,43.5861226 114.393147,43.6013254 114.232784,43.6013254 C114.052375,43.6013254 113.851925,43.5911902 113.631426,43.5709194 C113.270609,43.5303779 113.000001,43.3783496 112.819593,43.1148299 C112.639184,42.8513102 112.528937,42.5675239 112.488846,42.2634627 C112.4688,42.1012967 112.438733,42.0100797 112.398642,41.989809 C112.358551,41.9695382 112.318461,41.9796735 112.278371,42.020215 C112.23828,42.0607565 112.203201,42.106365 112.173133,42.1570418 C112.143065,42.2077187 112.128031,42.2127863 112.128031,42.1722448 C112.08794,42.0506203 112.062884,41.9391329 112.052861,41.8377791 C112.042839,41.7364254 112.037827,41.6553436 112.037827,41.5945314 C112.037827,41.5134484 112.04785,41.4526371 112.067895,41.4120956 C112.168122,41.1688466 112.313449,40.9306689 112.50388,40.6975553 C112.694311,40.4644417 112.92984,40.2059935 113.210475,39.922203 C113.250566,39.9019323 113.255577,39.8107153 113.225509,39.6485493 C113.195441,39.4863833 113.200452,39.3951663 113.240543,39.3748956 C113.400906,39.2127296 113.561267,39.0556337 113.721629,38.9036031 C113.881992,38.7515725 114.022308,38.6248822 114.14258,38.5235284 C114.282898,38.401904 114.41319,38.2904165 114.533463,38.1890628 C114.633689,37.7228356 114.768994,37.1248575 114.939379,36.3951106 C115.109765,35.6653636 115.295182,34.9558981 115.495635,34.2666927 C115.716134,33.4558628 115.956675,32.6146393 116.217265,31.7429972 C116.157129,31.5402897 116.117039,31.302112 116.096993,31.0284569 C116.076948,30.7548018 116.071937,30.4760832 116.081959,30.1922927 C116.091982,29.9085023 116.117038,29.6297837 116.157129,29.3561286 C116.19722,29.0824735 116.247332,28.8341605 116.307468,28.6111823 C116.367605,28.4084748 116.417717,28.1094858 116.457808,27.7142062 C116.497899,27.3189266 116.537989,26.9185853 116.57808,26.5131704 C116.61817,26.1077554 116.648238,25.7276846 116.668283,25.3729465 C116.688329,25.0182084 116.698351,24.7597603 116.698351,24.5975943 C116.718396,24.1313671 116.863723,23.7208906 117.134336,23.3661525 C117.404948,23.0114144 117.660523,22.7022902 117.901067,22.4387704 C118.001294,22.3374167 118.101519,22.307011 118.201746,22.3475525 C118.301973,22.388094 118.402198,22.388094 118.502425,22.3475525 C118.562561,22.307011 118.672809,22.2664701 118.833172,22.2259286 C118.993535,22.1853872 119.09376,22.1549815 119.133851,22.1347107 C119.153896,22.1347107 119.163919,22.1245755 119.163919,22.1043048 C119.163919,22.084034 119.143873,22.0637636 119.103783,22.0434928 L118.983511,21.9826809 L118.953443,20.3407585 C119.033625,20.0366973 119.153895,19.793452 119.314258,19.6110152 C119.474621,19.4285785 119.655026,19.291753 119.85548,19.2005347 C120.055934,19.1093163 120.271418,19.0535726 120.50194,19.0333018 C120.732462,19.0130311 120.957969,19.0028959 121.178468,19.0028959 C121.59942,18.9826251 121.940186,19.0687745 122.200776,19.2613466 C122.461366,19.4539187 122.671839,19.671826 122.832202,19.9150749 C123.01261,20.1988654 123.13288,20.5231925 123.193016,20.888066 L123.493695,21.2225316 Z M123.012609,25.0536838 C123.112836,25.0536838 123.198027,24.9979401 123.268186,24.886451 C123.338345,24.7749619 123.433559,24.6989477 123.553831,24.6584062 C123.654058,24.6381355 123.769317,24.6026622 123.899612,24.5519853 C124.029907,24.5013085 124.205301,24.4252943 124.4258,24.3239406 C124.606208,24.2428576 124.756546,24.1415054 124.876819,24.0198809 C124.936955,23.9590686 124.977045,23.9083925 124.99709,23.867851 C124.69641,23.867851 124.425801,23.8577158 124.185257,23.837445 C123.964758,23.837445 123.754285,23.8323774 123.553831,23.8222421 C123.353378,23.8121067 123.20304,23.8273095 123.102813,23.867851 C123.002586,23.9083925 122.902361,23.954001 122.802134,24.0046779 C122.701907,24.0553547 122.611704,24.1009632 122.531523,24.1415047 C122.431296,24.202317 122.341093,24.2631283 122.260912,24.3239406 C122.220821,24.3847528 122.190753,24.460767 122.170708,24.5519853 C122.150663,24.6432037 122.130618,24.7394883 122.110572,24.840842 C122.090527,24.9421958 122.070482,25.043548 122.050436,25.1449017 C122.210799,25.1449017 122.351115,25.1347665 122.471387,25.1144958 C122.571614,25.094225 122.67685,25.0840898 122.7871,25.0840898 C122.897349,25.0840898 122.972518,25.0739546 123.012609,25.0536838 L123.012609,25.0536838 Z M152.870029,36.5471404 C152.870029,37.0336384 152.744747,37.4694529 152.49418,37.8545971 C152.243613,38.2397413 151.91287,38.569136 151.50194,38.8427911 C151.09101,39.1164462 150.61494,39.3292859 150.073715,39.4813165 C149.53249,39.6333471 148.951183,39.7093613 148.329777,39.7093613 L138.377304,39.7093613 C137.755897,39.7093613 137.169579,39.6333471 136.618332,39.4813165 C136.067084,39.3292859 135.586003,39.1164462 135.175073,38.8427911 C134.764143,38.569136 134.438411,38.2397413 134.197866,37.8545971 C133.957322,37.4694529 133.837051,37.0336384 133.837051,36.5471404 L133.837051,24.4759704 L134.378274,24.4759704 C135.701268,24.4759704 136.77869,24.6685396 137.610572,25.0536838 C138.442455,25.438828 138.85839,26.1178879 138.85839,27.0908838 L138.85839,36.5775464 L147.848691,36.5775464 L147.848691,24.4759704 L152.870029,24.4759704 L152.870029,36.5471404 Z M175,36.5471404 C175,37.6417608 174.553997,38.4475109 173.661979,38.964415 C172.76996,39.4813191 171.602335,39.7397672 170.159069,39.7397672 L159.454898,39.7397672 C158.853537,39.7397672 158.267219,39.6738883 157.695926,39.5421284 C157.124633,39.4103686 156.613484,39.2076641 156.162464,38.934009 C155.711443,38.6603539 155.350632,38.3309592 155.080019,37.945815 C154.809407,37.5606708 154.674103,37.1045858 154.674103,36.5775464 L169.978661,36.5775464 L169.978661,33.7193852 L159.244423,33.7193852 C158.643062,33.7193852 158.066766,33.6535063 157.515519,33.5217464 C156.964271,33.3899866 156.478179,33.1872821 156.057226,32.913627 C155.636273,32.6399719 155.300519,32.3055096 155.049952,31.91023 C154.799384,31.5149504 154.674103,31.0436626 154.674103,30.4963524 L154.674103,27.9726569 C154.674103,27.3645345 154.799384,26.837503 155.049952,26.3915465 C155.300519,25.9455901 155.636273,25.5807221 156.057226,25.2969316 C156.478179,25.0131411 156.964271,24.8053691 157.515519,24.6736092 C158.066766,24.5418494 158.653085,24.4759704 159.274491,24.4759704 L170.219205,24.4759704 C171.662471,24.4759704 172.820073,24.7242833 173.692047,25.2209167 C174.56402,25.71755 175,26.5334354 175,27.6685972 L159.815713,27.6685972 L159.815713,30.4963524 L170.189137,30.4963524 C170.790498,30.4963524 171.381827,30.5520961 171.963143,30.6635853 C172.544458,30.7750744 173.055607,30.9524408 173.496605,31.1956897 C173.937603,31.4389387 174.298414,31.7581982 174.579049,32.1534778 C174.859685,32.5487574 175,32.9997747 175,33.5065434 L175,36.5471404 Z" id="logo" sketch:type="MSShapeGroup"></path>
            </g>
        </g>
    </g>
</svg>