<?xml version="1.0" encoding="utf-8"?>
<!-- Generator: Adobe Illustrator 17.0.2, SVG Export Plug-In . SVG Version: 6.00 Build 0)  -->
<!DOCTYPE svg PUBLIC "-//W3C//DTD SVG 1.1//EN" "http://www.w3.org/Graphics/SVG/1.1/DTD/svg11.dtd">
<svg version="1.1" id="Layer_1" xmlns="http://www.w3.org/2000/svg" xmlns:xlink="http://www.w3.org/1999/xlink" x="0px" y="0px"
	 width="248.47px" height="198.911px" viewBox="0 0 248.47 198.911" enable-background="new 0 0 248.47 198.911"
	 xml:space="preserve">
<g>
	<path fill="#E67E22" d="M61.101,105.177l4.969-9.504c4.988,3.623,10.316,6.779,15.932,9.389l-0.054,0.115h0.3
		c12,5.541,25.274,8.625,39.245,8.625c25.54,0,48.776-10.297,66.103-27.125v18.5h60.875v69.131H0v-69.131H61.101z"/>
	<path d="M30.06,120.044v9.725h-3.727v25.924h3.727v9.725H13.284v-9.725h3.726v-25.924h-3.726v-9.725H30.06z"/>
	<path d="M42.578,120.044l8.948,16.596l8.887-16.596h9.319v45.373h-9.319l-0.018-29.428l-8.869,16.332l-8.915-16.332l-0.033,29.428
		h-9.319v-35.648v-9.725H42.578z"/>
	<path fill="#FFFFFF" d="M99.228,120.044l4.228,45.373h-9.322l-0.931-10.695H82.947l-0.931,10.695h-9.318l4.225-45.373H99.228z
		 M92.395,145.001l-1.369-15.232h-5.9l-1.369,15.232H92.395z"/>
	<path d="M135.584,120.044v9.725h-19.883v25.924h10.563v-6.676h-4.04v-8.426h13.359v24.826h-29.201v-45.373H135.584z"/>
	<path d="M139.444,129.769v-9.725h9.318v35.648h10.565v-35.648h9.321v45.373h-29.205V129.769z"/>
	<path d="M201.798,120.044v30.141h-5.838l7.956,15.232h-10.57l-7.02-14.91h-4.414v14.91h-9.314v-45.373H201.798z M181.912,140.788
		h10.57v-11.02h-10.57V140.788z"/>
	<path d="M206.978,129.769v-9.725h9.324v35.648h10.56v-35.648h9.324v45.373h-29.208V129.769z"/>
	<path fill-rule="evenodd" clip-rule="evenodd" fill="#E67E22" d="M102.107,82.294c-0.305-1.57-1.202-1.959-2.535-1.098
		c-1.465,0.936-1.692,2.432-1.692,4.053c0,3.205,1.735,3.941,4.328,3.244c1.979-0.525,3.497-1.846,4.837-3.381
		c1.303-1.496,2.474-3.117,3.861-4.525c1.65-1.672,3.318-3.418,5.243-4.691c2.6-1.732,5.398-1.195,7.68,0.998
		c1.199,1.135,1.241,1.186,2.351,0.014c2.649-2.793,6.618-2.494,9.299-0.025c1.725,1.594,3.268,3.418,4.872,5.152
		c1.45,1.568,2.791,3.266,4.356,4.711c1.487,1.4,3.286,2.246,5.399,1.908c1.076-0.176,1.799-0.82,1.889-1.918
		c0.1-1.197,0.1-2.447-0.079-3.631c-0.179-1.186-1.441-2.158-2.498-2.27c-1.041-0.125-1.458,0.387-1.399,1.658
		c-0.557-1.06-0.639-1.857-0.006-2.58c0.616-0.699,1.375-0.586,2.099-0.188c2.882,1.598,5.033,5.086,4.381,8.305
		c-0.417,2.082-1.643,3.617-3.113,4.99c-2.85,2.666-6.158,4.027-10.056,3.963c-3.683-0.047-7.288-0.385-10.719-1.855
		c-2.003-0.85-3.693-2.197-4.985-4.029c-0.384-0.549-0.659-0.748-1.123-0.086c-2.251,3.254-5.519,4.639-9.124,5.4
		c-3.144,0.645-6.336,0.832-9.48,0.359c-3.444-0.512-6.26-2.422-8.531-5.174c-1.328-1.609-2.171-3.381-1.859-5.613
		c0.328-2.318,1.541-4.016,3.233-5.4c0.347-0.299,0.717-0.561,1.095-0.809c0.801-0.514,1.613-0.439,2.162,0.197
		C102.604,80.685,102.748,81.46,102.107,82.294z"/>
	<path fill-rule="evenodd" clip-rule="evenodd" d="M153.024,51.853c-0.462,0.549-0.892,1.023-1.521,0.449
		c-0.167-0.15-0.244-0.748-0.124-0.873C152.002,50.818,152.518,51.179,153.024,51.853z"/>
	<path fill-rule="evenodd" clip-rule="evenodd" d="M95.65,52.029c0.438-0.686,0.921-1.062,1.572-0.498
		c0.131,0.123,0.114,0.709-0.036,0.871C96.601,52.988,96.129,52.613,95.65,52.029z"/>
	<g>
		<path fill-rule="evenodd" clip-rule="evenodd" d="M153.188,53.746c-0.185-3.218-1.68-5.6-4.747-6.539
			c-1.902-0.58-3.877-0.922-5.808-1.377c-0.025,0.095-0.054,0.191-0.075,0.302c-3.431-0.028-6.634,0.993-9.823,2.192
			c-2.581,0.98-3.789,2.979-3.811,5.612c-0.021,5.144,1.479,9.832,5.333,13.25c4.243,3.751,9.153,3.654,14.125,1.793
			c1.851-0.689,3.057-2.151,3.629-4.148C153.068,61.204,153.405,57.505,153.188,53.746z"/>
		<path fill-rule="evenodd" clip-rule="evenodd" d="M116.98,49.265c-4.481-2.307-9.229-3.646-14.265-2.719
			c-5.822,1.075-7.885,3.405-7.694,9.693c-0.092,0.014,0.623,5.818,1.224,8.66c0.463,2.204,1.923,3.678,3.939,4.37
			c1.455,0.481,2.994,0.825,4.507,0.953c3.167,0.271,6.227-0.235,8.752-2.401c4.269-3.669,5.962-8.576,5.83-14.203
			C119.234,51.854,118.539,50.062,116.98,49.265z"/>
	</g>
	<g>
		<path fill="#FFFFFF" d="M114.087,18.07c-0.771,1.416-5.455,4.666-9.479,8.916c-1.182,1.248,0.276,5.166-0.676,6.565
			c-6.125,9-7.792,10.5-10.25,15.5c-8.043,16.356-4.723,36.069-10.334,32.292c-19.125-12.875-12.5-25.75-7.125-37.625
			c1.847-4.08,9.089-16.512,14.5-21.25c8.375-7.336,23.724-8.504,24.284-10.859c0.802-3.316,0.466-5.822,0.234-5.91
			c-0.323-0.125-0.281,1.223-0.316,1.658c-0.168,2.145-0.103,4.016-2.595,4.078c-15.83,0.424-28.846,8.408-35.106,19.408
			c-6.264,10.975-6.957,17.977-7.125,19.25c-0.609,4.539-2.603,12.045-3.5,9.875c-1.213-2.943-4.348-14.898,0.674-26.435
			c14.7-33.721,47.861-28.211,47.234-28.383c-3.808-1.023-60.658-12.307-50.234,55.232c0.604,3.918,11.751,19.979,16.077,23.337
			c2.41,1.87,4,3.666,6.5,3c4.495-1.197,3.869-6.651,4.625-11.001c1-5.75,1.172-11.658,2.5-15.75c1.674-5.148,3.167-9.334,6-13.25
			c5.89-8.14,11.185-16.59,18.976-15.717c5.929,0.672,10.968-1.51,12.305-5.5c5.209-15.539,2.094-32.499-17.239-22.512
			c-0.067,0.027,8.404-1.332,9.619-0.982c11.14,3.217,8.543,27.162-3.934,26.201c-11.023-0.848-8.686-2.594-6.743-4.326
			c9.588-8.52,6.231-19.854,3.539-20.766c-1.088-0.363-2.816,0.15-2.857,0.188c-0.157,0.15-0.317,0.297-0.474,0.449
			c-2.151,2.158,5.113-4.988,3.856,5.936C116.772,11.871,115.319,15.824,114.087,18.07z"/>
		<path fill="#FFFFFF" d="M147.757,13.929c7.119,2.357,14.02,2.555,23.361,15.937c4.15,5.949,5.398,11.311,7.414,16.947
			c2.22,6.213,2.261,11.324,4.141,11.012c1.766-0.285,2.329-14.678-1.999-25.863c-3.138-8.094-9.285-13.443-13.738-16.6
			C150.604,3.841,133.231,4.8,133.851,4.626c3.815-1.023,58.771-10.778,50.84,56.604c-1.179,9.951-17.716,23.651-22.111,24.988
			c-5.105,1.553-5.154-8.191-6.063-13.416c-0.734-4.229-3.395-14.012-4.334-18.25c-0.502-2.271-6.833-13.5-10.166-16.667
			c0,0-1.998-1.906-2.75-2.584c-1.581-1.425-3.105-2.007-4.417-2.5c-9.75-3.666-4.551-0.501-2.857-5.903
			c0.353-1.135,0.861-2.693,1.286-4.053c0.866-2.779,0.976-5.938,1.584-4.326c0.21,0.549-1.829,8.341-0.18,9.7
			c3.915,3.254,2.883,2.536,8.667,8c6,5.667,12.1,9.531,15.833,27.003c1.536,7.188,1.667,12.166,2.667,16.5
			c1.457,6.316,10.125-2.379,15.125-9.629c3.939-5.71-0.491-18.74-1.495-21.883c-0.857-2.682-3.182-18.693-29.646-31.438
			c-6.468-3.117-10.325-2.506-10.7-3.18c-0.468-0.836-0.12-2.521-0.376-3.856c-0.319-1.644-0.886-3.18-0.756-3.566
			c0.21-0.637,1.352,1.559,1.537,2.221c0.861,2.994,0.692,2.744,1.381,3.904C137.719,13.63,144.636,12.892,147.757,13.929z"/>
	</g>
	<circle fill="#F4F4F4" cx="154.61" cy="49.362" r="1.457"/>
	<circle fill="#F4F4F4" cx="93.551" cy="49.799" r="1.457"/>
	<path fill-rule="evenodd" clip-rule="evenodd" fill="#E67E22" d="M105.895,44.753c4.355,0.082,8.461,0.938,12.5,2.082
		c3.733,1.062,7.396,0.925,11.115,0.057c2.738-0.663,5.467-1.421,8.238-1.862c4.532-0.719,9.042-0.03,13.516,0.759
		c1.526,0.261,3.021,0.662,4.541,0.935c1,0.169,1.402,0.802,1.407,1.726c0.021,1.032-0.071,2.054-0.138,3.075
		c-0.015,0.192-0.093,0.483-0.231,0.565c-1.551,1.007-1.646,2.688-1.915,4.317c-0.443,2.701-0.953,5.402-1.455,8.091
		c-0.683,3.669-2.777,5.943-6.308,6.578c-2.126,0.385-4.315,0.771-6.456,0.663c-4.701-0.235-8.439-2.496-10.689-6.897
		c-1.188-2.343-1.997-4.894-2.955-7.361c-0.237-0.607-0.375-1.255-0.575-1.888c-0.483-1.505-1.704-2.181-3.184-1.725
		c-0.683,0.207-1.066,0.648-1.311,1.408c-0.847,2.632-1.627,5.321-2.751,7.83c-3.74,8.345-10.912,10.137-17.919,8.012
		c-1.005-0.294-1.964-0.786-2.955-1.157c-2.096-0.773-3.059-2.524-3.503-4.594c-0.673-3.172-1.222-6.386-1.738-9.611
		c-0.213-1.35-0.608-2.522-1.672-3.403c-0.246-0.21-0.489-0.594-0.49-0.911c-0.039-1.24-0.066-2.494,0.1-3.724
		c0.046-0.358,0.682-0.824,1.117-0.909c3.345-0.637,6.702-1.227,10.067-1.762C103.495,44.849,104.771,44.835,105.895,44.753z
		 M142.558,46.131c-3.431-0.028-6.634,0.993-9.823,2.192c-2.581,0.98-3.789,2.979-3.811,5.612c-0.021,5.144,1.479,9.832,5.333,13.25
		c4.243,3.751,9.153,3.654,14.125,1.793c1.851-0.689,3.057-2.151,3.629-4.148c1.058-3.626,1.395-7.325,1.177-11.085
		c-0.185-3.218-1.68-5.6-4.747-6.539C146.538,46.626,142.579,46.021,142.558,46.131z M95.021,56.24
		c-0.092,0.014,0.623,5.818,1.224,8.66c0.463,2.204,1.923,3.678,3.939,4.37c1.455,0.481,2.994,0.825,4.507,0.953
		c3.167,0.271,6.227-0.235,8.752-2.401c4.269-3.669,5.962-8.576,5.83-14.203c-0.038-1.765-0.733-3.557-2.293-4.354
		c-4.481-2.307-9.229-3.646-14.265-2.719C96.892,47.621,94.829,49.952,95.021,56.24z M155.853,49.454
		c-0.561-0.744-1.131-1.145-1.818-0.468c-0.133,0.138-0.048,0.799,0.137,0.965C154.866,50.586,155.342,50.062,155.853,49.454z
		 M92.417,49.649c0.53,0.646,1.051,1.061,1.699,0.413c0.165-0.18,0.185-0.827,0.039-0.963C93.435,48.474,92.9,48.891,92.417,49.649z
		"/>
	<g>
		<path fill="#FFFFFF" d="M11.684,182.382h8.879v2.839h-6.046v2.205h6.046v8.185h-8.879V182.382z M17.731,192.772v-2.513h-3.213
			v2.513H17.731z"/>
		<path fill="#FFFFFF" d="M27.199,182.382v2.839h-1.133v7.551h1.133v2.838h-5.098v-2.838h1.13v-7.551h-1.13v-2.839H27.199z"/>
		<path fill="#FFFFFF" d="M37.09,182.382v2.839l-3.174,3.775l3.174,3.776v2.838h-8.505v-2.838h5.084l-3.174-3.776l3.174-3.775
			h-5.084v-2.839H37.09z"/>
		<path fill="#FFFFFF" d="M41.411,182.382v5.14h3.214v-5.14h2.833v13.229h-2.833v-5.252h-3.214v5.252h-2.833v-10.39v-2.839H41.411z"
			/>
		<path fill="#FFFFFF" d="M57.824,195.611h-8.879v-2.838h6.046v-2.359h-2.986v-2.833h2.986v-2.359h-6.046v-2.839h8.879V195.611z"/>
		<path fill="#FFFFFF" d="M68.332,182.382v4.122h-2.833v-1.283h-3.213v7.551h3.213v-1.283h2.833v4.122h-8.879v-13.229H68.332z"/>
		<path fill="#FFFFFF" d="M77.19,195.611h-2.833v-10.39v-2.839h2.833v5.14h1.303l2.479-5.14h2.98l-3.193,6.387l3.387,6.842h-3.119
			l-2.533-5.252H77.19V195.611z"/>
		<path fill="#FFFFFF" d="M94.38,182.382v13.229h-2.833v-10.39h-2.004l-1.282,10.39h-3.38v-2.838h1.016l1.174-10.39H94.38z"/>
		<path fill="#FFFFFF" d="M98.842,182.382v5.425h3.12v-5.425h2.832v13.229h-8.785v-2.838h5.953v-2.132h-5.953v-5.419v-2.839H98.842z
			"/>
		<path fill="#FFFFFF" d="M106.414,182.382h8.879v2.839h-6.046v2.205h6.046v8.185h-8.879V182.382z M112.46,192.772v-2.513h-3.214
			v2.513H112.46z"/>
	</g>
	<g>
		<path fill="#FFFFFF" d="M138.622,182.382v2.839h-5.665v2.301h5.665v8.088h-8.498v-2.838h5.665v-2.414h-5.665v-7.977H138.622z"/>
		<path fill="#FFFFFF" d="M148.759,182.382v2.839h-3.04v10.39h-2.832v-10.39h-3.021v-2.839H148.759z"/>
		<path fill="#FFFFFF" d="M157.297,182.382l1.283,13.229h-2.832l-0.274-3.12h-3.12l-0.288,3.12h-2.832l1.283-13.229H157.297z
			 M155.227,189.658l-0.415-4.437h-1.797l-0.414,4.437H155.227z"/>
		<path fill="#FFFFFF" d="M168.761,182.382v8.786h-1.776l2.418,4.443h-3.207l-2.145-4.349h-1.33v4.349h-2.834v-13.229H168.761z
			 M162.721,188.429h3.207v-3.208h-3.207V188.429z"/>
		<path fill="#FFFFFF" d="M178.997,182.382v2.839h-3.04v10.39h-2.832v-10.39h-3.021v-2.839H178.997z"/>
		<path fill="#FFFFFF" d="M180.282,185.221v-2.839h2.833v10.39h3.22v-10.39h2.833v13.229h-8.886V185.221z"/>
		<path fill="#FFFFFF" d="M199.677,182.382v9.26h-6.054v3.969h-2.832v-13.229H199.677z M193.623,188.809h3.221v-3.588h-3.221
			V188.809z"/>
		<path fill="#FFFFFF" d="M208.628,182.382v5.14h3.207v-5.14h2.833v13.229h-2.833v-5.252h-3.207v5.252h-2.833v-10.39v-2.839H208.628
			z"/>
		<path fill="#FFFFFF" d="M216.303,185.221v-2.839h2.833v10.39h3.208v-10.39h2.832v13.229h-8.873V185.221z"/>
		<path fill="#FFFFFF" d="M235.685,182.382v5.291l-1.639,1.323l1.639,1.323v5.291h-8.873v-13.229H235.685z M229.645,185.221v2.452
			h2.191l1.016-0.961v-1.491H229.645z M229.645,192.772h3.207v-1.491l-1.016-0.961h-2.191V192.772z"/>
	</g>
	<rect x="121.317" y="179.082" fill="#FFFFFF" width="2.967" height="19.829"/>
</g>
</svg>
