<?xml version="1.0" encoding="utf-8"?>
<!-- Generator: Adobe Illustrator 17.0.2, SVG Export Plug-In . SVG Version: 6.00 Build 0)  -->
<!DOCTYPE svg PUBLIC "-//W3C//DTD SVG 1.1//EN" "http://www.w3.org/Graphics/SVG/1.1/DTD/svg11.dtd">
<svg version="1.1" xmlns="http://www.w3.org/2000/svg" xmlns:xlink="http://www.w3.org/1999/xlink" x="0px" y="0px" width="28px"
	 height="31px" viewBox="0 0 28 31" enable-background="new 0 0 28 31" xml:space="preserve">
<g id="iMac">
</g>
<g id="Wi-Fi">
</g>
<g id="Coffee_1_">
</g>
<g id="Bulb">
</g>
<g id="Cleaner">
</g>
<g id="Zones">
</g>
<g id="Events">
	<g>
		<g>
			<path fill="#34495E" d="M10,1c0-0.55-0.45-1-1-1H7C6.45,0,6,0.45,6,1v4c0,0.55,0.45,1,1,1h2c0.55,0,1-0.45,1-1V1z"/>
		</g>
		<g>
			<path fill="#34495E" d="M18,1c0-0.55,0.45-1,1-1h2c0.55,0,1,0.45,1,1v4c0,0.55-0.45,1-1,1h-2c-0.55,0-1-0.45-1-1V1z"/>
		</g>
		<g>
			<path fill="#34495E" d="M2,3C0.9,3,0,3.9,0,5v24c0,1.1,0.9,2,2,2h24c1.1,0,2-0.9,2-2V5c0-1.1-0.9-2-2-2H2z"/>
		</g>
		<g>
			<g>
				<path fill="#FFFFFF" d="M12,14c0,0.55-0.45,1-1,1H9c-0.55,0-1-0.45-1-1v-2c0-0.55,0.45-1,1-1h2c0.55,0,1,0.45,1,1V14z"/>
			</g>
			<g>
				<path fill="#FFFFFF" d="M20,14c0,0.55-0.45,1-1,1h-2c-0.55,0-1-0.45-1-1v-2c0-0.55,0.45-1,1-1h2c0.55,0,1,0.45,1,1V14z"/>
			</g>
			<g>
				<path fill="#FFFFFF" d="M20,22c0,0.55-0.45,1-1,1h-2c-0.55,0-1-0.45-1-1v-2c0-0.55,0.45-1,1-1h2c0.55,0,1,0.45,1,1V22z"/>
			</g>
			<g>
				<path fill="#FFFFFF" d="M12,22c0,0.55-0.45,1-1,1H9c-0.55,0-1-0.45-1-1v-2c0-0.55,0.45-1,1-1h2c0.55,0,1,0.45,1,1V22z"/>
			</g>
		</g>
	</g>
</g>
<g id="Interviews">
</g>
<g id="Help">
</g>
<g id="Layer_10">
</g>
</svg>
