<?xml version="1.0" encoding="utf-8"?>
<!-- Generator: Adobe Illustrator 17.0.2, SVG Export Plug-In . SVG Version: 6.00 Build 0)  -->
<!DOCTYPE svg PUBLIC "-//W3C//DTD SVG 1.1//EN" "http://www.w3.org/Graphics/SVG/1.1/DTD/svg11.dtd">
<svg version="1.1" xmlns="http://www.w3.org/2000/svg" xmlns:xlink="http://www.w3.org/1999/xlink" x="0px" y="0px" width="30px"
	 height="30px" viewBox="0 0 30 30" enable-background="new 0 0 30 30" xml:space="preserve">
<g id="iMac">
	<g>
		<path fill="#34495E" d="M24.883,28.409C24.725,28.184,24.371,28,24.096,28H5.904c-0.275,0-0.629,0.184-0.787,0.409l-0.83,1.182
			C4.129,29.816,4.225,30,4.5,30h21c0.275,0,0.371-0.184,0.213-0.409L24.883,28.409z"/>
	</g>
	<path fill="#34495E" d="M15,0"/>
	<path fill="#34495E" d="M20.932,25.762C20.628,25.53,19.286,25.452,19,25c-0.246-0.389-0.513-1.782-0.709-3L18,20h-2h-1h-0.987h-2
		l-0.291,2c-0.197,1.218-0.464,2.611-0.709,3c-0.286,0.452-1.628,0.53-1.932,0.762C8.924,25.837,9.013,26,9.2,26
		c0.031,0,4.839,0,4.839,0h0.723H15h0.251h0.723c0,0,4.808,0,4.839,0C21,26,21.089,25.837,20.932,25.762z"/>
	<path fill="#34495E" d="M28,0H2C0.895,0,0,0.895,0,2v18c0,1.105,0.895,2,2,2h26c1.105,0,2-0.895,2-2V2C30,0.895,29.105,0,28,0z
		 M28,19H2V2h26V19z"/>
</g>
<g id="Wi-Fi">
</g>
<g id="Coffee_1_">
</g>
<g id="Bulb">
</g>
<g id="Cleaner">
</g>
<g id="Zones">
</g>
<g id="Events">
</g>
<g id="Interviews">
</g>
<g id="Help">
</g>
<g id="Layer_10">
</g>
</svg>
