<?xml version="1.0" encoding="utf-8"?>
<!-- Generator: Adobe Illustrator 17.0.2, SVG Export Plug-In . SVG Version: 6.00 Build 0)  -->
<!DOCTYPE svg PUBLIC "-//W3C//DTD SVG 1.1//EN" "http://www.w3.org/Graphics/SVG/1.1/DTD/svg11.dtd">
<svg version="1.1" xmlns="http://www.w3.org/2000/svg" xmlns:xlink="http://www.w3.org/1999/xlink" x="0px" y="0px" width="30px"
	 height="26px" viewBox="0 0 30 26" enable-background="new 0 0 30 26" xml:space="preserve">
<g id="iMac">
</g>
<g id="Wi-Fi">
</g>
<g id="Coffee_1_">
</g>
<g id="Bulb">
</g>
<g id="Cleaner">
</g>
<g id="Zones">
</g>
<g id="Events">
</g>
<g id="Interviews">
	<g>
		<circle fill="#DBDEDF" cx="7.583" cy="4" r="4"/>
		<path fill="#DBDEDF" d="M15,26c-1,0-2.758,0-6.333,0H6.5c-3.575,0-4.333,0-6.5,0v-9.75C0,12.675,2.925,10,6.5,10h2.167
			C12.242,10,15,12.675,15,16.25V26z"/>
		<circle fill="#DBDEDF" cx="23.583" cy="7" r="3"/>
		<path fill="#DBDEDF" d="M30,26c-0.867,0-2.391,0-5.489,0h-1.878c-3.098,0-3.756,0-5.633,0v-8.517C17,14.385,19.535,12,22.633,12
			h1.878C27.609,12,30,14.385,30,17.483V26z"/>
	</g>
</g>
<g id="Print">
</g>
<g id="Help_1_">
</g>
</svg>
