<?xml version="1.0" encoding="utf-8"?>
<!-- Generator: Adobe Illustrator 17.0.2, SVG Export Plug-In . SVG Version: 6.00 Build 0)  -->
<!DOCTYPE svg PUBLIC "-//W3C//DTD SVG 1.1//EN" "http://www.w3.org/Graphics/SVG/1.1/DTD/svg11.dtd">
<svg version="1.1" xmlns="http://www.w3.org/2000/svg" xmlns:xlink="http://www.w3.org/1999/xlink" x="0px" y="0px" width="30px"
	 height="30px" viewBox="0 0 30 30" enable-background="new 0 0 30 30" xml:space="preserve">
<g id="iMac">
</g>
<g id="Wi-Fi">
</g>
<g id="Coffee_1_">
</g>
<g id="Bulb">
</g>
<g id="Cleaner">
</g>
<g id="Zones">
</g>
<g id="Events">
</g>
<g id="Interviews">
</g>
<g id="Print">
</g>
<g id="Help_1_">
	<g>
		<polyline fill="#DBDEDF" points="13,23 5,30 5,19 		"/>
		<g>
			<g>
				<path fill="#DBDEDF" d="M15,0C6.716,0,0,5.82,0,13s6.716,13,15,13s15-5.82,15-13S23.284,0,15,0z M8,15c-1.105,0-2-0.895-2-2
					c0-1.105,0.895-2,2-2s2,0.895,2,2C10,14.105,9.105,15,8,15z M15,15c-1.105,0-2-0.895-2-2c0-1.105,0.895-2,2-2s2,0.895,2,2
					C17,14.105,16.105,15,15,15z M22,15c-1.105,0-2-0.895-2-2c0-1.105,0.895-2,2-2s2,0.895,2,2C24,14.105,23.105,15,22,15z"/>
			</g>
		</g>
	</g>
</g>
</svg>
