<?xml version="1.0" encoding="utf-8"?>
<!-- Generator: Adobe Illustrator 17.0.2, SVG Export Plug-In . SVG Version: 6.00 Build 0)  -->
<!DOCTYPE svg PUBLIC "-//W3C//DTD SVG 1.1//EN" "http://www.w3.org/Graphics/SVG/1.1/DTD/svg11.dtd">
<svg version="1.1" xmlns="http://www.w3.org/2000/svg" xmlns:xlink="http://www.w3.org/1999/xlink" x="0px" y="0px" width="30px"
	 height="28px" viewBox="0 0 30 28" enable-background="new 0 0 30 28" xml:space="preserve">
<g id="iMac">
</g>
<g id="Wi-Fi">
</g>
<g id="Coffee_1_">
</g>
<g id="Bulb">
</g>
<g id="Cleaner">
</g>
<g id="Zones">
</g>
<g id="Events">
</g>
<g id="Interviews">
</g>
<g id="Print">
	<g>
		<path fill="#DBDEDF" d="M28,4h-4v4v2h-2H8H6V8V4H2C0.9,4,0,4.9,0,6v15c0,1.1,0.9,2,2,2h4v-4v-2h2h14h2v2v4h4c1.1,0,2-0.9,2-2V6
			C30,4.9,29.1,4,28,4z"/>
		<path fill="#DBDEDF" d="M22,1c0-0.55-0.45-1-1-1H9C8.45,0,8,0.45,8,1v6c0,0.55,0.45,1,1,1h12c0.55,0,1-0.45,1-1V1z"/>
		<path fill="#DBDEDF" d="M21,19H9c-0.55,0-1,0.45-1,1v7c0,0.55,0.45,1,1,1h12c0.55,0,1-0.45,1-1v-7C22,19.45,21.55,19,21,19z
			 M20,25.8c0,0.11-0.09,0.2-0.2,0.2h-9.6c-0.11,0-0.2-0.09-0.2-0.2v-0.6c0-0.11,0.09-0.2,0.2-0.2h9.6c0.11,0,0.2,0.09,0.2,0.2V25.8
			z M20,23.8c0,0.11-0.09,0.2-0.2,0.2h-9.6c-0.11,0-0.2-0.09-0.2-0.2v-0.6c0-0.11,0.09-0.2,0.2-0.2h9.6c0.11,0,0.2,0.09,0.2,0.2
			V23.8z M20,21.8c0,0.11-0.09,0.2-0.2,0.2h-9.6c-0.11,0-0.2-0.09-0.2-0.2v-0.6c0-0.11,0.09-0.2,0.2-0.2h9.6
			c0.11,0,0.2,0.09,0.2,0.2V21.8z"/>
	</g>
</g>
<g id="Help_1_">
</g>
</svg>
