<?xml version="1.0" encoding="utf-8"?>
<!-- Generator: Adobe Illustrator 17.0.2, SVG Export Plug-In . SVG Version: 6.00 Build 0)  -->
<!DOCTYPE svg PUBLIC "-//W3C//DTD SVG 1.1//EN" "http://www.w3.org/Graphics/SVG/1.1/DTD/svg11.dtd">
<svg version="1.1" xmlns="http://www.w3.org/2000/svg" xmlns:xlink="http://www.w3.org/1999/xlink" x="0px" y="0px"
	 width="160.018px" height="159.959px" viewBox="0 0 160.018 159.959" enable-background="new 0 0 160.018 159.959"
	 xml:space="preserve">
<g id="Layer_1">
	<g id="Coffee_1_">
		<circle fill="#F1C40F" cx="80" cy="80" r="80"/>
		<g id="Coffee">
			<path fill="#FFFFFF" d="M116,70h-3h-5.964C95.977,70,77,70,77,70s-27.101,0-36,0c0,5.189-1.458,57,36,57
				c18.395,0,27.401-12.608,31.808-26H116c8.697,0,16-6.303,16-15v-1C132,76.303,124.697,70,116,70z M127,86c0,5.701-4.729,10-11,10
				h-5.754c2.025-8.135,2.614-16.012,2.754-21h3c6.271,0,11,4.299,11,10V86z"/>
		</g>
		<g id="Lines">
			<path id="_x31__1_" fill="#FFFFFF" d="M96.296,57.689c-0.018-0.011-1.835-1.145-2.054-2.885c-0.216-1.716,1.245-3.503,2.508-4.7
				c2.927-2.773,4.354-5.704,4.243-8.711c-0.149-4.039-3.04-6.536-3.369-6.808c-1.034-0.853-2.614-0.762-3.529,0.203
				c-0.915,0.966-0.817,2.44,0.217,3.294c0.016,0.013,1.607,1.415,1.683,3.473c0.062,1.675-0.883,3.45-2.809,5.274
				c-2.954,2.799-4.27,5.665-3.912,8.518c0.494,3.928,3.971,6.066,4.366,6.296C94.055,61.885,94.514,62,94.967,62
				c0.833,0,1.647-0.388,2.121-1.096C97.821,59.812,97.467,58.372,96.296,57.689z"/>
			<path id="_x32__1_" fill="#FFFFFF" d="M79.751,50.104c2.927-2.773,4.354-5.704,4.243-8.711c-0.149-4.039-3.04-6.536-3.369-6.808
				c-1.034-0.853-2.614-0.762-3.529,0.203c-0.915,0.966-0.817,2.44,0.217,3.293c0.016,0.013,1.607,1.415,1.683,3.473
				c0.062,1.675-0.883,3.45-2.809,5.275c-2.954,2.799-4.27,5.665-3.912,8.518c0.494,3.928,3.971,6.066,4.366,6.296
				C77.055,61.884,77.514,62,77.967,62c0.833,0,1.647-0.388,2.121-1.096c0.733-1.092,0.378-2.532-0.792-3.216
				c-0.018-0.011-1.835-1.145-2.054-2.885C77.027,53.088,78.488,51.3,79.751,50.104z"/>
			<path id="_x33__1_" fill="#FFFFFF" d="M62.751,50.104c2.927-2.773,4.354-5.704,4.243-8.711c-0.149-4.039-3.04-6.536-3.369-6.808
				c-1.034-0.853-2.614-0.762-3.529,0.203c-0.915,0.966-0.817,2.44,0.217,3.294c0.016,0.013,1.607,1.415,1.683,3.473
				c0.062,1.675-0.883,3.45-2.809,5.274c-2.954,2.799-4.27,5.665-3.912,8.518c0.494,3.928,3.971,6.066,4.366,6.296
				C60.055,61.885,60.514,62,60.967,62c0.833,0,1.647-0.388,2.121-1.096c0.733-1.092,0.378-2.532-0.792-3.216
				c-0.018-0.011-1.835-1.145-2.054-2.885C60.027,53.088,61.488,51.301,62.751,50.104z"/>
		</g>
	</g>
</g>
<g id="Layer_2">
</g>
</svg>
