<?xml version="1.0" encoding="utf-8"?>
<!-- Generator: Adobe Illustrator 17.0.2, SVG Export Plug-In . SVG Version: 6.00 Build 0)  -->
<!DOCTYPE svg PUBLIC "-//W3C//DTD SVG 1.1//EN" "http://www.w3.org/Graphics/SVG/1.1/DTD/svg11.dtd">
<svg version="1.1" xmlns="http://www.w3.org/2000/svg" xmlns:xlink="http://www.w3.org/1999/xlink" x="0px" y="0px"
	 width="160.018px" height="159.959px" viewBox="0 0 160.018 159.959" enable-background="new 0 0 160.018 159.959"
	 xml:space="preserve">
<g id="Layer_1">
	<g id="Price">
		<path fill="#3498DB" d="M125.278,14.057L96.552,59.945c-0.584,0.932-1.824,1.218-2.756,0.634s-1.218-1.824-0.634-2.756
			l28.763-45.947C84.54-11.131,35.535,0.279,12.202,37.552c-23.444,37.45-12.09,86.814,25.36,110.258
			c37.45,23.444,86.814,12.09,110.258-25.36C170.663,85.961,160.458,38.171,125.278,14.057z"/>
		<path fill="#FFFFFF" d="M93.795,60.579c0.932,0.584,2.173,0.298,2.756-0.634l28.726-45.888c-0.926-0.635-1.858-1.264-2.818-1.865
			c-0.177-0.111-0.358-0.207-0.535-0.317L93.161,57.822C92.578,58.755,92.863,59.995,93.795,60.579z"/>
		<path fill="#FFFFFF" d="M111.583,79.732l-6.668-28.925c-0.371-1.613-1.362-2.923-2.663-3.738
			c-1.301-0.814-2.912-1.133-4.526-0.762l-28.931,6.639c-1.552,0.356-2.899,1.314-3.744,2.664l-24.95,39.856
			c-1.758,2.809-0.907,6.511,1.902,8.269l35.6,22.286c2.809,1.758,6.511,0.907,8.269-1.902l24.95-39.856
			C111.667,82.914,111.941,81.284,111.583,79.732z M94.823,58.937c2.341,1.465,3.05,4.551,1.585,6.891
			c-1.465,2.341-4.551,3.05-6.891,1.585s-3.05-4.551-1.585-6.891S92.483,57.471,94.823,58.937z M77.408,103.312
			c-0.75,0.465-1.555,0.746-2.415,0.844c-0.86,0.098-1.77,0.027-2.731-0.211c-0.961-0.239-1.932-0.613-2.914-1.124L68,104.976
			l-2.742-1.717l1.383-2.21c-1.341-1.073-2.359-2.307-3.053-3.702c-0.695-1.395-1.025-2.925-0.988-4.59l3.824,0.486
			c0.102,1.206,0.382,2.283,0.84,3.231c0.457,0.948,1.344,1.834,2.663,2.66c0.595,0.372,1.177,0.673,1.746,0.899
			c0.568,0.226,1.098,0.349,1.588,0.371c0.49,0.021,0.948-0.074,1.377-0.286c0.428-0.212,0.795-0.56,1.098-1.045
			c0.268-0.429,0.407-0.828,0.417-1.199c0.009-0.37-0.063-0.727-0.218-1.071c-0.155-0.344-0.373-0.694-0.652-1.051
			c-0.28-0.356-0.57-0.745-0.868-1.166c-0.361-0.511-0.687-0.949-0.977-1.312c-0.29-0.363-0.568-0.712-0.832-1.047
			c-0.265-0.334-0.542-0.683-0.832-1.046c-0.291-0.364-0.622-0.792-0.994-1.284c-0.434-0.583-0.795-1.153-1.083-1.709
			c-0.288-0.557-0.472-1.126-0.551-1.708c-0.08-0.582-0.05-1.186,0.091-1.812c0.14-0.626,0.432-1.293,0.876-2.002
			c0.502-0.802,1.097-1.409,1.784-1.823c0.688-0.413,1.425-0.658,2.214-0.736c0.788-0.078,1.609-0.018,2.463,0.179
			c0.853,0.197,1.697,0.479,2.533,0.846l0.998-1.594l2.742,1.717l-0.963,1.538c1.11,0.825,2.001,1.766,2.672,2.822
			c0.671,1.056,1.159,2.238,1.465,3.545l-3.632,0.413c-0.172-0.575-0.362-1.076-0.567-1.504c-0.207-0.427-0.441-0.821-0.704-1.18
			c-0.263-0.359-0.58-0.694-0.948-1.002c-0.369-0.309-0.819-0.63-1.35-0.962c-0.489-0.306-0.97-0.555-1.441-0.747
			c-0.472-0.191-0.925-0.307-1.36-0.345c-0.435-0.039-0.835,0.022-1.201,0.182c-0.367,0.16-0.678,0.445-0.935,0.855
			c-0.292,0.466-0.451,0.886-0.477,1.259c-0.027,0.373,0.037,0.731,0.193,1.074c0.155,0.344,0.369,0.698,0.643,1.064
			c0.274,0.366,0.571,0.766,0.891,1.201c0.339,0.498,0.657,0.924,0.953,1.278c0.296,0.355,0.579,0.694,0.85,1.019
			c0.27,0.324,0.547,0.674,0.832,1.046c0.284,0.373,0.606,0.815,0.967,1.326c0.813,1.158,1.319,2.325,1.516,3.499
			c0.197,1.174-0.09,2.377-0.86,3.607C78.818,102.158,78.158,102.847,77.408,103.312z"/>
	</g>
</g>
<g id="Layer_2">
</g>
</svg>
