<?xml version="1.0" encoding="utf-8"?>
<!-- Generator: Adobe Illustrator 17.0.2, SVG Export Plug-In . SVG Version: 6.00 Build 0)  -->
<!DOCTYPE svg PUBLIC "-//W3C//DTD SVG 1.1//EN" "http://www.w3.org/Graphics/SVG/1.1/DTD/svg11.dtd">
<svg version="1.1" xmlns="http://www.w3.org/2000/svg" xmlns:xlink="http://www.w3.org/1999/xlink" x="0px" y="0px" width="160px"
	 height="160px" viewBox="0 0 160 160" enable-background="new 0 0 160 160" xml:space="preserve">
<g id="Layer_1">
	<g id="Parking">
		<circle fill="#E74C3C" cx="80" cy="80" r="80"/>
		<g>
			<path fill="none" stroke="#FFFFFF" stroke-width="5" stroke-miterlimit="10" d="M112.798,74.092
				c0-14.026-11.475-25.501-25.501-25.501h-13.61c-14.026,0-25.501,11.475-25.501,25.501v0.407C48.186,88.525,59.662,100,73.687,100
				h13.61c14.026,0,25.501-11.475,25.501-25.501V74.092z"/>
		</g>
		<path fill="#FFFFFF" d="M51.314,68c-6.528,0-16.284,8.179-16.284,14.605v10.711c0,6.426,5.8,11.684,12.328,11.684h66.268
			c6.528,0,11.404-5.258,11.404-11.684V82.605c0-6.426-8.832-14.605-15.36-14.605H51.314z"/>
		<g>
			<path fill="#FFFFFF" d="M119.03,111.604c0,1.323-1.073,2.396-2.396,2.396h-8.207c-1.323,0-2.396-1.073-2.396-2.396v-10.207
				c0-1.323,1.073-2.396,2.396-2.396h8.207c1.323,0,2.396,1.073,2.396,2.396V111.604z"/>
		</g>
		<path fill="#E74C3C" d="M110.507,77.069c0.121,0.018,0.282,0.256,0.349,0.336c0.271,0.322,0.503,0.681,0.682,1.06
			c0.656,1.39,0.608,3.111,0.139,4.546c-0.431,1.318-1.237,2.507-2.299,3.402c-0.639,0.539-1.372,0.992-2.174,1.247
			c-1.248,0.397-2.606,0.369-3.899,0.293c-1.328-0.079-2.659-0.242-3.95-0.569c-1.17-0.297-2.33-0.72-3.372-1.331
			c-0.726-0.426-1.333-0.957-1.815-1.645c-0.02-0.028-0.145-0.17-0.137-0.199C95.267,79.697,106.545,76.482,110.507,77.069z"/>
		<path fill="#E74C3C" d="M49.553,77.069c-0.121,0.018-0.282,0.256-0.349,0.336c-0.271,0.322-0.503,0.681-0.682,1.06
			c-0.656,1.39-0.608,3.111-0.139,4.546c0.431,1.318,1.237,2.507,2.299,3.402c0.639,0.539,1.372,0.992,2.174,1.247
			c1.248,0.397,2.606,0.369,3.899,0.293c1.328-0.079,2.659-0.242,3.95-0.569c1.17-0.297,2.33-0.72,3.372-1.331
			c0.726-0.426,1.333-0.957,1.815-1.645c0.02-0.028,0.145-0.17,0.137-0.199C64.793,79.697,53.515,76.482,49.553,77.069z"/>
		<g>
			<g>
				<path fill="#E74C3C" d="M90.03,91.57c0,0.787-0.644,1.43-1.43,1.43H71.46c-0.787,0-1.43-0.644-1.43-1.43v-0.14
					c0-0.787,0.644-1.43,1.43-1.43H88.6c0.787,0,1.43,0.644,1.43,1.43V91.57z"/>
			</g>
			<g>
				<path fill="#E74C3C" d="M90.03,97.521c0,0.797-0.652,1.448-1.448,1.448H71.478c-0.797,0-1.448-0.652-1.448-1.448v-0.072
					c0-0.797,0.652-1.448,1.448-1.448h17.103c0.797,0,1.448,0.652,1.448,1.448V97.521z"/>
			</g>
		</g>
		<g>
			<path fill="#FFFFFF" d="M54.03,111.604c0,1.323-1.073,2.396-2.396,2.396h-8.207c-1.323,0-2.396-1.073-2.396-2.396v-10.207
				c0-1.323,1.073-2.396,2.396-2.396h8.207c1.323,0,2.396,1.073,2.396,2.396V111.604z"/>
		</g>
	</g>
</g>
<g id="Layer_2">
</g>
</svg>
