<?xml version="1.0" encoding="UTF-8" standalone="no"?>
<svg width="20px" height="380px" viewBox="0 0 20 380" version="1.1" xmlns="http://www.w3.org/2000/svg" xmlns:xlink="http://www.w3.org/1999/xlink" xmlns:sketch="http://www.bohemiancoding.com/sketch/ns">
    <!-- Generator: Sketch 3.3.2 (12043) - http://www.bohemiancoding.com/sketch -->
    <title>icons-white-20</title>
    <desc>Created with Sketch.</desc>
    <defs></defs>
    <g id="Graphics-&amp;-Guides" stroke="none" stroke-width="1" fill="none" fill-rule="evenodd" sketch:type="MSPage">
        <g id="icons-white-20" sketch:type="MSArtboardGroup">
            <g id="ic-soldier-white-20" sketch:type="MSLayerGroup">
                <rect id="shape" sketch:type="MSShapeGroup" x="0" y="0" width="20" height="20"></rect>
                <path d="M10.9481203,2.95319377 L10.4984962,3.13212121 L10.4203008,3.31104864 L10.4789474,3.56949939 L10.4593985,3.68878435 L10.4203008,3.88759261 L10.8112782,3.88759261 C10.8634088,3.79481496 10.9220548,3.70203869 10.987218,3.60926104 C11.026316,3.55624524 11.0719296,3.50323023 11.1240602,3.45021443 L11.8278195,3.45021443 L11.8278195,3.31104864 L12.218797,3.31104864 L12.218797,3.58938021 L12.9616541,3.58938021 L12.9616541,3.728546 L13.7827068,3.728546 L13.7827068,3.60926104 L13.9195489,3.60926104 L13.9195489,3.45021443 L13.9195489,3.37069112 L14.0368421,3.37069112 L14.0368421,3.45021443 L14.1736842,3.45021443 L14.1736842,3.86771178 L14.8383459,3.86771178 L14.8383459,3.60926104 L15.0142857,3.60926104 L15.0142857,3.90747344 L15.6984962,3.90747344 L15.6984962,3.58938021 L15.9917293,3.58938021 L15.9917293,4.26532831 L16.5,4.26532831 L16.5,4.68282566 L14.4864662,4.68282566 C14.4864662,4.73584147 14.4799499,4.78885647 14.4669173,4.84187228 C14.440852,4.94790388 14.382206,5.02742639 14.2909774,5.08044219 C14.2388469,5.10695009 14.1867171,5.13014416 14.1345865,5.15002508 C14.0824559,5.16990601 14.0368423,5.1864732 13.9977444,5.19972715 C13.9456138,5.2129811 13.9000002,5.21960798 13.8609023,5.21960798 C13.834837,5.32563958 13.8478694,5.47805773 13.9,5.67686698 C13.9521306,5.87567624 14.0238091,6.06785564 14.1150376,6.25341095 C14.2062661,6.47872811 14.3235582,6.71729564 14.4669173,6.9691207 L14.056391,7.16792896 C13.834836,6.8100723 13.6817047,6.48866882 13.5969925,6.20370888 C13.5122803,5.91874895 13.4568924,5.72325611 13.4308271,5.6172245 C13.4177944,5.5377008 13.3982457,5.5111933 13.3721805,5.5377012 C13.3591478,5.55095515 13.3395991,5.57746265 13.3135338,5.6172245 L13.137594,5.93531773 C13.0854634,5.94857168 13.0333336,5.96182543 12.981203,5.97507938 C12.9290724,5.98833333 12.8736845,5.99827364 12.8150376,6.00490062 C12.7563907,6.01152759 12.6879703,6.01484103 12.6097744,6.01484103 C12.5315786,6.02809498 12.485965,6.02809498 12.4729323,6.01484103 C12.4598997,6.00158708 12.440351,5.99827364 12.4142857,6.00490062 C12.3882204,6.01152759 12.3426068,6.04466197 12.2774436,6.10430475 C12.2122804,6.16394753 12.1015045,6.27329098 11.9451128,6.43233839 C11.9320801,6.44559234 11.9060152,6.45884609 11.8669173,6.47210004 C11.8278194,6.48535399 11.8017545,6.49860774 11.7887218,6.51186169 C11.671428,6.6178933 11.528071,6.71729643 11.3586466,6.81007409 C11.2804507,6.86308989 11.1957398,6.90947802 11.1045113,6.94923987 L10.0293233,6.86971657 C10.0293233,6.94924027 10.0228071,7.01550903 10.0097744,7.06852483 C9.98370914,7.20106434 9.94461179,7.26733309 9.8924812,7.26733309 C9.85338326,7.26733309 9.82731836,7.29715404 9.81428571,7.35679681 C9.80125307,7.41643959 9.79147873,7.48602179 9.78496241,7.56554549 C9.77844608,7.64506919 9.77192986,7.7245917 9.76541353,7.80411541 C9.75889721,7.88363911 9.74912287,7.94990787 9.73609023,8.00292367 C9.71002493,8.05593947 9.68070192,8.08244698 9.6481203,8.08244698 C9.61553868,8.08244698 9.58621567,8.10895448 9.56015038,8.16197028 C9.53408508,8.18847818 9.52105263,8.21829912 9.52105263,8.251434 C9.52105263,8.28456888 9.51453641,8.31438982 9.50150376,8.34089772 C9.48847111,8.38065957 9.48195489,8.41379395 9.48195489,8.44030185 L9.46240602,9.25541573 C9.55363454,9.18914598 9.66441038,9.20239973 9.79473684,9.29517738 C9.92506331,9.38795504 10.0488716,9.50061193 10.1661654,9.63315143 C10.3095245,9.77894489 10.4528815,9.96449741 10.5962406,10.1898146 C10.7005018,10.2958462 10.7917289,10.4151299 10.8699248,10.5476694 C10.9481207,10.680209 11.0132829,10.8061196 11.0654135,10.9254051 C11.1175441,11.0711986 11.1631577,11.2169899 11.2022556,11.3627833 L11.0067669,11.7007574 L12.062406,13.0327727 C12.101504,13.1785662 12.1471175,13.3574918 12.1992481,13.5695551 C12.2513787,13.7816183 12.3035085,14.0036186 12.3556391,14.2355627 C12.4077697,14.4675069 12.4501252,14.6994475 12.4827068,14.9313917 C12.5152884,15.1633358 12.5315789,15.3787093 12.5315789,15.5775185 C12.5315789,15.6172804 12.5120303,15.6636685 12.4729323,15.7166843 C12.4338344,15.7697001 12.3882208,15.8194017 12.3360902,15.8657905 C12.2839596,15.9121793 12.2416042,15.9618809 12.2090226,16.0148967 C12.1764409,16.0679125 12.1601504,16.1143006 12.1601504,16.1540625 C12.1601504,16.273348 12.1731828,16.3594974 12.1992481,16.4125132 C12.2253134,16.465529 12.2513783,16.5649322 12.2774436,16.7107256 C12.3686721,16.8300112 12.4989966,16.9360412 12.6684211,17.0288188 C12.7466169,17.0818346 12.8248116,17.1282228 12.9030075,17.1679846 C13.0724319,17.340286 13.1962402,17.499331 13.2744361,17.6451245 C13.352632,17.7909179 13.4015037,17.920142 13.4210526,18.0328006 C13.4406016,18.1454592 13.4308273,18.2382354 13.3917293,18.3111321 C13.3526314,18.3840289 13.3005016,18.4337304 13.2353383,18.4602383 C13.1701751,18.4867462 13.0919804,18.5 13.0007519,18.5 L12.7270677,18.5 C12.6228065,18.5 12.5120307,18.4933731 12.3947368,18.4801192 C12.2383451,18.4801192 12.0786976,18.4171639 11.9157895,18.2912513 C11.7528814,18.1653388 11.6062663,18.0294878 11.4759398,17.8836944 C11.4629072,17.8704404 11.456391,17.8306792 11.456391,17.7644094 C11.456391,17.7379015 11.4629072,17.711394 11.4759398,17.6848861 C11.4238093,17.6848861 11.3781957,17.6782592 11.3390977,17.6650053 C11.2478692,17.6384974 11.2022556,17.6252436 11.2022556,17.6252436 C11.2543862,17.2806409 11.2674187,17.0056256 11.2413534,16.8001893 C11.2152881,16.5947531 11.182707,16.4323947 11.143609,16.3131091 C11.1305764,16.2600933 11.1110277,16.2070783 11.0849624,16.1540625 C11.0719298,16.1275546 11.0588973,16.107674 11.0458647,16.09442 C11.0197994,16.0546582 10.9774439,16.0248372 10.918797,16.0049563 C10.8601501,15.9850754 10.8177946,15.9486275 10.7917293,15.8956117 C10.7265661,15.7100564 10.6646619,15.494683 10.606015,15.2494849 C10.5473681,15.0042868 10.4984964,14.7690327 10.4593985,14.5437155 C10.4072679,14.2786365 10.3616543,14.0069346 10.3225564,13.7286017 L8.17218045,11.28326 C7.9897234,11.7073864 7.82030153,12.1182527 7.66390977,12.5158713 C7.52055066,12.860474 7.38045181,13.208385 7.24360902,13.5596146 C7.10676623,13.9108443 7.00576474,14.1924866 6.9406015,14.4045498 C6.79724239,14.8419301 6.67343411,15.1500799 6.56917293,15.3290082 C6.46491176,15.5079365 6.36065215,15.6504144 6.25639098,15.756446 C6.23032568,15.7829539 6.1586472,15.8359689 6.04135338,15.9154926 C5.92405956,15.9950163 5.79047694,16.0745388 5.6406015,16.1540625 C5.49072607,16.2335862 5.34411099,16.2965415 5.20075188,16.3429303 C5.05739277,16.3893192 4.94661693,16.3793789 4.86842105,16.3131091 C4.85538841,16.326363 4.85538841,16.3628109 4.86842105,16.4224536 C4.8814537,16.4820964 4.90100238,16.5516786 4.92706767,16.6312023 C4.95313296,16.710726 4.97593975,16.793562 4.99548872,16.8797126 C5.01503769,16.9658633 5.02481203,17.0486993 5.02481203,17.128223 C5.02481203,17.1547309 5.04761882,17.1746115 5.09323308,17.1878655 C5.13884735,17.2011194 5.18446092,17.2143732 5.23007519,17.2276271 C5.27568945,17.2408811 5.3147868,17.2640751 5.34736842,17.29721 C5.37995004,17.3303449 5.38972438,17.3734196 5.37669173,17.4264354 C5.35062644,17.4927051 5.29523852,17.5357798 5.21052632,17.5556607 C5.12581411,17.5755417 5.03132884,17.585482 4.92706767,17.585482 C4.80977385,17.585482 4.67944934,17.5788551 4.53609023,17.5656012 C4.30150259,17.5390933 4.1255645,17.4396901 4.00827068,17.2673888 C3.89097686,17.0950874 3.81929838,16.9095349 3.79323308,16.7107256 C3.78020044,16.604694 3.76065176,16.5450521 3.73458647,16.5317982 C3.70852117,16.5185442 3.68245627,16.5251711 3.65639098,16.551679 C3.63032568,16.5781869 3.60751889,16.6080079 3.58796992,16.6411427 C3.56842095,16.6742776 3.55864662,16.677591 3.55864662,16.6510831 C3.53258132,16.5715594 3.51629076,16.4986638 3.50977444,16.4323941 C3.50325811,16.3661243 3.5,16.3131093 3.5,16.2733474 C3.5,16.2203316 3.50651623,16.1805704 3.51954887,16.1540625 C3.58471211,15.9950151 3.67919738,15.8392835 3.80300752,15.6868631 C3.92681766,15.5344426 4.07994896,15.3654573 4.26240602,15.179902 C4.28847131,15.166648 4.29172942,15.1070062 4.27218045,15.0009746 C4.25263148,14.894943 4.25588959,14.8353011 4.28195489,14.8220471 C4.38621606,14.7160155 4.49047567,14.6132989 4.59473684,14.5138943 C4.69899802,14.4144897 4.79022517,14.3316537 4.86842105,14.265384 C4.95964958,14.1858603 5.04436051,14.1129646 5.12255639,14.0466949 C5.18771962,13.741854 5.27568867,13.3508684 5.38646617,12.8737261 C5.49724366,12.3965839 5.61779383,11.9327026 5.7481203,11.4820683 C5.89147941,10.9519103 6.04786883,10.4018796 6.21729323,9.8319597 C6.17819529,9.69942019 6.15213039,9.54368861 6.13909774,9.36476028 C6.1260651,9.18583195 6.12280698,9.00359286 6.12932331,8.81803755 C6.13583963,8.63248224 6.1521302,8.45024316 6.17819549,8.27131483 C6.20426078,8.09238649 6.23684191,7.93002804 6.27593985,7.78423458 C6.31503779,7.65169507 6.34761892,7.45620224 6.37368421,7.1977502 C6.3997495,6.93929817 6.42581441,6.67753657 6.4518797,6.41245756 C6.47794499,6.14737855 6.49749367,5.8988707 6.51052632,5.66692657 C6.52355896,5.43498244 6.53007519,5.2659971 6.53007519,5.1599655 C6.54310783,4.85512464 6.63759311,4.58673616 6.81353383,4.35479203 C6.98947456,4.12284789 7.15563832,3.92072818 7.31203008,3.74842682 C7.37719331,3.68215707 7.44235556,3.66227644 7.5075188,3.68878435 C7.57268203,3.71529225 7.63784429,3.71529225 7.70300752,3.68878435 C7.74210546,3.66227644 7.81378394,3.63576894 7.91804511,3.60926104 C8.02230629,3.58275314 8.08746854,3.56287251 8.11353383,3.54961856 C8.12656648,3.54961856 8.13308271,3.54299168 8.13308271,3.52973773 C8.13308271,3.51648378 8.12005026,3.50323003 8.09398496,3.48997608 L8.01578947,3.45021443 L7.9962406,2.3766498 C8.04837119,2.17784055 8.12656589,2.01879553 8.23082707,1.89950997 C8.33508824,1.78022442 8.4523803,1.69076159 8.58270677,1.63111881 C8.71303323,1.57147604 8.85313208,1.53502822 9.00300752,1.52177427 C9.15288295,1.50852032 9.29949803,1.50189344 9.44285714,1.50189344 C9.71654272,1.48863949 9.93809439,1.54496794 10.1075188,1.67088047 C10.2769432,1.796793 10.4137839,1.93927083 10.5180451,2.09831823 C10.6353389,2.28387354 10.7135336,2.49593357 10.7526316,2.73450468 L10.9481203,2.95319377 Z M10.6353383,5.45817789 C10.7005016,5.45817789 10.7558895,5.42173008 10.8015038,5.34883335 C10.847118,5.27593662 10.9090222,5.22623505 10.987218,5.19972715 C11.0523813,5.1864732 11.1273179,5.16327913 11.2120301,5.13014426 C11.2967423,5.09700938 11.4107762,5.04730781 11.5541353,4.98103806 C11.6714292,4.92802226 11.7691725,4.8617535 11.8473684,4.7822298 C11.8864664,4.74246794 11.9125313,4.70933357 11.9255639,4.68282566 C11.7300742,4.68282566 11.5541361,4.67619879 11.3977444,4.66294484 C11.2543852,4.66294484 11.1175445,4.6596314 10.987218,4.65300442 C10.8568916,4.64637745 10.7591482,4.65631776 10.693985,4.68282566 C10.6288217,4.70933357 10.5636595,4.73915451 10.4984962,4.77228938 C10.433333,4.80542426 10.374687,4.8352452 10.3225564,4.8617531 C10.2573932,4.90151495 10.1987471,4.94127621 10.1466165,4.98103806 C10.1205512,5.02079991 10.1010026,5.07050148 10.0879699,5.13014426 C10.0749373,5.18978704 10.0619048,5.25274236 10.0488722,5.31901211 C10.0358395,5.38528186 10.0228071,5.45155062 10.0097744,5.51782037 C10.1140356,5.51782037 10.2052628,5.5111935 10.2834586,5.49793955 C10.3486219,5.4846856 10.4170422,5.47805872 10.4887218,5.47805872 C10.5604014,5.47805872 10.6092731,5.47143184 10.6353383,5.45817789 L10.6353383,5.45817789 Z" id="-" fill="#FFFFFF" sketch:type="MSShapeGroup"></path>
            </g>
            <g id="ic-flag-white-20" sketch:type="MSLayerGroup" transform="translate(0.000000, 20.000000)">
                <rect id="shape" sketch:type="MSShapeGroup" x="0" y="0" width="20" height="20"></rect>
                <path d="M4,2 L6,2 L6,18 L4,18 L4,2 Z M7,2 L17.0810661,6.12407251 C17.5885793,6.33169153 17.5822191,6.67091036 17.0810661,6.87592749 L7,11 L7,2 Z" id="Rectangle-81" fill="#FFFFFF" sketch:type="MSShapeGroup"></path>
            </g>
            <g id="ic-gun-white-20" sketch:type="MSLayerGroup" transform="translate(0.000000, 40.000000)">
                <rect id="shape" sketch:type="MSShapeGroup" x="0" y="0" width="20" height="20"></rect>
                <path d="M7.99184217,8.3999092 L7.99184217,8.95141052 C7.99184217,9.34933145 8.35829404,9.67197485 8.76513931,9.67197485 L10.6256013,9.72465132 C11.0324465,9.72447336 11.4183673,9.36250057 11.4183673,8.96440168 C11.4183673,8.96440168 11.4664027,8.66702875 11.3370346,8.38193514 C11.2819031,8.41984084 11.2506073,8.4908473 11.2506073,8.52092272 L11.2506073,8.54210009 C11.2853602,8.55455736 11.3095598,8.58392094 11.3095598,8.61826742 C11.3095598,8.65688497 11.2789919,8.68927388 11.2375067,8.6983499 C11.1729137,9.12207518 10.889614,9.53512279 10.5662848,9.66823767 C10.5147923,9.68905911 10.4764004,9.62570497 10.5058767,9.57872325 L10.5186133,9.557012 C10.4902288,9.55985938 10.4571135,9.56074919 10.4227245,9.557012 C10.3182839,9.5456225 10.3641359,9.38545754 10.3641359,9.38545754 L10.6477994,8.55615901 C10.6068602,8.2678621 10.4975069,8.02014031 10.3404821,7.85552633 L8.72856691,7.67952284 C8.32172164,7.67952284 7.99184217,8.00198828 7.99184217,8.3999092 L7.99184217,8.3999092 L7.99184217,8.3999092 Z M1.62060153,4.37265046 L1.90772221,4.05178667 L2.02599119,4.05143075 L2.20430441,4.37247249 C4.94614315,4.37994686 13.4342165,4.36428629 16.4995664,4.37247249 L16.6542258,4 L16.9246069,4 L17.0934586,4.37247249 L17.6016512,4.37247249 C17.8254525,4.37247249 17.8611152,4.55132336 17.8611152,4.55132336 L17.8532912,5.96718154 L17.8081671,6.04850974 L17.793247,6.44963397 L17.8156271,6.49394627 C17.8156271,6.49394627 17.9631904,6.53647896 17.9617348,6.78437872 C17.9606431,6.97657666 17.793247,6.99383888 17.793247,6.99383888 C17.793247,6.99383888 17.6631511,6.99063558 17.1460428,7.13674161 C16.5468739,7.3063385 16.4484378,7.92083803 16.6047348,8.81811769 C16.7006236,9.36659367 16.859104,9.78088702 17.209908,10.4133606 C17.1595072,10.4233264 17.1242085,10.4455716 17.1242085,10.4713759 C17.1242085,10.5067902 17.1891655,10.5352639 17.2695884,10.5352639 L17.3229004,10.6130329 C17.2745011,10.6237106 17.2415677,10.6452439 17.2415677,10.6703364 C17.2415677,10.7053947 17.3065247,10.7340464 17.3865837,10.7340464 L17.4391679,10.8119934 C17.3914964,10.8224931 17.3589269,10.8442043 17.3589269,10.8689409 C17.3589269,10.9041772 17.42352,10.932651 17.5039429,10.932651 L17.5636232,11.0216315 C17.5210464,11.0317753 17.4917521,11.0508171 17.4917521,11.0732402 C17.4917521,11.1054512 17.5532519,11.1314335 17.6289441,11.1314335 L17.6868049,11.2257528 C17.6480491,11.2364305 17.6222119,11.2545825 17.6222119,11.275404 C17.6222119,11.3067251 17.6797088,11.3321736 17.7526716,11.3343091 L17.8234511,11.4501617 C17.7832396,11.4604835 17.7563107,11.4789914 17.7563107,11.5003468 C17.7563107,11.5320238 17.815991,11.5578282 17.8902275,11.5592519 L17.9386268,11.6375547 C17.9180662,11.6594439 17.8995071,11.6733249 17.8995071,11.6893414 C17.8995071,11.7135441 17.9424478,11.7336537 17.9993989,11.7377468 L18.075091,11.8642771 C18.0494358,11.8731752 18.033242,11.8863443 18.033242,11.901293 C18.033242,11.924072 18.0719979,11.9434698 18.124946,11.9488086 L18.1946337,12.070534 C18.1751648,12.0790761 18.1633379,12.0908216 18.1633379,12.1038127 C18.1633379,12.1242782 18.1946337,12.1418964 18.23903,12.1490148 L18.3087178,12.2759011 C18.288885,12.2846211 18.2766942,12.2961886 18.2766942,12.3090018 C18.2766942,12.3294673 18.307626,12.3470855 18.3512946,12.3543819 L18.4157057,12.4768191 C18.3975105,12.4855392 18.3865933,12.4967507 18.3865933,12.50903 C18.3865933,12.5282498 18.4142501,12.5449782 18.4548254,12.5531644 L18.5205102,12.6850335 C18.5055901,12.6933977 18.4966745,12.7033635 18.4966745,12.7143971 C18.4966745,12.7320152 18.5201463,12.7476758 18.5548992,12.75604 L18.6138517,12.8818585 C18.6031165,12.8891549 18.5971121,12.897697 18.5971121,12.906595 C18.5971121,12.9220777 18.6145795,12.9357807 18.6422363,12.9446787 C18.6671637,13.0009144 18.6902717,13.0543027 18.7115601,13.1050216 C18.7041,13.1112503 18.6999151,13.1183687 18.6999151,13.1258431 C18.6999151,13.1388342 18.7130157,13.1511135 18.7343041,13.1600116 C18.7541369,13.208417 18.7719682,13.2546869 18.7883439,13.2977534 C18.7790644,13.3048719 18.7737878,13.3127022 18.7737878,13.3212443 C18.7737878,13.3349473 18.7876161,13.3472266 18.8099963,13.3563026 C18.8285554,13.4070215 18.8443852,13.4540033 18.8583956,13.4970698 C18.8431116,13.505256 18.8341959,13.5155778 18.8341959,13.5267893 C18.8341959,13.5422719 18.8520272,13.5559749 18.879684,13.565051 C18.8946041,13.6145241 18.9066129,13.6581246 18.9158925,13.6954964 C18.8998807,13.7038606 18.8906011,13.7141823 18.8906011,13.7257498 C18.8906011,13.7399867 18.9066129,13.7531558 18.9319043,13.7622318 C18.94828,13.8396449 18.9510093,13.8768387 18.9510093,13.8768387 L18.9208052,13.9209731 L18.9510093,14.0023013 L18.9812133,14.1377296 C18.9812133,14.1377296 19.0565416,14.5021939 18.9055212,14.7926263 C18.7548647,15.0832367 18.2437608,15.2704518 18.2437608,15.2704518 L17.6949928,15.2777482 L17.6871688,15.3147641 C17.6871688,15.3147641 17.9288014,15.5313427 17.9391727,15.767675 C17.949544,16.0036513 17.5488851,15.9992023 17.5488851,15.9992023 C17.5488851,15.9992023 15.3789223,16.0064987 14.7699281,15.9769572 C14.1609338,15.9474156 14.22116,15.5977222 14.22116,15.5977222 L14.1682119,15.2086993 C14.1682119,15.2086993 13.908748,15.0832367 13.8110396,15.0020865 C13.7126035,14.9209363 13.6802159,14.7557884 13.664932,14.6130636 C13.649648,14.469805 13.649648,14.2560737 13.649648,14.1599748 C13.649648,14.0642317 13.4840714,13.6527858 13.35998,13.3623533 C13.2366163,13.0719209 13.0557558,12.998245 12.9498595,12.938984 C12.8443272,12.8799009 12.86416,12.810852 12.86416,12.810852 C12.86416,12.810852 13.1008799,12.5497831 12.8716201,12.0748051 C12.7451632,11.8121345 12.639267,11.6393343 12.4462157,11.5526673 C12.2326037,11.4567463 12.2955592,11.380223 12.2955592,11.380223 C12.2955592,11.380223 12.5368279,11.1045614 12.2098597,10.4201231 C12.0133512,10.009567 11.7919153,9.89086695 11.5477354,9.87591822 C11.3031915,9.86132541 11.0138874,10.0335917 10.862867,10.1001492 C10.7122105,10.1665286 10.1834572,10.1592322 10.0322549,10.1592322 C9.88141648,10.1592322 7.3440921,10.0485404 7.3440921,10.0485404 L7.25366182,9.92023052 L7.31406997,9.77270081 C7.31406997,9.77270081 7.47346016,9.49472563 7.4725504,8.87168397 C7.47218649,8.65777478 7.48765244,8.21429582 7.37429617,7.9854379 C7.26112186,7.75675794 6.80296605,7.58894066 6.80296605,7.58894066 C6.80296605,7.58894066 2.32548462,7.43464842 1.84458477,7.40510689 C1.36386688,7.37556535 1.35913612,7.09990367 1.35913612,7.09990367 C1.35913612,7.09990367 1.27325465,6.62207823 1.25815261,6.4718791 C1.24305057,6.32167997 1.28835669,6.33164578 1.28835669,6.33164578 L1.27325465,6.27985912 L1.24305057,6.23572477 L1.14825344,6.21347964 L1.13733631,5.83922754 L1.10713223,5.8169824 L1.06928616,5.72088343 C1.06928616,5.72088343 1.01633805,5.51160123 1.00123601,5.23593955 C0.986133971,4.96027787 1.11441032,4.7435213 1.11441032,4.7435213 C1.11441032,4.7435213 1.12951236,4.69191259 1.12951236,4.63265156 C1.12951236,4.57356849 1.17518238,4.6566763 1.17500043,4.52925619 C1.17445457,4.38172647 1.33621014,4.37158269 1.33621014,4.37158269 L1.62060153,4.37265046 L1.62060153,4.37265046 Z" id="Shape-Copy" fill="#FFFFFF" sketch:type="MSShapeGroup" transform="translate(10.000000, 10.000000) scale(-1, 1) translate(-10.000000, -10.000000) "></path>
            </g>
            <g id="ic-head-white-20" sketch:type="MSLayerGroup" transform="translate(0.000000, 60.000000)">
                <rect id="shape" sketch:type="MSShapeGroup" x="0" y="0" width="20" height="20"></rect>
                <path d="M16,7.25643852 C16,2.51227578 11.8039228,2 10,2 C8.1960772,2 4,2.5124762 4,7.25663894 C4,10.1176471 4.61237191,10.7265257 4.94109512,11.053813 C5.47444521,11.5847279 5.48594958,12.0094198 4.98428365,12.8710292 C4.67404287,13.4027458 4.61520085,13.8769416 4.80681461,14.2421084 C5.03011253,14.6686041 5.50405482,14.7930654 5.75205884,14.6980659 C5.92632175,14.6309249 6.14584774,14.5964526 6.30558873,14.5964526 C6.90683347,14.5964526 7.24385491,15.0622307 7.47884579,15.5644854 L7.47884579,17.3235795 C7.47884579,17.6751177 7.71911737,18 8.04972654,18 C8.40183567,18 8.6696423,17.7152019 8.6696423,17.3636637 C8.6696423,17.7152019 8.93782611,18 9.26843528,18 C9.62054441,18 9.88853964,17.7152019 9.88853964,17.3636637 C9.88853964,17.7152019 10.1563463,18 10.4869554,18 C10.8390646,18 11.107437,17.7152019 11.107437,17.3636637 C11.107437,17.7152019 11.3752436,18 11.7058528,18 C12.0579619,18 12.4183693,17.6751177 12.4183693,17.3235795 L12.4183693,15.7007716 C12.5358647,15.2776831 12.8704344,14.5962521 13.6325517,14.5962521 C13.7981392,14.5962521 13.9473188,14.6307245 14.1219589,14.6978655 C14.1740114,14.7183084 14.227007,14.7287303 14.2952788,14.7287303 C14.5802477,14.7287303 14.9602691,14.5425393 15.1469793,14.1869927 C15.3340668,13.8298427 15.2752247,13.3748873 14.9815804,12.8708287 C14.4774628,12.0070147 14.4885899,11.5817216 15.0370277,11.051408 C15.3732948,10.7259244 16,10.1202525 16,7.25643852 L16,7.25643852 Z M6.96718426,10.9046999 C6.33331238,10.9046999 5.81976488,10.358553 5.81976488,9.68513879 C5.81976488,9.0115242 6.33331238,8.46557771 6.96718426,8.46557771 C7.60124474,8.46557771 8.11516942,9.0115242 8.11516942,9.68513879 C8.11516942,10.358553 7.60124474,10.9046999 6.96718426,10.9046999 L6.96718426,10.9046999 L6.96718426,10.9046999 Z M10.8162231,13.9928805 C10.4610786,14.0392309 10.1983026,13.8547637 10.0001184,13.5706806 C9.80193409,13.8547637 9.53893763,14.0392309 9.18357274,13.9928805 C8.4862904,13.9020486 10.0001184,12 10.0001184,12 C10.0001184,12 11.5139463,13.9020486 10.8162231,13.9928805 L10.8162231,13.9928805 L10.8162231,13.9928805 Z M13.0311184,10.9046999 C12.3972465,10.9046999 11.8833218,10.358553 11.8833218,9.68513879 C11.8833218,9.0115242 12.3972465,8.46557771 13.0311184,8.46557771 C13.6648017,8.46557771 14.1785378,9.0115242 14.1785378,9.68513879 C14.1785378,10.358553 13.6649903,10.9046999 13.0311184,10.9046999 L13.0311184,10.9046999 L13.0311184,10.9046999 Z" id="Shape-Copy-2" fill="#FFFFFF" sketch:type="MSShapeGroup"></path>
            </g>
            <g id="ic-star-white-20" sketch:type="MSLayerGroup" transform="translate(0.000000, 80.000000)">
                <rect id="shape" sketch:type="MSShapeGroup" x="0" y="0" width="20" height="20"></rect>
                <path d="M9.68648281,2.95491825 C9.85963357,2.42753146 10.1379156,2.42006655 10.3135172,2.95491825 L12.00651,8.11147679 L17.4996229,8.11147679 C18.0521159,8.11147679 18.1389167,8.37108849 17.6906785,8.69336279 L13.24666,11.8885232 L14.9397962,17.0450818 C15.1129617,17.5724685 14.8922567,17.7403883 14.4440185,17.418114 L10,14.2229536 L5.55598153,17.418114 C5.10900559,17.7394808 4.88458724,17.5799335 5.06020375,17.0450818 L6.75334,11.8885232 L2.30932153,8.69336279 C1.86234559,8.37199602 1.94632387,8.11147679 2.50037714,8.11147679 L7.99349,8.11147679 L9.68648281,2.95491825 Z" id="Shape" fill="#FFFFFF" sketch:type="MSShapeGroup"></path>
            </g>
            <g id="ic-twitter-white-20" sketch:type="MSLayerGroup" transform="translate(0.000000, 100.000000)">
                <rect id="shape" sketch:type="MSShapeGroup" x="0" y="0" width="20" height="20"></rect>
                <path d="M6.66092395,17 C4.57544168,17 2.6342807,16.4149286 1,15.412147 C1.28890596,15.4447875 1.5828816,15.4614858 1.88093932,15.4614858 C3.61108307,15.4614858 5.20342368,14.8964524 6.46728849,13.9485548 C4.85131131,13.9200101 3.48750137,12.8981987 3.01760123,11.4940273 C3.24303742,11.5353005 3.47439921,11.5574179 3.712345,11.5574179 C4.04918249,11.5574179 4.37541973,11.5142543 4.68532865,11.4334723 C2.99587403,11.1088317 1.72298914,9.68033739 1.72298914,7.96790861 C1.72298914,7.95303765 1.72298914,7.93822971 1.7232525,7.92348477 C2.22120048,8.18820045 2.79058488,8.34718109 3.39598376,8.36551774 C2.40509163,7.73173762 1.75307802,6.64993834 1.75307802,5.42377733 C1.75307802,4.77607144 1.93519148,4.16894562 2.25306705,3.64694974 C4.07446505,5.78521726 6.79556677,7.19228727 9.86476462,7.3396736 C9.80182157,7.08100712 9.76909909,6.81125044 9.76909909,6.53424732 C9.76909909,4.5824339 11.4226051,3 13.462131,3 C14.524262,3 15.4840119,3.42924142 16.1576868,4.11614111 C16.9988588,3.95760156 17.7892022,3.66345903 18.5027104,3.25847744 C18.2269725,4.08375267 17.6414573,4.7763865 16.8789641,5.21381955 C17.6259849,5.12837455 18.3377154,4.93839174 19,4.6572928 C18.5048831,5.36605785 17.8787447,5.98855872 17.1572698,6.48686189 C17.1643806,6.63840704 17.1679359,6.79083438 17.1679359,6.94408087 C17.1679359,11.6145073 13.453506,17 6.66092395,17" id="Fill-1" fill="#FFFFFF" sketch:type="MSShapeGroup"></path>
            </g>
            <g id="ic-trophy-white-20" sketch:type="MSLayerGroup" transform="translate(0.000000, 120.000000)">
                <rect id="shape" sketch:type="MSShapeGroup" x="0" y="0" width="20" height="20"></rect>
                <path d="M5,4.56300874 C4.13738639,4.78503014 3.5,5.56808029 3.5,6.5 C3.5,7.43191971 4.13738639,8.21496986 5,8.43699126 L5,4.56300874 L5,4.56300874 Z M5,3.03544443 L5,2.50123084 C5,2.22440869 5.22765279,2 5.50964952,2 L14.4903505,2 C14.7718221,2 15,2.22975063 15,2.50123084 L15,3.03544443 L15,4.56300874 L15,8.43699126 C15.8626136,8.21496986 16.5,7.43191971 16.5,6.5 C16.5,5.56808029 15.8626136,4.78503014 15,4.56300874 L15,3.03544443 C16.6961471,3.27805926 18,4.73676405 18,6.5 C18,8.40516531 16.4777953,9.95480066 14.5832627,9.99902905 L14.5832627,9.99902905 C13.9397467,11.4699643 12.6088094,12.5720504 11,12.8996335 L11,15 L12,15 L12,16 L14,16 L14,18 L6,18 L6,16 L8,16 L8,15 L9,15 L9,12.8999516 L9,12.8999516 C7.38858449,12.5727541 6.05858018,11.4703787 5.4159374,9.99901029 C3.52177632,9.95436447 2,8.40489719 2,6.5 C2,4.73676405 3.30385293,3.27805926 5,3.03544443 L5,3.03544443 L5,3.03544443 Z" id="Rectangle-12-Copy" fill="#FFFFFF" sketch:type="MSShapeGroup"></path>
            </g>
            <g id="ic-clock-white-20" sketch:type="MSLayerGroup" transform="translate(0.000000, 140.000000)">
                <rect id="shape" sketch:type="MSShapeGroup" x="0" y="0" width="20" height="20"></rect>
                <path d="M11,9 L11,5.70219862 C11,5.58678436 10.9108691,5.5 10.8009205,5.5 L9.19907951,5.5 C9.0859375,5.5 9,5.59052741 9,5.70219862 L9,9.74844044 L9,10.8009205 C9,10.9140625 9.08656994,11 9.19335938,11 L13.3066406,11 C13.4060111,11 13.5,10.9108691 13.5,10.8009205 L13.5,9.19907951 C13.5,9.0859375 13.4134301,9 13.3066406,9 L11,9 Z M10,18 C5.581722,18 2,14.418278 2,10 C2,5.581722 5.581722,2 10,2 C14.418278,2 18,5.581722 18,10 C18,14.418278 14.418278,18 10,18 Z M10,16 C13.3137085,16 16,13.3137085 16,10 C16,6.6862915 13.3137085,4 10,4 C6.6862915,4 4,6.6862915 4,10 C4,13.3137085 6.6862915,16 10,16 Z" id="Shape" fill="#FFFFFF" sketch:type="MSShapeGroup"></path>
            </g>
            <g id="ic-aim-white-20" sketch:type="MSLayerGroup" transform="translate(0.000000, 160.000000)">
                <rect id="shape" sketch:type="MSShapeGroup" x="0" y="0" width="20" height="20"></rect>
                <path d="M9,17.9381062 C5.38128266,17.4868586 2.51314142,14.6187173 2.06189375,11 L1,11 L1,9 L2.06189375,9 L2.06189375,9 C2.51314142,5.38128266 5.38128266,2.51314142 9,2.06189375 L9,2.06189375 L9,1 L11,1 L11,2.06189375 C14.6187173,2.51314142 17.4868586,5.38128266 17.9381062,9 L17.9381062,9 L19,9 L19,11 L17.9381062,11 C17.4868586,14.6187173 14.6187173,17.4868586 11,17.9381062 L11,19 L9,19 L9,17.9381062 Z M11,15.9170416 C13.5125049,15.4955231 15.4955231,13.5125049 15.9170416,11 L15.9170416,11 L14,11 L14,9 L15.9170416,9 C15.4955231,6.48749513 13.5125049,4.50447689 11,4.08295844 L11,4.08295844 L11,6 L9,6 L9,4.08295844 C6.48749513,4.50447689 4.50447689,6.48749513 4.08295844,9 L6,9 L6,11 L4.08295844,11 L4.08295844,11 C4.50447689,13.5125049 6.48749513,15.4955231 9,15.9170416 L9,14 L11,14 L11,15.9170416 Z" id="Shape" fill="#FFFFFF" sketch:type="MSShapeGroup"></path>
            </g>
            <g id="ic-bomb-white-20" sketch:type="MSLayerGroup" transform="translate(0.000000, 180.000000)">
                <rect id="shape" sketch:type="MSShapeGroup" x="0" y="0" width="20" height="20"></rect>
                <path d="M3,3.00087166 C3,2.4481055 3.44994876,2 4.00684547,2 L15.9931545,2 C16.5492199,2 17,2.44463086 17,3.00087166 L17,16.9991283 C17,17.5518945 16.5500512,18 15.9931545,18 L4.00684547,18 C3.45078007,18 3,17.5553691 3,16.9991283 L3,3.00087166 Z M5,4 L15,4 L15,9 L5,9 L5,4 Z M6,11 L8,11 L8,13 L6,13 L6,11 Z M9,11 L11,11 L11,13 L9,13 L9,11 Z M12,11 L14,11 L14,13 L12,13 L12,11 Z M6,14 L8,14 L8,16 L6,16 L6,14 Z M9,14 L11,14 L11,16 L9,16 L9,14 Z M12,14 L14,14 L14,16 L12,16 L12,14 Z" id="Rectangle-50" fill="#FFFFFF" sketch:type="MSShapeGroup"></path>
            </g>
            <g id="ic-hostage-white-20" sketch:type="MSLayerGroup" transform="translate(0.000000, 200.000000)">
                <rect id="shape" sketch:type="MSShapeGroup" x="0" y="0" width="20" height="20"></rect>
                <path d="M7.35003806,17.4891877 C7.27859385,16.6699378 6.60500266,8.84412126 6.80094118,7.22411765 C6.82176471,5.20458824 7.71329412,4.86576471 7.71329412,4.86576471 C8.95282353,4.17364706 9.75435294,4.62858824 10.2043529,5.11529412 C10.2784706,5.17564706 10.348,5.24305882 10.4048235,5.32494118 L14.7047059,11.5116471 L12.1787059,11.5116471 L11.0997647,9.95905882 C10.8205882,12.9188235 9.86023529,16.7012941 9.86023529,16.7012941 L9.66879473,17 L14.4999999,17 L14.4999999,19 L9.82722515,19 C9.51943623,19 9.25669978,19 9.02912399,18.9894155 C8.97039013,18.9964046 8.91061489,19 8.8499999,19 C8.02157278,19 7.3499999,18.3284271 7.3499999,17.5 C7.3499999,17.4963929 7.35001264,17.4927888 7.35003806,17.4891877 L7.35003806,17.4891877 Z M6.68352941,17.7850229 C6.66623529,17.6002794 6.40929412,14.7128318 6.24058824,12 C5.61023529,14.5392636 5,17.783626 5,17.783626 C5.00247059,18.4056077 5.53964706,19 6.16682353,19 L7.25388235,18.9993015 C6.91364706,18.6972161 6.68529412,18.2596288 6.68352941,17.7850229 Z M6.08993983,4.83752941 C5.0489474,4.83752941 4.20152941,3.99152941 4.20152941,2.95070588 C4.20152941,1.90670588 5.0489474,1.06105882 6.08993983,1.06105882 C7.13658406,1.06105882 7.98152938,1.90635294 7.98152938,2.95070588 C7.98152938,3.99152941 7.13623082,4.83752941 6.08993983,4.83752941 Z M15.1882353,12.208 L13.4934118,13.4037647 L13.9095294,14.0027059 L14.4191284,14.7564087 L16.0799999,13.5399933 C16.0799999,13.5399933 15.6988394,12.9424231 15.6131765,12.8192941 L15.1882353,12.208 Z M12.5577647,12.0576471 L13.1821176,12.9555294 L14.4548235,12.0576471 L12.5577647,12.0576471 Z" id="Shape" fill="#FFFFFF" sketch:type="MSShapeGroup"></path>
            </g>
            <g id="ic-symbol-white-20" sketch:type="MSLayerGroup" transform="translate(0.000000, 220.000000)">
                <rect id="shape" sketch:type="MSShapeGroup" x="0" y="0" width="20" height="20"></rect>
                <path d="M8.47619048,11.5238095 L11.5238095,11.5238095 L11.5238095,8.47619048 L8.47619048,8.47619048 L8.47619048,11.5238095 Z M8.47619048,13.047619 L8.47619048,14.7979408 C8.47619048,15.6765381 8.15873333,16.4298553 7.52380952,17.0579151 C6.88888571,17.6859748 6.12527259,18 5.23294723,18 C4.34062188,18 3.57872474,17.6842588 2.94723295,17.0527671 C2.31574116,16.4212753 2,15.6559462 2,14.7567568 C2,13.8781595 2.31574116,13.1196943 2.94723295,12.4813385 C3.57872474,11.8429827 4.33032597,11.5238095 5.2020592,11.5238095 L6.95238095,11.5238095 L6.95238095,8.47619048 L5.2020592,8.47619048 C4.33032597,8.47619048 3.57872474,8.15701735 2.94723295,7.51866152 C2.31574116,6.88030569 2,6.11840855 2,5.23294723 C2,4.34062188 2.31574116,3.57872474 2.94723295,2.94723295 C3.57872474,2.31574116 4.34062188,2 5.23294723,2 C6.12527259,2 6.88888571,2.31402517 7.52380952,2.94208494 C8.15873333,3.57014471 8.47619048,4.32346193 8.47619048,5.2020592 L8.47619048,6.95238095 L11.5238095,6.95238095 L11.5238095,5.2020592 C11.5238095,4.32346193 11.8412667,3.57014471 12.4761905,2.94208494 C13.1111143,2.31402517 13.8747274,2 14.7670528,2 C15.6662422,2 16.4298553,2.31574116 17.0579151,2.94723295 C17.6859748,3.57872474 18,4.34062188 18,5.23294723 C18,6.11840855 17.6859748,6.88030569 17.0579151,7.51866152 C16.4298553,8.15701735 15.6765381,8.47619048 14.7979408,8.47619048 L13.047619,8.47619048 L13.047619,11.5238095 L14.7979408,11.5238095 C15.6765381,11.5238095 16.4298553,11.8429827 17.0579151,12.4813385 C17.6859748,13.1196943 18,13.8781595 18,14.7567568 C18,15.6559462 17.6859748,16.4212753 17.0579151,17.0527671 C16.4298553,17.6842588 15.6662422,18 14.7670528,18 C13.8747274,18 13.1111143,17.6859748 12.4761905,17.0579151 C11.8412667,16.4298553 11.5238095,15.6765381 11.5238095,14.7979408 L11.5238095,13.047619 L8.47619048,13.047619 Z M6.95238095,6.95238095 L6.95238095,5.23294723 C6.95238095,4.75932839 6.78421447,4.35607202 6.44787645,4.02316602 C6.11153843,3.69026003 5.70656607,3.52380952 5.23294723,3.52380952 C4.76619243,3.52380952 4.36465205,3.69026003 4.02831403,4.02316602 C3.69197601,4.35607202 3.52380952,4.75932839 3.52380952,5.23294723 C3.52380952,5.70656607 3.69197601,6.11153843 4.02831403,6.44787645 C4.36465205,6.78421447 4.7696244,6.95238095 5.24324324,6.95238095 L6.95238095,6.95238095 Z M6.95238095,13.047619 L5.24324324,13.047619 C4.7696244,13.047619 4.36465205,13.2157855 4.02831403,13.5521236 C3.69197601,13.8884616 3.52380952,14.290002 3.52380952,14.7567568 C3.52380952,15.2303756 3.69197601,15.635348 4.02831403,15.971686 C4.36465205,16.308024 4.7696244,16.4761905 5.24324324,16.4761905 C5.70999804,16.4761905 6.11153843,16.308024 6.44787645,15.971686 C6.78421447,15.635348 6.95238095,15.2338076 6.95238095,14.7670528 L6.95238095,13.047619 Z M13.047619,6.95238095 L14.7670528,6.95238095 C15.2338076,6.95238095 15.635348,6.78421447 15.971686,6.44787645 C16.308024,6.11153843 16.4761905,5.70656607 16.4761905,5.23294723 C16.4761905,4.75932839 16.30974,4.35607202 15.976834,4.02316602 C15.643928,3.69026003 15.2406716,3.52380952 14.7670528,3.52380952 C14.2934339,3.52380952 13.8884616,3.69026003 13.5521236,4.02316602 C13.2157855,4.35607202 13.047619,4.75932839 13.047619,5.23294723 L13.047619,6.95238095 Z M13.047619,13.047619 L13.047619,14.7670528 C13.047619,15.2338076 13.2157855,15.635348 13.5521236,15.971686 C13.8884616,16.308024 14.2934339,16.4761905 14.7670528,16.4761905 C15.2406716,16.4761905 15.643928,16.308024 15.976834,15.971686 C16.30974,15.635348 16.4761905,15.2303756 16.4761905,14.7567568 C16.4761905,14.290002 16.308024,13.8884616 15.971686,13.5521236 C15.635348,13.2157855 15.2338076,13.047619 14.7670528,13.047619 L13.047619,13.047619 Z" id="⌘" fill="#FFFFFF" sketch:type="MSShapeGroup"></path>
            </g>
            <g id="ic-question-white-20" sketch:type="MSLayerGroup" transform="translate(0.000000, 240.000000)">
                <rect id="shape" sketch:type="MSShapeGroup" x="0" y="0" width="20" height="20"></rect>
                <path d="M5,6.34285714 L7.25306122,6.34285714 C7.35102041,4.90612245 8.31972789,4.00272109 9.82176871,4.00272109 C11.3129252,4.00272109 12.2816327,4.90612245 12.2816327,6.13605442 C12.2816327,7.25714286 11.8136054,7.88843537 10.4965986,8.6829932 C9.00544218,9.5755102 8.3414966,10.555102 8.39591837,12.0897959 L8.40680272,12.9605442 L10.6598639,12.9605442 L10.6598639,12.2965986 C10.6598639,11.1755102 11.062585,10.5986395 12.4666667,9.77142857 C13.9034014,8.91156463 14.752381,7.72517007 14.752381,6.03809524 C14.752381,3.70884354 12.814966,2 9.9414966,2 C6.78503401,2 5.09795918,3.87210884 5,6.34285714 L5,6.34285714 L5,6.34285714 Z M9.54965986,18 C10.3659864,18 10.9863946,17.3904762 10.9863946,16.5959184 C10.9863946,15.8013605 10.3659864,15.1918367 9.54965986,15.1918367 C8.75510204,15.1918367 8.12380952,15.8013605 8.12380952,16.5959184 C8.12380952,17.3904762 8.75510204,18 9.54965986,18 L9.54965986,18 L9.54965986,18 Z" id="?" fill="#FFFFFF" sketch:type="MSShapeGroup"></path>
            </g>
            <g id="ic-add-white-20" sketch:type="MSLayerGroup" transform="translate(0.000000, 260.000000)">
                <rect id="shape" sketch:type="MSShapeGroup" x="0" y="0" width="20" height="20"></rect>
                <path d="M11,9 L11,2 L9,2 L9,9 L2,9 L2,11 L9,11 L9,18 L11,18 L11,11 L18,11 L18,9 L11,9 Z" id="Rectangle-59" fill="#FFFFFF" sketch:type="MSShapeGroup"></path>
            </g>
            <g id="ic-steam-white-20" sketch:type="MSLayerGroup" transform="translate(0.000000, 280.000000)">
                <rect id="shape" sketch:type="MSShapeGroup" x="0" y="0" width="20" height="20"></rect>
                <path d="M6.74878125,15.0626562 C7.17290625,15.0626562 7.5891875,14.8574375 7.84209375,14.4780312 C8.2441875,13.874875 8.0811875,13.06 7.4780625,12.6579062 L6.44565625,11.9697187 C6.62234375,11.9215937 6.8080625,11.8953437 7,11.8953437 C8.162375,11.8953437 9.104625,12.8375937 9.104625,14.0000625 C9.104625,15.1625312 8.16234375,16.1047187 6.99996875,16.1047187 C5.86865625,16.1047187 4.94615625,15.2120937 4.89765625,14.092625 L6.0219375,14.842125 C6.24571875,14.9912812 6.49859375,15.0626562 6.74878125,15.0626562 L6.74878125,15.0626562 Z M16.9953741,2 C17.5502137,2 18,2.44987792 18,3.00485129 L18,4.667 L18,15.3330625 L18,16.9984394 C18,17.5515861 17.5557268,18 17.0056794,18 L15.3334375,18 L4.667,18 C3.95047131,18 2.99759673,17.9999996 2.99759673,17.9999996 C2.44663927,17.9999994 2,17.5535033 2,17.001492 C2,17.001492 2,16.0838251 2,15.3330938 L2,12.1607813 L3.89584375,13.4246563 C3.71378125,14.41175 4.00425,15.468875 4.7676875,16.2323125 C6.0005625,17.4651875 7.99940625,17.4651875 9.2323125,16.2323125 C9.989625,15.4750938 10.2815313,14.4287188 10.1085312,13.4485 L14,9.9643125 C14.7225937,9.8605625 15.419,9.53078125 15.9749063,8.974875 C17.3416562,7.6080625 17.3416562,5.39196875 15.9749063,4.025125 C14.6080312,2.65828125 12.3919688,2.65828125 11.025125,4.025125 C10.4692187,4.58103125 10.139375,5.27740625 10.0356875,6 L6.837375,10.8473438 C6.33975,10.8728438 5.84709375,11.0155313 5.40415625,11.2753125 L2,9.00590625 L2,4.667 L2,2.99177469 C2,2.44403265 2.44930275,2 3.00312201,2 C3.00312201,2 4.04143393,2 4.66696875,2 L15.3334375,2 L16.9953741,2 Z M16,6.5 C16,5.11928125 14.88075,4 13.5,4 C12.11925,4 11,5.11928125 11,6.5 C11,7.88071875 12.11925,9 13.5,9 C14.88075,9 16,7.88071875 16,6.5 L16,6.5 Z M12,6.5 C12,5.6715625 12.6715625,5 13.5,5 C14.3284375,5 15,5.6715625 15,6.5 C15,7.3284375 14.3284375,8 13.5,8 C12.6715625,8 12,7.3284375 12,6.5 L12,6.5 Z" id="Shape-Copy-3" fill="#FFFFFF" sketch:type="MSShapeGroup"></path>
            </g>
            <g id="ic-search-white-20" sketch:type="MSLayerGroup" transform="translate(0.000000, 300.000000)">
                <rect id="shape" sketch:type="MSShapeGroup" x="0" y="0" width="20" height="20"></rect>
                <path d="M12.5353498,13.59601 L16.4696699,17.5303301 L17.5303301,16.4696699 L13.59601,12.5353498 C14.4750413,11.426768 15,10.0246893 15,8.5 C15,4.91014913 12.0898509,2 8.5,2 C4.91014913,2 2,4.91014913 2,8.5 C2,12.0898509 4.91014913,15 8.5,15 C10.0246893,15 11.426768,14.4750413 12.5353498,13.59601 L12.5353498,13.59601 Z M8.5,13.5 C11.2614237,13.5 13.5,11.2614237 13.5,8.5 C13.5,5.73857625 11.2614237,3.5 8.5,3.5 C5.73857625,3.5 3.5,5.73857625 3.5,8.5 C3.5,11.2614237 5.73857625,13.5 8.5,13.5 Z" id="Shape" fill="#FFFFFF" sketch:type="MSShapeGroup"></path>
            </g>
            <g id="ic-prev-white-20" sketch:type="MSLayerGroup" transform="translate(0.000000, 320.000000)">
                <rect id="shape" sketch:type="MSShapeGroup" x="0" y="0" width="20" height="20"></rect>
                <path d="M6,15.5 L13,10 L6,4.5 L6,15.5 L6,15.5 Z" id="prev" fill="#FFFFFF" sketch:type="MSShapeGroup" transform="translate(9.500000, 10.000000) scale(-1, 1) translate(-9.500000, -10.000000) "></path>
            </g>
            <g id="ic-next-white-20" sketch:type="MSLayerGroup" transform="translate(0.000000, 340.000000)">
                <rect id="shape" sketch:type="MSShapeGroup" x="0" y="0" width="20" height="20"></rect>
                <path d="M7,15.5 L14,10 L7,4.5 L7,15.5 L7,15.5 Z" id="prev" fill="#FFFFFF" sketch:type="MSShapeGroup"></path>
            </g>
        </g>
    </g>
</svg>