<?xml version="1.0" encoding="UTF-8" standalone="no"?>
<svg width="289px" height="48px" viewBox="0 0 289 48" version="1.1" xmlns="http://www.w3.org/2000/svg" xmlns:xlink="http://www.w3.org/1999/xlink" xmlns:sketch="http://www.bohemiancoding.com/sketch/ns">
    <!-- Generator: Sketch 3.3.2 (12043) - http://www.bohemiancoding.com/sketch -->
    <title>logo</title>
    <desc>Created with Sketch.</desc>
    <defs></defs>
    <g id="Site" stroke="none" stroke-width="1" fill="none" fill-rule="evenodd" sketch:type="MSPage">
        <g id="1-user" sketch:type="MSArtboardGroup" transform="translate(-575.000000, -90.000000)" fill="#FFFFFF">
            <g id="Logo" sketch:type="MSLayerGroup" transform="translate(562.000000, 90.000000)">
                <path d="M50.632,32.4853334 C50.632,33.4933385 50.4080022,34.3426633 49.96,35.0333334 C49.5119978,35.7240035 48.9053372,36.3026644 48.14,36.7693334 C47.3746628,37.2360024 46.4693386,37.5813323 45.424,37.8053334 C44.3786614,38.0293345 43.2586726,38.1413334 42.064,38.1413334 L21.344,38.1413334 C20.1866609,38.1413334 19.104005,38.0013348 18.096,37.7213334 C17.087995,37.441332 16.2013372,37.0493359 15.436,36.5453334 C14.6706628,36.0413309 14.0733355,35.4440035 13.644,34.7533334 C13.2146645,34.0626633 13,33.2693379 13,32.3733334 L13,15.7973334 C13,14.975996 13.2146645,14.2013371 13.644,13.4733334 C14.0733355,12.7453298 14.6706628,12.1293359 15.436,11.6253334 C16.2013372,11.1213309 17.087995,10.7386681 18.096,10.4773334 C19.104005,10.2159988 20.1866609,10.0853334 21.344,10.0853334 L42.064,10.0853334 C44.6026794,10.0853334 46.6653254,10.5799951 48.252,11.5693334 C49.8386746,12.5586717 50.632,14.0053239 50.632,15.9093334 L50.632,32.4853334 Z M41.28,15.9653334 L22.352,15.9653334 L22.352,32.3733334 L41.28,32.3733334 L41.28,15.9653334 Z M82.888,32.3733334 C82.813333,33.3813385 82.5333358,34.258663 82.048,35.0053334 C81.5626642,35.7520038 80.9373372,36.3493312 80.172,36.7973334 C79.4066628,37.2453357 78.5106718,37.5813323 77.484,37.8053334 C76.4573282,38.0293345 75.3466726,38.1413334 74.152,38.1413334 L62.616,38.1413334 C61.4213274,38.1413334 60.3013386,38.0200013 59.256,37.7773334 C58.2106614,37.5346655 57.2960039,37.1706692 56.512,36.6853334 C55.7279961,36.1999977 55.1120022,35.6026703 54.664,34.8933334 C54.2159978,34.1839965 53.992,33.3253385 53.992,32.3173334 L53.992,10.0853334 L54.832,10.0853334 C57.4453464,10.0853334 59.5173257,10.5893284 61.048,11.5973334 C62.5786743,12.6053385 63.344,14.0613239 63.344,15.9653334 L63.344,32.3733334 L82.888,32.3733334 Z M94.592,38.1413334 C93.4719944,38.1413334 92.408005,38.0013348 91.4,37.7213334 C90.391995,37.441332 89.5053372,37.0493359 88.74,36.5453334 C87.9746628,36.0413309 87.3680022,35.4346703 86.92,34.7253334 C86.4719978,34.0159965 86.248,33.2133379 86.248,32.3173334 L86.248,10.0853334 L95.6,10.0853334 L95.6,38.1413334 L94.592,38.1413334 Z M130.712,38.1413334 L130.712,20.8933334 L119.568,33.4373334 L108.312,20.8933334 L108.312,38.1413334 L98.96,38.1413334 L98.96,10.0853334 L100.752,10.0853334 C101.237336,10.0853334 101.862663,10.0946667 102.628,10.1133334 C103.393337,10.1320002 104.195996,10.2533323 105.036,10.4773334 C105.876004,10.7013345 106.725329,10.9999982 107.584,11.3733334 C108.442671,11.7466686 109.226663,12.306663 109.936,13.0533334 L119.568,23.1333334 L129.088,13.0533334 C129.760003,12.306663 130.525329,11.7466686 131.384,11.3733334 C132.242671,10.9999982 133.101329,10.7013345 133.96,10.4773334 C134.818671,10.2533323 135.639996,10.1320002 136.424,10.1133334 C137.208004,10.0946667 137.842664,10.0853334 138.328,10.0853334 L140.064,10.0853334 L140.064,38.1413334 L130.712,38.1413334 Z M181.056,21.1733334 C181.056,23.15201 180.10401,24.6359951 178.2,25.6253334 C176.29599,26.6146717 173.738683,27.1093334 170.528,27.1093334 L156.528,27.1093334 C156.528,26.5119971 156.630666,25.8493371 156.836,25.1213334 C157.041334,24.3933298 157.358665,23.7493362 157.788,23.1893334 C158.217335,22.6293306 158.786663,22.1533354 159.496,21.7613334 C160.205337,21.3693315 161.045328,21.1733334 162.016,21.1733334 L171.648,21.1733334 L171.648,15.9653334 L152.776,15.9653334 L152.776,31.5893334 C152.776,34.2026798 151.973341,35.9946619 150.368,36.9653334 C149.546663,37.4506692 148.613339,37.7679993 147.568,37.9173334 C146.522661,38.0666675 145.458672,38.1413334 144.376,38.1413334 L143.424,38.1413334 L143.424,10.0853334 L172.488,10.0853334 C175.026679,10.0853334 177.089325,10.5893284 178.676,11.5973334 C180.262675,12.6053385 181.056,14.0613239 181.056,15.9653334 L181.056,21.1733334 Z M205.752,4.09333342 L204.464,4.59733342 L204.24,5.10133342 L204.408,5.82933342 L204.352,6.16533342 L204.24,6.72533342 L205.36,6.72533342 C205.509334,6.46399878 205.677332,6.20266806 205.864,5.94133342 C205.976001,5.79199934 206.106666,5.6426675 206.256,5.49333342 L208.272,5.49333342 L208.272,5.10133342 L209.392,5.10133342 L209.392,5.88533342 L211.52,5.88533342 L211.52,6.27733342 L213.872,6.27733342 L213.872,5.94133342 L214.264,5.94133342 L214.264,5.49333342 L214.264,5.26933342 L214.6,5.26933342 L214.6,5.49333342 L214.992,5.49333342 L214.992,6.66933342 L216.896,6.66933342 L216.896,5.94133342 L217.4,5.94133342 L217.4,6.78133342 L219.36,6.78133342 L219.36,5.88533342 L220.2,5.88533342 L220.2,7.78933342 L221.656,7.78933342 L221.656,8.96533342 L215.888,8.96533342 C215.888,9.1146675 215.869334,9.26399934 215.832,9.41333342 C215.757333,9.71200158 215.589335,9.93599934 215.328,10.0853334 C215.178666,10.1600005 215.029334,10.2253331 214.88,10.2813334 C214.730666,10.3373337 214.600001,10.3839999 214.488,10.4213334 C214.338666,10.4586669 214.208001,10.4773334 214.096,10.4773334 C214.021333,10.7760016 214.058666,11.2053306 214.208,11.7653334 C214.357334,12.3253362 214.562665,12.8666641 214.824,13.3893334 C215.085335,14.0240033 215.421331,14.6959965 215.832,15.4053334 L214.656,15.9653334 C214.02133,14.9573284 213.582668,14.0520041 213.34,13.2493334 C213.097332,12.4466627 212.938667,11.8960016 212.864,11.5973334 C212.826666,11.3733323 212.770667,11.2986664 212.696,11.3733334 C212.658666,11.4106669 212.602667,11.4853329 212.528,11.5973334 L212.024,12.4933334 C211.874666,12.5306669 211.725334,12.5679999 211.576,12.6053334 C211.426666,12.6426669 211.268001,12.6706667 211.1,12.6893334 C210.931999,12.7080002 210.736001,12.7173334 210.512,12.7173334 C210.287999,12.7546669 210.157334,12.7546669 210.12,12.7173334 C210.082666,12.6799999 210.026667,12.6706667 209.952,12.6893334 C209.877333,12.7080002 209.746668,12.8013326 209.56,12.9693334 C209.373332,13.1373343 209.056002,13.4453312 208.608,13.8933334 C208.570666,13.9306669 208.496001,13.9679999 208.384,14.0053334 C208.271999,14.0426669 208.197334,14.0799999 208.16,14.1173334 C207.823998,14.4160016 207.413336,14.6959988 206.928,14.9573334 C206.703999,15.1066675 206.461335,15.2373329 206.2,15.3493334 L203.12,15.1253334 C203.12,15.3493345 203.101334,15.5359993 203.064,15.6853334 C202.989333,16.0586686 202.877334,16.2453334 202.728,16.2453334 C202.615999,16.2453334 202.541334,16.3293326 202.504,16.4973334 C202.466666,16.6653343 202.438667,16.8613323 202.42,17.0853334 C202.401333,17.3093345 202.382667,17.5333323 202.364,17.7573334 C202.345333,17.9813345 202.317334,18.1679993 202.28,18.3173334 C202.205333,18.4666675 202.121334,18.5413334 202.028,18.5413334 C201.934666,18.5413334 201.850667,18.6159993 201.776,18.7653334 C201.701333,18.8400005 201.664,18.9239996 201.664,19.0173334 C201.664,19.1106672 201.645334,19.1946664 201.608,19.2693334 C201.570666,19.381334 201.552,19.4746664 201.552,19.5493334 L201.496,21.8453334 C201.757335,21.6586658 202.074665,21.6959988 202.448,21.9573334 C202.821335,22.2186681 203.175998,22.5359982 203.512,22.9093334 C203.922669,23.3200021 204.333331,23.8426636 204.744,24.4773334 C205.042668,24.7760016 205.303999,25.1119982 205.528,25.4853334 C205.752001,25.8586686 205.938666,26.2133317 206.088,26.5493334 C206.237334,26.9600021 206.367999,27.3706647 206.48,27.7813334 L205.92,28.7333334 L208.944,32.4853334 C209.056001,32.8960021 209.186666,33.3999971 209.336,33.9973334 C209.485334,34.5946697 209.634666,35.2199968 209.784,35.8733334 C209.933334,36.52667 210.054666,37.1799968 210.148,37.8333334 C210.241334,38.48667 210.288,39.0933306 210.288,39.6533334 C210.288,39.765334 210.232001,39.8959993 210.12,40.0453334 C210.007999,40.1946675 209.877334,40.3346661 209.728,40.4653334 C209.578666,40.5960007 209.457334,40.7359993 209.364,40.8853334 C209.270666,41.0346675 209.224,41.1653329 209.224,41.2773334 C209.224,41.6133351 209.261333,41.8559993 209.336,42.0053334 C209.410667,42.1546675 209.485333,42.4346647 209.56,42.8453334 C209.821335,43.1813351 210.194664,43.4799988 210.68,43.7413334 C210.904001,43.8906675 211.127999,44.0213329 211.352,44.1333334 C211.837336,44.6186692 212.191999,45.0666647 212.416,45.4773334 C212.640001,45.8880021 212.78,46.2519985 212.836,46.5693334 C212.892,46.8866683 212.864001,47.1479991 212.752,47.3533334 C212.639999,47.5586678 212.490668,47.6986664 212.304,47.7733334 C212.117332,47.8480005 211.893335,47.8853334 211.632,47.8853334 L210.848,47.8853334 C210.549332,47.8853334 210.232002,47.8666669 209.896,47.8293334 C209.447998,47.8293334 208.990669,47.6520019 208.524,47.2973334 C208.057331,46.942665 207.637335,46.5600021 207.264,46.1493334 C207.226666,46.1119999 207.208,46.000001 207.208,45.8133334 C207.208,45.7386664 207.226666,45.6640005 207.264,45.5893334 C207.114666,45.5893334 206.984001,45.5706669 206.872,45.5333334 C206.610665,45.4586664 206.48,45.4213334 206.48,45.4213334 C206.629334,44.4506619 206.666667,43.676003 206.592,43.0973334 C206.517333,42.5186639 206.424001,42.0613351 206.312,41.7253334 C206.274666,41.5759993 206.218667,41.4266675 206.144,41.2773334 C206.106666,41.2026664 206.069334,41.1466669 206.032,41.1093334 C205.957333,40.9973329 205.836001,40.9133337 205.668,40.8573334 C205.499999,40.8013331 205.378667,40.6986675 205.304,40.5493334 C205.117332,40.0266641 204.940001,39.4200035 204.772,38.7293334 C204.603999,38.0386633 204.464001,37.3760033 204.352,36.7413334 C204.202666,35.994663 204.072001,35.2293373 203.96,34.4453334 L197.8,27.5573334 C197.277331,28.7520061 196.792002,29.9093278 196.344,31.0293334 C195.933331,32.0000049 195.532002,32.9799951 195.14,33.9693334 C194.747998,34.9586717 194.458668,35.7519971 194.272,36.3493334 C193.861331,37.5813396 193.506668,38.4493309 193.208,38.9533334 C192.909332,39.4573359 192.610668,39.8586653 192.312,40.1573334 C192.237333,40.2320005 192.032002,40.3813323 191.696,40.6053334 C191.359998,40.8293345 190.977335,41.0533323 190.548,41.2773334 C190.118665,41.5013345 189.698669,41.6786661 189.288,41.8093334 C188.877331,41.9400007 188.560001,41.912001 188.336,41.7253334 C188.298666,41.7626669 188.298666,41.8653326 188.336,42.0333334 C188.373334,42.2013343 188.429333,42.3973323 188.504,42.6213334 C188.578667,42.8453345 188.644,43.0786655 188.7,43.3213334 C188.756,43.5640013 188.784,43.7973323 188.784,44.0213334 C188.784,44.0960005 188.849333,44.1519999 188.98,44.1893334 C189.110667,44.2266669 189.241333,44.2639999 189.372,44.3013334 C189.502667,44.3386669 189.614666,44.4039996 189.708,44.4973334 C189.801334,44.5906672 189.829334,44.7119993 189.792,44.8613334 C189.717333,45.048001 189.558668,45.1693331 189.316,45.2253334 C189.073332,45.2813337 188.802668,45.3093334 188.504,45.3093334 C188.167998,45.3093334 187.794669,45.2906669 187.384,45.2533334 C186.711997,45.1786664 186.208002,44.8986692 185.872,44.4133334 C185.535998,43.9279977 185.330667,43.4053362 185.256,42.8453334 C185.218666,42.5466653 185.162667,42.3786669 185.088,42.3413334 C185.013333,42.3039999 184.938667,42.3226664 184.864,42.3973334 C184.789333,42.4720005 184.724,42.5559996 184.668,42.6493334 C184.612,42.7426672 184.584,42.7520005 184.584,42.6773334 C184.509333,42.4533323 184.462667,42.248001 184.444,42.0613334 C184.425333,41.8746658 184.416,41.725334 184.416,41.6133334 C184.416,41.4639993 184.434666,41.3520005 184.472,41.2773334 C184.658668,40.8293312 184.929332,40.3906689 185.284,39.9613334 C185.638668,39.5319979 186.077331,39.0560027 186.6,38.5333334 C186.674667,38.4959999 186.684,38.3280016 186.628,38.0293334 C186.572,37.7306653 186.581333,37.5626669 186.656,37.5253334 C186.954668,37.2266653 187.253332,36.9373348 187.552,36.6573334 C187.850668,36.377332 188.111999,36.144001 188.336,35.9573334 C188.597335,35.7333323 188.839999,35.528001 189.064,35.3413334 C189.250668,34.4826625 189.502665,33.3813401 189.82,32.0373334 C190.137335,30.6933267 190.482665,29.3866731 190.856,28.1173334 C191.266669,26.6239926 191.714664,25.0746748 192.2,23.4693334 C192.087999,23.0959982 192.013334,22.6573359 191.976,22.1533334 C191.938666,21.6493309 191.929333,21.1360027 191.948,20.6133334 C191.966667,20.0906641 192.013333,19.5773359 192.088,19.0733334 C192.162667,18.5693309 192.255999,18.1120021 192.368,17.7013334 C192.480001,17.3279982 192.573333,16.7773371 192.648,16.0493334 C192.722667,15.3213298 192.797333,14.5840038 192.872,13.8373334 C192.946667,13.090663 193.002666,12.39067 193.04,11.7373334 C193.077334,11.0839968 193.096,10.6080016 193.096,10.3093334 C193.133334,9.45066246 193.403997,8.69467002 193.908,8.04133342 C194.412003,7.38799682 194.887998,6.81866918 195.336,6.33333342 C195.522668,6.14666582 195.709332,6.09066638 195.896,6.16533342 C196.082668,6.24000046 196.269332,6.24000046 196.456,6.16533342 C196.568001,6.09066638 196.773332,6.01600046 197.072,5.94133342 C197.370668,5.86666638 197.557333,5.81066694 197.632,5.77333342 C197.669334,5.77333342 197.688,5.75466694 197.688,5.71733342 C197.688,5.6799999 197.650667,5.64266694 197.576,5.60533342 L197.352,5.49333342 L197.296,2.46933342 C197.445334,1.90933062 197.669332,1.4613351 197.968,1.12533342 C198.266668,0.789331741 198.602665,0.537334261 198.976,0.369333421 C199.349335,0.201332581 199.750665,0.0986669407 200.18,0.0613334207 C200.609335,0.0239999007 201.029331,0.00533342065 201.44,0.00533342065 C202.224004,-0.0320000993 202.858664,0.126664981 203.344,0.481333421 C203.829336,0.836001861 204.221332,1.23733118 204.52,1.68533342 C204.856002,2.2080027 205.079999,2.80533006 205.192,3.47733342 L205.752,4.09333342 Z M204.856,11.1493334 C205.042668,11.1493334 205.201333,11.0466678 205.332,10.8413334 C205.462667,10.6359991 205.639999,10.4960005 205.864,10.4213334 C206.050668,10.3839999 206.265332,10.3186672 206.508,10.2253334 C206.750668,10.1319996 207.077331,9.99200102 207.488,9.80533342 C207.824002,9.65599934 208.103999,9.46933454 208.328,9.24533342 C208.440001,9.13333286 208.514666,9.04000046 208.552,8.96533342 C207.991997,8.96533342 207.488002,8.94666694 207.04,8.90933342 C206.629331,8.90933342 206.237335,8.90000018 205.864,8.88133342 C205.490665,8.86266666 205.210668,8.89066638 205.024,8.96533342 C204.837332,9.04000046 204.650668,9.12399962 204.464,9.21733342 C204.277332,9.31066722 204.109334,9.39466638 203.96,9.46933342 C203.773332,9.58133398 203.605334,9.69333286 203.456,9.80533342 C203.381333,9.91733398 203.325334,10.0573326 203.288,10.2253334 C203.250666,10.3933343 203.213334,10.5706658 203.176,10.7573334 C203.138666,10.944001 203.101334,11.1306658 203.064,11.3173334 C203.362668,11.3173334 203.623999,11.2986669 203.848,11.2613334 C204.034668,11.2239999 204.230666,11.2053334 204.436,11.2053334 C204.641334,11.2053334 204.781333,11.1866669 204.856,11.1493334 L204.856,11.1493334 Z M260.464,32.3173334 C260.464,33.2133379 260.230669,34.0159965 259.764,34.7253334 C259.297331,35.4346703 258.681337,36.0413309 257.916,36.5453334 C257.150663,37.0493359 256.264005,37.441332 255.256,37.7213334 C254.247995,38.0013348 253.165339,38.1413334 252.008,38.1413334 L233.472,38.1413334 C232.314661,38.1413334 231.222672,38.0013348 230.196,37.7213334 C229.169328,37.441332 228.273337,37.0493359 227.508,36.5453334 C226.742663,36.0413309 226.136002,35.4346703 225.688,34.7253334 C225.239998,34.0159965 225.016,33.2133379 225.016,32.3173334 L225.016,10.0853334 L226.024,10.0853334 C228.488012,10.0853334 230.494659,10.4399965 232.044,11.1493334 C233.593341,11.8586703 234.368,13.1093245 234.368,14.9013334 L234.368,32.3733334 L251.112,32.3733334 L251.112,10.0853334 L260.464,10.0853334 L260.464,32.3173334 Z M301.68,32.3173334 C301.68,34.3333435 300.849342,35.8173287 299.188,36.7693334 C297.526658,37.7213382 295.352013,38.1973334 292.664,38.1973334 L272.728,38.1973334 C271.607994,38.1973334 270.516005,38.0760013 269.452,37.8333334 C268.387995,37.5906655 267.436004,37.2173359 266.596,36.7133334 C265.755996,36.2093309 265.084003,35.6026703 264.58,34.8933334 C264.075997,34.1839965 263.824,33.3440049 263.824,32.3733334 L292.328,32.3733334 L292.328,27.1093334 L272.336,27.1093334 C271.215994,27.1093334 270.142672,26.9880013 269.116,26.7453334 C268.089328,26.5026655 267.184004,26.1293359 266.4,25.6253334 C265.615996,25.1213309 264.990669,24.5053371 264.524,23.7773334 C264.057331,23.0493298 263.824,22.1813385 263.824,21.1733334 L263.824,16.5253334 C263.824,15.4053278 264.057331,14.4346709 264.524,13.6133334 C264.990669,12.791996 265.615996,12.1200027 266.4,11.5973334 C267.184004,11.0746641 268.089328,10.6920013 269.116,10.4493334 C270.142672,10.2066655 271.234661,10.0853334 272.392,10.0853334 L292.776,10.0853334 C295.464013,10.0853334 297.619992,10.5426622 299.244,11.4573334 C300.868008,12.3720047 301.68,13.8746563 301.68,15.9653334 L273.4,15.9653334 L273.4,21.1733334 L292.72,21.1733334 C293.840006,21.1733334 294.941328,21.2759991 296.024,21.4813334 C297.106672,21.6866678 298.058663,22.0133312 298.88,22.4613334 C299.701337,22.9093357 300.373331,23.4973298 300.896,24.2253334 C301.418669,24.9533371 301.68,25.7839954 301.68,26.7173334 L301.68,32.3173334 Z" id="logo" sketch:type="MSShapeGroup"></path>
            </g>
        </g>
    </g>
</svg>