<?xml version="1.0" encoding="UTF-8" standalone="no"?>
<svg width="38px" height="114px" viewBox="0 0 38 114" version="1.1" xmlns="http://www.w3.org/2000/svg" xmlns:xlink="http://www.w3.org/1999/xlink" xmlns:sketch="http://www.bohemiancoding.com/sketch/ns">
    <!-- Generator: Sketch 3.3.2 (12043) - http://www.bohemiancoding.com/sketch -->
    <title>icons-medals</title>
    <desc>Created with Sketch.</desc>
    <defs>
        <linearGradient x1="50%" y1="0%" x2="50%" y2="100%" id="linearGradient-1">
            <stop stop-color="#FFFFFF" stop-opacity="0.4" offset="0%"></stop>
            <stop stop-color="#FFFFFF" stop-opacity="0" offset="100%"></stop>
        </linearGradient>
        <path d="M2.02892358,20 C2.52734787,28.5924965 9.40750352,35.4726521 18,35.9710764 L18,35.9710764 L18,38 L20,38 L20,35.9710764 C28.5924965,35.4726521 35.4726521,28.5924965 35.9710764,20 L38,20 L38,18 L35.9710764,18 L35.9710764,18 C35.4726521,9.40750352 28.5924965,2.52734787 20,2.02892358 L20,2.02892358 L20,0 L18,0 L18,2.02892358 C9.40750352,2.52734787 2.52734787,9.40750352 2.02892358,18 L0,18 L0,20 L2.02892358,20 Z M4.03280455,20 C4.52563544,27.4875082 10.5124918,33.4743646 18,33.9671954 L18,33.9671954 L18,30 L20,30 L20,33.9671954 C27.4875082,33.4743646 33.4743646,27.4875082 33.9671954,20 L30,20 L30,18 L33.9671954,18 L33.9671954,18 C33.4743646,10.5124918 27.4875082,4.52563544 20,4.03280455 L20,4.03280455 L20,8 L18,8 L18,4.03280455 C10.5124918,4.52563544 4.52563544,10.5124918 4.03280455,18 L8,18 L8,20 L4.03280455,20 Z" id="path-2"></path>
        <path d="M2.02892358,20 C2.52734787,28.5924965 9.40750352,35.4726521 18,35.9710764 L18,35.9710764 L18,38 L20,38 L20,35.9710764 C28.5924965,35.4726521 35.4726521,28.5924965 35.9710764,20 L38,20 L38,18 L35.9710764,18 L35.9710764,18 C35.4726521,9.40750352 28.5924965,2.52734787 20,2.02892358 L20,2.02892358 L20,0 L18,0 L18,2.02892358 C9.40750352,2.52734787 2.52734787,9.40750352 2.02892358,18 L0,18 L0,20 L2.02892358,20 Z M4.03280455,20 C4.52563544,27.4875082 10.5124918,33.4743646 18,33.9671954 L18,33.9671954 L18,30 L20,30 L20,33.9671954 C27.4875082,33.4743646 33.4743646,27.4875082 33.9671954,20 L30,20 L30,18 L33.9671954,18 L33.9671954,18 C33.4743646,10.5124918 27.4875082,4.52563544 20,4.03280455 L20,4.03280455 L20,8 L18,8 L18,4.03280455 C10.5124918,4.52563544 4.52563544,10.5124918 4.03280455,18 L8,18 L8,20 L4.03280455,20 Z" id="path-3"></path>
        <path d="M16,14 L18,14 L18,24 L16,24 L16,14 Z M20,14 L22,14 L22,24 L20,24 L20,14 Z" id="path-4"></path>
        <path d="M2.02892358,20 C2.52734787,28.5924965 9.40750352,35.4726521 18,35.9710764 L18,35.9710764 L18,38 L20,38 L20,35.9710764 C28.5924965,35.4726521 35.4726521,28.5924965 35.9710764,20 L38,20 L38,18 L35.9710764,18 L35.9710764,18 C35.4726521,9.40750352 28.5924965,2.52734787 20,2.02892358 L20,2.02892358 L20,0 L18,0 L18,2.02892358 C9.40750352,2.52734787 2.52734787,9.40750352 2.02892358,18 L0,18 L0,20 L2.02892358,20 Z M4.03280455,20 C4.52563544,27.4875082 10.5124918,33.4743646 18,33.9671954 L18,33.9671954 L18,30 L20,30 L20,33.9671954 C27.4875082,33.4743646 33.4743646,27.4875082 33.9671954,20 L30,20 L30,18 L33.9671954,18 L33.9671954,18 C33.4743646,10.5124918 27.4875082,4.52563544 20,4.03280455 L20,4.03280455 L20,8 L18,8 L18,4.03280455 C10.5124918,4.52563544 4.52563544,10.5124918 4.03280455,18 L8,18 L8,20 L4.03280455,20 Z" id="path-5"></path>
        <path d="M14,14 L16,14 L16,24 L14,24 L14,14 Z M18,14 L20,14 L20,24 L18,24 L18,14 Z M22,14 L24,14 L24,24 L22,24 L22,14 Z" id="path-6"></path>
        <rect id="path-7" x="18" y="14" width="2" height="10"></rect>
    </defs>
    <g id="Graphics-&amp;-Guides" stroke="none" stroke-width="1" fill="none" fill-rule="evenodd" sketch:type="MSPage">
        <g id="icons-medals" sketch:type="MSArtboardGroup">
            <g id="ic-gold" sketch:type="MSLayerGroup">
                <g id="Oval-3">
                    <use fill="#C2A037" sketch:type="MSShapeGroup" xlink:href="#path-2"></use>
                    <use fill="url(#linearGradient-1)" xlink:href="#path-2"></use>
                </g>
                <g id="ic-silver" transform="translate(0.000000, 38.000000)">
                    <g id="Oval-3">
                        <use fill="#909090" sketch:type="MSShapeGroup" xlink:href="#path-3"></use>
                        <use fill="url(#linearGradient-1)" xlink:href="#path-3"></use>
                    </g>
                    <g id="Rectangle-230">
                        <use fill="#909090" sketch:type="MSShapeGroup" xlink:href="#path-4"></use>
                        <use fill="url(#linearGradient-1)" xlink:href="#path-4"></use>
                    </g>
                </g>
                <g id="ic-bronze" transform="translate(0.000000, 76.000000)">
                    <g id="Oval-3">
                        <use fill="#AA795D" sketch:type="MSShapeGroup" xlink:href="#path-5"></use>
                        <use fill="url(#linearGradient-1)" xlink:href="#path-5"></use>
                    </g>
                    <g id="Rectangle-230">
                        <use fill="#AA795D" sketch:type="MSShapeGroup" xlink:href="#path-6"></use>
                        <use fill="url(#linearGradient-1)" xlink:href="#path-6"></use>
                    </g>
                </g>
                <g id="Rectangle-230">
                    <use fill="#C2A037" sketch:type="MSShapeGroup" xlink:href="#path-7"></use>
                    <use fill="url(#linearGradient-1)" xlink:href="#path-7"></use>
                </g>
            </g>
        </g>
    </g>
</svg>