<?xml version="1.0" encoding="UTF-8" standalone="no"?>
<svg width="604px" height="121px" viewBox="0 0 604 121" version="1.1" xmlns="http://www.w3.org/2000/svg" xmlns:xlink="http://www.w3.org/1999/xlink" xmlns:sketch="http://www.bohemiancoding.com/sketch/ns">
    <!-- Generator: Sketch 3.3.2 (12043) - http://www.bohemiancoding.com/sketch -->
    <title>pattern</title>
    <desc>Created with Sketch.</desc>
    <defs></defs>
    <g id="Site" stroke="none" stroke-width="1" fill="none" fill-rule="evenodd" sketch:type="MSPage">
        <g id="0-search-guest" sketch:type="MSArtboardGroup" transform="translate(-413.000000, -554.000000)" fill-opacity="0.03" fill="#D8D8D8">
            <g id="Content" sketch:type="MSLayerGroup" transform="translate(170.000000, 296.000000)">
                <g id="Table" transform="translate(0.000000, 64.000000)" sketch:type="MSShapeGroup">
                    <g id="Do-not-see-yourself?" transform="translate(240.000000, 194.000000)">
                        <path d="M112.844361,-22.3172864 L111.495489,-21.7799076 L111.260902,-21.2425287 L111.436842,-20.4663147 L111.378195,-20.1080621 L111.260902,-19.5109745 L112.433835,-19.5109745 C112.590226,-19.7896168 112.766164,-20.0682549 112.961654,-20.3468972 C113.078948,-20.5061214 113.215789,-20.6653431 113.37218,-20.8245673 L115.483459,-20.8245673 L115.483459,-21.2425287 L116.656391,-21.2425287 L116.656391,-20.4066059 L118.884962,-20.4066059 L118.884962,-19.9886446 L121.34812,-19.9886446 L121.34812,-20.3468972 L121.758647,-20.3468972 L121.758647,-20.8245673 L121.758647,-21.0634024 L122.110526,-21.0634024 L122.110526,-20.8245673 L122.521053,-20.8245673 L122.521053,-19.5706832 L124.515038,-19.5706832 L124.515038,-20.3468972 L125.042857,-20.3468972 L125.042857,-19.4512657 L127.095489,-19.4512657 L127.095489,-20.4066059 L127.975188,-20.4066059 L127.975188,-18.3765079 L129.5,-18.3765079 L129.5,-17.1226238 L123.459398,-17.1226238 C123.459398,-16.9633997 123.43985,-16.8041779 123.400752,-16.6449537 C123.322556,-16.3265054 123.146618,-16.0876727 122.872932,-15.9284485 C122.716541,-15.8488365 122.560151,-15.7791769 122.403759,-15.7194679 C122.247368,-15.6597588 122.110527,-15.610002 121.993233,-15.5701959 C121.836841,-15.5303899 121.700001,-15.5104872 121.582707,-15.5104872 C121.504511,-15.1920388 121.543608,-14.7342762 121.7,-14.1371856 C121.856392,-13.5400949 122.071427,-12.962916 122.345113,-12.4056314 C122.618798,-11.7289286 122.970675,-11.0124306 123.400752,-10.2561158 L122.169173,-9.65902816 C121.504508,-10.7337913 121.045114,-11.6990734 120.790977,-12.5549033 C120.536841,-13.4107332 120.370677,-13.9978635 120.292481,-14.3163119 C120.253383,-14.5551481 120.194737,-14.634759 120.116541,-14.5551469 C120.077443,-14.5153409 120.018797,-14.43573 119.940602,-14.3163119 L119.412782,-13.3609716 C119.25639,-13.3211656 119.100001,-13.2813601 118.943609,-13.2415541 C118.787217,-13.201748 118.621054,-13.171894 118.445113,-13.1519909 C118.269172,-13.1320879 118.063911,-13.1221366 117.829323,-13.1221366 C117.594736,-13.0823305 117.457895,-13.0823305 117.418797,-13.1221366 C117.379699,-13.1619426 117.321053,-13.171894 117.242857,-13.1519909 C117.164661,-13.1320879 117.027821,-13.0325743 116.832331,-12.8534471 C116.636841,-12.6743199 116.304514,-12.345925 115.835338,-11.8682525 C115.79624,-11.8284464 115.718046,-11.788641 115.600752,-11.748835 C115.483458,-11.7090289 115.405263,-11.6692235 115.366165,-11.6294174 C115.014284,-11.3109691 114.584213,-11.0124282 114.07594,-10.7337859 C113.841352,-10.5745618 113.587219,-10.4352427 113.313534,-10.3158246 L110.08797,-10.5546596 C110.08797,-10.3158234 110.068421,-10.1167962 110.029323,-9.95757199 C109.951127,-9.55951156 109.833835,-9.36048434 109.677444,-9.36048434 C109.56015,-9.36048434 109.481955,-9.27092208 109.442857,-9.09179489 C109.403759,-8.9126677 109.374436,-8.70368911 109.354887,-8.46485285 C109.335338,-8.2260166 109.31579,-7.98718392 109.296241,-7.74834767 C109.276692,-7.50951141 109.247369,-7.31048418 109.208271,-7.15126001 C109.130075,-6.99203584 109.042106,-6.91242495 108.944361,-6.91242495 C108.846616,-6.91242495 108.758647,-6.83281406 108.680451,-6.67358989 C108.602255,-6.59397781 108.563158,-6.50441555 108.563158,-6.40490045 C108.563158,-6.30538534 108.543609,-6.21582309 108.504511,-6.136211 C108.465413,-6.01679287 108.445865,-5.91727926 108.445865,-5.83766717 L108.387218,-3.38960779 C108.660904,-3.588638 108.993231,-3.54883256 109.384211,-3.27019026 C109.77519,-2.99154796 110.146615,-2.65320167 110.498496,-2.25514125 C110.928574,-1.81727478 111.358644,-1.25999854 111.788722,-0.583295814 C112.101505,-0.264847473 112.375187,0.0934015375 112.609774,0.491461964 C112.844362,0.889522391 113.039849,1.26767412 113.196241,1.62592851 C113.352632,2.06379498 113.489473,2.50165488 113.606767,2.93952135 L113.020301,3.95457036 L116.187218,7.95505765 C116.304512,8.39292412 116.441353,8.93029763 116.597744,9.56719431 C116.754136,10.204091 116.910526,10.8708322 117.066917,11.567438 C117.223309,12.2640437 117.350375,12.960639 117.44812,13.6572447 C117.545865,14.3538505 117.594737,15.000689 117.594737,15.5977796 C117.594737,15.7171978 117.536091,15.8565168 117.418797,16.015741 C117.301503,16.1749652 117.164662,16.3242356 117.008271,16.4635567 C116.851879,16.6028779 116.724813,16.7521483 116.627068,16.9113725 C116.529323,17.0705966 116.480451,17.2099157 116.480451,17.3293338 C116.480451,17.6875882 116.519548,17.9463236 116.597744,18.1055478 C116.67594,18.2647719 116.754135,18.5633128 116.832331,19.0011793 C117.106016,19.3594336 117.49699,19.6778772 118.005263,19.9565195 C118.239851,20.1157437 118.474435,20.2550627 118.709023,20.3744809 C119.217296,20.8919594 119.588721,21.3696248 119.823308,21.8074912 C120.057896,22.2453577 120.204511,22.6334608 120.263158,22.9718122 C120.321805,23.3101635 120.292482,23.5888016 120.175188,23.8077349 C120.057894,24.0266681 119.901505,24.1759385 119.706015,24.2555506 C119.510525,24.3351627 119.275941,24.3749681 119.002256,24.3749681 L118.181203,24.3749681 C117.868419,24.3749681 117.536092,24.3550654 117.184211,24.3152594 C116.715035,24.3152594 116.236093,24.1261835 115.747368,23.7480261 C115.258644,23.3698687 114.818799,22.9618629 114.42782,22.5239964 C114.388722,22.4841904 114.369173,22.364774 114.369173,22.1657438 C114.369173,22.0861317 114.388722,22.0065208 114.42782,21.9269088 C114.271428,21.9269088 114.134587,21.907006 114.017293,21.8672 C113.743608,21.7875879 113.606767,21.7477825 113.606767,21.7477825 C113.763159,20.7128254 113.802256,19.8868624 113.72406,19.2698687 C113.645864,18.652875 113.548121,18.1652583 113.430827,17.8070039 C113.391729,17.6477798 113.333083,17.488558 113.254887,17.3293338 C113.215789,17.2497217 113.176692,17.1900136 113.137594,17.1502075 C113.059398,17.0307894 112.932332,16.9412271 112.756391,16.8815181 C112.58045,16.821809 112.453384,16.712344 112.375188,16.5531199 C112.179698,15.9958353 111.993986,15.3489968 111.818045,14.612585 C111.642104,13.8761732 111.495489,13.1696265 111.378195,12.4929238 C111.221804,11.696803 111.084963,10.8807913 110.967669,10.0448644 L104.516541,2.70068629 C103.96917,3.97447965 103.460905,5.20844846 102.991729,6.40262974 C102.561652,7.43758685 102.141355,8.4824798 101.730827,9.53733993 C101.320299,10.5922001 101.017294,11.4380658 100.821805,12.0749625 C100.391727,13.3885619 100.020302,14.3140385 99.7075188,14.8514201 C99.3947353,15.3888016 99.0819565,15.8167102 98.7691729,16.1351585 C98.6909771,16.2147706 98.4759416,16.3739924 98.1240602,16.6128286 C97.7721787,16.8516649 97.3714308,17.0904976 96.9218045,17.3293338 C96.4721782,17.5681701 96.032333,17.7572459 95.6022556,17.8965671 C95.1721783,18.0358882 94.8398508,18.0060342 94.6052632,17.8070039 C94.5661652,17.84681 94.5661652,17.956275 94.6052632,18.1354022 C94.6443611,18.3145293 94.7030071,18.5235079 94.781203,18.7623442 C94.8593989,19.0011804 94.9278193,19.2499645 94.9864662,19.5087038 C95.0451131,19.767443 95.0744361,20.0162271 95.0744361,20.2550633 C95.0744361,20.3346754 95.1428565,20.3943836 95.2796992,20.4341896 C95.416542,20.4739957 95.5533828,20.5138011 95.6902256,20.5536072 C95.8270684,20.5934132 95.9443604,20.6630727 96.0421053,20.7625878 C96.1398501,20.8621029 96.1691731,20.9914706 96.1300752,21.1506948 C96.0518793,21.349725 95.8857156,21.4790927 95.6315789,21.5388018 C95.3774423,21.5985109 95.0939865,21.6283649 94.781203,21.6283649 C94.4293215,21.6283649 94.038348,21.6084622 93.6082707,21.5686562 C92.9045078,21.4890441 92.3766935,21.1905032 92.024812,20.6730247 C91.6729306,20.1555461 91.4578951,19.5982699 91.3796992,19.0011793 C91.3406013,18.6827309 91.2819553,18.5036064 91.2037594,18.4638004 C91.1255635,18.4239943 91.0473688,18.443897 90.9691729,18.5235091 C90.8909771,18.6031212 90.8225567,18.6926835 90.7639098,18.7921986 C90.7052629,18.8917137 90.6759398,18.901665 90.6759398,18.822053 C90.597744,18.5832167 90.5488723,18.3642868 90.5293233,18.1652565 C90.5097743,17.9662263 90.5,17.8070045 90.5,17.6875864 C90.5,17.5283622 90.5195487,17.4089459 90.5586466,17.3293338 C90.7541363,16.8516613 91.0375921,16.3839473 91.4090226,15.9261778 C91.780453,15.4684083 92.2398469,14.9608889 92.787218,14.4036043 C92.8654139,14.3637983 92.8751883,14.1846738 92.8165414,13.8662254 C92.7578944,13.5477771 92.7676688,13.3686526 92.8458647,13.3288465 C93.1586482,13.0103982 93.471427,12.701906 93.7842105,12.4033607 C94.096994,12.1048154 94.3706755,11.8560313 94.6052632,11.6570011 C94.8789487,11.4181648 95.1330815,11.1992349 95.3676692,11.0002047 C95.5631589,10.0846657 95.827066,8.91040506 96.1593985,7.47738752 C96.491731,6.04436999 96.8533815,4.65117939 97.2443609,3.29777394 C97.6744382,1.70553223 98.1436065,0.0536062424 98.6518797,-1.65805359 C98.5345859,-2.05611402 98.4563912,-2.523828 98.4172932,-3.06120958 C98.3781953,-3.59859116 98.368421,-4.14591603 98.3879699,-4.70320063 C98.4075189,-5.26048523 98.4563906,-5.8078101 98.5345865,-6.34519168 C98.6127823,-6.88257326 98.7105257,-7.37018996 98.8278195,-7.80805643 C98.9451134,-8.20611686 99.0428568,-8.79324718 99.1210526,-9.56946502 C99.1992485,-10.3456828 99.2774432,-11.1318404 99.3556391,-11.9279613 C99.433835,-12.7240821 99.492481,-13.4704342 99.5315789,-14.16704 C99.5706769,-14.8636457 99.5902256,-15.3711651 99.5902256,-15.6896135 C99.6293235,-16.6051525 99.9127793,-17.4112127 100.440602,-18.1078185 C100.968424,-18.8044242 101.466915,-19.4114573 101.93609,-19.9289358 C102.13158,-20.127966 102.327067,-20.1876742 102.522556,-20.1080621 C102.718046,-20.02845 102.913533,-20.02845 103.109023,-20.1080621 C103.226316,-20.1876742 103.441352,-20.2672851 103.754135,-20.3468972 C104.066919,-20.4265093 104.262406,-20.4862174 104.340602,-20.5260235 C104.379699,-20.5260235 104.399248,-20.5459262 104.399248,-20.5857322 C104.399248,-20.6255383 104.360151,-20.6653437 104.281955,-20.7051498 L104.047368,-20.8245673 L103.988722,-24.0488406 C104.145114,-24.6459313 104.379698,-25.1235966 104.692481,-25.481851 C105.005265,-25.8401054 105.357141,-26.1087922 105.74812,-26.2879193 C106.1391,-26.4670465 106.559396,-26.5765115 107.009023,-26.6163176 C107.458649,-26.6561236 107.898494,-26.6760263 108.328571,-26.6760263 C109.149628,-26.7158324 109.814283,-26.5466592 110.322556,-26.1685018 C110.83083,-25.7903444 111.241352,-25.3624359 111.554135,-24.8847634 C111.906017,-24.3274788 112.140601,-23.6905916 112.257895,-22.9740829 L112.844361,-22.3172864 L112.844361,-22.3172864 Z M111.906015,-14.793982 C112.101505,-14.793982 112.267668,-14.903447 112.404511,-15.1223802 C112.541354,-15.3413134 112.727066,-15.4905839 112.961654,-15.5701959 C113.157144,-15.610002 113.381954,-15.6796615 113.63609,-15.7791766 C113.890227,-15.8786917 114.232329,-16.0279622 114.662406,-16.2269924 C115.014287,-16.3862165 115.307518,-16.5852438 115.542105,-16.82408 C115.659399,-16.9434981 115.737594,-17.0430118 115.776692,-17.1226238 C115.190223,-17.1226238 114.662408,-17.1425266 114.193233,-17.1823326 C113.763156,-17.1823326 113.352634,-17.192284 112.961654,-17.212187 C112.570675,-17.23209 112.277445,-17.2022359 112.081955,-17.1226238 C111.886465,-17.0430118 111.690978,-16.9534495 111.495489,-16.8539344 C111.299999,-16.7544193 111.124061,-16.664857 110.967669,-16.585245 C110.772179,-16.4658268 110.596241,-16.3464105 110.43985,-16.2269924 C110.361654,-16.1075742 110.303008,-15.9583038 110.26391,-15.7791766 C110.224812,-15.6000494 110.185714,-15.4109736 110.146617,-15.2119434 C110.107519,-15.0129131 110.068421,-14.8138859 110.029323,-14.6148557 C110.342107,-14.6148557 110.615788,-14.6347584 110.850376,-14.6745645 C111.045866,-14.7143705 111.251127,-14.7342732 111.466165,-14.7342732 C111.681204,-14.7342732 111.827819,-14.7541759 111.906015,-14.793982 L111.906015,-14.793982 Z M36.0244735,64.1743875 L36.0244735,65.8307303 C36.0244735,67.0258198 34.9251179,67.9948258 33.7045821,67.9948258 L28.1231962,68.1530308 C26.9026604,68.1524963 25.7448981,67.0653711 25.7448981,65.8697471 C25.7448981,65.8697471 25.6007919,64.9766368 25.9888961,64.1204054 C26.1542907,64.2342489 26.2481781,64.447505 26.2481781,64.5378316 L26.2481781,64.6014343 C26.1439194,64.6388476 26.0713205,64.7270363 26.0713205,64.8301902 C26.0713205,64.9461716 26.1630244,65.0434464 26.2874798,65.0707047 C26.4812589,66.3432933 27.331158,67.5838133 28.3011455,67.9836017 C28.455623,68.0461355 28.5707988,67.8558619 28.48237,67.71476 L28.44416,67.6495539 C28.5293137,67.6581055 28.6286596,67.6607779 28.7318266,67.6495539 C29.0451484,67.6153474 28.9075924,67.1343185 28.9075924,67.1343185 L28.0566017,64.6436579 C28.1794195,63.7778059 28.5074794,63.0338146 28.9785538,62.5394238 L33.8142993,62.0108265 C35.0348351,62.0108265 36.0244735,62.979298 36.0244735,64.1743875 L36.0244735,64.1743875 Z M55.1381954,52.0791837 L54.2768334,51.1155225 L53.9220264,51.1144535 L53.3870868,52.0786492 C45.1615706,52.1010972 19.6973506,52.0540633 10.5013009,52.0786492 L10.0373227,50.9599898 L9.22617944,50.9599898 L8.71962433,52.0786492 L7.19504627,52.0786492 C6.52364239,52.0786492 6.41665446,52.6157981 6.41665446,52.6157981 L6.4401263,56.8680934 L6.57549879,57.1123491 L6.62025905,58.3170592 L6.55311866,58.4501439 C6.55311866,58.4501439 6.11042879,58.5778838 6.11479565,59.3224096 C6.11807079,59.8996442 6.62025905,59.9514885 6.62025905,59.9514885 C6.62025905,59.9514885 7.01054667,59.9418679 8.56187171,60.3806731 C10.3593782,60.8900292 10.6546867,62.7355767 10.1857957,65.4304074 C9.89812917,67.077664 9.42268789,68.3219254 8.37027597,70.221455 C8.5214783,70.2513857 8.62737453,70.3181952 8.62737453,70.3956943 C8.62737453,70.5020551 8.43250365,70.5875714 8.19123494,70.5875714 L8.03129889,70.8211376 C8.1764968,70.8532062 8.27529689,70.9178779 8.27529689,70.9932391 C8.27529689,71.098531 8.08042601,71.1845817 7.84024901,71.1845817 L7.68249639,71.4186824 C7.82551088,71.4502165 7.92321925,71.5154226 7.92321925,71.5897149 C7.92321925,71.6955412 7.72944008,71.7810575 7.48817137,71.7810575 L7.30913034,72.0482957 C7.43686083,72.0787609 7.52474378,72.1359499 7.52474378,72.2032939 C7.52474378,72.3000342 7.34024418,72.3780678 7.11316775,72.3780678 L6.93958528,72.6613403 C7.05585278,72.6934089 7.13336445,72.7479255 7.13336445,72.8104593 C7.13336445,72.9045271 6.9608737,72.9809573 6.74198512,72.987371 L6.52964682,73.3353152 C6.65028117,73.3663149 6.73106798,73.4219004 6.73106798,73.4860376 C6.73106798,73.5811744 6.55202695,73.6586735 6.32931737,73.6629493 L6.18411946,73.898119 C6.24580128,73.9638596 6.30147867,74.0055488 6.30147867,74.0536517 C6.30147867,74.1263405 6.17265647,74.1867363 6.00180329,74.1990293 L5.77472686,74.5790421 C5.85169267,74.6057659 5.90027392,74.6453172 5.90027392,74.6902132 C5.90027392,74.7586262 5.78400642,74.8168842 5.62516209,74.8329185 L5.41609893,75.1985004 C5.47450561,75.2241553 5.50998631,75.2594307 5.50998631,75.2984475 C5.50998631,75.3599123 5.41609893,75.4128255 5.28290987,75.4342046 L5.07384672,75.8152863 C5.13334511,75.8414757 5.16991752,75.8762167 5.16991752,75.914699 C5.16991752,75.9761638 5.07712186,76.0290769 4.94611622,76.0509905 L4.75288292,76.4187103 C4.8074686,76.4448997 4.84022,76.4785717 4.84022,76.5154506 C4.84022,76.573174 4.75724977,76.6234148 4.6355237,76.6480008 L4.4384694,77.0440479 C4.48322965,77.0691683 4.50997664,77.099099 4.50997664,77.1322365 C4.50997664,77.1851497 4.43956111,77.2321836 4.33530246,77.257304 L4.15844485,77.6351789 C4.19065041,77.6570924 4.20866368,77.6827473 4.20866368,77.7094711 C4.20866368,77.7559706 4.15626143,77.7971253 4.07329119,77.8238491 C3.99850881,77.9927437 3.929185,78.1530867 3.86531975,78.3054125 C3.88769988,78.3241192 3.90025458,78.3454982 3.90025458,78.3679462 C3.90025458,78.406963 3.86095289,78.4438419 3.79708765,78.4705657 C3.73758926,78.6159433 3.68409529,78.7549072 3.63496818,78.8842506 C3.66280687,78.9056296 3.67863672,78.9291466 3.67863672,78.9548015 C3.67863672,78.9959562 3.6371516,79.032835 3.57001122,79.0600933 C3.51433382,79.2124191 3.46684428,79.353521 3.42481331,79.4828643 C3.47066528,79.5074502 3.49741226,79.5384498 3.49741226,79.5721219 C3.49741226,79.6186213 3.44391829,79.659776 3.36094806,79.6870343 C3.3161878,79.8356188 3.28016125,79.9665655 3.25232256,80.0788056 C3.30035795,80.103926 3.32819665,80.1349256 3.32819665,80.1696666 C3.32819665,80.2124247 3.28016125,80.251976 3.20428716,80.2792343 C3.15516004,80.5117316 3.14697219,80.6234372 3.14697219,80.6234372 L3.23758442,80.7559874 L3.14697219,81.0002431 L3.05635996,81.4069798 C3.05635996,81.4069798 2.83037524,82.5015877 3.28343639,83.3738534 C3.73540583,84.2466536 5.2687176,84.8089229 5.2687176,84.8089229 L6.91502172,84.8308364 L6.93849357,84.9420075 C6.93849357,84.9420075 6.21359573,85.5924655 6.18248189,86.3022503 C6.15136805,87.0109662 7.35334474,86.9976043 7.35334474,86.9976043 C7.35334474,86.9976043 13.863233,87.0195178 15.6902157,86.9307947 C17.5171985,86.8420716 17.3365199,85.7918252 17.3365199,85.7918252 L17.4953642,84.6234595 C17.4953642,84.6234595 18.273756,84.2466536 18.5668811,84.0029323 C18.8621896,83.759211 18.9593522,83.2632168 19.0052041,82.8345666 C19.0510561,82.404313 19.0510561,81.7624067 19.0510561,81.4737893 C19.0510561,81.186241 19.5477858,79.9505312 19.9200601,79.0782655 C20.290151,78.2059998 20.8327327,77.9847266 21.1504214,77.8067459 C21.4670183,77.6292997 21.4075199,77.4219228 21.4075199,77.4219228 C21.4075199,77.4219228 20.6973602,76.6378457 21.3851398,75.2113279 C21.7645103,74.4224405 22.0821989,73.9034638 22.661353,73.6431737 C23.3021889,73.3550909 23.1133224,73.125266 23.1133224,73.125266 C23.1133224,73.125266 22.3895163,72.2973618 23.370421,70.2417651 C23.9599464,69.0087277 24.6242541,68.6522319 25.3567939,68.6073359 C26.0904255,68.5635088 26.9583378,69.0808821 27.4113989,69.2807763 C27.8633684,69.480136 29.4496283,69.4582225 29.9032353,69.4582225 C30.3557505,69.4582225 37.9677237,69.1257781 37.9677237,69.1257781 L38.2390145,68.7404205 L38.0577901,68.2973395 C38.0577901,68.2973395 37.5796195,67.4624871 37.5823488,65.5912848 C37.5834405,64.948844 37.5370427,63.6169285 37.8771115,62.9295917 C38.2166344,62.2427893 39.5911019,61.738778 39.5911019,61.738778 C39.5911019,61.738778 53.0235461,61.2753868 54.4662457,61.1866637 C55.9083994,61.0979406 55.9225916,60.2700365 55.9225916,60.2700365 C55.9225916,60.2700365 56.180236,58.834967 56.2255422,58.3838688 C56.2708483,57.9327706 56.1349299,57.9627013 56.1349299,57.9627013 L56.180236,57.8071686 L56.2708483,57.6746184 L56.5552397,57.6078089 L56.5879911,56.4838047 L56.6786033,56.4169952 L56.7921415,56.1283778 C56.7921415,56.1283778 56.9509859,55.4998334 56.996292,54.6719293 C57.0415981,53.8440252 56.656769,53.1930327 56.656769,53.1930327 C56.656769,53.1930327 56.6114629,53.0380346 56.6114629,52.8600539 C56.6114629,52.6826077 56.4744529,52.9322082 56.4749987,52.549523 C56.4766363,52.106442 55.9913696,52.0759768 55.9913696,52.0759768 L55.1381954,52.0791837 L55.1381954,52.0791837 Z M149.066053,64.2527755 C149.581858,62.6799792 150.418502,62.6810775 150.933947,64.2527755 L156.01953,79.7597829 L172.498869,79.7597829 C174.156348,79.7597829 174.41675,80.5394836 173.072035,81.507381 L159.73998,91.1035156 L164.825994,106.610523 C165.341842,108.183319 164.67677,108.678622 163.332055,107.710725 L150,98.1145901 L136.667945,107.710725 C135.327017,108.675896 134.658518,108.182221 135.174006,106.610523 L140.26002,91.1035156 L126.927965,81.507381 C125.587037,80.5422093 125.838972,79.7597829 127.501131,79.7597829 L143.98047,79.7597829 L149.066053,64.2527755 L149.066053,64.2527755 Z M231.482772,39.8699669 C225.226325,39.8699669 219.402842,38.1128018 214.5,35.1011137 C215.366718,35.199144 216.248645,35.2492947 217.142818,35.2492947 C222.333249,35.2492947 227.110271,33.5523104 230.901865,30.7054571 C226.053934,30.6197279 221.962504,27.5508869 220.552804,23.3336909 C221.229112,23.4576481 221.923198,23.5240741 222.637035,23.5240741 C223.647547,23.5240741 224.626259,23.3944394 225.555986,23.1518238 C220.487622,22.1768196 216.668967,17.8865739 216.668967,12.7435781 C216.668967,12.6989156 216.668967,12.6544424 216.669757,12.6101584 C218.163601,13.4051881 219.871755,13.8826601 221.687951,13.9377311 C218.715275,12.0342776 216.759234,8.78527289 216.759234,5.10270163 C216.759234,3.15742438 217.305574,1.33402265 218.259201,-0.233705409 C223.723395,6.18822651 231.8867,10.414128 241.094294,10.8567784 C240.905465,10.0799165 240.807297,9.26974704 240.807297,8.43781409 C240.807297,2.57586615 245.767815,-2.17671169 251.886393,-2.17671169 C255.072786,-2.17671169 257.952036,-0.88755626 259.97306,1.17543307 C262.496576,0.69928582 264.867607,-0.184122508 267.008131,-1.40041756 C266.180917,1.07815974 264.424372,3.15837061 262.136892,4.47212824 C264.377955,4.21550834 266.513146,3.64492649 268.5,2.80069243 C267.014649,4.92935072 265.136234,6.79892888 262.97181,8.2954998 C262.993142,8.75064056 263.003808,9.20843078 263.003808,9.66868122 C263.003808,23.6955325 251.860518,39.8699669 231.482772,39.8699669 L231.482772,39.8699669 Z M286.5,94.6308881 C283.912159,95.2976926 282,97.6494538 282,100.44832 C282,103.247187 283.912159,105.598948 286.5,106.265752 L286.5,94.6308881 L286.5,94.6308881 Z M495.050114,41.339161 C494.835782,38.8786797 492.815008,15.3751375 493.402824,10.5097252 C493.465294,4.44440352 496.139882,3.42680323 496.139882,3.42680323 C499.858471,1.34814264 502.263059,2.71448303 503.613059,4.17622344 C503.835412,4.3574835 504.044,4.55994355 504.214471,4.80586362 L517.114118,23.3866089 L509.536118,23.3866089 L506.299294,18.7236676 C505.461765,27.6128301 502.580706,38.9728533 502.580706,38.9728533 L502.006384,39.8699669 L516.5,39.8699669 L516.5,45.8766352 L502.481675,45.8766352 C501.558309,45.8766352 500.770099,45.8766352 500.087372,45.8448464 C499.91117,45.8658371 499.731845,45.8766352 499.55,45.8766352 C497.064718,45.8766352 495.05,43.8596775 495.05,41.371634 C495.05,41.3608007 495.050038,41.3499763 495.050114,41.339161 L495.050114,41.339161 L495.050114,41.339161 Z M371.5,13.3516289 L371.5,3.44722927 C371.5,3.10060167 371.232607,2.83995923 370.902761,2.83995923 L366.097239,2.83995923 C365.773399,2.83995923 365.5,3.11184329 365.5,3.44722927 L365.5,15.5994456 L365.5,18.7603949 C365.5,19.0845947 365.767509,19.3582972 366.097497,19.3582972 L378.402503,19.3582972 C378.730332,19.3582972 379,19.0906073 379,18.7603949 L379,13.9495312 C379,13.6253314 378.732491,13.3516289 378.402503,13.3516289 L371.5,13.3516289 L371.5,13.3516289 L371.5,13.3516289 Z M286.5,90.043102 L286.5,88.43868 C286.5,87.6072906 287.182958,86.9333163 288.028949,86.9333163 L314.971051,86.9333163 C315.815466,86.9333163 316.5,87.6233343 316.5,88.43868 L316.5,90.043102 L316.5,94.6308881 L316.5,106.265752 C319.087841,105.598948 321,103.247187 321,100.44832 C321,97.6494538 319.087841,95.2976926 316.5,94.6308881 L316.5,90.043102 C321.588441,90.7717554 325.5,95.1527334 325.5,100.44832 C325.5,106.170168 320.933386,110.824241 315.249788,110.957074 C313.31924,115.374784 309.326428,118.684717 304.5,119.668558 L304.5,125.976661 L307.5,125.976661 L307.5,128.979995 L313.5,128.979995 L313.5,134.986663 L289.5,134.986663 L289.5,128.979995 L295.5,128.979995 L295.5,125.976661 L298.5,125.976661 L298.5,119.669514 C293.665753,118.68683 289.675741,115.376028 287.747812,110.957017 C282.065329,110.822931 277.5,106.169363 277.5,100.44832 C277.5,95.1527334 281.411559,90.7717554 286.5,90.043102 L286.5,90.043102 L286.5,90.043102 Z M368.5,40.3816365 C355.245166,40.3816365 344.5,29.6245284 344.5,16.354963 C344.5,3.08539771 355.245166,-7.67171041 368.5,-7.67171041 C381.754834,-7.67171041 392.5,3.08539771 392.5,16.354963 C392.5,29.6245284 381.754834,40.3816365 368.5,40.3816365 L368.5,40.3816365 Z M368.5,34.3749681 C378.441125,34.3749681 386.5,26.3071371 386.5,16.354963 C386.5,6.40278904 378.441125,-1.66504205 368.5,-1.66504205 C358.558875,-1.66504205 350.5,6.40278904 350.5,16.354963 C350.5,26.3071371 358.558875,34.3749681 368.5,34.3749681 L368.5,34.3749681 Z M417.5,79.4275988 C417.5,77.7674573 418.849846,76.4216467 420.503681,76.4216467 L456.496319,76.4216467 C458.155206,76.4216467 459.5,77.7570218 459.5,79.4275988 L459.5,121.469042 C459.5,123.129183 458.150154,124.474994 456.496319,124.474994 L420.503681,124.474994 C418.844794,124.474994 417.5,123.139619 417.5,121.469042 L417.5,79.4275988 L417.5,79.4275988 Z M423.5,82.4283151 L453.5,82.4283151 L453.5,97.444986 L423.5,97.444986 L423.5,82.4283151 L423.5,82.4283151 Z M426.5,103.451654 L432.5,103.451654 L432.5,109.458323 L426.5,109.458323 L426.5,103.451654 L426.5,103.451654 Z M435.5,103.451654 L441.5,103.451654 L441.5,109.458323 L435.5,109.458323 L435.5,103.451654 L435.5,103.451654 Z M444.5,103.451654 L450.5,103.451654 L450.5,109.458323 L444.5,109.458323 L444.5,103.451654 L444.5,103.451654 Z M426.5,112.461657 L432.5,112.461657 L432.5,118.468325 L426.5,118.468325 L426.5,112.461657 L426.5,112.461657 Z M435.5,112.461657 L441.5,112.461657 L441.5,118.468325 L435.5,118.468325 L435.5,112.461657 L435.5,112.461657 Z M444.5,112.461657 L450.5,112.461657 L450.5,118.468325 L444.5,118.468325 L444.5,112.461657 L444.5,112.461657 Z M493.050588,42.2276531 C492.998706,41.6728065 492.227882,33.0008363 491.721765,24.853296 C489.830706,32.4795532 488,42.2234577 488,42.2234577 C488.007412,44.0914764 489.618941,45.8766352 491.500471,45.8766352 L494.761647,45.8745375 C493.740941,44.9672741 493.055882,43.6530532 493.050588,42.2276531 L493.050588,42.2276531 Z M491.269819,3.34200321 C488.146842,3.34200321 485.604588,0.801182489 485.604588,-2.32475839 C485.604588,-5.46023928 488.146842,-8 491.269819,-8 C494.409752,-8 496.944588,-5.46129928 496.944588,-2.32475839 C496.944588,0.801182489 494.408692,3.34200321 491.269819,3.34200321 L491.269819,3.34200321 Z M518.564706,25.4779895 L513.480235,29.0692705 L514.728588,30.868091 L516.257385,33.1317126 L521.24,29.4784104 C521.24,29.4784104 520.096518,27.6837073 519.839529,27.31391 L518.564706,25.4779895 L518.564706,25.4779895 Z M520.673294,25.0264293 L522.546353,27.7230701 L526.364471,25.0264293 L520.673294,25.0264293 L520.673294,25.0264293 Z M578.428571,105.024829 L587.571429,105.024829 L587.571429,95.8718109 L578.428571,95.8718109 L578.428571,105.024829 L578.428571,105.024829 Z M578.428571,109.601339 L578.428571,114.85814 C578.428571,117.496861 577.4762,119.759324 575.571429,121.645598 C573.666657,123.531871 571.375818,124.474994 568.698842,124.474994 C566.021866,124.474994 563.736174,123.526717 561.841699,121.630137 C559.947223,119.733556 559,117.435017 559,114.73445 C559,112.095729 559.947223,109.817805 561.841699,107.900609 C563.736174,105.983413 565.990978,105.024829 568.606178,105.024829 L573.857143,105.024829 L573.857143,95.8718109 L568.606178,95.8718109 C565.990978,95.8718109 563.736174,94.9132274 561.841699,92.9960315 C559.947223,91.0788356 559,88.7906039 559,86.1312676 C559,83.4513164 559.947223,81.1630847 561.841699,79.2665038 C563.736174,77.3699229 566.021866,76.4216467 568.698842,76.4216467 C571.375818,76.4216467 573.666657,77.3647692 575.571429,79.2510426 C577.4762,81.137316 578.428571,83.3997793 578.428571,86.0385006 L578.428571,91.2953017 L587.571429,91.2953017 L587.571429,86.0385006 C587.571429,83.3997793 588.5238,81.137316 590.428571,79.2510426 C592.333343,77.3647692 594.624182,76.4216467 597.301158,76.4216467 C599.998726,76.4216467 602.289566,77.3699229 604.173745,79.2665038 C606.057924,81.1630847 607,83.4513164 607,86.1312676 C607,88.7906039 606.057924,91.0788356 604.173745,92.9960315 C602.289566,94.9132274 600.029614,95.8718109 597.393822,95.8718109 L592.142857,95.8718109 L592.142857,105.024829 L597.393822,105.024829 C600.029614,105.024829 602.289566,105.983413 604.173745,107.900609 C606.057924,109.817805 607,112.095729 607,114.73445 C607,117.435017 606.057924,119.733556 604.173745,121.630137 C602.289566,123.526717 599.998726,124.474994 597.301158,124.474994 C594.624182,124.474994 592.333343,123.531871 590.428571,121.645598 C588.5238,119.759324 587.571429,117.496861 587.571429,114.85814 L587.571429,109.601339 L578.428571,109.601339 L578.428571,109.601339 Z M573.857143,91.2953017 L573.857143,86.1312676 C573.857143,84.708832 573.352643,83.4977183 572.343629,82.4978904 C571.334615,81.4980624 570.119698,80.9981559 568.698842,80.9981559 C567.298577,80.9981559 566.093956,81.4980624 565.084942,82.4978904 C564.075928,83.4977183 563.571429,84.708832 563.571429,86.1312676 C563.571429,87.5537033 564.075928,88.7699706 565.084942,89.7801061 C566.093956,90.7902415 567.308873,91.2953017 568.72973,91.2953017 L573.857143,91.2953017 L573.857143,91.2953017 Z M573.857143,109.601339 L568.72973,109.601339 C567.308873,109.601339 566.093956,110.106399 565.084942,111.116534 C564.075928,112.12667 563.571429,113.33263 563.571429,114.73445 C563.571429,116.156886 564.075928,117.373153 565.084942,118.383289 C566.093956,119.393424 567.308873,119.898484 568.72973,119.898484 C570.129994,119.898484 571.334615,119.393424 572.343629,118.383289 C573.352643,117.373153 573.857143,116.167193 573.857143,114.765373 L573.857143,109.601339 L573.857143,109.601339 Z M592.142857,91.2953017 L597.301158,91.2953017 C598.701423,91.2953017 599.906044,90.7902415 600.915058,89.7801061 C601.924072,88.7699706 602.428571,87.5537033 602.428571,86.1312676 C602.428571,84.708832 601.92922,83.4977183 600.930502,82.4978904 C599.931784,81.4980624 598.722015,80.9981559 597.301158,80.9981559 C595.880302,80.9981559 594.665385,81.4980624 593.656371,82.4978904 C592.647357,83.4977183 592.142857,84.708832 592.142857,86.1312676 L592.142857,91.2953017 L592.142857,91.2953017 Z M592.142857,109.601339 L592.142857,114.765373 C592.142857,116.167193 592.647357,117.373153 593.656371,118.383289 C594.665385,119.393424 595.880302,119.898484 597.301158,119.898484 C598.722015,119.898484 599.931784,119.393424 600.930502,118.383289 C601.92922,117.373153 602.428571,116.156886 602.428571,114.73445 C602.428571,113.33263 601.924072,112.12667 600.915058,111.116534 C599.906044,110.106399 598.701423,109.601339 597.301158,109.601339 L592.142857,109.601339 L592.142857,109.601339 Z" id="pattern"></path>
                    </g>
                </g>
            </g>
        </g>
    </g>
</svg>