<?xml version="1.0" encoding="UTF-8" standalone="no"?>
<svg width="40px" height="155px" viewBox="0 0 40 155" version="1.1" xmlns="http://www.w3.org/2000/svg" xmlns:xlink="http://www.w3.org/1999/xlink" xmlns:sketch="http://www.bohemiancoding.com/sketch/ns">
    <!-- Generator: Sketch 3.3.2 (12043) - http://www.bohemiancoding.com/sketch -->
    <title>Group</title>
    <desc>Created with Sketch.</desc>
    <defs></defs>
    <g id="Site" stroke="none" stroke-width="1" fill="none" fill-rule="evenodd" sketch:type="MSPage">
        <g id="0-leaders-guest" sketch:type="MSArtboardGroup" transform="translate(-953.000000, -92.000000)">
            <g id="Content" sketch:type="MSLayerGroup" transform="translate(170.000000, 90.000000)">
                <g id="Menu" sketch:type="MSShapeGroup">
                    <g id="Search-Copy" transform="translate(783.000000, 0.000000)">
                        <g id="Group">
                            <rect id="hover" fill="#33353B" x="0" y="117" width="40" height="40" rx="40"></rect>
                            <g id="ic-search-orange-20" transform="translate(10.000000, 127.000000)">
                                <rect id="shape" x="0" y="0" width="20" height="20"></rect>
                                <path d="M12.5353498,13.59601 L16.4696699,17.5303301 L17.5303301,16.4696699 L13.59601,12.5353498 C14.4750413,11.426768 15,10.0246893 15,8.5 C15,4.91014913 12.0898509,2 8.5,2 C4.91014913,2 2,4.91014913 2,8.5 C2,12.0898509 4.91014913,15 8.5,15 C10.0246893,15 11.426768,14.4750413 12.5353498,13.59601 L12.5353498,13.59601 Z M8.5,13.5 C11.2614237,13.5 13.5,11.2614237 13.5,8.5 C13.5,5.73857625 11.2614237,3.5 8.5,3.5 C5.73857625,3.5 3.5,5.73857625 3.5,8.5 C3.5,11.2614237 5.73857625,13.5 8.5,13.5 Z" id="Shape-Copy-3" fill="#F6AE46"></path>
                            </g>
                            <g id="ic-search-orange-20-copy" transform="translate(10.000000, 0.000000)">
                                <rect id="shape" x="0" y="0" width="20" height="20"></rect>
                                <path d="M12.5353498,13.59601 L16.4696699,17.5303301 L17.5303301,16.4696699 L13.59601,12.5353498 C14.4750413,11.426768 15,10.0246893 15,8.5 C15,4.91014913 12.0898509,2 8.5,2 C4.91014913,2 2,4.91014913 2,8.5 C2,12.0898509 4.91014913,15 8.5,15 C10.0246893,15 11.426768,14.4750413 12.5353498,13.59601 L12.5353498,13.59601 Z M8.5,13.5 C11.2614237,13.5 13.5,11.2614237 13.5,8.5 C13.5,5.73857625 11.2614237,3.5 8.5,3.5 C5.73857625,3.5 3.5,5.73857625 3.5,8.5 C3.5,11.2614237 5.73857625,13.5 8.5,13.5 Z" id="Shape-Copy-3" fill="#F6AE46"></path>
                            </g>
                            <rect id="shape" x="10" y="61" width="20" height="20"></rect>
                            <path d="M22.5353498,74.59601 L26.4696699,78.5303301 L27.5303301,77.4696699 L23.59601,73.5353498 C24.4750413,72.426768 25,71.0246893 25,69.5 C25,65.9101491 22.0898509,63 18.5,63 C14.9101491,63 12,65.9101491 12,69.5 C12,73.0898509 14.9101491,76 18.5,76 C20.0246893,76 21.426768,75.4750413 22.5353498,74.59601 L22.5353498,74.59601 Z M18.5,74.5 C21.2614237,74.5 23.5,72.2614237 23.5,69.5 C23.5,66.7385763 21.2614237,64.5 18.5,64.5 C15.7385763,64.5 13.5,66.7385763 13.5,69.5 C13.5,72.2614237 15.7385763,74.5 18.5,74.5 Z" id="Shape-Copy-3" fill="#25282E"></path>
                        </g>
                    </g>
                </g>
            </g>
        </g>
    </g>
</svg>