<?xml version="1.0" encoding="UTF-8" standalone="no"?>
<svg width="38px" height="24px" viewBox="0 0 38 24" version="1.1" xmlns="http://www.w3.org/2000/svg" xmlns:xlink="http://www.w3.org/1999/xlink">
    <!-- Generator: Sketch 3.6.1 (26313) - http://www.bohemiancoding.com/sketch -->
    <title>Imported Layers</title>
    <desc>Created with Sketch.</desc>
    <defs></defs>
    <g id="Welcome" stroke="none" stroke-width="1" fill="none" fill-rule="evenodd" opacity="0.400000006">
        <g id="Main" transform="translate(-663.000000, -4424.000000)">
            <g id="Group" transform="translate(131.000000, 4240.000000)">
                <g transform="translate(472.000000, 184.000000)" id="Imported-Layers">
                    <g transform="translate(60.318182, 0.613636)">
                        <path d="M26.3910244,23.1873524 L26.9695774,23.1716693 L27.5405231,23.1289537 L28.1000579,23.0550784 L28.655789,22.9535515 L29.1965059,22.824992 L29.7296154,22.6689871 L30.251314,22.4859497 L30.761802,22.2793878 L31.260879,22.0455869 L31.7447414,21.7921822 L32.2135896,21.5115386 L32.6710268,21.2114976 L33.109646,20.8881384 L33.5330507,20.544969 L33.941441,20.1826086 L34.3310134,19.79693 L34.705171,19.395362 L35.056707,18.9743966 L35.389425,18.5379545 L35.703325,18.0858294 L35.9944033,17.6143069 L36.2666635,17.1310221 L36.5124984,16.6322607 L36.7393152,16.1178162 L36.9397068,15.5916094 L37.1174767,15.0538467 L37.2686211,14.5043218 L37.3933403,13.9469553 L37.4916343,13.3741122 L37.563503,12.7973484 L37.6051428,12.2088222 L37.6201571,11.6126609 L37.6051428,11.020214 L37.563503,10.4356086 L37.4916343,9.85884473 L37.3933403,9.29363677 L37.2686211,8.73627031 L37.1174767,8.19066613 L36.9397068,7.65290346 L36.7393152,7.13061746 L36.5124984,6.62009372 L36.2666635,6.12133226 L35.9944033,5.64196822 L35.703325,5.1704457 L35.389425,4.7183206 L35.056707,4.28559292 L34.705171,3.86483387 L34.3310134,3.46326589 L33.941441,3.08130169 L33.5330507,2.71894127 L33.109646,2.37597828 L32.6710268,2.05261907 L32.2135896,1.75237168 L31.7447414,1.47564883 L31.260879,1.22245052 L30.761802,0.988649638 L30.251314,0.782087691 L29.7296154,0.598843926 L29.1965059,0.442839099 L28.655789,0.314279566 L28.1000579,0.21295897 L27.5405231,0.138877313 L26.9695774,0.0961617056 L26.3910244,0.0804786806 L25.8162751,0.0961617056 L25.2455295,0.138877313 L24.6857945,0.21295897 L24.133867,0.314279566 L23.5931502,0.442839099 L23.0600407,0.598843926 L22.5421457,0.782087691 L22.0316577,0.988649638 L21.5363844,1.22245052 L21.0563255,1.47564883 L20.5874774,1.75237168 L20.1338438,2.05261907 L19.6952246,2.37597828 L19.2716197,2.71894127 L18.8672332,3.08130169 L18.4776608,3.46326589 L18.1071067,3.86483387 L17.7555707,4.28559292 L17.4228527,4.7183206 L17.1129565,5.1704457 L16.8216781,5.64196822 L16.5532215,6.12133226 L16.3037831,6.62009372 L16.0807699,7.13061746 L15.8801782,7.65290346 L15.7064121,8.19066613 L15.5550674,8.73627031 L15.4303482,9.29363677 L15.3320543,9.85884473 L15.2601856,10.4356086 L15.218746,11.020214 L15.2035315,11.6126609 L15.218746,12.2088222 L15.2601856,12.7973484 L15.3320543,13.3741122 L15.4303482,13.9469553 L15.5550674,14.5043218 L15.7064121,15.0538467 L15.8801782,15.5916094 L16.0807699,16.1178162 L16.3037831,16.6322607 L16.5532215,17.1310221 L16.8216781,17.6143069 L17.1129565,18.0858294 L17.4228527,18.5379545 L17.7555707,18.9743966 L18.1071067,19.395362 L18.4776608,19.79693 L18.8672332,20.1826086 L19.2716197,20.544969 L19.6952246,20.8881384 L20.1338438,21.2114976 L20.5874774,21.5115386 L21.0563255,21.7921822 L21.5363844,22.0455869 L22.0316577,22.2793878 L22.5421457,22.4859497 L23.0600407,22.6689871 L23.5931502,22.824992 L24.133867,22.9535515 L24.6857945,23.0550784 L25.2455295,23.1289537 L25.8162751,23.1716693 L26.3910244,23.1873524" id="Fill-1" fill="#FFFFFF" opacity="0.600000024"></path>
                        <path d="M22.5371367,12.6531058 L22.5269311,12.7973484 L22.4550624,13.3741122 L22.4476975,13.4170342 L20.4323291,13.4170342 L20.3190208,14.0443552 L22.3349738,14.0443552 L22.2320493,14.5043218 L22.1484459,14.8082836 L15.6421507,14.8082836 L15.8311313,15.4358109 L21.9573394,15.4358109 L21.9069385,15.5916094 L21.706547,16.1178162 L21.6694229,16.2034537 L16.1184059,16.2034537 L16.402077,16.8309811 L21.3840709,16.8309811 L21.2338952,17.1310221 L20.9764058,17.5949095 L16.8216781,17.5949095 L17.2036431,18.2222305 L20.5808079,18.2222305 L20.3642641,18.5379545 L20.0317462,18.9743966 L20.0219183,18.9861589 L17.7743887,18.9861589 L18.3076984,19.617607 L19.4749294,19.617607 L19.3094559,19.79693 L18.9200837,20.1826086 L18.515497,20.544969 L18.0920923,20.8881384 L17.6534731,21.2114976 L17.1998395,21.5115386 L16.7309914,21.7921822 L16.2509326,22.0455869 L15.755459,22.2793878 L15.2451713,22.4859497 L14.7270761,22.6689871 L14.1939665,22.824992 L13.6532497,22.9535515 L13.1013222,23.0550784 L12.5417874,23.1289537 L11.9708417,23.1716693 L11.3960923,23.1873524 L10.8177395,23.1716693 L10.2467938,23.1289537 L9.68725903,23.0550784 L9.13152786,22.9535515 L8.59081105,22.824992 L8.05770151,22.6689871 L7.53600287,22.4859497 L7.02551495,22.2793878 L6.52643793,22.0455869 L6.04237527,21.7921822 L5.57372734,21.5115386 L5.11608993,21.2114976 L4.67767089,20.8881384 L4.25406601,20.544969 L3.84587587,20.1826086 L3.45630352,19.79693 L3.0821459,19.395362 L2.73040971,18.9743966 L2.3976917,18.5379545 L2.08399187,18.0858294 L1.79271347,17.6143069 L1.52065343,17.1310221 L1.27481846,16.6322607 L1.04800167,16.1178162 L0.847610141,15.5916094 L0.66984023,15.0538467 L0.518695767,14.5043218 L0.393976561,13.9469553 L0.29548242,13.3741122 L0.22381392,12.7973484 L0.182174121,12.2088222 L0.16715977,11.6126609 L0.182174121,11.020214 L0.22381392,10.4356086 L0.29548242,9.85884473 L0.393976561,9.29363677 L0.518695767,8.73627031 L0.66984023,8.19066613 L0.847610141,7.65290346 L1.04800167,7.13061746 L1.27481846,6.62009372 L1.52065343,6.12133226 L1.79271347,5.64196822 L2.08399187,5.1704457 L2.3976917,4.7183206 L2.73040971,4.28559292 L3.0821459,3.86483387 L3.45630352,3.46326589 L3.84587587,3.08130169 L4.25406601,2.71894127 L4.67767089,2.37597828 L5.11608993,2.05261907 L5.57372734,1.75237168 L6.04237527,1.47564883 L6.52643793,1.22245052 L7.02551495,0.988649638 L7.53600287,0.782087691 L8.05770151,0.598843926 L8.59081105,0.442839099 L9.13152786,0.314279566 L9.68725903,0.21295897 L10.2467938,0.138877313 L10.8177395,0.0961617056 L11.3960923,0.0804786806 L11.9708417,0.0961617056 L12.5417874,0.138877313 L13.1013222,0.21295897 L13.6532497,0.314279566 L14.1939665,0.442839099 L14.7270761,0.598843926 L15.2451713,0.782087691 L15.755459,0.988649638 L16.2509326,1.22245052 L16.7309914,1.47564883 L17.1998395,1.75237168 L17.6534731,2.05261907 L18.0920923,2.37597828 L18.515497,2.71894127 L18.9200837,3.08130169 L19.3094559,3.46326589 L19.68001,3.86483387 L19.6962254,3.8842313 L18.095896,3.8842313 L17.5816044,4.51175865 L20.2055371,4.51175865 L20.3642641,4.7183206 L20.6743604,5.1704457 L20.7416668,5.27940145 L17.0484949,5.27940145 L16.6893516,5.9069288 L21.1139131,5.9069288 L21.2338952,6.12133226 L21.4835338,6.62009372 L21.5056188,6.67065084 L16.2887687,6.67065084 L16.0239156,7.2981782 L21.770837,7.2981782 L21.9069385,7.65290346 L22.0405842,8.06602735 L15.755459,8.06602735 L15.5664784,8.69334835 L22.2201589,8.69334835 L22.2320493,8.73627031 L22.3567685,9.29363677 L22.3852267,9.45727675 L15.4151337,9.45727675 L15.2980218,10.0848041 L22.4832185,10.0848041 L22.5269311,10.4356086 L22.5685709,11.020214 L22.5837855,11.6126609 L22.5733475,12.0216577 L20.6819677,12.0216577 L20.5684592,12.6531058 L22.5371367,12.6531058 Z" id="Fill-2" fill="#FFFFFF"></path>
                        <path d="M15.090023,12.0216577 L15.9068036,12.0216577 L15.9068036,12.6531058 L15.1278591,12.6531058 L15.090023,12.0216577" id="Fill-14" fill="#CFCFCF"></path>
                        <path d="M13.5663667,11.2618564 L13.5135161,11.2579356 L13.4604654,11.2500941 L13.4114186,11.2422526 L13.3621715,11.2346175 L13.3169282,11.2267759 L13.2676812,11.2189344 L13.2186343,11.2110929 L13.1655836,11.2032514 L13.1127331,11.1956163 L13.0522753,11.1916955 L12.9842102,11.1877747 L12.9123415,11.183854 L12.8328656,11.183854 L12.7459825,11.1877747 L12.6476886,11.1956163 L12.5379837,11.2032514 L12.4623114,11.2150137 L12.3904427,11.2267759 L12.3263815,11.2500941 L12.2695271,11.2734123 L12.2166766,11.3006512 L12.1674296,11.3320173 L12.1295934,11.3708121 L12.0955609,11.4058926 L12.0729392,11.4488146 L12.0539211,11.4917365 L12.046514,11.5385792 L12.046514,11.5852156 L12.0579249,11.6359791 L12.0729392,11.6865362 L12.1031681,11.7372997 L12.1410043,11.7878568 L12.2166766,11.8619385 L12.3073633,11.9203371 L12.4132645,11.9711006 L12.526773,12.0140225 L12.6476886,12.0528174 L12.7724078,12.0957393 L12.897127,12.1425821 L13.0182428,12.1933455 L13.1315511,12.2593793 L13.2374523,12.3413025 L13.3319426,12.4387023 L13.4114186,12.5596267 L13.4718763,12.7075837 L13.5097125,12.8829859 L13.5247269,13.0934686 L13.5097125,13.3390318 L13.4832873,13.5222755 L13.4378438,13.6819948 L13.377386,13.8301581 L13.3017137,13.9587176 L13.2148307,14.0718005 L13.1165367,14.1692003 L13.0106355,14.2548379 L12.8933234,14.3289195 L12.7724078,14.3873182 L12.6476886,14.4380817 L12.5191657,14.4770829 L12.3868393,14.5082426 L12.2583164,14.5315607 L12.133397,14.543323 L12.0086778,14.5511645 L11.8913657,14.5548789 L11.7290105,14.5548789 L11.5776659,14.5511645 L11.4453394,14.5511645 L11.3206202,14.5470374 L11.2071117,14.543323 L11.1050141,14.5354815 L11.0143274,14.52764 L10.9274444,14.5160841 L10.8479684,14.5082426 L10.7760997,14.4925595 L10.704231,14.4807973 L10.6399696,14.4613998 L10.5757082,14.4459232 L10.5152504,14.4223986 L10.4547926,14.3990805 L10.3905312,14.3757623 L10.5606939,13.514434 L10.5947264,13.5222755 L10.6363662,13.5338315 L10.6892167,13.5495145 L10.7534781,13.5649912 L10.8215432,13.5806742 L10.8972155,13.5961508 L10.9802949,13.6155483 L11.0709816,13.6312313 L11.1654719,13.6469143 L11.2637658,13.6625973 L11.3658634,13.6741533 L11.4717646,13.6859155 L11.5814695,13.6898363 L11.6911744,13.693757 L11.800679,13.693757 L11.9103839,13.6898363 L12.0200887,13.6663117 L12.1069718,13.6351521 L12.1750368,13.5924364 L12.2278873,13.5377522 L12.2657235,13.4832743 L12.2961526,13.4209549 L12.3149706,13.3584292 L12.3299849,13.3000306 L12.3375922,13.1869477 L12.3035597,13.0895479 L12.2392983,13.0115455 L12.1448079,12.9455117 L12.0312994,12.8869067 L11.898973,12.828508 L11.7516321,12.7738238 L11.6040911,12.7115044 L11.4529467,12.6413435 L11.3092093,12.5596267 L11.1768828,12.4583061 L11.0559672,12.3373817 L10.9612767,12.1892184 L10.8934119,12.0140225 L10.8593793,11.8035398 L10.863183,11.5540559 L10.882001,11.4021782 L10.9084262,11.2579356 L10.9462624,11.1254553 L10.9915056,11.0006102 L11.0521636,10.883813 L11.1202287,10.7824924 L11.1995044,10.6850925 L11.2941949,10.5992486 L11.4036996,10.5251669 L11.5248154,10.4628475 L11.6607453,10.4042426 L11.8120899,10.361527 L11.9822526,10.3264465 L12.1674296,10.2992076 L12.3716247,10.2835245 L12.5946379,10.2796038 L12.7345716,10.2796038 L12.8630945,10.2835245 L12.9804066,10.2874453 L13.0863078,10.291366 L13.1807981,10.2992076 L13.2676812,10.3070491 L13.3433535,10.3146842 L13.4114186,10.3225257 L13.47568,10.3303673 L13.5285305,10.3419232 L13.5777776,10.3497647 L13.6230208,10.3576062 L13.660857,10.3654477 L13.6950897,10.3693685 L13.728922,10.37721 L13.7591509,10.3811307 L13.5663667,11.2618564" id="Fill-15" fill="#333333"></path>
                        <path d="M13.5663667,11.2618564 L13.5663667,11.2618564 L13.5135161,11.2579356 L13.4604654,11.2500941 L13.4114186,11.2422526 L13.3621715,11.2346175 L13.3169282,11.2267759 L13.2676812,11.2189344 L13.2186343,11.2110929 L13.1655836,11.2032514 L13.1127331,11.1956163 L13.0522753,11.1916955 L12.9842102,11.1877747 L12.9123415,11.183854 L12.8328656,11.183854 L12.7459825,11.1877747 L12.6476886,11.1956163 L12.5379837,11.2032514 L12.4623114,11.2150137 L12.3904427,11.2267759 L12.3263815,11.2500941 L12.2695271,11.2734123 L12.2166766,11.3006512 L12.1674296,11.3320173 L12.1295934,11.3708121 L12.0955609,11.4058926 L12.0729392,11.4488146 L12.0539211,11.4917365 L12.046514,11.5385792 L12.046514,11.5852156 L12.0579249,11.6359791 L12.0729392,11.6865362 L12.1031681,11.7372997 L12.1410043,11.7878568 L12.2166766,11.8619385 L12.3073633,11.9203371 L12.4132645,11.9711006 L12.526773,12.0140225 L12.6476886,12.0528174 L12.7724078,12.0957393 L12.897127,12.1425821 L13.0182428,12.1933455 L13.1315511,12.2593793 L13.2374523,12.3413025 L13.3319426,12.4387023 L13.4114186,12.5596267 L13.4718763,12.7075837 L13.5097125,12.8829859 L13.5247269,13.0934686 L13.5097125,13.3390318 L13.4832873,13.5222755 L13.4378438,13.6819948 L13.377386,13.8301581 L13.3017137,13.9587176 L13.2148307,14.0718005 L13.1165367,14.1692003 L13.0106355,14.2548379 L12.8933234,14.3289195 L12.7724078,14.3873182 L12.6476886,14.4380817 L12.5191657,14.4770829 L12.3868393,14.5082426 L12.2583164,14.5315607 L12.133397,14.543323 L12.0086778,14.5511645 L11.8913657,14.5548789 L11.7290105,14.5548789 L11.5776659,14.5511645 L11.4453394,14.5511645 L11.3206202,14.5470374 L11.2071117,14.543323 L11.1050141,14.5354815 L11.0143274,14.52764 L10.9274444,14.5160841 L10.8479684,14.5082426 L10.7760997,14.4925595 L10.704231,14.4807973 L10.6399696,14.4613998 L10.5757082,14.4459232 L10.5152504,14.4223986 L10.4547926,14.3990805 L10.3905312,14.3757623 L10.5606939,13.514434 L10.5947264,13.5222755 L10.6363662,13.5338315 L10.6892167,13.5495145 L10.7534781,13.5649912 L10.8215432,13.5806742 L10.8972155,13.5961508 L10.9802949,13.6155483 L11.0709816,13.6312313 L11.1654719,13.6469143 L11.2637658,13.6625973 L11.3658634,13.6741533 L11.4717646,13.6859155 L11.5814695,13.6898363 L11.6911744,13.693757 L11.800679,13.693757 L11.9103839,13.6898363 L12.0200887,13.6663117 L12.1069718,13.6351521 L12.1750368,13.5924364 L12.2278873,13.5377522 L12.2657235,13.4832743 L12.2961526,13.4209549 L12.3149706,13.3584292 L12.3299849,13.3000306 L12.3375922,13.1869477 L12.3035597,13.0895479 L12.2392983,13.0115455 L12.1448079,12.9455117 L12.0312994,12.8869067 L11.898973,12.828508 L11.7516321,12.7738238 L11.6040911,12.7115044 L11.4529467,12.6413435 L11.3092093,12.5596267 L11.1768828,12.4583061 L11.0559672,12.3373817 L10.9612767,12.1892184 L10.8934119,12.0140225 L10.8593793,11.8035398 L10.863183,11.5540559 L10.882001,11.4021782 L10.9084262,11.2579356 L10.9462624,11.1254553 L10.9915056,11.0006102 L11.0521636,10.883813 L11.1202287,10.7824924 L11.1995044,10.6850925 L11.2941949,10.5992486 L11.4036996,10.5251669 L11.5248154,10.4628475 L11.6607453,10.4042426 L11.8120899,10.361527 L11.9822526,10.3264465 L12.1674296,10.2992076 L12.3716247,10.2835245 L12.5946379,10.2796038 L12.7345716,10.2796038 L12.8630945,10.2835245 L12.9804066,10.2874453 L13.0863078,10.291366 L13.1807981,10.2992076 L13.2676812,10.3070491 L13.3433535,10.3146842 L13.4114186,10.3225257 L13.47568,10.3303673 L13.5285305,10.3419232 L13.5777776,10.3497647 L13.6230208,10.3576062 L13.660857,10.3654477 L13.6950897,10.3693685 L13.728922,10.37721 L13.7591509,10.3811307 L13.5663667,11.2618564" id="Stroke-16" stroke="#333333" stroke-width="0.216" stroke-linecap="round" stroke-linejoin="round"></path>
                        <path d="M14.4624231,9.4184819 L15.5098242,9.4184819 L15.3546759,10.361527 L15.9860794,10.361527 L15.8499493,11.2422526 L15.1845133,11.2228552 L14.8215664,13.3974304 L14.8177627,13.4754328 L14.8367809,13.541673 L14.8746171,13.5924364 L14.923664,13.6351521 L14.991729,13.6625973 L15.0674013,13.6859155 L15.1504807,13.7013922 L15.2413676,13.7092337 L15.324447,13.705313 L15.4001193,13.6974714 L15.4681844,13.6859155 L15.5286422,13.6702325 L15.5778893,13.6547558 L15.6119218,13.6429936 L15.6345434,13.6351521 L15.6421507,13.6312313 L15.5098242,14.3561585 L15.4833989,14.3757623 L15.4567735,14.3912389 L15.4303482,14.406922 L15.403923,14.4223986 L15.3774977,14.4341609 L15.3472688,14.4459232 L15.3132363,14.4574791 L15.2792038,14.4692414 L15.2413676,14.4807973 L15.2035315,14.4886388 L15.158088,14.4964803 L15.1128448,14.5043218 L15.0635977,14.5121633 L15.0069436,14.5197985 L14.9464858,14.52764 L14.8822243,14.5354815 L14.5947496,14.5354815 L14.4436051,14.5237192 L14.3112786,14.5082426 L14.1901629,14.4849244 L14.0882655,14.4574791 L14.0011823,14.4223986 L13.9295138,14.3836038 L13.8650521,14.3367611 L13.8158051,14.2859976 L13.7781691,14.2315197 L13.7517438,14.1652796 L13.7327257,14.0990394 L13.7215149,14.0249578 L13.7177113,13.9430346 L13.7177113,13.857397 L13.728922,13.7678387 L13.7403329,13.6702325 L14.4624231,9.4184819" id="Fill-17" fill="#333333"></path>
                        <path d="M14.4624231,9.4184819 L15.5098242,9.4184819 L15.3546759,10.361527 L15.9860794,10.361527 L15.8499493,11.2422526 L15.1845133,11.2228552 L14.8215664,13.3974304 L14.8177627,13.4754328 L14.8367809,13.541673 L14.8746171,13.5924364 L14.923664,13.6351521 L14.991729,13.6625973 L15.0674013,13.6859155 L15.1504807,13.7013922 L15.2413676,13.7092337 L15.324447,13.705313 L15.4001193,13.6974714 L15.4681844,13.6859155 L15.5286422,13.6702325 L15.5778893,13.6547558 L15.6119218,13.6429936 L15.6345434,13.6351521 L15.6421507,13.6312313 L15.5098242,14.3561585 L15.4833989,14.3757623 L15.4567735,14.3912389 L15.4303482,14.406922 L15.403923,14.4223986 L15.3774977,14.4341609 L15.3472688,14.4459232 L15.3132363,14.4574791 L15.2792038,14.4692414 L15.2413676,14.4807973 L15.2035315,14.4886388 L15.158088,14.4964803 L15.1128448,14.5043218 L15.0635977,14.5121633 L15.0069436,14.5197985 L14.9464858,14.52764 L14.8822243,14.5354815 L14.5947496,14.5354815 L14.4436051,14.5237192 L14.3112786,14.5082426 L14.1901629,14.4849244 L14.0882655,14.4574791 L14.0011823,14.4223986 L13.9295138,14.3836038 L13.8650521,14.3367611 L13.8158051,14.2859976 L13.7781691,14.2315197 L13.7517438,14.1652796 L13.7327257,14.0990394 L13.7215149,14.0249578 L13.7177113,13.9430346 L13.7177113,13.857397 L13.728922,13.7678387 L13.7403329,13.6702325 L14.4624231,9.4184819" id="Stroke-18" stroke="#333333" stroke-width="0.216" stroke-linecap="round" stroke-linejoin="round"></path>
                        <path d="M16.8216781,12.7115044 L16.8102672,12.7777446 L16.8066637,12.8479055 L16.8140708,12.9219871 L16.8292853,12.9960688 L16.8557106,13.0701504 L16.8859395,13.1403113 L16.9275793,13.214393 L16.9730227,13.2806331 L17.0258732,13.3468733 L17.0827276,13.4052719 L17.1431854,13.4636706 L17.2112504,13.5105133 L17.2791153,13.5534352 L17.3547876,13.5885157 L17.4304599,13.6155483 L17.5061323,13.6312313 L17.6044262,13.6469143 L17.6989165,13.6586766 L17.7972105,13.6702325 L17.8955044,13.678074 L17.9937984,13.6819948 L18.095896,13.6819948 L18.1941899,13.678074 L18.2962875,13.6702325 L18.3983851,13.6547558 L18.5004827,13.6351521 L18.6061837,13.6118339 L18.7084815,13.5767534 L18.8141825,13.5338315 L18.9238873,13.4871951 L19.0297886,13.4248757 L19.1392932,13.3584292 L18.9881488,14.3171573 L18.8672332,14.379683 L18.8065752,14.4030012 L18.7499211,14.4263194 L18.6932669,14.4459232 L18.6328091,14.4653206 L18.5723514,14.4807973 L18.5080899,14.4925595 L18.4398247,14.5043218 L18.3643525,14.5121633 L18.2848766,14.5197985 L18.1979935,14.52764 L18.0996996,14.5315607 L17.997602,14.5315607 L17.8802899,14.5354815 L17.7555707,14.5354815 L17.5703937,14.5315607 L17.3812129,14.5121633 L17.1922322,14.4849244 L17.0032516,14.4380817 L16.8178744,14.379683 L16.6403047,14.305395 L16.4701421,14.2082015 L16.3113903,14.0951187 L16.1638493,13.9626384 L16.0353265,13.8027128 L15.9256216,13.6235961 L15.8349349,13.4170342 L15.7706735,13.1869477 L15.7290337,12.9259079 L15.7176228,12.6374228 L15.736641,12.3179843 L15.7516553,12.1933455 L15.7744772,12.049103 L15.8047061,11.8970189 L15.8463459,11.7333789 L15.903,11.5658182 L15.9710651,11.3982574 L16.0581483,11.2267759 L16.1638493,11.0629296 L16.2847649,10.9071311 L16.4323059,10.7589678 L16.5986649,10.6264875 L16.7876455,10.5096903 L17.0070552,10.4120841 L17.25269,10.3419232 L17.5249503,10.2952868 L17.831243,10.2796038 L17.9785838,10.2835245 L18.1337321,10.2992076 L18.2886802,10.3264465 L18.4436283,10.3654477 L18.594973,10.4238463 L18.742514,10.4940072 L18.8784439,10.5874863 L19.0033633,10.6966484 L19.1166716,10.8291287 L19.2111619,10.9851335 L19.2868343,11.1644566 L19.3396848,11.3708121 L19.3699137,11.6048194 L19.3737173,11.86978 L19.347292,12.1659002 L19.2906379,12.4933866 L19.2716197,12.7311082 L16.8182748,12.7311082 L16.9453963,11.9632591 L18.3453344,11.9632591 L18.3529416,11.8658592 L18.349138,11.7723801 L18.3415307,11.6865362 L18.3265164,11.6085338 L18.3000911,11.5346585 L18.2734657,11.4684183 L18.2358297,11.4098134 L18.1979935,11.3553355 L18.1525501,11.3084928 L18.1035032,11.2694916 L18.0466489,11.2346175 L17.9899947,11.2032514 L17.929537,11.1799332 L17.8690792,11.1644566 L17.8048177,11.1526943 L17.7367527,11.1448528 L17.664884,11.1487735 L17.5968189,11.1605358 L17.5325575,11.1760125 L17.4682961,11.1993307 L17.4040347,11.2306967 L17.3471803,11.2657772 L17.2905262,11.3084928 L17.2414793,11.3553355 L17.1922322,11.4098134 L17.1467888,11.4684183 L17.105149,11.5307377 L17.0713167,11.5969779 L17.0372841,11.6671388 L17.0108589,11.7451412 L16.9880371,11.8229372 L16.9730227,11.9048604 L16.8216781,12.7115044" id="Fill-19" fill="#333333"></path>
                        <path d="M16.8216781,12.7115044 L16.8216781,12.7115044 L16.8102672,12.7777446 L16.8066637,12.8479055 L16.8140708,12.9219871 L16.8292853,12.9960688 L16.8557106,13.0701504 L16.8859395,13.1403113 L16.9275793,13.214393 L16.9730227,13.2806331 L17.0258732,13.3468733 L17.0827276,13.4052719 L17.1431854,13.4636706 L17.2112504,13.5105133 L17.2791153,13.5534352 L17.3547876,13.5885157 L17.4304599,13.6155483 L17.5061323,13.6312313 L17.6044262,13.6469143 L17.6989165,13.6586766 L17.7972105,13.6702325 L17.8955044,13.678074 L17.9937984,13.6819948 L18.095896,13.6819948 L18.1941899,13.678074 L18.2962875,13.6702325 L18.3983851,13.6547558 L18.5004827,13.6351521 L18.6061837,13.6118339 L18.7084815,13.5767534 L18.8141825,13.5338315 L18.9238873,13.4871951 L19.0297886,13.4248757 L19.1392932,13.3584292 L18.9881488,14.3171573 L18.8672332,14.379683 L18.8065752,14.4030012 L18.7499211,14.4263194 L18.6932669,14.4459232 L18.6328091,14.4653206 L18.5723514,14.4807973 L18.5080899,14.4925595 L18.4398247,14.5043218 L18.3643525,14.5121633 L18.2848766,14.5197985 L18.1979935,14.52764 L18.0996996,14.5315607 L17.997602,14.5315607 L17.8802899,14.5354815 L17.7555707,14.5354815 L17.5703937,14.5315607 L17.3812129,14.5121633 L17.1922322,14.4849244 L17.0032516,14.4380817 L16.8178744,14.379683 L16.6403047,14.305395 L16.4701421,14.2082015 L16.3113903,14.0951187 L16.1638493,13.9626384 L16.0353265,13.8027128 L15.9256216,13.6235961 L15.8349349,13.4170342 L15.7706735,13.1869477 L15.7290337,12.9259079 L15.7176228,12.6374228 L15.736641,12.3179843 L15.7516553,12.1933455 L15.7744772,12.049103 L15.8047061,11.8970189 L15.8463459,11.7333789 L15.903,11.5658182 L15.9710651,11.3982574 L16.0581483,11.2267759 L16.1638493,11.0629296 L16.2847649,10.9071311 L16.4323059,10.7589678 L16.5986649,10.6264875 L16.7876455,10.5096903 L17.0070552,10.4120841 L17.25269,10.3419232 L17.5249503,10.2952868 L17.831243,10.2796038 L17.9785838,10.2835245 L18.1337321,10.2992076 L18.2886802,10.3264465 L18.4436283,10.3654477 L18.594973,10.4238463 L18.742514,10.4940072 L18.8784439,10.5874863 L19.0033633,10.6966484 L19.1166716,10.8291287 L19.2111619,10.9851335 L19.2868343,11.1644566 L19.3396848,11.3708121 L19.3699137,11.6048194 L19.3737173,11.86978 L19.347292,12.1659002 L19.2906379,12.4933866 L19.2716197,12.7311082 L16.8182748,12.7311082 L16.9453963,11.9632591 L18.3453344,11.9632591 L18.3529416,11.8658592 L18.349138,11.7723801 L18.3415307,11.6865362 L18.3265164,11.6085338 L18.3000911,11.5346585 L18.2734657,11.4684183 L18.2358297,11.4098134 L18.1979935,11.3553355 L18.1525501,11.3084928 L18.1035032,11.2694916 L18.0466489,11.2346175 L17.9899947,11.2032514 L17.929537,11.1799332 L17.8690792,11.1644566 L17.8048177,11.1526943 L17.7367527,11.1448528 L17.664884,11.1487735 L17.5968189,11.1605358 L17.5325575,11.1760125 L17.4682961,11.1993307 L17.4040347,11.2306967 L17.3471803,11.2657772 L17.2905262,11.3084928 L17.2414793,11.3553355 L17.1922322,11.4098134 L17.1467888,11.4684183 L17.105149,11.5307377 L17.0713167,11.5969779 L17.0372841,11.6671388 L17.0108589,11.7451412 L16.9880371,11.8229372 L16.9730227,11.9048604 L16.8216781,12.7115044" id="Stroke-20" stroke="#333333" stroke-width="0.216" stroke-linejoin="round"></path>
                        <path d="M25.8390969,10.5953278 L25.7898498,10.5680889 L25.7408029,10.5447707 L25.6877522,10.5173254 L25.6310981,10.4900865 L25.5744439,10.4667683 L25.5101825,10.4434501 L25.4459211,10.4199256 L25.377856,10.3966074 L25.3059873,10.37721 L25.2341186,10.361527 L25.1548429,10.3458439 L25.0753669,10.334288 L24.9882837,10.3264465 L24.9014006,10.318605 L24.6215331,10.318605 L24.5232392,10.3264465 L24.4211416,10.3382088 L24.3154406,10.3576062 L24.2095393,10.3887659 L24.1036381,10.4316879 L23.9977369,10.4861657 L23.8918357,10.5563266 L23.7899383,10.6421706 L23.6914442,10.7434912 L23.5969538,10.8681299 L23.5062672,11.0123725 L23.4231878,11.183854 L23.3437118,11.3786537 L23.2718431,11.5969779 L23.2113853,11.8464618 L23.1887637,11.9865772 L23.1735492,12.1229783 L23.1659419,12.2593793 L23.1697455,12.392066 L23.1811564,12.5245463 L23.2075817,12.649185 L23.2416142,12.7661887 L23.283254,12.8829859 L23.3399082,12.9882273 L23.4079732,13.0895479 L23.487249,13.1793126 L23.5781359,13.2610294 L23.6802334,13.3311903 L23.7973454,13.3895889 L23.9258682,13.4403524 L24.0696056,13.4754328 L24.1186525,13.4871951 L24.1755068,13.498751 L24.2435719,13.5065925 L24.319044,13.514434 L24.4023236,13.5222755 L24.5838972,13.5222755 L24.6783875,13.514434 L24.7766814,13.5026718 L24.8749754,13.4832743 L24.9694657,13.4560354 L25.063956,13.4248757 L25.1584463,13.3819537 L25.2455295,13.3311903 L25.3248053,13.2688709 L25.4004776,13.19871 L25.230315,14.2393612 L25.2076934,14.2587586 L25.1850718,14.2820768 L25.1548429,14.3095221 L25.1206101,14.3328403 L25.0791705,14.364 L25.0261198,14.3912389 L24.965662,14.4184779 L24.897597,14.4420024 L24.8107139,14.4692414 L24.71242,14.4886388 L24.5989115,14.5043218 L24.466585,14.5197985 L24.319044,14.52764 L24.1490816,14.5315607 L23.9560971,14.52764 L23.7444949,14.5160841 L23.5705286,14.4964803 L23.3965623,14.4574791 L23.2227962,14.3990805 L23.0488299,14.321078 L22.8824709,14.227599 L22.723519,14.1105953 L22.5723746,13.9741943 L22.4324408,13.8183958 L22.3077216,13.6429936 L22.2018204,13.4481939 L22.1111337,13.2298697 L22.0430686,12.992148 L21.9978254,12.7311082 L21.9826109,12.4543854 L21.9902181,12.1504236 L22.0316577,11.826858 L22.0618866,11.6671388 L22.0961193,11.511134 L22.1337553,11.3592562 L22.1715915,11.2150137 L22.2132313,11.0786126 L22.2622782,10.9422116 L22.3115252,10.8136521 L22.3643757,10.6927277 L22.4212301,10.5720097 L22.4778842,10.4589268 L22.5421457,10.3497647 L22.6102107,10.2484441 L22.6782758,10.1510442 L22.7539481,10.0575652 L22.8294202,9.97172124 L22.9088962,9.89000442 L22.9957792,9.81200201 L23.0828625,9.73792035 L23.1735492,9.67168021 L23.2680395,9.60936082 L23.370137,9.55096219 L23.4722346,9.50019871 L23.5781359,9.45356235 L23.6878407,9.41064039 L23.8049526,9.37163918 L23.9220646,9.34047949 L24.0431803,9.31324055 L24.1717032,9.28971601 L24.300226,9.27011223 L24.4363561,9.25463556 L24.5724862,9.24679405 L24.7162236,9.24307965 L24.8371392,9.24679405 L24.9542511,9.25463556 L25.0677596,9.26619147 L25.1810679,9.2818745 L25.2871693,9.29755752 L25.3892669,9.3208757 L25.4873607,9.34047949 L25.5782475,9.36379767 L25.6651306,9.38711585 L25.7408029,9.41064039 L25.8126716,9.43395857 L25.8731294,9.45727675 L25.9259799,9.47688053 L25.9714233,9.4923572 L26.0054559,9.50804023 L26.0280775,9.51588174 L25.8390969,10.5953278" id="Fill-21" fill="#333333"></path>
                        <path d="M25.8390969,10.5953278 L25.8390969,10.5953278 L25.7898498,10.5680889 L25.7408029,10.5447707 L25.6877522,10.5173254 L25.6310981,10.4900865 L25.5744439,10.4667683 L25.5101825,10.4434501 L25.4459211,10.4199256 L25.377856,10.3966074 L25.3059873,10.37721 L25.2341186,10.361527 L25.1548429,10.3458439 L25.0753669,10.334288 L24.9882837,10.3264465 L24.9014006,10.318605 L24.6215331,10.318605 L24.5232392,10.3264465 L24.4211416,10.3382088 L24.3154406,10.3576062 L24.2095393,10.3887659 L24.1036381,10.4316879 L23.9977369,10.4861657 L23.8918357,10.5563266 L23.7899383,10.6421706 L23.6914442,10.7434912 L23.5969538,10.8681299 L23.5062672,11.0123725 L23.4231878,11.183854 L23.3437118,11.3786537 L23.2718431,11.5969779 L23.2113853,11.8464618 L23.1887637,11.9865772 L23.1735492,12.1229783 L23.1659419,12.2593793 L23.1697455,12.392066 L23.1811564,12.5245463 L23.2075817,12.649185 L23.2416142,12.7661887 L23.283254,12.8829859 L23.3399082,12.9882273 L23.4079732,13.0895479 L23.487249,13.1793126 L23.5781359,13.2610294 L23.6802334,13.3311903 L23.7973454,13.3895889 L23.9258682,13.4403524 L24.0696056,13.4754328 L24.1186525,13.4871951 L24.1755068,13.498751 L24.2435719,13.5065925 L24.319044,13.514434 L24.4023236,13.5222755 L24.5838972,13.5222755 L24.6783875,13.514434 L24.7766814,13.5026718 L24.8749754,13.4832743 L24.9694657,13.4560354 L25.063956,13.4248757 L25.1584463,13.3819537 L25.2455295,13.3311903 L25.3248053,13.2688709 L25.4004776,13.19871 L25.230315,14.2393612 L25.2076934,14.2587586 L25.1850718,14.2820768 L25.1548429,14.3095221 L25.1206101,14.3328403 L25.0791705,14.364 L25.0261198,14.3912389 L24.965662,14.4184779 L24.897597,14.4420024 L24.8107139,14.4692414 L24.71242,14.4886388 L24.5989115,14.5043218 L24.466585,14.5197985 L24.319044,14.52764 L24.1490816,14.5315607 L23.9560971,14.52764 L23.7444949,14.5160841 L23.5705286,14.4964803 L23.3965623,14.4574791 L23.2227962,14.3990805 L23.0488299,14.321078 L22.8824709,14.227599 L22.723519,14.1105953 L22.5723746,13.9741943 L22.4324408,13.8183958 L22.3077216,13.6429936 L22.2018204,13.4481939 L22.1111337,13.2298697 L22.0430686,12.992148 L21.9978254,12.7311082 L21.9826109,12.4543854 L21.9902181,12.1504236 L22.0316577,11.826858 L22.0618866,11.6671388 L22.0961193,11.511134 L22.1337553,11.3592562 L22.1715915,11.2150137 L22.2132313,11.0786126 L22.2622782,10.9422116 L22.3115252,10.8136521 L22.3643757,10.6927277 L22.4212301,10.5720097 L22.4778842,10.4589268 L22.5421457,10.3497647 L22.6102107,10.2484441 L22.6782758,10.1510442 L22.7539481,10.0575652 L22.8294202,9.97172124 L22.9088962,9.89000442 L22.9957792,9.81200201 L23.0828625,9.73792035 L23.1735492,9.67168021 L23.2680395,9.60936082 L23.370137,9.55096219 L23.4722346,9.50019871 L23.5781359,9.45356235 L23.6878407,9.41064039 L23.8049526,9.37163918 L23.9220646,9.34047949 L24.0431803,9.31324055 L24.1717032,9.28971601 L24.300226,9.27011223 L24.4363561,9.25463556 L24.5724862,9.24679405 L24.7162236,9.24307965 L24.8371392,9.24679405 L24.9542511,9.25463556 L25.0677596,9.26619147 L25.1810679,9.2818745 L25.2871693,9.29755752 L25.3892669,9.3208757 L25.4873607,9.34047949 L25.5782475,9.36379767 L25.6651306,9.38711585 L25.7408029,9.41064039 L25.8126716,9.43395857 L25.8731294,9.45727675 L25.9259799,9.47688053 L25.9714233,9.4923572 L26.0054559,9.50804023 L26.0280775,9.51588174 L25.8390969,10.5953278" id="Stroke-22" stroke="#333333" stroke-width="0.216" stroke-linecap="round" stroke-linejoin="round"></path>
                        <path d="M35.1475939,14.5354815 L34.1001928,14.5354815 L34.1758651,14.1029602 L34.1758651,14.063959 L34.1154073,14.141755 L34.0511459,14.2119159 L33.9868845,14.2744417 L33.9188194,14.3289195 L33.8507544,14.379683 L33.7826893,14.4223986 L33.7146243,14.4574791 L33.6427556,14.4925595 L33.5708869,14.5197985 L33.4990182,14.5394023 L33.4271495,14.5587997 L33.3516773,14.5705619 L33.276005,14.5823242 L33.2041363,14.5899594 L33.128464,14.5938801 L33.0529919,14.5938801 L32.856404,14.5784035 L32.6748304,14.5354815 L32.5084714,14.4692414 L32.357327,14.379683 L32.2211968,14.2666002 L32.1000811,14.1341199 L31.9943801,13.9898773 L31.9034932,13.8262373 L31.8278209,13.6508351 L31.7673631,13.4675913 L31.7257233,13.2767124 L31.6954944,13.077992 L31.6842837,12.8790652 L31.6880873,12.676424 L31.7069053,12.4777035 L31.7409378,12.2789831 L31.797592,12.049103 L31.8658572,11.8307788 L31.945133,11.6320583 L32.0396233,11.4448938 L32.1379172,11.2694916 L32.2514257,11.1136931 L32.3685377,10.9733713 L32.4934571,10.8448117 L32.6257835,10.7317289 L32.7655171,10.634329 L32.9092545,10.5486915 L33.0529919,10.482245 L33.2041363,10.4277671 L33.3552808,10.3926866 L33.5066254,10.3693685 L33.6615735,10.361527 L33.7712784,10.3654477 L33.8771796,10.37721 L33.9754736,10.3966074 L34.0661602,10.4238463 L34.1532435,10.455006 L34.2287156,10.4900865 L34.3043879,10.5330084 L34.372453,10.5759304 L34.4329108,10.6225668 L34.4897651,10.6733302 L34.538812,10.7238874 L34.5842554,10.7746508 L34.6218914,10.825208 L34.6561241,10.8759714 L34.686353,10.9228142 L34.7089746,10.9694505 L34.9736276,9.43787932 L36.0020105,9.43787932 L35.1475939,14.5354815" id="Fill-23" fill="#333333"></path>
                        <path d="M35.1475939,14.5354815 L34.1001928,14.5354815 L34.1758651,14.1029602 L34.1758651,14.063959 L34.1154073,14.141755 L34.0511459,14.2119159 L33.9868845,14.2744417 L33.9188194,14.3289195 L33.8507544,14.379683 L33.7826893,14.4223986 L33.7146243,14.4574791 L33.6427556,14.4925595 L33.5708869,14.5197985 L33.4990182,14.5394023 L33.4271495,14.5587997 L33.3516773,14.5705619 L33.276005,14.5823242 L33.2041363,14.5899594 L33.128464,14.5938801 L33.0529919,14.5938801 L32.856404,14.5784035 L32.6748304,14.5354815 L32.5084714,14.4692414 L32.357327,14.379683 L32.2211968,14.2666002 L32.1000811,14.1341199 L31.9943801,13.9898773 L31.9034932,13.8262373 L31.8278209,13.6508351 L31.7673631,13.4675913 L31.7257233,13.2767124 L31.6954944,13.077992 L31.6842837,12.8790652 L31.6880873,12.676424 L31.7069053,12.4777035 L31.7409378,12.2789831 L31.797592,12.049103 L31.8658572,11.8307788 L31.945133,11.6320583 L32.0396233,11.4448938 L32.1379172,11.2694916 L32.2514257,11.1136931 L32.3685377,10.9733713 L32.4934571,10.8448117 L32.6257835,10.7317289 L32.7655171,10.634329 L32.9092545,10.5486915 L33.0529919,10.482245 L33.2041363,10.4277671 L33.3552808,10.3926866 L33.5066254,10.3693685 L33.6615735,10.361527 L33.7712784,10.3654477 L33.8771796,10.37721 L33.9754736,10.3966074 L34.0661602,10.4238463 L34.1532435,10.455006 L34.2287156,10.4900865 L34.3043879,10.5330084 L34.372453,10.5759304 L34.4329108,10.6225668 L34.4897651,10.6733302 L34.538812,10.7238874 L34.5842554,10.7746508 L34.6218914,10.825208 L34.6561241,10.8759714 L34.686353,10.9228142 L34.7089746,10.9694505 L34.9736276,9.43787932 L36.0020105,9.43787932 L35.1475939,14.5354815" id="Stroke-24" stroke="#333333" stroke-width="0.216" stroke-linecap="round" stroke-linejoin="round"></path>
                        <path d="M33.4347568,13.5924364 L33.540658,13.5845949 L33.6389519,13.5612767 L33.7296386,13.5338315 L33.8167218,13.4909095 L33.8959976,13.4442731 L33.9716699,13.3856681 L34.0435386,13.3196344 L34.1078,13.2492671 L34.1644542,13.171471 L34.2175049,13.0856271 L34.2665518,12.9960688 L34.3081916,12.9025897 L34.3460277,12.8051899 L34.3762566,12.7038693 L34.4026819,12.5986279 L34.4217001,12.4933866 L34.4405181,12.3842245 L34.451929,12.2711416 L34.451929,12.1659002 L34.4481253,12.0569445 L34.4367144,11.9554175 L34.4217001,11.8580177 L34.3950746,11.7645386 L34.3648457,11.6747739 L34.3272098,11.5969779 L34.2817663,11.5228962 L34.2325193,11.4605768 L34.1758651,11.4058926 L34.1116037,11.3592562 L34.0435386,11.3280965 L33.9716699,11.3084928 L33.892194,11.3006512 L33.7900964,11.3084928 L33.6958063,11.3241758 L33.608723,11.3553355 L33.52184,11.3943367 L33.4461677,11.4448938 L33.3704953,11.5074195 L33.3062339,11.5734533 L33.2419725,11.647535 L33.1853183,11.7333789 L33.1322676,11.8229372 L33.0832208,11.9164163 L33.041581,12.0177369 L33.0037448,12.1229783 L32.9735159,12.2282196 L32.943287,12.3413025 L32.9206654,12.4543854 L32.9016472,12.6258669 L32.9092545,12.812825 L32.9356797,13.0039103 L32.9849268,13.1869477 L33.0605991,13.3468733 L33.1588931,13.4754328 L33.2836123,13.5612767 L33.4347568,13.5924364" id="Fill-25" fill="#CFCFCF"></path>
                        <path d="M10.2165649,13.6702325 L10.0654205,14.5354815 L9.11250969,14.5354815 L9.13893494,14.3757623 L9.15795312,14.2315197 L9.17296747,14.1223576 L9.18818201,14.063959 L9.1353315,14.1262784 L9.07467352,14.1885977 L9.00300502,14.2469964 L8.92352906,14.3016806 L8.83284238,14.3561585 L8.73815188,14.4030012 L8.63985793,14.4496376 L8.53776034,14.4886388 L8.42825568,14.5237192 L8.31855083,14.5511645 L8.20884597,14.5744827 L8.09553767,14.5899594 L7.98583282,14.5978009 L7.87612796,14.6017216 L7.77042693,14.5899594 L7.66832935,14.5744827 L7.53600287,14.5394023 L7.41488711,14.500401 L7.30918608,14.4496376 L7.21449558,14.3912389 L7.13141617,14.3289195 L7.05574384,14.2587586 L6.99528606,14.184677 L6.94223535,14.1068809 L6.89699211,14.0249578 L6.85915594,13.9391138 L6.82892705,13.8534763 L6.80630543,13.7678387 L6.79109089,13.678074 L6.77988017,13.5885157 L6.7722729,13.5026718 L6.7722729,13.4170342 L6.78348362,13.2649501 L6.80630543,13.1207076 L6.8439414,12.9843065 L6.89318847,12.8518262 L6.95364626,12.7271874 L7.02171131,12.6141046 L7.10118728,12.5049425 L7.19187395,12.4075426 L7.28636427,12.3179843 L7.39226549,12.2360611 L7.50197034,12.1619795 L7.61527864,12.0996601 L7.7363944,12.0451822 L7.86111361,12.0022603 L7.98963645,11.9671798 L8.12196293,11.9438616 L8.1295702,11.9438616 L8.14838818,11.9399409 L8.17501363,11.9360201 L8.21665343,11.9320994 L8.26189668,11.9242578 L8.31474719,11.9203371 L8.37140134,11.9127019 L8.43586295,11.9048604 L8.50012437,11.8970189 L8.56438579,11.8891774 L8.63245085,11.8852566 L8.69290863,11.8776215 L8.75336642,11.8737007 L8.81002057,11.86978 L8.86307127,11.8658592 L8.99159412,11.8658592 L9.08228079,11.86978 L9.16556039,11.8737007 L9.2486398,11.8737007 L9.31670486,11.8776215 L9.36955537,11.8815422 L9.40739153,11.8852566 L9.41880244,11.8852566 L9.42640971,11.8580177 L9.44903133,11.7878568 L9.46804951,11.70614 L9.47565678,11.6320583 L9.46044224,11.5462144 L9.42640971,11.4684183 L9.38096628,11.3982574 L9.32050849,11.3396525 L9.2486398,11.2890953 L9.16916384,11.2540149 L9.07847716,11.2306967 L8.98018321,11.2228552 L8.87448218,11.2189344 L8.76097369,11.2150137 L8.64366156,11.2150137 L8.52274599,11.2189344 L8.39802679,11.2267759 L8.27691103,11.2383319 L8.15599546,11.2500941 L8.03868333,11.2657772 L7.92537503,11.2812538 L7.81567017,11.3006512 L7.71737623,11.320255 L7.62668955,11.3396525 L7.54340995,11.363177 L7.47554508,11.3864952 L7.42249438,11.4137341 L7.38085458,11.4370523 L7.64931117,10.497928 L7.73259077,10.4628475 L7.81567017,10.4316879 L7.90635685,10.4042426 L7.99724372,10.3848451 L8.0879304,10.3654477 L8.18622435,10.3497647 L8.2845183,10.334288 L8.38661588,10.3264465 L8.4925171,10.318605 L8.60202177,10.3146842 L8.71553026,10.3107635 L9.07847716,10.3107635 L9.21080364,10.3146842 L9.34313011,10.318605 L9.44903133,10.3264465 L9.56253982,10.3458439 L9.67965176,10.3732892 L9.80056733,10.4083697 L9.91787945,10.455006 L10.0311878,10.5096903 L10.1446962,10.5759304 L10.2505975,10.6500121 L10.3450878,10.7356496 L10.4283674,10.8291287 L10.5038395,10.9343701 L10.5606939,11.0513737 L10.5983298,11.1760125 L10.6211516,11.3084928 L10.6211516,11.4566561 L10.5983298,11.6126609 L10.2165649,13.6702325" id="Fill-26" fill="#333333"></path>
                        <path d="M10.2165649,13.6702325 L10.0654205,14.5354815 L9.11250969,14.5354815 L9.13893494,14.3757623 L9.15795312,14.2315197 L9.17296747,14.1223576 L9.18818201,14.063959 L9.1353315,14.1262784 L9.07467352,14.1885977 L9.00300502,14.2469964 L8.92352906,14.3016806 L8.83284238,14.3561585 L8.73815188,14.4030012 L8.63985793,14.4496376 L8.53776034,14.4886388 L8.42825568,14.5237192 L8.31855083,14.5511645 L8.20884597,14.5744827 L8.09553767,14.5899594 L7.98583282,14.5978009 L7.87612796,14.6017216 L7.77042693,14.5899594 L7.66832935,14.5744827 L7.53600287,14.5394023 L7.41488711,14.500401 L7.30918608,14.4496376 L7.21449558,14.3912389 L7.13141617,14.3289195 L7.05574384,14.2587586 L6.99528606,14.184677 L6.94223535,14.1068809 L6.89699211,14.0249578 L6.85915594,13.9391138 L6.82892705,13.8534763 L6.80630543,13.7678387 L6.79109089,13.678074 L6.77988017,13.5885157 L6.7722729,13.5026718 L6.7722729,13.4170342 L6.78348362,13.2649501 L6.80630543,13.1207076 L6.8439414,12.9843065 L6.89318847,12.8518262 L6.95364626,12.7271874 L7.02171131,12.6141046 L7.10118728,12.5049425 L7.19187395,12.4075426 L7.28636427,12.3179843 L7.39226549,12.2360611 L7.50197034,12.1619795 L7.61527864,12.0996601 L7.7363944,12.0451822 L7.86111361,12.0022603 L7.98963645,11.9671798 L8.12196293,11.9438616 L8.1295702,11.9438616 L8.14838818,11.9399409 L8.17501363,11.9360201 L8.21665343,11.9320994 L8.26189668,11.9242578 L8.31474719,11.9203371 L8.37140134,11.9127019 L8.43586295,11.9048604 L8.50012437,11.8970189 L8.56438579,11.8891774 L8.63245085,11.8852566 L8.69290863,11.8776215 L8.75336642,11.8737007 L8.81002057,11.86978 L8.86307127,11.8658592 L8.99159412,11.8658592 L9.08228079,11.86978 L9.16556039,11.8737007 L9.2486398,11.8737007 L9.31670486,11.8776215 L9.36955537,11.8815422 L9.40739153,11.8852566 L9.41880244,11.8852566 L9.42640971,11.8580177 L9.44903133,11.7878568 L9.46804951,11.70614 L9.47565678,11.6320583 L9.46044224,11.5462144 L9.42640971,11.4684183 L9.38096628,11.3982574 L9.32050849,11.3396525 L9.2486398,11.2890953 L9.16916384,11.2540149 L9.07847716,11.2306967 L8.98018321,11.2228552 L8.87448218,11.2189344 L8.76097369,11.2150137 L8.64366156,11.2150137 L8.52274599,11.2189344 L8.39802679,11.2267759 L8.27691103,11.2383319 L8.15599546,11.2500941 L8.03868333,11.2657772 L7.92537503,11.2812538 L7.81567017,11.3006512 L7.71737623,11.320255 L7.62668955,11.3396525 L7.54340995,11.363177 L7.47554508,11.3864952 L7.42249438,11.4137341 L7.38085458,11.4370523 L7.64931117,10.497928 L7.73259077,10.4628475 L7.81567017,10.4316879 L7.90635685,10.4042426 L7.99724372,10.3848451 L8.0879304,10.3654477 L8.18622435,10.3497647 L8.2845183,10.334288 L8.38661588,10.3264465 L8.4925171,10.318605 L8.60202177,10.3146842 L8.71553026,10.3107635 L9.07847716,10.3107635 L9.21080364,10.3146842 L9.34313011,10.318605 L9.44903133,10.3264465 L9.56253982,10.3458439 L9.67965176,10.3732892 L9.80056733,10.4083697 L9.91787945,10.455006 L10.0311878,10.5096903 L10.1446962,10.5759304 L10.2505975,10.6500121 L10.3450878,10.7356496 L10.4283674,10.8291287 L10.5038395,10.9343701 L10.5606939,11.0513737 L10.5983298,11.1760125 L10.6211516,11.3084928 L10.6211516,11.4566561 L10.5983298,11.6126609 L10.2165649,13.6702325" id="Stroke-27" stroke="#333333" stroke-width="0.216" stroke-linejoin="round"></path>
                        <path d="M9.30529395,12.6531058 L9.30149031,12.633502 L9.28647596,12.6141046 L9.26385434,12.6023423 L9.22601818,12.5947072 L9.18437838,12.5868656 L9.1353315,12.5829449 L9.02182301,12.5829449 L8.96136522,12.5868656 L8.8971038,12.5947072 L8.83644583,12.6023423 L8.77598804,12.6101838 L8.71933389,12.6180253 L8.66648338,12.6297876 L8.62103994,12.6413435 L8.57940014,12.6531058 L8.55297489,12.6609473 L8.52274599,12.6727096 L8.48110619,12.6881862 L8.43966659,12.7075837 L8.39041952,12.7311082 L8.34117245,12.7583471 L8.28832193,12.7855861 L8.23907486,12.8167458 L8.18622435,12.855747 L8.13717747,12.8947482 L8.09173403,12.9415909 L8.05009424,12.9882273 L8.01225807,13.0389907 L7.98583282,13.0934686 L7.96321119,13.155788 L7.95180029,13.2181074 L7.94799665,13.350794 L7.96701483,13.4560354 L8.00485099,13.5338315 L8.05389787,13.5924364 L8.11055202,13.6312313 L8.17501363,13.6547558 L8.23547142,13.6663117 L8.2959292,13.6702325 L8.40943769,13.6663117 L8.51133509,13.6547558 L8.60982923,13.6390728 L8.69671227,13.6155483 L8.7723846,13.5885157 L8.8440531,13.5534352 L8.90831452,13.5183548 L8.96516886,13.4754328 L9.01421574,13.4364316 L9.05965917,13.3895889 L9.09749534,13.3468733 L9.12772423,13.3000306 L9.15414949,13.2531879 L9.17677111,13.2065515 L9.19578928,13.1636295 L9.207,13.1207076 L9.23722889,13.0078311 L9.26385434,12.8790652 L9.28647596,12.7544264 L9.30529395,12.6531058" id="Fill-28" fill="#CFCFCF"></path>
                        <path d="M2.26156159,14.5354815 L1.23317867,14.5354815 L2.09159914,9.4184819 L3.8799084,9.4184819 L4.04987084,12.4543854 L5.28625257,9.4184819 L7.15423798,9.4184819 L6.27679933,14.5354815 L5.24841641,14.5354815 L5.89883808,10.7123315 L5.85719828,10.7123315 L4.31852762,14.5354815 L3.15761803,14.5354815 L3.15001076,14.3757623 L3.12358551,13.9508761 L3.08955298,13.3468733 L3.01408084,11.9554175 L2.98004831,11.3435732 L2.95362306,10.8992896 L2.94601579,10.7123315 L2.88916144,10.7123315 L2.26156159,14.5354815" id="Fill-29" fill="#333333"></path>
                        <path d="M2.26156159,14.5354815 L1.23317867,14.5354815 L2.09159914,9.4184819 L3.8799084,9.4184819 L4.04987084,12.4543854 L5.28625257,9.4184819 L7.15423798,9.4184819 L6.27679933,14.5354815 L5.24841641,14.5354815 L5.89883808,10.7123315 L5.85719828,10.7123315 L4.31852762,14.5354815 L3.15761803,14.5354815 L3.15001076,14.3757623 L3.12358551,13.9508761 L3.08955298,13.3468733 L3.01408084,11.9554175 L2.98004831,11.3435732 L2.95362306,10.8992896 L2.94601579,10.7123315 L2.88916144,10.7123315 L2.26156159,14.5354815" id="Stroke-30" stroke="#333333" stroke-width="0.216" stroke-linecap="round" stroke-linejoin="round"></path>
                        <path d="M28.9811,13.6702325 L28.8259517,14.5354815 L27.8770447,14.5354815 L27.8844518,14.3757623 L27.8882554,14.2354405 L27.8882554,14.1301991 L27.8958627,14.0833564 L27.8466156,14.141755 L27.7899615,14.20036 L27.7218964,14.2548379 L27.6464243,14.3095221 L27.5669483,14.3600792 L27.4760615,14.406922 L27.3817713,14.4535583 L27.2870808,14.4925595 L27.1849833,14.5237192 L27.0792822,14.5548789 L26.973381,14.5744827 L26.8674798,14.5899594 L26.7577749,14.5978009 L26.6518737,14.6017216 L26.5497761,14.5899594 L26.4476785,14.5744827 L26.3115484,14.5394023 L26.1906329,14.500401 L26.0847316,14.4496376 L25.9866379,14.3912389 L25.9033583,14.3289195 L25.8314896,14.2587586 L25.7710318,14.184677 L25.7179811,14.1068809 L25.6727379,14.0249578 L25.6387053,13.9391138 L25.6084764,13.8534763 L25.5894583,13.7678387 L25.5744439,13.678074 L25.563033,13.5885157 L25.5554257,13.5026718 L25.5554257,13.4170342 L25.563033,13.2649501 L25.5856546,13.1207076 L25.6196872,12.9843065 L25.6689342,12.8518262 L25.7255884,12.7271874 L25.7974571,12.6141046 L25.876933,12.5049425 L25.9638161,12.4075426 L26.06211,12.3179843 L26.1642076,12.2360611 L26.2739125,12.1619795 L26.3910244,12.0996601 L26.5083365,12.0451822 L26.6330557,12.0022603 L26.7577749,11.9671798 L26.8862978,11.9438616 L26.893905,11.9438616 L26.912723,11.9399409 L26.9393485,11.9360201 L26.9771846,11.9320994 L27.0262315,11.9242578 L27.0792822,11.9203371 L27.1359364,11.9127019 L27.1963942,11.9048604 L27.2606556,11.8970189 L27.3287206,11.8891774 L27.3929821,11.8852566 L27.4572435,11.8776215 L27.5177013,11.8737007 L27.570752,11.86978 L27.6236025,11.8658592 L27.755929,11.8658592 L27.8466156,11.86978 L27.9336989,11.8737007 L28.0167783,11.8737007 L28.088647,11.8776215 L28.1491048,11.8815422 L28.1833375,11.8852566 L28.1983518,11.8852566 L28.2059591,11.8580177 L28.2171698,11.7878568 L28.2285807,11.70614 L28.236188,11.6320583 L28.2209735,11.5462144 L28.1907446,11.4684183 L28.1416977,11.3982574 L28.0848433,11.3396525 L28.0167783,11.2890953 L27.9375025,11.2540149 L27.8542229,11.2306967 L27.7635362,11.2228552 L27.657635,11.2189344 L27.5443267,11.2150137 L27.4270146,11.2150137 L27.306099,11.2189344 L27.1811796,11.2267759 L27.0602641,11.2383319 L26.9393485,11.2500941 L26.8220364,11.2657772 L26.7087281,11.2812538 L26.5990232,11.3006512 L26.5007293,11.320255 L26.4100426,11.3396525 L26.326763,11.363177 L26.2586979,11.3864952 L26.2058474,11.4137341 L26.1642076,11.4370523 L26.4288606,10.497928 L26.5121402,10.4628475 L26.5990232,10.4316879 L26.6859062,10.4042426 L26.7767931,10.3848451 L26.8712834,10.3654477 L26.9657737,10.3497647 L27.0640677,10.334288 L27.1661653,10.3264465 L27.2720665,10.318605 L27.3817713,10.3146842 L27.491276,10.3107635 L27.8466156,10.3107635 L27.9751385,10.3146842 L28.1038615,10.318605 L28.2097627,10.3264465 L28.323071,10.3458439 L28.4403832,10.3732892 L28.5612987,10.4083697 L28.6784107,10.455006 L28.7957228,10.5096903 L28.9090311,10.5759304 L29.0149323,10.6500121 L29.1094226,10.7356496 L29.1965059,10.8291287 L29.2721782,10.9343701 L29.3288323,11.0513737 L29.3702719,11.1760125 L29.3968974,11.3084928 L29.3968974,11.4566561 L29.3778792,11.6126609 L28.9811,13.6702325" id="Fill-31" fill="#333333"></path>
                        <path id="Fill-32" fill="#FFFFFF" d="M28.8259517,14.5627204 L28.8485733,14.5394023 L29.0037216,13.6741533 L28.9582782,13.6663117 L28.8033301,14.5315607 L28.8259517,14.5082426 L28.8259517,14.5627204 L28.8447697,14.5587997 L28.8485733,14.5394023 L28.8259517,14.5627204"></path>
                        <path id="Fill-33" fill="#FFFFFF" d="M27.8542229,14.5354815 L27.8770447,14.5627204 L28.8259517,14.5627204 L28.8259517,14.5082426 L27.8770447,14.5082426 L27.8996663,14.5354815 L27.8542229,14.5354815 L27.8504193,14.5627204 L27.8770447,14.5627204 L27.8542229,14.5354815"></path>
                        <path id="Fill-34" fill="#FFFFFF" d="M27.9146807,14.0990394 L27.8808484,14.0678797 L27.8656338,14.1301991 L27.8618302,14.2354405 L27.8618302,14.3757623 L27.8542229,14.5354815 L27.8996663,14.5354815 L27.9072736,14.3757623 L27.9146807,14.2354405 L27.9108771,14.1301991 L27.9108771,14.0990394 L27.8770447,14.0678797 L27.9146807,14.0990394"></path>
                        <path id="Fill-38" fill="#FFFFFF" d="M27.6652423,11.8386203 L27.6236025,11.8386203 L27.570752,11.8464618 L27.5177013,11.8503825 L27.4572435,11.8540969 L27.3929821,11.8619385 L27.3287206,11.8658592 L27.2606556,11.8737007 L27.1963942,11.8815422 L27.1359364,11.8891774 L27.0792822,11.8970189 L27.0262315,11.9009397 L26.9771846,11.9087812 L26.9393485,11.9127019 L26.9089194,11.9164163 L26.893905,11.9203371 L26.8862978,11.9203371 L26.8862978,11.9671798 L26.893905,11.9671798 L26.9165267,11.9632591 L26.9393485,11.9593383 L26.9771846,11.9554175 L27.0262315,11.9477824 L27.0792822,11.9438616 L27.1359364,11.9360201 L27.1963942,11.9281786 L27.2606556,11.9203371 L27.3287206,11.9127019 L27.3929821,11.9087812 L27.4572435,11.9009397 L27.5177013,11.8970189 L27.570752,11.8930981 L27.6652423,11.8930981 L27.6652423,11.8386203"></path>
                        <path id="Fill-39" fill="#FFFFFF" d="M28.17553,11.8815422 L28.1983518,11.8619385 L28.1833375,11.8619385 L28.1491048,11.8580177 L28.088647,11.8540969 L28.0167783,11.8464618 L27.8466156,11.8464618 L27.755929,11.8386203 L27.6652423,11.8386203 L27.6652423,11.8930981 L27.8466156,11.8930981 L27.9336989,11.9009397 L28.088647,11.9009397 L28.1491048,11.9048604 L28.1833375,11.9087812 L28.1983518,11.9087812 L28.2209735,11.8891774 L28.1983518,11.9087812 L28.2171698,11.9127019 L28.2209735,11.8891774 L28.17553,11.8815422"></path>
                        <path id="Fill-40" fill="#FFFFFF" d="M28.2133662,11.6320583 L28.2097627,11.6320583 L28.2059591,11.70614 L28.1945482,11.783936 L28.1833375,11.8540969 L28.17553,11.8815422 L28.2209735,11.8891774 L28.2285807,11.8619385 L28.2399916,11.7917776 L28.2512023,11.70614 L28.2626133,11.6320583 L28.2133662,11.6320583"></path>
                        <path id="Fill-41" fill="#FFFFFF" d="M27.7635362,11.2461734 L27.7635362,11.2500941 L27.8504193,11.2540149 L27.9298952,11.2773331 L28.0055676,11.3124135 L28.069829,11.3592562 L28.1226795,11.4137341 L28.1681229,11.4799743 L28.1983518,11.5501352 L28.2133662,11.6320583 L28.2588096,11.6320583 L28.2435951,11.5422936 L28.2133662,11.4566561 L28.1605157,11.3825744 L28.1000579,11.320255 L28.0281892,11.2657772 L27.9449096,11.2306967 L27.8580265,11.2071722 L27.7635362,11.1956163 L27.7635362,11.2461734"></path>
                        <path id="Fill-42" fill="#FFFFFF" d="M26.141586,11.4333379 L26.179222,11.4566561 L26.2172583,11.4370523 L26.2663052,11.4098134 L26.3305666,11.3864952 L26.413646,11.363177 L26.5045329,11.3435732 L26.6028268,11.3241758 L26.7125317,11.304572 L26.8220364,11.2890953 L26.9393485,11.2734123 L27.0602641,11.2618564 L27.1811796,11.2500941 L27.306099,11.2422526 L27.657635,11.2422526 L27.7635362,11.2461734 L27.7635362,11.1993307 L27.657635,11.1956163 L27.5443267,11.1877747 L27.4270146,11.1877747 L27.306099,11.1956163 L27.1811796,11.2032514 L27.0602641,11.2150137 L26.9393485,11.2267759 L26.8220364,11.2422526 L26.7049244,11.2579356 L26.5952196,11.2773331 L26.4969256,11.2969368 L26.4062389,11.3163343 L26.3229593,11.3396525 L26.2510906,11.363177 L26.1944365,11.3904159 L26.1489931,11.4176549 L26.1868292,11.440973 L26.141586,11.4333379"></path>
                        <path id="Fill-43" fill="#FFFFFF" d="M26.4212533,10.4746098 L26.4062389,10.4940072 L26.141586,11.4333379 L26.1868292,11.440973 L26.4514822,10.5018488 L26.4364678,10.5212462 L26.4212533,10.4746098 L26.4100426,10.4783242 L26.4062389,10.4940072 L26.4212533,10.4746098"></path>
                        <path id="Fill-44" fill="#FFFFFF" d="M28.1038615,10.2952868 L28.1038615,10.2952868 L27.9751385,10.2874453 L27.8466156,10.2835245 L27.491276,10.2835245 L27.3817713,10.291366 L27.2720665,10.2952868 L27.1661653,10.3031283 L27.0640677,10.3107635 L26.9619701,10.3264465 L26.8674798,10.3419232 L26.7729895,10.361527 L26.6821026,10.3811307 L26.5914159,10.4083697 L26.5045329,10.4395294 L26.4212533,10.4746098 L26.4364678,10.5212462 L26.5195472,10.4861657 L26.6066305,10.455006 L26.6897099,10.4277671 L26.7803966,10.4083697 L26.8750871,10.3887659 L26.9695774,10.3732892 L27.0640677,10.3576062 L27.1661653,10.3497647 L27.2720665,10.3419232 L27.3817713,10.3382088 L27.8466156,10.3382088 L27.9751385,10.3419232 L28.1038615,10.3419232 L28.1038615,10.2952868"></path>
                        <path id="Fill-46" fill="#FFFFFF" d="M29.0037216,13.6741533 L29.0037216,13.6741533 L29.4005008,11.6163753 L29.3552576,11.6085338 L28.9582782,13.6663117 L29.0037216,13.6741533"></path>
                        <path d="M28.0660254,12.6531058 L28.0584181,12.6297876 L28.0434037,12.6101838 L28.0167783,12.5986279 L27.9791423,12.5868656 L27.9375025,12.5829449 L27.8882554,12.5790241 L27.8316013,12.5790241 L27.7749471,12.5829449 L27.7144894,12.5907864 L27.6538314,12.5986279 L27.5933736,12.6062631 L27.5367194,12.6141046 L27.4798651,12.6258669 L27.4308182,12.633502 L27.3817713,12.6452643 L27.343735,12.6531058 L27.3173097,12.6570265 L27.2870808,12.6685825 L27.2494449,12.6803447 L27.2078051,12.6960278 L27.158558,12.7193459 L27.1131146,12.7426641 L27.0602641,12.7699031 L27.0112172,12.8051899 L26.9619701,12.8402703 L26.912723,12.8829859 L26.8712834,12.9259079 L26.8296436,12.9766714 L26.7956111,13.0311492 L26.7691858,13.0895479 L26.746364,13.1518673 L26.7351533,13.2181074 L26.7313497,13.350794 L26.7501677,13.4560354 L26.7803966,13.5338315 L26.82584,13.5924364 L26.8824941,13.6312313 L26.9467556,13.6547558 L27.0112172,13.6663117 L27.0754786,13.6702325 L27.1887869,13.6663117 L27.2946881,13.6547558 L27.3929821,13.6351521 L27.4798651,13.6079131 L27.5631447,13.5767534 L27.6350134,13.541673 L27.7030785,13.5026718 L27.7635362,13.4560354 L27.8163867,13.4131134 L27.8618302,13.36235 L27.90347,13.3157136 L27.9375025,13.2649501 L27.9639278,13.2181074 L27.9827458,13.171471 L27.9979603,13.1246283 L28.0093712,13.0819127 L28.0243856,12.9727506 L28.0434037,12.8596677 L28.0584181,12.7505056 L28.0660254,12.6531058" id="Fill-47" fill="#CFCFCF"></path>
                        <path d="M29.2645709,14.5354815 L30.3305898,14.5354815 L30.7127551,12.3179843 L30.7277694,12.2321404 L30.7730127,12.0606589 L30.8034418,11.9750213 L30.8410777,11.8891774 L30.8865212,11.8074606 L30.935568,11.7294582 L30.996226,11.6553765 L31.0642911,11.5891364 L31.1397632,11.526817 L31.2268464,11.4684183 L31.3251404,11.4215756 L31.4346451,11.3825744 L31.5557608,11.3514147 L31.6880873,11.3280965 L31.8356283,11.320255 L31.9299184,11.320255 L32.1000811,10.318605 L31.9943801,10.3264465 L31.8922825,10.3382088 L31.797592,10.3576062 L31.7069053,10.3848451 L31.6238259,10.4160048 L31.5443499,10.455006 L31.4686776,10.497928 L31.3970091,10.5447707 L31.328944,10.5992486 L31.2646826,10.6539328 L31.1435669,10.7785716 L31.0869127,10.8448117 L31.0302586,10.9188934 L30.9734042,10.9890543 L30.9205537,11.0668504 L31.0340622,10.361527 L29.9716467,10.361527 L29.2645709,14.5354815" id="Fill-48" fill="#333333"></path>
                        <path d="M29.2645709,14.5354815 L30.3305898,14.5354815 L30.7127551,12.3179843 L30.7277694,12.2321404 L30.7730127,12.0606589 L30.8034418,11.9750213 L30.8410777,11.8891774 L30.8865212,11.8074606 L30.935568,11.7294582 L30.996226,11.6553765 L31.0642911,11.5891364 L31.1397632,11.526817 L31.2268464,11.4684183 L31.3251404,11.4215756 L31.4346451,11.3825744 L31.5557608,11.3514147 L31.6880873,11.3280965 L31.8356283,11.320255 L31.9299184,11.320255 L32.1000811,10.318605 L31.9943801,10.3264465 L31.8922825,10.3382088 L31.797592,10.3576062 L31.7069053,10.3848451 L31.6238259,10.4160048 L31.5443499,10.455006 L31.4686776,10.497928 L31.3970091,10.5447707 L31.328944,10.5992486 L31.2646826,10.6539328 L31.1435669,10.7785716 L31.0869127,10.8448117 L31.0302586,10.9188934 L30.9734042,10.9890543 L30.9205537,11.0668504 L31.0340622,10.361527 L29.9716467,10.361527 L29.2645709,14.5354815" id="Stroke-49" stroke="#333333" stroke-width="0.216" stroke-linecap="round"></path>
                        <path d="M19.2528017,14.5354815 L20.3378388,14.5354815 L20.7007857,12.3179843 L20.7160002,12.2321404 L20.7348182,12.1504236 L20.7538364,12.0685004 L20.7802617,11.990498 L20.8104906,11.9127019 L20.8483267,11.8386203 L20.8937702,11.7684594 L20.9466207,11.7022192 L21.0070785,11.6436142 L21.0751435,11.5852156 L21.1584231,11.5385792 L21.2491098,11.4956573 L21.355011,11.4605768 L21.4721229,11.4294171 L21.6006458,11.4098134 L21.7481868,11.3982574 L21.7595977,11.3982574 L21.7746121,11.4021782 L21.7936302,11.4058926 L21.8124482,11.4058926 L21.8312662,11.4098134 L21.8464807,11.4137341 L21.8576915,11.4176549 L21.8614951,11.4176549 L21.8652987,11.4021782 L21.8767096,11.3553355 L21.891724,11.2851746 L21.9107422,11.1993307 L21.9371674,11.0980101 L21.9635927,10.9890543 L21.9978254,10.8798922 L22.0316577,10.7707301 L22.0618866,10.6966484 L22.137559,10.5486915 L22.1753951,10.482245 L22.2094276,10.4238463 L22.2358529,10.37721 L22.2548711,10.3497647 L22.2622782,10.3382088 L22.2586747,10.3382088 L22.2434602,10.334288 L22.224442,10.3303673 L22.1980167,10.3264465 L22.1715915,10.3264465 L22.1413626,10.3225257 L22.1149373,10.318605 L22.0885121,10.318605 L21.9712,10.3264465 L21.8652987,10.3382088 L21.7670048,10.3576062 L21.6763181,10.3811307 L21.5894351,10.4120841 L21.5099591,10.4510853 L21.4380904,10.4900865 L21.3700254,10.5369292 L21.3057639,10.5874863 L21.2453061,10.6460913 L21.188652,10.7044899 L21.1317977,10.7707301 L21.0751435,10.8369702 L21.022293,10.9110519 L20.9087845,11.0668504 L21.0449146,10.361527 L19.9598775,10.361527 L19.2528017,14.5354815" id="Fill-50" fill="#333333"></path>
                        <path d="M19.2528017,14.5354815 L20.3378388,14.5354815 L20.7007857,12.3179843 L20.7160002,12.2321404 L20.7348182,12.1504236 L20.7538364,12.0685004 L20.7802617,11.990498 L20.8104906,11.9127019 L20.8483267,11.8386203 L20.8937702,11.7684594 L20.9466207,11.7022192 L21.0070785,11.6436142 L21.0751435,11.5852156 L21.1584231,11.5385792 L21.2491098,11.4956573 L21.355011,11.4605768 L21.4721229,11.4294171 L21.6006458,11.4098134 L21.7481868,11.3982574 L21.7595977,11.3982574 L21.7746121,11.4021782 L21.7936302,11.4058926 L21.8124482,11.4058926 L21.8312662,11.4098134 L21.8464807,11.4137341 L21.8576915,11.4176549 L21.8614951,11.4176549 L21.8652987,11.4021782 L21.8767096,11.3553355 L21.891724,11.2851746 L21.9107422,11.1993307 L21.9371674,11.0980101 L21.9635927,10.9890543 L21.9978254,10.8798922 L22.0316577,10.7707301 L22.0618866,10.6966484 L22.137559,10.5486915 L22.1753951,10.482245 L22.2094276,10.4238463 L22.2358529,10.37721 L22.2548711,10.3497647 L22.2622782,10.3382088 L22.2586747,10.3382088 L22.2434602,10.334288 L22.224442,10.3303673 L22.1980167,10.3264465 L22.1715915,10.3264465 L22.1413626,10.3225257 L22.1149373,10.318605 L22.0885121,10.318605 L21.9712,10.3264465 L21.8652987,10.3382088 L21.7670048,10.3576062 L21.6763181,10.3811307 L21.5894351,10.4120841 L21.5099591,10.4510853 L21.4380904,10.4900865 L21.3700254,10.5369292 L21.3057639,10.5874863 L21.2453061,10.6460913 L21.188652,10.7044899 L21.1317977,10.7707301 L21.0751435,10.8369702 L21.022293,10.9110519 L20.9087845,11.0668504 L21.0449146,10.361527 L19.9598775,10.361527 L19.2528017,14.5354815" id="Stroke-51" stroke="#333333" stroke-width="0.216" stroke-linecap="round" stroke-linejoin="round"></path>
                    </g>
                </g>
            </g>
        </g>
    </g>
</svg>