<?xml version="1.0" encoding="UTF-8" standalone="no"?>
<svg width="25px" height="26px" viewBox="0 0 25 26" version="1.1" xmlns="http://www.w3.org/2000/svg" xmlns:xlink="http://www.w3.org/1999/xlink">
    <!-- Generator: Sketch 3.6.1 (26313) - http://www.bohemiancoding.com/sketch -->
    <title>Imported Layers</title>
    <desc>Created with Sketch.</desc>
    <defs></defs>
    <g id="Welcome" stroke="none" stroke-width="1" fill="none" fill-rule="evenodd" opacity="0.400000006">
        <g id="Main" transform="translate(-721.000000, -4425.000000)" fill="#FFFFFF">
            <g id="Group" transform="translate(131.000000, 4240.000000)">
                <g transform="translate(472.000000, 184.000000)" id="Imported-Layers">
                    <path d="M138.227951,18.425928 C137.799765,18.337482 137.76162,18.6174976 137.868838,18.8001082 C138.106986,19.2272798 138.430703,19.5539965 138.667477,19.6189968 C138.893942,19.695434 139.162331,19.5194949 138.991194,19.0923233 C138.91731,18.9070441 138.664385,18.519902 138.227951,18.425928 L138.227951,18.425928 Z M136.074822,19.6728278 C136.071448,19.6703472 136.068961,19.6703472 136.065409,19.6680319 C136.058482,19.6680319 136.053332,19.6655513 136.048892,19.6638976 C136.041255,19.6615823 136.035039,19.6582749 136.028112,19.6566211 C136.023849,19.6566211 136.017633,19.6566211 136.015857,19.6551328 C136.004846,19.6518253 135.994367,19.6493447 135.98229,19.6453757 C135.842514,19.6227194 135.703627,19.6420682 135.588539,19.7115253 C135.327282,19.8770649 135.287498,20.2509758 135.501512,20.5489801 C135.601327,20.68376 135.734886,20.7775272 135.878924,20.8291239 C135.881588,20.8291239 135.884074,20.8291239 135.89029,20.8324314 C135.894553,20.8332583 135.900769,20.8364004 135.904854,20.8364004 C135.911781,20.8397079 135.918707,20.8397079 135.924923,20.8411962 C135.930962,20.8411962 135.933626,20.8436768 135.937888,20.8453306 C135.949255,20.8476458 135.958668,20.8517802 135.970035,20.852607 C136.108922,20.8784054 136.248342,20.8598835 136.364496,20.7871189 C136.627352,20.6215793 136.667313,20.2493221 136.452944,19.9521447 C136.354018,19.8157111 136.219926,19.7204555 136.074822,19.6728278 L136.074822,19.6728278 Z M142.500661,26.2296785 C141.801945,24.8049386 140.562745,23.7593493 139.220198,22.9573602 C138.754452,22.6792385 138.22876,22.4832271 137.770605,22.3326591 C136.716886,21.9907605 135.697033,21.9117708 134.508047,21.7079579 C133.541717,21.5421771 132.778384,21.1441081 131.959192,20.5870846 C131.532761,20.2947252 131.183792,19.8937307 130.892239,19.4691368 C130.837743,19.3833208 130.565263,19.050979 130.592705,18.9366878 C130.592705,18.9366878 130.402553,19.6984994 130.778965,20.7680782 C127.320611,20.6128294 124.289077,18.6909421 122.900597,16.3616241 C120.344152,12.0749223 121.245087,6.88013163 124.653033,4.58592016 C128.060005,2.29073351 133.255418,3.90972947 136.036465,8.05229952 C137.782088,10.6521328 138.22876,13.676755 137.480998,16.1369424 C137.475353,16.1558609 137.468541,16.1739992 137.462702,16.1931128 C135.985277,15.1159276 134.635334,15.6655397 134.635334,15.6655397 C136.116262,15.5120462 137.287148,16.6929907 137.287148,16.6929907 C137.459005,16.8462892 137.624244,17.0157757 137.774497,17.2043758 C137.807973,17.2502093 137.843007,17.296823 137.876288,17.3463622 C138.264183,17.8739352 138.506301,18.4606043 138.60887,19.0556599 C141.549123,15.3177901 142.03511,10.1407477 139.432927,6.12007534 C136.118987,0.995692783 129.052221,-0.312805451 123.654199,3.19355634 C118.253453,6.70284367 116.563688,13.697819 119.879574,18.8214214 C122.603205,23.0373251 128.992275,24.323004 132.654794,23.1611731 C134.039576,22.725072 138.781116,22.3098398 142.081432,26.216221 C142.081432,26.216221 142.366562,26.5429067 142.521681,26.9152309 C142.521681,26.9152309 142.567224,27.0457102 142.689646,26.9829085 C142.721954,26.9657453 142.813235,26.8600357 142.500661,26.2296785 L142.500661,26.2296785 Z"></path>
                </g>
            </g>
        </g>
    </g>
</svg>