<?xml version="1.0" encoding="UTF-8" standalone="no"?>
<svg width="32px" height="32px" viewBox="0 0 32 32" version="1.1" xmlns="http://www.w3.org/2000/svg" xmlns:xlink="http://www.w3.org/1999/xlink">
    <!-- Generator: Sketch 3.6.1 (26313) - http://www.bohemiancoding.com/sketch -->
    <title>Contact</title>
    <desc>Created with Sketch.</desc>
    <defs>
        <path id="path-1" d="M0,16 C0,7.163444 7.163444,0 16,0 C24.836556,0 32,7.163444 32,16 C32,24.836556 24.836556,32 16,32 C7.163444,32 0,24.836556 0,16 Z"></path>
    </defs>
    <g id="Welcome" stroke="none" stroke-width="1" fill="none" fill-rule="evenodd">
        <g id="Main" transform="translate(-1272.000000, -127.000000)">
            <g id="МУЖСКОЕ-+-ЖЕНСКОЕ-Copy-2" transform="translate(1205.000000, 127.000000)">
                <g id="Contact" transform="translate(67.000000, 0.000000)">
                    <mask id="mask-2" fill="white">
                        <use xlink:href="#path-1"></use>
                    </mask>
                    <use id="Mask" xlink:href="#path-1"></use>
                    <path d="M12.7738983,23.0091101 L12.7738983,24.7832052 C12.7738983,25.4702992 12.2225305,26.1167049 11.5463679,26.2263469 L8.78898876,26.6734651 C6.75561044,27.0031841 5.01453695,28.938887 4.90002441,31 L27.9000244,31 C27.3278375,29.0546709 25.2229508,27.1753901 23.19791,26.8023767 L20.2117681,26.252328 C19.5370674,26.1280478 18.9901145,25.4719804 18.9901145,24.7832052 L18.9901145,23.0091101 C19.7031672,22.1874736 19.9155817,20.9262981 20.1639701,19.5431986 C20.5555838,19.6348517 20.671294,19.1145909 20.8854298,18.1072161 C21.0995657,17.0998413 21.7696391,16.067517 21.1637634,15.9387412 C21.0832084,15.9216196 21.0072777,15.9207907 20.9356622,15.9345922 L21.1664731,12.5495507 C21.2628385,11.1362686 20.6518304,9.57344251 19.7606663,9.1958709 C18.2840114,8.57023646 17.8281258,8.2384879 16.9098472,8.05973333 C15.9915687,7.88097876 15.0906125,8.13166508 14.1360226,8.43841211 C13.1814328,8.74515915 12.3160547,9.54318704 11.6026255,9.9736648 C10.8891963,10.4041426 10.5176832,11.3783864 10.5975397,12.5495507 L10.8282172,15.9326367 C10.7597635,15.9209139 10.6874003,15.9224735 10.6108626,15.9387412 C10.0049869,16.067517 10.6750603,17.0998413 10.8891962,18.1072161 C11.103332,19.1145909 11.2190422,19.6348517 11.5548522,19.563477 C11.8556695,20.9287417 12.0615365,22.1882698 12.7738983,23.0091101 Z" id="Rectangle-892" stroke="#000000" stroke-width="2" stroke-linecap="round" stroke-linejoin="round" mask="url(#mask-2)"></path>
                    <path d="M0,16 C0,7.163444 7.163444,0 16,0 C24.836556,0 32,7.163444 32,16 C32,24.836556 24.836556,32 16,32 C7.163444,32 0,24.836556 0,16 Z" id="Path" stroke="#000000" stroke-width="2" mask="url(#mask-2)"></path>
                </g>
            </g>
        </g>
    </g>
</svg>