<?xml version="1.0" encoding="UTF-8" standalone="no"?>
<svg width="42px" height="14px" viewBox="0 0 42 14" version="1.1" xmlns="http://www.w3.org/2000/svg" xmlns:xlink="http://www.w3.org/1999/xlink">
    <!-- Generator: Sketch 3.6.1 (26313) - http://www.bohemiancoding.com/sketch -->
    <title>Imported Layers</title>
    <desc>Created with Sketch.</desc>
    <defs></defs>
    <g id="Welcome" stroke="none" stroke-width="1" fill="none" fill-rule="evenodd" opacity="0.400000006">
        <g id="Main" transform="translate(-603.000000, -4430.000000)" fill="#FFFFFF">
            <g id="Group" transform="translate(131.000000, 4240.000000)">
                <g transform="translate(472.000000, 184.000000)" id="Imported-Layers">
                    <g transform="translate(0.000000, 6.750000)">
                        <path d="M14.6293563,12.7925765 L16.7273154,0.232185456 L20.0825879,0.232185456 L17.983214,12.7925765 L14.6293563,12.7925765" id="Fill-1"></path>
                        <path d="M30.1524143,0.541365054 C29.4876794,0.286803175 28.4461277,0.0139551881 27.1451903,0.0139551881 C23.8300046,0.0139551881 21.4943538,1.71745056 21.4745462,4.15888665 C21.4559176,5.96367743 23.1419249,6.97061643 24.4145658,7.57141134 C25.7204551,8.18712386 26.1597602,8.57955337 26.1533935,9.12933966 C26.1451403,9.97122247 25.110427,10.3559526 24.1459836,10.3559526 C22.8030728,10.3559526 22.089762,10.1656327 20.9878442,9.69669024 L20.5553774,9.49698668 L20.0844744,12.3087165 C20.868291,12.6592804 22.3175499,12.9631667 23.8219872,12.9790467 C27.3491618,12.9790467 29.6385948,11.2947999 29.6647691,8.68782638 C29.6775026,7.25886325 28.7833292,6.17156161 26.8478399,5.27506108 C25.6749447,4.69399593 24.956682,4.30637855 24.9642277,3.71785458 C24.9642277,3.19573806 25.5721336,2.63753054 26.8858045,2.63753054 C27.9830063,2.62020686 28.7776699,2.86418204 29.3968944,3.11874392 L29.6975461,3.26358915 L30.1524143,0.541365054" id="Fill-2"></path>
                        <path d="M38.7562396,0.244215791 L36.1635612,0.244215791 C35.3604086,0.244215791 34.7593411,0.467739407 34.4065764,1.28580215 L29.4235404,12.7966668 L32.9469421,12.7966668 C32.9469421,12.7966668 33.5230143,11.248844 33.6534145,10.9091074 C34.0384845,10.9091074 37.4609615,10.9144007 37.9502574,10.9144007 C38.0507104,11.3542297 38.358672,12.7966668 38.358672,12.7966668 L41.4720084,12.7966668 L38.7562396,0.244215791 M34.6190369,8.33990911 C34.8963439,7.61616418 35.9558168,4.82897628 35.9558168,4.82897628 C35.9357733,4.86218 36.2312373,4.10162225 36.4005454,3.63003314 L36.6273901,4.71300386 C36.6273901,4.71300386 37.2699593,7.71120383 37.4041325,8.33990911 L34.6190369,8.33990911" id="Fill-3"></path>
                        <path d="M11.8152567,0.241328511 L8.53025408,8.80668609 L8.18031912,7.06589668 C7.56887617,5.05923688 5.66356994,2.88535543 3.53330552,1.79709137 L6.53699249,12.7817492 L10.0870402,12.7776589 L15.3693131,0.241328511 L11.8152567,0.241328511" id="Fill-4"></path>
                        <path d="M5.48294313,0.233629097 L0.0726280098,0.233629097 L0.0297114586,0.494927963 C4.23907056,1.53458947 7.02416609,4.04700454 8.18031912,7.06589668 L7.00388684,1.29398278 C6.80062274,0.498537063 6.21158128,0.261298866 5.48294313,0.233629097" id="Fill-5"></path>
                    </g>
                </g>
            </g>
        </g>
    </g>
</svg>