<?xml version="1.0" encoding="UTF-8" standalone="no"?>
<svg width="23px" height="24px" viewBox="0 0 23 24" version="1.1" xmlns="http://www.w3.org/2000/svg" xmlns:xlink="http://www.w3.org/1999/xlink">
    <!-- Generator: Sketch 3.6.1 (26313) - http://www.bohemiancoding.com/sketch -->
    <title>Imported Layers</title>
    <desc>Created with Sketch.</desc>
    <defs></defs>
    <g id="Welcome" stroke="none" stroke-width="1" fill="none" fill-rule="evenodd" opacity="0.400000006">
        <g id="Main" transform="translate(-764.000000, -4424.000000)" fill="#FFFFFF">
            <g id="Group" transform="translate(131.000000, 4240.000000)">
                <g transform="translate(472.000000, 184.000000)" id="Imported-Layers">
                    <g transform="translate(161.318182, 0.613636)">
                        <path d="M11.0284445,0.05643 C12.7473382,0.05643 14.3752173,0.478955455 15.8250436,1.22910136 C16.0528009,1.34312727 16.2798955,1.46857909 16.5076527,1.60708909 L15.4998655,2.55917045 L13.9857545,0.906610909 L11.4302782,3.31258091 L9.91241182,1.56395045 L5.15204182,6.09327409 L8.20390091,9.64346727 L7.00458545,10.7569105 L10.0104955,14.3124668 L8.81824909,15.423345 L13.1136055,20.4700991 L15.6633382,17.9923091 L17.86779,20.6475505 C17.4292855,21.00735 16.95168,21.34593 16.4254745,21.65886 C14.8313945,22.6184032 12.9890127,23.1677795 11.0284445,23.1677795 C4.99895182,23.1677795 0.0812945455,17.9762195 0.0812945455,11.6124545 C0.0812945455,5.24729045 4.99895182,0.05643 11.0284445,0.05643" id="Fill-1"></path>
                        <path d="M9.03341455,10.8818959 L11.6366073,8.40737045 L13.9806736,11.1558845 L11.3777018,13.6294773 L9.03341455,10.8818959" id="Fill-2"></path>
                        <path d="M10.8844118,15.6299441 L13.4878255,13.1561182 L15.8321127,15.9039327 L13.22892,18.3784582 L10.8844118,15.6299441" id="Fill-3"></path>
                        <path d="M7.17070909,6.189345 L9.77390182,3.71551909 L12.1173055,6.46333364 L9.51411273,8.93715955 L7.17070909,6.189345" id="Fill-4"></path>
                        <path d="M11.9476473,4.85764364 L13.9000418,3.00244909 L15.6578155,5.06331 L13.7054209,6.91920409 L11.9476473,4.85764364" id="Fill-5"></path>
                        <path d="M15.4165827,13.3568877 L17.36964,11.5009936 L19.1274136,13.5623209 L17.1750191,15.4177486 L15.4165827,13.3568877" id="Fill-6"></path>
                        <path d="M17.1341509,17.5196495 L19.0861036,15.6635223 L20.8443191,17.7243832 L18.8919245,19.5798109 L17.1341509,17.5196495" id="Fill-7"></path>
                        <path d="M17.9205873,7.97901545 L19.2221836,6.74198591 L20.3938855,8.11589318 L19.0929518,9.35268955 L17.9205873,7.97901545" id="Fill-8"></path>
                        <path d="M16.2575836,3.89670136 L17.55918,2.659905 L18.7311027,4.03381227 L17.4292855,5.27060864 L16.2575836,3.89670136" id="Fill-9"></path>
                        <path d="M19.5846955,12.0610964 L20.8862918,10.8240668 L22.0582145,12.1977409 L20.7566182,13.4347705 L19.5846955,12.0610964" id="Fill-10"></path>
                        <path d="M13.7473936,9.00221727 L15.6995673,7.14609 L17.4573409,9.20695091 L15.5056091,11.0623786 L13.7473936,9.00221727" id="Fill-11"></path>
                    </g>
                </g>
            </g>
        </g>
    </g>
</svg>