<?xml version="1.0" encoding="UTF-8" standalone="no"?>
<svg width="21px" height="24px" viewBox="0 0 21 24" version="1.1" xmlns="http://www.w3.org/2000/svg" xmlns:xlink="http://www.w3.org/1999/xlink">
    <!-- Generator: Sketch 3.6.1 (26313) - http://www.bohemiancoding.com/sketch -->
    <title>Imported Layers</title>
    <desc>Created with Sketch.</desc>
    <defs></defs>
    <g id="Welcome" stroke="none" stroke-width="1" fill="none" fill-rule="evenodd" opacity="0.400000006">
        <g id="Main" transform="translate(-806.000000, -4424.000000)" fill="#FFFFFF">
            <g id="Group" transform="translate(131.000000, 4240.000000)">
                <g transform="translate(472.000000, 184.000000)" id="Imported-Layers">
                    <path d="M221.795214,8.45329512 L220.567736,8.45329512 L220.567736,16.0001561 C220.567736,17.3526106 219.980077,18.1344555 218.24005,18.5288072 L207.116255,21.631497 C207.116255,21.631497 206.169045,21.883882 206.169045,21.0368834 C206.169045,20.3311654 207.016109,20.2454368 207.146855,20.1192443 L207.095391,20.1384475 L217.246245,16.1599542 C218.076618,15.7004489 218.757468,14.6449582 218.757468,13.812362 L218.757468,1.91254512 C218.757468,0.032688167 216.9013,0.676681483 216.496545,0.914664103 C216.052845,1.17390742 204.737105,7.42592346 204.737105,7.42592346 C203.906732,7.88542881 203.227273,8.94366277 203.227273,9.77763068 L203.227273,21.631497 C203.227273,22.4634074 204.432495,23.5723927 205.209318,23.5778793 L205.209318,23.5785652 L221.795214,23.5785652 C222.789714,23.5813085 223.604091,22.9002804 223.604091,22.0663125 L223.604091,9.96829111 C223.604091,9.13432319 222.789714,8.45329512 221.795214,8.45329512 L221.795214,8.45329512 Z M213.773841,7.54731517 C214.556227,7.03431517 215.300364,7.20097159 215.435282,7.91834859 C215.569505,8.63846892 215.117459,9.55199298 214.333682,10.064993 C213.553382,10.5773072 212.807855,10.4120224 212.672936,9.69327373 C212.540105,8.97521089 212.990759,8.061001 213.773841,7.54731517 L213.773841,7.54731517 Z"></path>
                </g>
            </g>
        </g>
    </g>
</svg>