<?xml version="1.0" encoding="utf-8"?>
<!-- Generator: Adobe Illustrator 17.1.0, SVG Export Plug-In . SVG Version: 6.00 Build 0)  -->
<!DOCTYPE svg PUBLIC "-//W3C//DTD SVG 1.1//EN" "http://www.w3.org/Graphics/SVG/1.1/DTD/svg11.dtd">
<svg version="1.1" xmlns="http://www.w3.org/2000/svg" xmlns:xlink="http://www.w3.org/1999/xlink" x="0px" y="0px"
	 viewBox="0 0 140 140" enable-background="new 0 0 140 140" xml:space="preserve">
<g id="BG" display="none">
	<rect x="-76" y="-122.895" display="inline" fill="#D57BD3" width="718.847" height="428.895"/>
</g>
<g id="iMac">
</g>
<g id="iPhone__x26__iPad">
</g>
<g id="Illustration_1_">
	<g>
		<g>
			<path fill="#FFFEFF" d="M111,93.5c0,1.925-1.575,3.5-3.5,3.5h-76c-1.925,0-3.5-1.575-3.5-3.5v-53c0-1.925,1.575-3.5,3.5-3.5h76
				c1.925,0,3.5,1.575,3.5,3.5V93.5z"/>
		</g>
		<rect x="46" y="41" opacity="0.25" fill="#D57BD3" width="61" height="52"/>
		<g>
			<circle fill="#D57BD3" cx="37" cy="67" r="5"/>
			<g opacity="0.25">
				<path fill="#D57BD3" d="M34,53.5c0-0.825,0.675-1.5,1.5-1.5h3c0.825,0,1.5,0.675,1.5,1.5v3c0,0.825-0.675,1.5-1.5,1.5h-3
					c-0.825,0-1.5-0.675-1.5-1.5V53.5z"/>
			</g>
			<g opacity="0.25">
				<path fill="#D57BD3" d="M34,77.5c0-0.825,0.675-1.5,1.5-1.5h3c0.825,0,1.5,0.675,1.5,1.5v3c0,0.825-0.675,1.5-1.5,1.5h-3
					c-0.825,0-1.5-0.675-1.5-1.5V77.5z"/>
			</g>
		</g>
		<g>
			<g>
				<path opacity="0.75" fill="#FFFEFF" d="M94,102c0,1,0,0.675,0,1.5v1c0,0.825,0,0.5,0,1.5l4-1.217v-1.567L94,102z"/>
				<path fill="#FFFEFF" d="M98.744,103.443L98,103.217v1.567l0.744-0.226C99.752,104.251,99.752,103.749,98.744,103.443z"/>
			</g>
			<path fill="#FFFEFF" d="M94,104c0,1.105,0,1,0,2H42c-1.105,0-2-0.895-2-2l0,0c0-1.105,0.895-2,2-2h52
				C94,102.871,94,102.895,94,104L94,104z"/>
			<path fill="#FFFEFF" d="M42,102h52c0,1,0,0.895,0,2"/>
		</g>
		<g opacity="0.75">
			<g>
				<circle fill="#D57BD3" cx="82.05" cy="54" r="3"/>
				<path fill="#D57BD3" d="M87,66.75c0,2.899-2.239,5.25-5,5.25l0,0c-2.761,0-5-2.351-5-5.25v-4.375C77,59.476,79.239,58,82,58l0,0
					c2.761,0,5,1.476,5,4.375V66.75z"/>
				<path fill="#D57BD3" d="M81,81c0,0.552-0.448,1-1,1l0,0c-0.552,0-1-0.448-1-1v-7c0-0.552,0.448-1,1-1l0,0c0.552,0,1,0.448,1,1
					V81z"/>
				<path fill="#D57BD3" d="M76,69c0,0.552-0.448,1-1,1l0,0c-0.552,0-1-0.448-1-1v-7c0-0.552,0.448-1,1-1l0,0c0.552,0,1,0.448,1,1
					V69z"/>
				<path fill="#D57BD3" d="M93.657,53.757c0.391-0.391,0.391-1.024,0-1.414l0,0c-0.391-0.391-1.024-0.391-1.414,0l-4.95,4.95
					c-0.391,0.391-0.391,1.024,0,1.414l0,0c0.391,0.391,1.024,0.391,1.414,0L93.657,53.757z"/>
				<path fill="#D57BD3" d="M85,81c0,0.552-0.448,1-1,1l0,0c-0.552,0-1-0.448-1-1v-7c0-0.552,0.448-1,1-1l0,0c0.552,0,1,0.448,1,1
					V81z"/>
			</g>
			<g>
				<circle fill="#D57BD3" cx="67" cy="63" r="2"/>
				<path fill="#D57BD3" d="M70,71.625C70,73.489,68.657,75,67,75l0,0c-1.657,0-3-1.511-3-3.375v-2.812C64,66.949,65.343,66,67,66
					l0,0c1.657,0,3,0.949,3,2.812V71.625z"/>
				<path fill="#D57BD3" d="M69,81.5c0,0.276-0.224,0.5-0.5,0.5l0,0c-0.276,0-0.5-0.224-0.5-0.5v-5c0-0.276,0.224-0.5,0.5-0.5l0,0
					c0.276,0,0.5,0.224,0.5,0.5V81.5z"/>
				<path fill="#D57BD3" d="M59.146,63.318c-0.195-0.195-0.195-0.512,0-0.707l0,0c0.195-0.195,0.512-0.195,0.707,0l3.536,3.536
					c0.195,0.195,0.195,0.512,0,0.707l0,0c-0.195,0.195-0.512,0.195-0.707,0L59.146,63.318z"/>
				<path fill="#D57BD3" d="M72,73.5c0,0.276-0.224,0.5-0.5,0.5l0,0c-0.276,0-0.5-0.224-0.5-0.5v-5c0-0.276,0.224-0.5,0.5-0.5l0,0
					c0.276,0,0.5,0.224,0.5,0.5V73.5z"/>
				<path fill="#D57BD3" d="M66,81.5c0,0.276-0.224,0.5-0.5,0.5l0,0c-0.276,0-0.5-0.224-0.5-0.5v-5c0-0.276,0.224-0.5,0.5-0.5l0,0
					c0.276,0,0.5,0.224,0.5,0.5V81.5z"/>
			</g>
		</g>
	</g>
</g>
</svg>
