<?xml version="1.0" encoding="utf-8"?>
<!-- Generator: Adobe Illustrator 17.1.0, SVG Export Plug-In . SVG Version: 6.00 Build 0)  -->
<!DOCTYPE svg PUBLIC "-//W3C//DTD SVG 1.1//EN" "http://www.w3.org/Graphics/SVG/1.1/DTD/svg11.dtd">
<svg version="1.1" xmlns="http://www.w3.org/2000/svg" xmlns:xlink="http://www.w3.org/1999/xlink" x="0px" y="0px"
	 viewBox="0 0 140 140" enable-background="new 0 0 140 140" xml:space="preserve">
<g id="BG" display="none">
	<rect x="-286" y="-122.895" display="inline" fill="#D57BD3" width="718.847" height="428.895"/>
</g>
<g id="iMac">
	<g>
		<g>
			<path fill="#FFFEFF" d="M112,93.5c0,1.925-1.575,3.5-3.5,3.5h-77c-1.925,0-3.5-1.575-3.5-3.5v-53c0-1.925,1.575-3.5,3.5-3.5h77
				c1.925,0,3.5,1.575,3.5,3.5V93.5z"/>
		</g>
		<g>
			<path fill="#D57BD3" d="M70.597,89.647c0.257-0.085,0.475-0.127,0.657-0.127c0.302,0,0.571,0.079,0.808,0.238
				c0.065,0.05,0.13,0.105,0.196,0.165c0.065,0.059,0.131,0.129,0.196,0.209c-0.196,0.17-0.34,0.319-0.43,0.448
				c-0.166,0.23-0.25,0.486-0.25,0.771c0,0.308,0.088,0.587,0.265,0.838c0.171,0.244,0.37,0.401,0.596,0.471
				c-0.051,0.149-0.113,0.302-0.189,0.46c-0.075,0.157-0.166,0.315-0.272,0.475c-0.322,0.484-0.647,0.726-0.974,0.726
				c-0.136,0-0.315-0.041-0.536-0.12c-0.217-0.076-0.405-0.113-0.567-0.113c-0.166,0-0.347,0.041-0.543,0.12
				c-0.212,0.085-0.378,0.127-0.498,0.127c-0.383,0-0.76-0.321-1.133-0.964c-0.372-0.638-0.558-1.266-0.558-1.885
				c0-0.568,0.141-1.034,0.423-1.398c0.287-0.358,0.646-0.539,1.08-0.539c0.186,0,0.41,0.038,0.672,0.113
				c0.266,0.074,0.44,0.112,0.521,0.112C70.161,89.774,70.339,89.732,70.597,89.647z M71.102,88.779
				c-0.075,0.185-0.191,0.357-0.347,0.517c-0.146,0.135-0.284,0.225-0.415,0.269c-0.095,0.026-0.224,0.045-0.384,0.06
				c0.005-0.369,0.102-0.69,0.29-0.961c0.189-0.272,0.505-0.458,0.948-0.557c0.01,0.035,0.016,0.064,0.019,0.09
				c0.003,0.024,0.004,0.048,0.004,0.067C71.215,88.423,71.178,88.596,71.102,88.779z"/>
		</g>
		<g>
			<path fill="#FFFEFF" d="M69,106H71h11.601c0.207,0,0.385-0.161,0.411-0.379c0.028-0.216-0.102-0.42-0.303-0.477
				c-1.249-0.354-2.916-1.068-3.716-1.826C77.679,102.071,78.015,97,78.015,97H71h-2"/>
			<path fill="#FFFEFF" d="M71.015,106h-1.999H57.414c-0.207,0-0.385-0.161-0.411-0.379c-0.028-0.216,0.102-0.42,0.303-0.477
				c1.249-0.354,2.916-1.068,3.716-1.826C62.336,102.071,62,97,62,97h7.015h2"/>
		</g>
		<rect x="32" y="41" opacity="0.25" fill="#D57BD3" width="76" height="45"/>
		<path fill="#34495E" d="M76.048,103.547"/>
		<g opacity="0.75">
			<g>
				<circle fill-rule="evenodd" clip-rule="evenodd" fill="#D57BD3" cx="79.5" cy="50.5" r="3.5"/>
				<path fill-rule="evenodd" clip-rule="evenodd" fill="#D57BD3" d="M72,48c0,0.552-0.448,1-1,1H54c-0.552,0-1-0.448-1-1l0,0
					c0-0.552,0.448-1,1-1h17C71.552,47,72,47.448,72,48L72,48z"/>
				<path fill-rule="evenodd" clip-rule="evenodd" fill="#D57BD3" d="M72,53c0,0.552-0.448,1-1,1H54c-0.552,0-1-0.448-1-1l0,0
					c0-0.552,0.448-1,1-1h17C71.552,52,72,52.448,72,53L72,53z"/>
			</g>
			<g>
				<circle fill-rule="evenodd" clip-rule="evenodd" fill="#D57BD3" cx="56.5" cy="63.5" r="3.5"/>
				<path fill-rule="evenodd" clip-rule="evenodd" fill="#D57BD3" d="M64,61c0,0.552,0.448,1,1,1h17c0.552,0,1-0.448,1-1l0,0
					c0-0.552-0.448-1-1-1H65C64.448,60,64,60.448,64,61L64,61z"/>
				<path fill-rule="evenodd" clip-rule="evenodd" fill="#D57BD3" d="M64,66c0,0.552,0.448,1,1,1h17c0.552,0,1-0.448,1-1l0,0
					c0-0.552-0.448-1-1-1H65C64.448,65,64,65.448,64,66L64,66z"/>
			</g>
			<g>
				<circle fill-rule="evenodd" clip-rule="evenodd" fill="#D57BD3" cx="79.5" cy="76.5" r="3.5"/>
				<path fill-rule="evenodd" clip-rule="evenodd" fill="#D57BD3" d="M72,74c0,0.552-0.448,1-1,1H54c-0.552,0-1-0.448-1-1l0,0
					c0-0.552,0.448-1,1-1h17C71.552,73,72,73.448,72,74L72,74z"/>
				<path fill-rule="evenodd" clip-rule="evenodd" fill="#D57BD3" d="M72,79c0,0.552-0.448,1-1,1H54c-0.552,0-1-0.448-1-1l0,0
					c0-0.552,0.448-1,1-1h17C71.552,78,72,78.448,72,79L72,79z"/>
			</g>
		</g>
	</g>
</g>
<g id="iPhone__x26__iPad">
</g>
<g id="Illustration_1_">
</g>
</svg>
