<?xml version="1.0" encoding="utf-8"?>
<!-- Generator: Adobe Illustrator 17.1.0, SVG Export Plug-In . SVG Version: 6.00 Build 0)  -->
<!DOCTYPE svg PUBLIC "-//W3C//DTD SVG 1.1//EN" "http://www.w3.org/Graphics/SVG/1.1/DTD/svg11.dtd">
<svg version="1.1" xmlns="http://www.w3.org/2000/svg" xmlns:xlink="http://www.w3.org/1999/xlink" x="0px" y="0px"
	 viewBox="0 0 140 140" enable-background="new 0 0 140 140" xml:space="preserve">
<g id="BG" display="none">
	<rect x="-478" y="-122.895" display="inline" fill="#D57BD3" width="718.847" height="428.895"/>
</g>
<g id="iMac">
</g>
<g id="iPhone__x26__iPad">
	<g>
		<g>
			<path fill="#FFFEFF" d="M88,99.6c0,3.52-2.88,6.4-6.4,6.4H58.4c-3.52,0-6.4-2.88-6.4-6.4V40.4c0-3.52,2.88-6.4,6.4-6.4h23.2
				c3.52,0,6.4,2.88,6.4,6.4V99.6z"/>
		</g>
		<rect x="54.992" y="43.008" opacity="0.25" fill="#D57BD3" width="30" height="50.969"/>
		<circle fill="#D57BD3" cx="70" cy="100" r="3"/>
		<g>
			<circle opacity="0.75" fill="#D57BD3" cx="70" cy="56" r="5"/>
			<path opacity="0.75" fill="#D57BD3" d="M79,70c0,0.552-0.448,1-1,1H62c-0.552,0-1-0.448-1-1l0,0c0-0.552,0.448-1,1-1h16
				C78.552,69,79,69.448,79,70L79,70z"/>
			<path opacity="0.75" fill="#D57BD3" d="M79,77c0,0.552-0.448,1-1,1H62c-0.552,0-1-0.448-1-1l0,0c0-0.552,0.448-1,1-1h16
				C78.552,76,79,76.448,79,77L79,77z"/>
			<path opacity="0.75" fill="#D57BD3" d="M79,84c0,0.552-0.448,1-1,1H62c-0.552,0-1-0.448-1-1l0,0c0-0.552,0.448-1,1-1h16
				C78.552,83,79,83.448,79,84L79,84z"/>
		</g>
	</g>
</g>
<g id="Illustration_1_">
</g>
</svg>
