<?xml version="1.0" encoding="UTF-8" standalone="no"?>
<svg width="16px" height="16px" viewBox="0 0 16 16" version="1.1" xmlns="http://www.w3.org/2000/svg" xmlns:xlink="http://www.w3.org/1999/xlink" xmlns:sketch="http://www.bohemiancoding.com/sketch/ns">
    <!-- Generator: Sketch 3.3.2 (12043) - http://www.bohemiancoding.com/sketch -->
    <title>Shape</title>
    <desc>Created with Sketch.</desc>
    <defs></defs>
    <g id="Site" stroke="none" stroke-width="1" fill="none" fill-rule="evenodd" sketch:type="MSPage">
        <g id="Play-guest" sketch:type="MSArtboardGroup" transform="translate(-1073.000000, -30.000000)" fill="#25282E">
            <g id="Menu" sketch:type="MSLayerGroup" transform="translate(170.000000, 13.000000)">
                <g id="Log-in" transform="translate(878.000000, 0.000000)" sketch:type="MSShapeGroup">
                    <path d="M29.7487813,30.0626562 C30.1729063,30.0626562 30.5891875,29.8574375 30.8420938,29.4780312 C31.2441875,28.874875 31.0811875,28.06 30.4780625,27.6579062 L29.4456563,26.9697187 C29.6223438,26.9215937 29.8080625,26.8953437 30,26.8953437 C31.162375,26.8953437 32.104625,27.8375937 32.104625,29.0000625 C32.104625,30.1625312 31.1623438,31.1047187 29.9999688,31.1047187 C28.8686563,31.1047187 27.9461563,30.2120937 27.8976563,29.092625 L29.0219375,29.842125 C29.2457188,29.9912812 29.4985938,30.0626562 29.7487813,30.0626562 L29.7487813,30.0626562 Z M38.3334375,17 C39.8002187,17 41,18.2001875 41,19.667 L41,30.3330625 C41,31.8008125 39.8002187,33 38.3334375,33 L27.667,33 C26.2001875,33 25,31.8007812 25,30.3330937 L25,27.1607812 L26.8958438,28.4246562 C26.7137813,29.41175 27.00425,30.468875 27.7676875,31.2323125 C29.0005625,32.4651875 30.9994062,32.4651875 32.2323125,31.2323125 C32.989625,30.4750937 33.2815313,29.4287187 33.1085312,28.4485 L37,24.9643125 L37,24.9642812 C37.7225938,24.8605625 38.419,24.5307813 38.9749063,23.974875 C40.3416562,22.6080625 40.3416562,20.3919688 38.9749063,19.025125 C37.6080312,17.6582813 35.3919688,17.6582813 34.025125,19.025125 C33.4692187,19.5810312 33.139375,20.2774062 33.0356875,21 L33.0356875,21 L29.837375,25.8473438 C29.33975,25.8728438 28.8470937,26.0155313 28.4041562,26.2753125 L25,24.0059062 L25,19.667 C25,18.2001875 26.2001562,17 27.6669687,17 L38.3334375,17 L38.3334375,17 Z M39,21.5 C39,20.1192813 37.88075,19 36.5,19 C35.11925,19 34,20.1192813 34,21.5 C34,22.8807187 35.11925,24 36.5,24 C37.88075,24 39,22.8807187 39,21.5 L39,21.5 Z M35,21.5 C35,20.6715625 35.6715625,20 36.5,20 C37.3284375,20 38,20.6715625 38,21.5 C38,22.3284375 37.3284375,23 36.5,23 C35.6715625,23 35,22.3284375 35,21.5 L35,21.5 Z" id="Shape"></path>
                </g>
            </g>
        </g>
    </g>
</svg>