<?xml version="1.0" encoding="UTF-8" standalone="no"?>
<svg width="130px" height="151px" viewBox="0 0 130 151" version="1.1" xmlns="http://www.w3.org/2000/svg" xmlns:xlink="http://www.w3.org/1999/xlink" xmlns:sketch="http://www.bohemiancoding.com/sketch/ns">
    <title>2/3d</title>
    <description>Created with Sketch (http://www.bohemiancoding.com/sketch)</description>
    <defs></defs>
    <g id="Desktop" stroke="none" stroke-width="1" fill="none" fill-rule="evenodd" sketch:type="MSPage">
        <g id="main" sketch:type="MSArtboardGroup" transform="translate(-1000.000000, -1240.000000)">
            <g id="2-3" sketch:type="MSLayerGroup" transform="translate(0.000000, 900.000000)">
                <g id="Group" transform="translate(230.000000, 196.000000)" sketch:type="MSShapeGroup">
                    <g id="3D" transform="translate(690.000000, 124.000000)">
                        <g id="Group" transform="translate(80.000000, 20.000000)">
                            <path d="M0,114.002915 L0,151 L65,93.9970845 L65,57 L0,114.002915 Z" id="Rectangle-66" fill="#F4CB0A" transform="translate(32.500000, 104.000000) scale(1, -1) translate(-32.500000, -104.000000) "></path>
                            <path d="M65,114.002915 L65,151 L130,93.9970845 L130,57 L65,114.002915 Z" id="Rectangle-66" fill="#5BA9DB" transform="translate(97.500000, 104.000000) scale(-1, -1) translate(-97.500000, -104.000000) "></path>
                            <path d="M0,57.0029155 L0,94 L65,36.9970845 L65,-7.91074365e-16 L0,57.0029155 Z" id="Rectangle-66" fill="#5BA9DB" transform="translate(32.500000, 47.000000) scale(-1, -1) translate(-32.500000, -47.000000) "></path>
                            <path d="M65,57.0029155 L65,94 L130,36.9970845 L130,-7.91074365e-16 L65,57.0029155 Z" id="Rectangle-66" fill="#F4CB0A" transform="translate(97.500000, 47.000000) scale(1, -1) translate(-97.500000, -47.000000) "></path>
                        </g>
                    </g>
                </g>
            </g>
        </g>
    </g>
</svg>