<?xml version="1.0" encoding="UTF-8" standalone="no"?>
<svg width="1436px" height="952px" viewBox="0 0 1436 952" version="1.1" xmlns="http://www.w3.org/2000/svg" xmlns:xlink="http://www.w3.org/1999/xlink" xmlns:sketch="http://www.bohemiancoding.com/sketch/ns">
    <title>1/cubes</title>
    <description>Created with Sketch (http://www.bohemiancoding.com/sketch)</description>
    <defs></defs>
    <g id="Desktop" stroke="none" stroke-width="1" fill="none" fill-rule="evenodd" sketch:type="MSPage">
        <g id="So-so" sketch:type="MSArtboardGroup" transform="translate(-21.000000, -886.000000)">
            <g id="2" sketch:type="MSLayerGroup" transform="translate(0.000000, 886.000000)">
                <g id="Cubes" transform="translate(21.000000, 0.000000)" sketch:type="MSShapeGroup">
                    <g id="Imported-Layers" transform="translate(0.000000, 10.000000)">
                        <path d="M66.9896756,51 L96,70.2322176 L44.0103244,98 L15,78.7677824 L66.9896756,51" id="Fill-1" fill="#98388B"></path>
                        <path d="M66.9896818,50.9026136 L52,0 L81.0103182,19.0973864 L96,70 L66.9896818,50.9026136" id="Fill-2" fill="#1B81CC"></path>
                        <path d="M14.994304,78 L0,27.4059611 L52.005696,0 L67,50.5940389 L14.994304,78" id="Fill-3" fill="#F8B132"></path>
                    </g>
                    <g id="Imported-Layers" transform="translate(844.000000, 835.000000)">
                        <path d="M44.848794,0 L82,19.9237855 L37.151206,75 L0,55.0769787 L44.848794,0" id="Fill-1" fill="#F8B132"></path>
                        <path d="M82.2894952,20 L124,61.8970151 L78.7105048,117 L37,75.1022203 L82.2894952,20" id="Fill-2" fill="#963063"></path>
                        <path d="M37.4088841,74.9871649 L79,117 L41.5911159,97.0120685 L0,55 L37.4088841,74.9871649" id="Fill-3" fill="#1F84E2"></path>
                    </g>
                    <g id="Imported-Layers" transform="translate(289.000000, 202.000000)">
                        <path d="M79.0859629,104 L20,64.8844039 L56.9131331,6 L116,45.1155961 L79.0859629,104" id="Fill-1" fill="#DE412C"></path>
                        <path d="M36.8467895,0 L57,6.35994062 L20.1532105,65 L0,58.6400594 L36.8467895,0" id="Fill-2" fill="#65D029"></path>
                        <path d="M0,59 L20.3740193,65.4563331 L80,105 L59.6268929,98.5436669 L0,59" id="Fill-3" fill="#1F84E2"></path>
                    </g>
                    <g id="Imported-Layers" transform="translate(672.000000, 0.000000)">
                        <path d="M9.31535298,84 L0,44.9019359 L38.684647,0 L48,39.0988732 L9.31535298,84" id="Fill-1" fill="#963063"></path>
                        <path d="M38,0 L88.7589196,24.2352117 L98,63 L47.2410804,38.7655904 L38,0" id="Fill-2" fill="#1F84E2"></path>
                        <path d="M47.3180308,39 L98,63.3212623 L59.6819692,108 L9,83.6779327 L47.3180308,39" id="Fill-3" fill="#65D029"></path>
                    </g>
                    <g id="Imported-Layers" transform="translate(57.000000, 619.000000)">
                        <path d="M22.0900548,49.9906986 L18,0 L72.9099452,7.00930136 L77,57 L22.0900548,49.9906986" id="Fill-1" fill="#1F84E2"></path>
                        <path d="M4,82.046654 L22.478006,50 L77,56.953346 L58.521994,89 L4,82.046654" id="Fill-2" fill="#65D029"></path>
                        <path d="M0,32.5811911 L18.8558078,0 L23,50.4188089 L4.14419221,83 L0,32.5811911" id="Fill-3" fill="#DE412C"></path>
                    </g>
                    <g id="Imported-Layers" transform="translate(366.000000, 760.000000)">
                        <path d="M62.3919567,15 L88,78.2449939 L25.6080433,101 L0,37.7550061 L62.3919567,15" id="Fill-1" fill="#65D029"></path>
                        <path d="M62,14.9891429 L75.3201407,0 L101,63.0108571 L87.6798593,78 L62,14.9891429" id="Fill-2" fill="#963063"></path>
                        <path d="M0,38 L13.1644368,22.8754962 L75,0 L61.8355632,15.1245038 L0,38" id="Fill-3" fill="#F8B132"></path>
                    </g>
                    <g id="Imported-Layers" transform="translate(1269.000000, 618.000000)">
                        <path d="M92,17 L91.8780081,82.4739235 L31,91 L31.1219919,25.5252714 L92,17" id="Fill-1" fill="#1F84E2"></path>
                        <path d="M30.8791844,92 L0,74.9702617 L0.120815589,9 L31,26.0289272 L30.8791844,92" id="Fill-2" fill="#F8B132"></path>
                        <path d="M30.8215502,25 L0,8.38293494 L60.1784498,0 L91,16.6178566 L30.8215502,25" id="Fill-3" fill="#DE412C"></path>
                    </g>
                    <g id="Imported-Layers" transform="translate(919.000000, 227.000000)">
                        <path d="M17.8070059,78.8638254 L0,24 L28.192213,32.1369543 L46,87 L17.8070059,78.8638254" id="Fill-1" fill="#F8B132"></path>
                        <path d="M0,23.8645653 L52.6945434,0 L81,8.1346552 L28.3054566,32 L0,23.8645653" id="Fill-2" fill="#65D029"></path>
                        <path d="M28,31.9507961 L81.0127232,8 L99,63.0499861 L45.9872768,87 L28,31.9507961" id="Fill-3" fill="#963063"></path>
                    </g>
                    <g id="Imported-Layers" transform="translate(1316.000000, 151.000000)">
                        <path d="M16,81.1601576 L59.8826444,16 L119,54.8398424 L75.1163965,120 L16,81.1601576" id="Fill-1" fill="#F8B132"></path>
                        <path d="M103.509999,38.4051478 L120,54 L60.4890357,15.5948522 L44,0 L103.509999,38.4051478" id="Fill-2" fill="#963063"></path>
                        <path d="M43.6916661,0 L60,15.7847094 L16.3092889,81 L0,65.2152906 L43.6916661,0" id="Fill-3" fill="#65D029"></path>
                    </g>
                    <g id="Imported-Layers" transform="translate(676.000000, 554.000000)">
                        <path d="M28,65.7328401 L8.98322857,78 L0,17.2671599 L19.0167714,5 L28,65.7328401" id="Fill-1" fill="#1F84E2"></path>
                        <path d="M87,60.1642105 L26.8642943,66 L18,5.83578947 L78.1357057,0 L87,60.1642105" id="Fill-2" fill="#DE412C"></path>
                        <path d="M68.2113869,72.160348 L8,78 L26.7886131,65.839652 L87,60 L68.2113869,72.160348" id="Fill-3" fill="#F8B132"></path>
                    </g>
                </g>
            </g>
        </g>
    </g>
</svg>