<?xml version="1.0" encoding="UTF-8" standalone="no"?>
<svg width="108px" height="43px" viewBox="0 0 108 43" version="1.1" xmlns="http://www.w3.org/2000/svg" xmlns:xlink="http://www.w3.org/1999/xlink" xmlns:sketch="http://www.bohemiancoding.com/sketch/ns">
    <title>work/facebook_sprite</title>
    <description>Created with Sketch (http://www.bohemiancoding.com/sketch)</description>
    <defs>
        <path id="path-1" d="M67.3731894,0 C66.0623768,0 65,1.06221571 65,2.37318936 L65,40.6268106 C65,41.9374621 66.0623768,43 67.3731894,43 L87.9675751,43 L87.9675751,26 L82,26 L82,20 L87.9675751,20 L87.9675751,15.072733 C87.9675751,9.51869656 91.0454637,7 96,7 C98.3731894,7 100.405655,6.9210548 101,7 L101,13 L97,13 C94.3053909,13 94,14.1211043 94,16 L94,20 L101,20 L100,26 L94,26 L94,43 L105.626811,43 C106.937462,43 108,41.9374621 108,40.6268106 L108,2.37318936 C108,1.06221571 106.937462,0 105.626811,0 L67.3731894,0 Z"></path>
        <path id="path-2" d="M2.37318936,0 C1.06237682,0 0,1.06221571 0,2.37318936 L0,40.6268106 C0,41.9374621 1.06237682,43 2.37318936,43 L22.9675751,43 L22.9675751,26 L17,26 L17,20 L22.9675751,20 L22.9675751,15.072733 C22.9675751,9.51869656 26.0454637,7 31,7 C33.3731894,7 35.4056554,6.9210548 36,7 L36,13 L32,13 C29.3053909,13 29,14.1211043 29,16 L29,20 L36,20 L35,26 L29,26 L29,43 L40.6268106,43 C41.9374621,43 43,41.9374621 43,40.6268106 L43,2.37318936 C43,1.06221571 41.9374621,0 40.6268106,0 L2.37318936,0 Z"></path>
    </defs>
    <g id="Desktop" stroke="none" stroke-width="1" fill="none" fill-rule="evenodd" sketch:type="MSPage">
        <g id="Opened-work" sketch:type="MSArtboardGroup" transform="translate(-576.000000, -2878.000000)">
            <g id="3-opened" sketch:type="MSLayerGroup" transform="translate(0.000000, 91.000000)">
                <g id="Social" transform="translate(576.000000, 2787.000000)">
                    <g id="Imported-Layers">
                        <use fill-opacity="0.3" fill="#000000" fill-rule="evenodd" sketch:type="MSShapeGroup" xlink:href="#path-1"></use>
                        <use fill="none" xlink:href="#path-1"></use>
                    </g>
                    <g id="Imported-Layers">
                        <use fill="none" sketch:type="MSShapeGroup" xlink:href="#path-2"></use>
                        <use fill="#3B539A" fill-rule="evenodd" xlink:href="#path-2"></use>
                    </g>
                </g>
            </g>
        </g>
    </g>
</svg>