<?xml version="1.0" encoding="UTF-8" standalone="no"?>
<svg width="43px" height="43px" viewBox="0 0 43 43" version="1.1" xmlns="http://www.w3.org/2000/svg" xmlns:xlink="http://www.w3.org/1999/xlink" xmlns:sketch="http://www.bohemiancoding.com/sketch/ns">
    <title>work/facebook</title>
    <description>Created with Sketch (http://www.bohemiancoding.com/sketch)</description>
    <defs>
        <path id="path-1" d="M2.37318936,0 C1.06237682,0 0,1.06221571 0,2.37318936 L0,40.6268106 C0,41.9374621 1.06237682,43 2.37318936,43 L22.9675751,43 L22.9675751,26 L17,26 L17,20 L22.9675751,20 L22.9675751,15.072733 C22.9675751,9.51869656 26.0454637,7 31,7 C33.3731894,7 35.4056554,6.9210548 36,7 L36,13 L32,13 C29.3053909,13 29,14.1211043 29,16 L29,20 L36,20 L35,26 L29,26 L29,43 L40.6268106,43 C41.9374621,43 43,41.9374621 43,40.6268106 L43,2.37318936 C43,1.06221571 41.9374621,0 40.6268106,0 L2.37318936,0 Z"></path>
    </defs>
    <g id="Desktop" stroke="none" stroke-width="1" fill="none" fill-rule="evenodd" sketch:type="MSPage">
        <g id="Opened-work" sketch:type="MSArtboardGroup" transform="translate(-694.000000, -2876.000000)">
            <g id="3-opened" sketch:type="MSLayerGroup" transform="translate(106.000000, 0.000000)">
                <g id="Social" transform="translate(588.000000, 2876.000000)">
                    <g id="Imported-Layers">
                        <use fill="#B7B7B7" fill-rule="evenodd" sketch:type="MSShapeGroup" xlink:href="#path-1"></use>
                        <use fill="none" xlink:href="#path-1"></use>
                    </g>
                </g>
            </g>
        </g>
    </g>
</svg>