<?xml version="1.0" encoding="UTF-8" standalone="no"?>
<svg width="168px" height="152px" viewBox="0 0 168 152" version="1.1" xmlns="http://www.w3.org/2000/svg" xmlns:xlink="http://www.w3.org/1999/xlink" xmlns:sketch="http://www.bohemiancoding.com/sketch/ns">
    <!-- Generator: Sketch 3.0 (7573) - http://www.bohemiancoding.com/sketch -->
    <title>Good</title>
    <description>Created with Sketch.</description>
    <defs></defs>
    <g id="Desktop" stroke="none" stroke-width="1" fill="none" fill-rule="evenodd" sketch:type="MSPage">
        <g id="main" sketch:type="MSArtboardGroup" transform="translate(-354.000000, -1295.000000)">
            <g id="2" sketch:type="MSLayerGroup" transform="translate(0.000000, 900.000000)">
                <g id="Opened-iPhone" transform="translate(0.000000, 73.000000)">
                    <g id="iPhone-+-Write-+-Send-+-You-may-need-a-store-+-Get-in-touch-with-us" transform="translate(295.000000, 134.000000)">
                        <g id="iPhone-+-Write-+-Send">
                            <g id="Good" transform="translate(24.000000, 190.000000)">
                                <g id="Group" transform="translate(79.000000, 0.000000)" sketch:type="MSShapeGroup">
                                    <circle id="Oval-22" stroke="#F4CB0A" stroke-width="3" cx="40" cy="40" r="40"></circle>
                                    <path d="M40,68 C52.7025492,68 63,57.7025492 63,45 C45.4117647,45.0000003 30.5294118,45.0000002 17,45 C17,57.7025492 27.2974508,68 40,68 Z" id="Oval-23" fill="#F4CB0A"></path>
                                    <path d="M25.5,34 C28.5375661,34 31,31.5375661 31,28.5 C31,25.4624339 28.5375661,23 25.5,23 C22.4624339,23 20,25.4624339 20,28.5 C20,31.5375661 22.4624339,34 25.5,34 Z" id="Oval-24" fill="#F4CB0A"></path>
                                    <circle id="Oval-25" fill="#F4CB0A" cx="54.5" cy="28.5" r="5.5"></circle>
                                </g>
                            </g>
                        </g>
                    </g>
                </g>
            </g>
        </g>
    </g>
</svg>