<?xml version="1.0" encoding="UTF-8" standalone="no"?>
<svg width="166px" height="151px" viewBox="0 0 166 151" version="1.1" xmlns="http://www.w3.org/2000/svg" xmlns:xlink="http://www.w3.org/1999/xlink" xmlns:sketch="http://www.bohemiancoding.com/sketch/ns">
    <title>2/imac</title>
    <description>Created with Sketch (http://www.bohemiancoding.com/sketch)</description>
    <defs></defs>
    <g id="Desktop" stroke="none" stroke-width="1" fill="none" fill-rule="evenodd" sketch:type="MSPage">
        <g id="main" sketch:type="MSArtboardGroup" transform="translate(-637.000000, -1240.000000)">
            <g id="2-3" sketch:type="MSLayerGroup" transform="translate(0.000000, 900.000000)">
                <g id="Group" transform="translate(230.000000, 196.000000)" sketch:type="MSShapeGroup">
                    <g id="Web" transform="translate(345.000000, 124.000000)">
                        <g id="iMac" transform="translate(62.000000, 20.000000)">
                            <g id="Path-124-+-Path-124" transform="translate(83.000000, 138.500000) scale(-1, 1) translate(-83.000000, -138.500000) translate(54.000000, 126.000000)" opacity="0.95">
                                <path d="M8,0 L0,25 L29,25 L29,0" id="Path-124" fill="#AA63B1"></path>
                                <path d="M50,0 L58,25 L29,25 L29,0" id="Path-124" fill="#F4CB0A"></path>
                            </g>
                            <rect id="Rectangle-41" fill="#AA63B1" x="0" y="0" width="140" height="126" rx="5"></rect>
                            <path d="M122.00468,126 L161.009361,126 C163.765615,126 166,123.759558 166,121.002386 L166,4.99761351 C166,2.23750778 163.763387,0 161.009361,0 L122.00468,0 L83,0 L83,126 L122.00468,126 Z" id="Rectangle-41" fill="#F4CB0A"></path>
                            <rect id="Rectangle-42" fill="#FFFFFF" x="8" y="8" width="150" height="100"></rect>
                            <g id="Screen" transform="translate(23.000000, 23.000000)" fill="#EFEFEF">
                                <g id="Group">
                                    <rect id="Rectangle-89" x="0" y="0" width="48" height="8"></rect>
                                    <rect id="Rectangle-90" x="0" y="15" width="35" height="5"></rect>
                                    <rect id="Rectangle-90" x="0" y="27" width="42" height="5"></rect>
                                    <rect id="Rectangle-89" x="73" y="0" width="48" height="8"></rect>
                                    <rect id="Rectangle-90" x="73" y="15" width="35" height="5"></rect>
                                    <rect id="Rectangle-90" x="73" y="27" width="42" height="5"></rect>
                                </g>
                                <path d="M0,54 L0,70 L26,70 L26,54 L0,54 Z M7,60 L7,64 L19,64 L19,60 L7,60 Z" id="Rectangle-214"></path>
                            </g>
                        </g>
                    </g>
                </g>
            </g>
        </g>
    </g>
</svg>