<?xml version="1.0" encoding="UTF-8" standalone="no"?>
<svg width="77px" height="152px" viewBox="0 0 77 152" version="1.1" xmlns="http://www.w3.org/2000/svg" xmlns:xlink="http://www.w3.org/1999/xlink" xmlns:sketch="http://www.bohemiancoding.com/sketch/ns">
    <title>2/iphone</title>
    <description>Created with Sketch (http://www.bohemiancoding.com/sketch)</description>
    <defs></defs>
    <g id="Desktop" stroke="none" stroke-width="1" fill="none" fill-rule="evenodd" sketch:type="MSPage">
        <g id="main" sketch:type="MSArtboardGroup" transform="translate(-338.000000, -1239.000000)">
            <g id="2-3" sketch:type="MSLayerGroup" transform="translate(0.000000, 900.000000)">
                <g id="Group" transform="translate(230.000000, 196.000000)" sketch:type="MSShapeGroup">
                    <g id="Apps" transform="translate(0.000000, 124.000000)">
                        <g id="iPhone" transform="translate(108.000000, 19.000000)">
                            <path d="M1,50 L1,44 L1,44 C0.443864822,44 0,43.5509732 0,42.9970707 L0,38.0029293 C0,37.4378814 0.44771525,37 1,37 L1,30 C0.443864822,30 0,29.5536144 0,29.0029699 L0,22.9970301 C0,22.4530363 0.44771525,22 1,22 L1,11.9418992 C1,5.86239991 5.09914731,1.00018288 10.2670425,1.00018288 C10.2670425,1.00018288 12.7368483,0.999771399 12.7894737,1.00018288 C14.5690539,1.01409793 55.7368421,1.00018288 55.7368421,1.00018288 C60.9047373,1.00018288 65,5.86239978 65,11.941899 L65,140.946364 C65,147.025863 60.9047373,152 55.7368421,152 L10.2670428,152 C5.09914769,152 1,147.025863 1,140.946363 L1,57 C0.443864822,57 0,56.5509732 0,55.9970707 L0,51.0029293 C0,50.4378814 0.44771525,50 1,50 Z" id="Fill-1" fill="#F4CB0A"></path>
                            <path d="M66.0022573,152 C72.1380679,151.99878 77,147.025112 77,140.94635 L77,11.9417294 C77,5.8622228 72.1368755,1 66,1 C66,1 64.4943104,1.00042858 61.9999995,1.00106009 L61.9999995,1.00106009 C61.9999998,1.00070677 62,1.00035341 62,1 C62,0.44771525 61.555163,0 61.0044225,0 L51.9955775,0 C51.4457352,0 51,0.443864822 51,1 C51,1.00118519 51.000002,1.00236991 51.0000061,1.00355413 C47.2308173,1.00430705 43.0902682,1.00502258 39,1.00551674 L39,152 L66.0022573,152 Z" id="Fill-1" fill="#EB4748"></path>
                            <rect id="Rectangle-78" fill="#FFFFFF" x="6" y="22" width="66" height="108"></rect>
                            <rect id="Rectangle-73" fill="#FFFFFF" x="32" y="13" width="14" height="2" rx="1"></rect>
                            <path d="M39,9 C38.4477241,9 38,8.55227586 38,8 C38,7.44772414 38.4477241,7 39,7 C39.5522759,7 40,7.44772414 40,8 C40,8.55227586 39.5522759,9 39,9 Z" id="Fill-5" fill="#FFFFFF"></path>
                            <rect id="Rectangle" fill="#FFFFFF" x="32" y="134" width="14" height="14" rx="40"></rect>
                            <path d="M39,147 C35.6916303,147 33,144.30837 33,141 C33,137.69163 35.6916303,135 39,135 L39,147 Z" id="Path" fill="#EA4748"></path>
                            <path d="M45,147 C41.6916303,147 39,144.30837 39,141 C39,137.69163 41.6916303,135 45,135 L45,147 Z" id="Path" fill="#F4CB0A" transform="translate(42.000000, 141.000000) scale(-1, 1) translate(-42.000000, -141.000000) "></path>
                        </g>
                        <g id="Screen" transform="translate(123.000000, 52.000000)" fill="#EFEFEF">
                            <rect id="Rectangle-89" x="0" y="0" width="36" height="6"></rect>
                            <rect id="Rectangle-90" x="0" y="11" width="26" height="4"></rect>
                            <rect id="Rectangle-90" x="0" y="20" width="32" height="4"></rect>
                            <path d="M0,75 L0,88 L20,88 L20,75 L0,75 Z M5,80 L5,83 L15,83 L15,80 L5,80 Z" id="Rectangle-214"></path>
                        </g>
                    </g>
                </g>
            </g>
        </g>
    </g>
</svg>