<?xml version="1.0" encoding="UTF-8" standalone="no"?>
<svg width="283px" height="560px" viewBox="0 0 283 560" version="1.1" xmlns="http://www.w3.org/2000/svg" xmlns:xlink="http://www.w3.org/1999/xlink" xmlns:sketch="http://www.bohemiancoding.com/sketch/ns">
    <!-- Generator: Sketch 3.0 (7573) - http://www.bohemiancoding.com/sketch -->
    <title>iPhone</title>
    <description>Created with Sketch.</description>
    <defs></defs>
    <g id="Desktop" stroke="none" stroke-width="1" fill="none" fill-rule="evenodd" sketch:type="MSPage">
        <g id="main" sketch:type="MSArtboardGroup" transform="translate(-306.000000, -1107.000000)">
            <g id="2" sketch:type="MSLayerGroup" transform="translate(0.000000, 900.000000)">
                <g id="Opened-iPhone" transform="translate(0.000000, 73.000000)" sketch:type="MSShapeGroup">
                    <g id="iPhone-+-Write-+-Send-+-You-may-need-a-store-+-Get-in-touch-with-us" transform="translate(306.000000, 134.000000)">
                        <g id="iPhone-+-Write-+-Send">
                            <g id="iPhone">
                                <path d="M4,184.035634 L4,162.964533 L4,162.964533 C3.83669851,162.987907 3.66976067,163 3.5,163 C1.57093664,163 0,161.430097 0,159.493524 L0,140.506476 C0,138.567864 1.56700338,137 3.5,137 C3.66971386,137 3.83665581,137.012151 4,137.035634 L4,109.964722 C3.83669851,109.987974 3.66976067,110 3.5,110 C1.57093664,110 0,108.433857 0,106.501922 L0,84.4980776 C0,82.559166 1.56700338,81 3.5,81 C3.66971386,81 3.83665581,81.012122 4,81.0355485 L4,81.0355485 L4,44 C4,21.9039361 19.0515565,4.00067339 38,4 C38,4 47.0962398,3.99915826 47,4 C53.8238699,4.05191026 205,4 205,4 C223.962707,4.00067339 239,21.9039356 239,44 L239,519 C239,541.684634 223.962707,560 205,560 L38,560 C19.0515579,559.999999 4,541.684633 4,519 L4,209.964533 C3.83669851,209.987907 3.66976067,210 3.5,210 C1.57093664,210 0,208.430097 0,206.493524 L0,187.506476 C0,185.567864 1.56700338,184 3.5,184 C3.66971386,184 3.83665581,184.012151 4,184.035634 Z" id="Fill-1" fill="#F4CB0A"></path>
                                <path d="M193.5,560 L243,560 C265.147214,560 283,541.684634 283,519 L283,44 C283,21.9039356 265.147214,4.00067339 243,4 C243,4 237.332425,4.00163586 227.963879,4.00403639 L227.963879,4.00403639 C227.987681,3.83940632 228,3.67111204 228,3.5 C228,1.56700338 226.431953,0 224.502798,0 L191.497202,0 C189.565751,0 188,1.57093664 188,3.5 C188,3.67434104 188.012755,3.84570487 188.037381,4.01321033 C174.217191,4.0160128 159.025879,4.01868055 144,4.02053288 L144,560 L193.5,560 Z" id="Fill-1" fill="#EB4748"></path>
                                <rect id="Rectangle-78" fill="#FFFFFF" x="22" y="81" width="243" height="398"></rect>
                                <rect id="Rectangle-73" fill="#FFFFFF" x="118" y="48" width="52" height="7" rx="3.68421053"></rect>
                                <circle id="Oval-128" fill="#FFFFFF" cx="144" cy="30" r="4"></circle>
                                <rect id="Rectangle" fill="#FBFBFB" x="119" y="494" width="50" height="50" rx="36.8421053"></rect>
                                <path d="M144,541 L144,497 C131.849735,497 122,506.849735 122,519 C122,531.150265 131.849735,541 144,541 Z" id="Oval-129" fill="#EA4748"></path>
                                <path d="M166,541 L166,497 C153.849735,497 144,506.849735 144,519 C144,531.150265 153.849735,541 166,541 Z" id="Oval-129" fill="#F4CB0A" transform="translate(155.000000, 519.000000) rotate(-180.000000) translate(-155.000000, -519.000000) "></path>
                            </g>
                        </g>
                    </g>
                </g>
            </g>
        </g>
    </g>
</svg>