<?xml version="1.0" encoding="UTF-8" standalone="no"?>
<svg width="53px" height="43px" viewBox="0 0 53 43" version="1.1" xmlns="http://www.w3.org/2000/svg" xmlns:xlink="http://www.w3.org/1999/xlink" xmlns:sketch="http://www.bohemiancoding.com/sketch/ns">
    <title>work/twitter_hover</title>
    <description>Created with Sketch (http://www.bohemiancoding.com/sketch)</description>
    <defs>
        <path id="path-1" d="M105,38.123023 C105.850668,38.2232759 106.716262,38.2745636 107.593877,38.2745636 C112.688189,38.2745636 117.376748,36.5391038 121.098127,33.6277039 C116.339972,33.540031 112.32431,30.4016104 110.940715,26.0887982 C111.604499,26.2155659 112.285731,26.2834979 112.986349,26.2834979 C113.978148,26.2834979 114.938736,26.150924 115.851245,25.9028077 C110.87674,24.9056972 107.128801,20.5181791 107.128801,15.2585765 C107.128801,15.2129014 107.128801,15.1674198 107.129577,15.1221318 C108.595757,15.9351871 110.272278,16.4234848 112.054841,16.4798045 C109.137214,14.5331941 107.217396,11.2105249 107.217396,7.44445895 C107.217396,5.45507656 107.753619,3.59033298 108.689586,1.98705992 C114.052592,8.55459586 122.064724,12.8763109 131.101807,13.3289975 C130.916475,12.5345219 130.820125,11.7059835 130.820125,10.8551882 C130.820125,4.86033271 135.688782,0 141.694052,0 C144.821438,0 147.647368,1.31838436 149.630967,3.4281477 C152.107751,2.9412048 154.434873,2.03776702 156.535758,0.793894985 C155.723863,3.32866891 153.999846,5.45604425 151.754728,6.79958862 C153.954289,6.53715039 156.04994,5.95363177 158,5.09025646 C156.542156,7.26717767 154.698526,9.17914465 152.574183,10.7096472 C152.595121,11.1751073 152.605589,11.643277 152.605589,12.1139627 C152.605589,26.4588438 141.668656,43 121.668276,43 C115.527689,43 109.812049,41.2029949 105,38.123023 Z"></path>
    </defs>
    <g id="Desktop" stroke="none" stroke-width="1" fill="none" fill-rule="evenodd" sketch:type="MSPage">
        <g id="Opened-work" sketch:type="MSArtboardGroup" transform="translate(-799.000000, -2876.000000)">
            <g id="3-opened" sketch:type="MSLayerGroup" transform="translate(106.000000, 0.000000)">
                <g id="Social" transform="translate(588.000000, 2876.000000)">
                    <g id="Fill-1">
                        <use fill="none" sketch:type="MSShapeGroup" xlink:href="#path-1"></use>
                        <use fill="#4DA9E1" fill-rule="evenodd" xlink:href="#path-1"></use>
                    </g>
                </g>
            </g>
        </g>
    </g>
</svg>