<?xml version="1.0" encoding="UTF-8" standalone="no"?>
<svg width="126px" height="43px" viewBox="0 0 126 43" version="1.1" xmlns="http://www.w3.org/2000/svg" xmlns:xlink="http://www.w3.org/1999/xlink" xmlns:sketch="http://www.bohemiancoding.com/sketch/ns">
    <title>work/twitter_sprite</title>
    <description>Created with Sketch (http://www.bohemiancoding.com/sketch)</description>
    <defs>
        <path id="path-1" d="M170,38.123023 C170.850668,38.2232759 171.716262,38.2745636 172.593877,38.2745636 C177.688189,38.2745636 182.376748,36.5391038 186.098127,33.6277039 C181.339972,33.540031 177.32431,30.4016104 175.940715,26.0887982 C176.604499,26.2155659 177.285731,26.2834979 177.986349,26.2834979 C178.978148,26.2834979 179.938736,26.150924 180.851245,25.9028077 C175.87674,24.9056972 172.128801,20.5181791 172.128801,15.2585765 C172.128801,15.2129014 172.128801,15.1674198 172.129577,15.1221318 C173.595757,15.9351871 175.272278,16.4234848 177.054841,16.4798045 C174.137214,14.5331941 172.217396,11.2105249 172.217396,7.44445895 C172.217396,5.45507656 172.753619,3.59033298 173.689586,1.98705992 C179.052592,8.55459586 187.064724,12.8763109 196.101807,13.3289975 C195.916475,12.5345219 195.820125,11.7059835 195.820125,10.8551882 C195.820125,4.86033271 200.688782,0 206.694052,0 C209.821438,0 212.647368,1.31838436 214.630967,3.4281477 C217.107751,2.9412048 219.434873,2.03776702 221.535758,0.793894985 C220.723863,3.32866891 218.999846,5.45604425 216.754728,6.79958862 C218.954289,6.53715039 221.04994,5.95363177 223,5.09025646 C221.542156,7.26717767 219.698526,9.17914465 217.574183,10.7096472 C217.595121,11.1751073 217.605589,11.643277 217.605589,12.1139627 C217.605589,26.4588438 206.668656,43 186.668276,43 C180.527689,43 174.812049,41.2029949 170,38.123023 Z"></path>
        <path id="path-2" d="M97,38.123023 C97.8506675,38.2232759 98.7162625,38.2745636 99.5938769,38.2745636 C104.688189,38.2745636 109.376748,36.5391038 113.098127,33.6277039 C108.339972,33.540031 104.32431,30.4016104 102.940715,26.0887982 C103.604499,26.2155659 104.285731,26.2834979 104.986349,26.2834979 C105.978148,26.2834979 106.938736,26.150924 107.851245,25.9028077 C102.87674,24.9056972 99.1288013,20.5181791 99.1288013,15.2585765 C99.1288013,15.2129014 99.1288013,15.1674198 99.1295768,15.1221318 C100.595757,15.9351871 102.272278,16.4234848 104.054841,16.4798045 C101.137214,14.5331941 99.2173964,11.2105249 99.2173964,7.44445895 C99.2173964,5.45507656 99.7536194,3.59033298 100.689586,1.98705992 C106.052592,8.55459586 114.064724,12.8763109 123.101807,13.3289975 C122.916475,12.5345219 122.820125,11.7059835 122.820125,10.8551882 C122.820125,4.86033271 127.688782,0 133.694052,0 C136.821438,0 139.647368,1.31838436 141.630967,3.4281477 C144.107751,2.9412048 146.434873,2.03776702 148.535758,0.793894985 C147.723863,3.32866891 145.999846,5.45604425 143.754728,6.79958862 C145.954289,6.53715039 148.04994,5.95363177 150,5.09025646 C148.542156,7.26717767 146.698526,9.17914465 144.574183,10.7096472 C144.595121,11.1751073 144.605589,11.643277 144.605589,12.1139627 C144.605589,26.4588438 133.668656,43 113.668276,43 C107.527689,43 101.812049,41.2029949 97,38.123023 Z"></path>
    </defs>
    <g id="Desktop" stroke="none" stroke-width="1" fill="none" fill-rule="evenodd" sketch:type="MSPage">
        <g id="Opened-work" sketch:type="MSArtboardGroup" transform="translate(-673.000000, -2878.000000)">
            <g id="3-opened" sketch:type="MSLayerGroup" transform="translate(0.000000, 91.000000)">
                <g id="Social" transform="translate(576.000000, 2787.000000)">
                    <g id="Fill-1">
                        <use fill-opacity="0.3" fill="#000000" fill-rule="evenodd" sketch:type="MSShapeGroup" xlink:href="#path-1"></use>
                        <use fill="none" xlink:href="#path-1"></use>
                    </g>
                    <g id="Fill-1">
                        <use fill="none" sketch:type="MSShapeGroup" xlink:href="#path-2"></use>
                        <use fill="#4DA9E1" fill-rule="evenodd" xlink:href="#path-2"></use>
                    </g>
                </g>
            </g>
        </g>
    </g>
</svg>