<?xml version="1.0" encoding="UTF-8" standalone="no"?>
<svg width="16px" height="16px" viewBox="0 0 16 16" version="1.1" xmlns="http://www.w3.org/2000/svg" xmlns:xlink="http://www.w3.org/1999/xlink" xmlns:sketch="http://www.bohemiancoding.com/sketch/ns">
    <!-- Generator: Sketch 3.4 (15588) - http://www.bohemiancoding.com/sketch -->
    <title>Oval 11</title>
    <desc>Created with Sketch.</desc>
    <defs></defs>
    <g id="2-bets" stroke="none" stroke-width="1" fill="none" fill-rule="evenodd" sketch:type="MSPage">
        <g id="2-bets-activate-full" sketch:type="MSArtboardGroup" transform="translate(-1012.000000, -848.000000)" fill="#FFFFFF">
            <g id="ic-white-settings-20" sketch:type="MSLayerGroup" transform="translate(1010.000000, 846.000000)">
                <path d="M6.7124529,4.98001975 C7.14480966,4.69629714 7.61602883,4.46692567 8.11639685,4.30161888 L8.41743517,2.49538898 C8.46303447,2.2217932 8.7157526,2 8.99538898,2 L11.004611,2 C11.2782068,2 11.5359588,2.2157526 11.5825648,2.49538898 L11.8836031,4.30161888 C12.3839712,4.46692567 12.8551903,4.69629714 13.2875471,4.98001975 L14.8666937,4.08521022 C15.1080141,3.94846813 15.4394205,4.00528802 15.6154014,4.22260631 L16.8798458,5.78406509 C17.0520252,5.99668895 17.0465625,6.33277737 16.8585743,6.54497796 L15.6328353,7.92858942 C15.8073979,8.40312998 15.923706,8.90582725 15.9730899,9.42801137 L17.671894,10.1303706 C17.9282199,10.2363468 18.0874793,10.5324804 18.0245748,10.8049498 L17.5725982,12.7626756 C17.5110526,13.0292591 17.2428481,13.2318711 16.9598947,13.2143782 L15.137137,13.1016904 C14.8664125,13.5491137 14.5388852,13.9583247 14.1645517,14.3193268 L14.6830366,16.0654853 C14.7619888,16.331381 14.6320749,16.6415117 14.3807394,16.7640962 L12.5748626,17.6448812 C12.3289564,17.7648177 12.0027107,17.6838916 11.8382369,17.4529868 L10.7685396,15.9512385 C10.5168998,15.9834132 10.2603869,16 10,16 C9.73961309,16 9.48310023,15.9834132 9.23146039,15.9512385 L8.16176306,17.4529868 C8.00084219,17.6789036 7.67647289,17.7674657 7.42513737,17.6448812 L5.61926058,16.7640962 C5.37335432,16.6441597 5.2362681,16.3372516 5.31696337,16.0654853 L5.83544834,14.3193268 C5.46111476,13.9583247 5.13358746,13.5491137 4.86286296,13.1016904 L3.0401053,13.2143782 C2.76326415,13.2314932 2.49030628,13.0351449 2.42740178,12.7626756 L1.97542517,10.8049498 C1.91387951,10.5383662 2.06612081,10.2386866 2.32810604,10.1303706 L4.02691005,9.42801137 C4.07629398,8.90582725 4.19260214,8.40312998 4.36716466,7.92858942 L3.14142565,6.54497796 C2.95749836,6.33736124 2.94417335,6.00138338 3.12015422,5.78406509 L4.38459862,4.22260631 C4.55677802,4.00998245 4.88665786,3.94544906 5.13330629,4.08521022 L6.7124529,4.98001975 Z M10.0999999,13.5 C12.0329965,13.5 13.5999999,11.9329966 13.5999999,10 C13.5999999,8.06700338 12.0329965,6.5 10.0999999,6.5 C8.16700328,6.5 6.5999999,8.06700338 6.5999999,10 C6.5999999,11.9329966 8.16700328,13.5 10.0999999,13.5 Z" id="Oval-11" sketch:type="MSShapeGroup"></path>
            </g>
        </g>
    </g>
</svg>