<?xml version="1.0" encoding="UTF-8" standalone="no"?>
<svg width="18px" height="16px" viewBox="0 0 18 16" version="1.1" xmlns="http://www.w3.org/2000/svg" xmlns:xlink="http://www.w3.org/1999/xlink" xmlns:sketch="http://www.bohemiancoding.com/sketch/ns">
    <!-- Generator: Sketch 3.3.3 (12081) - http://www.bohemiancoding.com/sketch -->
    <title>ic-question2-yellow-20</title>
    <desc>Created with Sketch.</desc>
    <defs></defs>
    <g id="4-faq-&amp;-others" stroke="none" stroke-width="1" fill="none" fill-rule="evenodd" sketch:type="MSPage">
        <g id="4-faq" sketch:type="MSArtboardGroup" transform="translate(-991.000000, -770.000000)">
            <g id="Content" sketch:type="MSLayerGroup" transform="translate(170.000000, 190.000000)">
                <g id="Right" transform="translate(800.000000, 0.000000)" sketch:type="MSShapeGroup">
                    <g id="Numbers-Copy" transform="translate(0.000000, 558.000000)">
                        <g id="Title">
                            <g id="ic-question2-yellow-20" transform="translate(20.000000, 20.000000)">
                                <rect id="shape" x="0" y="0" width="20" height="20"></rect>
                                <path d="M9.60514218,4.94748606 L7.49999986,10 L3.96837053,7.64558037 L3.96837053,7.64558037 C4.29354562,7.37042937 4.5,6.95932469 4.5,6.5 C4.5,5.67157288 3.82842712,5 3,5 C2.17157288,5 1.5,5.67157288 1.5,6.5 C1.5,7.32842712 2.17157288,8 3,8 C3.06087415,8 3.12090136,7.99637381 3.1798774,7.98932566 L4.82251334,17.0238234 C4.91912055,17.555163 5.44565466,18 5.99539755,18 L14.0046023,18 C14.5443355,18 15.0794633,17.5629508 15.1774865,17.0238234 L16.8201222,7.98932561 C16.8790984,7.99637379 16.9391257,8 17,8 C17.8284271,8 18.5,7.32842712 18.5,6.5 C18.5,5.67157288 17.8284271,5 17,5 C16.1715729,5 15.5,5.67157288 15.5,6.5 C15.5,6.9593246 15.7064543,7.37042921 16.0316293,7.64558022 L12.4999999,10 L10.3947285,4.94752123 C11.0316549,4.77424449 11.5,4.19181617 11.5,3.5 C11.5,2.67157288 10.8284271,2 10,2 C9.17157288,2 8.5,2.67157288 8.5,3.5 C8.5,4.19176936 8.96828169,4.77416568 9.60514218,4.94748606 L9.60514218,4.94748606 Z" id="Rectangle-42-Copy" fill="#F6AE46"></path>
                            </g>
                        </g>
                    </g>
                </g>
            </g>
        </g>
    </g>
</svg>