<?xml version="1.0" encoding="UTF-8" standalone="no"?>
<svg width="36px" height="37px" viewBox="0 0 36 37" version="1.1" xmlns="http://www.w3.org/2000/svg" xmlns:xlink="http://www.w3.org/1999/xlink" xmlns:sketch="http://www.bohemiancoding.com/sketch/ns">
    <!-- Generator: Sketch 3.3.3 (12081) - http://www.bohemiancoding.com/sketch -->
    <title>Path Copy 2</title>
    <desc>Created with Sketch.</desc>
    <defs></defs>
    <g id="5-settings" stroke="none" stroke-width="1" fill="none" fill-rule="evenodd" sketch:type="MSPage">
        <g sketch:type="MSArtboardGroup" transform="translate(-200.000000, -362.000000)" id="Content" fill="#FFFFFF">
            <g sketch:type="MSLayerGroup" transform="translate(170.000000, 190.000000)">
                <g id="Service-client-settings" transform="translate(30.000000, 109.000000)" sketch:type="MSShapeGroup">
                    <g id="1" transform="translate(0.000000, 56.000000)">
                        <path d="M13,39.6115082 C15.0039887,40.0662374 16.5,41.8584126 16.5,44 L7.5,44 C7.5,41.8584126 8.9960113,40.0662374 11,39.6115082 L11,32 L13,32 L13,39.6115082 L13,39.6115082 Z M25,39.6115082 L25,32 L23,32 L23,39.6115082 C20.9960113,40.0662374 19.5,41.8584126 19.5,44 L28.5,44 C28.5,41.8584126 27.0039887,40.0662374 25,39.6115082 L25,39.6115082 Z M27,20.2034229 C28.0710995,20.4842164 29.2407795,20.9948694 30.3305233,21.8370253 C32.0732207,23.1797401 33.4887349,25.4482588 33.6411164,28.6956768 C34.8867689,29.1249267 35.7866179,30.2788164 35.7873779,31.6533137 C35.7873779,33.3908786 34.3551436,34.7990278 32.5904059,34.8001496 L32.5904059,33.4028437 C33.5704357,33.4013481 34.3646436,32.6180043 34.3676837,31.6533137 C34.3646436,30.6875013 33.5704357,29.9037836 32.5904059,29.9026618 C31.6069561,29.9037836 30.8116081,30.6878752 30.8108481,31.6533137 L29.3900139,31.6533137 C29.3911539,30.2477818 30.3347033,29.0722053 31.6263363,28.6680074 C31.4606546,26.0061342 30.3825838,24.4188815 29.0810708,23.3883825 C28.4259297,22.8713273 27.6939994,22.5115324 27,22.275023 L27,32 L9,32 L9,22.2059799 C8.24461712,22.4392473 7.4287711,22.8181941 6.70630706,23.3883825 C5.40479405,24.4188815 4.32672327,26.0061342 4.16104161,28.6680074 C5.45267453,29.0722053 6.39622396,30.2477818 6.39736397,31.6533137 L4.97652977,31.6533137 C4.97576976,30.6878752 4.1804218,29.9037836 3.19697197,29.9026618 C2.21694217,29.9037836 1.42273423,30.6875013 1.4196942,31.6533137 C1.42273423,32.6180043 2.21694217,33.4013481 3.19697197,33.4028437 L3.19697197,34.8001496 C1.43223432,34.7990278 0,33.3908786 0,31.6533137 C0.0007600076,30.2788164 0.900609006,29.1249267 2.14626146,28.6956768 C2.29864299,25.4482588 3.71415714,23.1797401 5.45685457,21.8370253 C6.61916879,20.9387868 7.87242015,20.4176737 9,20.1503535 L9,19 L27,19 L27,20.2034229 L27,20.2034229 Z M13,7 L23,7 L23,17 L13,17 L13,7 Z M24,13 C25.3807119,13 26.5,11.8807119 26.5,10.5 C26.5,9.11928813 25.3807119,8 24,8 C24,10 24,11.5 24,13 Z M12,13 C10.6192881,13 9.5,11.8807119 9.5,10.5 C9.5,9.11928813 10.6192881,8 12,8 C12,10 12,11.5 12,13 Z M14,23 L16,23 L16,25 L14,25 L14,23 Z M17,23 L19,23 L19,25 L17,25 L17,23 Z M20,23 L22,23 L22,25 L20,25 L20,23 Z M14,26 L16,26 L16,28 L14,28 L14,26 Z M17,26 L19,26 L19,28 L17,28 L17,26 Z M20,26 L22,26 L22,28 L20,28 L20,26 Z M15.5,13.5 C16.3284271,13.5 17,12.8284271 17,12 C17,11.1715729 16.3284271,10.5 15.5,10.5 C14.6715729,10.5 14,11.1715729 14,12 C14,12.8284271 14.6715729,13.5 15.5,13.5 Z M20.5,13.5 C21.3284271,13.5 22,12.8284271 22,12 C22,11.1715729 21.3284271,10.5 20.5,10.5 C19.6715729,10.5 19,11.1715729 19,12 C19,12.8284271 19.6715729,13.5 20.5,13.5 Z" id="Path-Copy-2"></path>
                    </g>
                </g>
            </g>
        </g>
    </g>
</svg>