<?xml version="1.0" encoding="UTF-8" standalone="no"?>
<svg width="18px" height="18px" viewBox="0 0 18 18" version="1.1" xmlns="http://www.w3.org/2000/svg" xmlns:xlink="http://www.w3.org/1999/xlink" xmlns:sketch="http://www.bohemiancoding.com/sketch/ns">
    <!-- Generator: Sketch 3.3.3 (12081) - http://www.bohemiancoding.com/sketch -->
    <title>ic-menu-bet-orange-20</title>
    <desc>Created with Sketch.</desc>
    <defs>
        <rect id="path-1" x="1" y="1" width="18" height="18" rx="40"></rect>
    </defs>
    <g id="4-faq-&amp;-others" stroke="none" stroke-width="1" fill="none" fill-rule="evenodd" sketch:type="MSPage">
        <g id="4-faq" sketch:type="MSArtboardGroup" transform="translate(-253.000000, -24.000000)">
            <g id="Menu" sketch:type="MSLayerGroup" transform="translate(170.000000, 0.000000)">
                <g id="Left" transform="translate(15.000000, 0.000000)">
                    <g id="ic-menu-bet-orange-20" transform="translate(67.000000, 23.000000)">
                        <rect id="shape" sketch:type="MSShapeGroup" x="0" y="0" width="20" height="20"></rect>
                        <mask id="mask-2" sketch:name="Mask" fill="white">
                            <use xlink:href="#path-1"></use>
                        </mask>
                        <use id="Mask" sketch:type="MSShapeGroup" xlink:href="#path-1"></use>
                        <path d="M1.81470264,6.25258782 C1.31476593,7.34296703 1.02628686,8.55050363 1.00171118,9.82269615 L1.00171118,9.82269615 C0.358207364,10.4115593 0.0419017734,11.320749 0.252115497,12.2312846 C0.461091506,13.1364592 1.13716053,13.8123372 1.96694341,14.0630977 C2.52664064,15.1676305 3.30743447,16.1410734 4.25109959,16.9252629 C4.31005105,17.7887026 4.81625176,18.5976327 5.64994409,19.0042516 C6.49105509,19.4144889 7.4496306,19.3099307 8.16850148,18.8135603 L8.16850148,18.8135603 C8.75985451,18.9357837 9.37242596,19 10,19 C10.627608,19 11.2401835,18.9357876 11.8315204,18.8135754 L11.8315204,18.8135754 C12.5503889,19.3099328 13.5089534,19.4144847 14.3500559,19.0042516 C15.1837411,18.5976362 15.6899403,17.7887165 15.7488989,16.925285 C16.6925744,16.1410608 17.4733317,15.1675944 18.0330055,14.0631132 C18.8628117,13.812365 19.5389042,13.1364778 19.7478845,12.2312846 C19.9580982,11.3207491 19.6417927,10.4115596 18.9982891,9.82269641 L18.9982891,9.82269641 C18.9737151,8.55038603 18.6852302,7.34285758 18.1853172,6.25253811 L18.1853172,6.25253811 C18.5097622,5.43934212 18.3967683,4.4793214 17.806601,3.75052551 C17.2243332,3.03148468 16.3253358,2.71998256 15.4726798,2.85417947 C14.5082728,2.11452531 13.3897932,1.56573268 12.1736933,1.26419403 C11.7434881,0.509121713 10.9311999,0 10,0 C9.06881211,0 8.25653291,0.509108574 7.8263233,1.2641648 L7.8263233,1.2641648 C6.61012842,1.56570547 5.4916559,2.1145235 4.52729001,2.85417471 C3.67464297,2.71998992 2.77565989,3.03149317 2.19339898,3.75052551 C1.60321968,4.47933625 1.49023324,5.43938125 1.81470264,6.25258782 L1.81470264,6.25258782 Z M6.29410444,4.06005853 C6.72261061,3.79218492 7.18220454,3.56939343 7.66625063,3.39832185 C8.02712101,4.33521829 8.93592646,5 10,5 C11.0640706,5 11.972874,4.33522196 12.3337464,3.39832961 L12.3337464,3.39832961 C12.8177872,3.56940081 13.2773816,3.79219143 13.7058915,4.06006552 L13.7058915,4.06006552 C13.1952973,4.93222227 13.2472627,6.06529025 13.9208712,6.89712746 C14.5863533,7.71892934 15.6655642,8.00838273 16.6164628,7.7085168 C16.780581,8.18259331 16.8951928,8.67980458 16.9541166,9.19397102 C15.963281,9.33747552 15.1147945,10.0723448 14.8760342,11.1065294 C14.636246,12.1451659 15.0815478,13.1820511 15.9161021,13.7437459 L15.9161021,13.7437459 C15.6428313,14.1747395 15.3237583,14.5738153 14.9657231,14.9341315 L14.9657231,14.9341315 C14.230723,14.2443556 13.1179867,14.0421623 12.1582002,14.5102814 C11.2062299,14.9745883 10.6812669,15.9634578 10.7616133,16.9590635 C10.5114626,16.9861185 10.2573556,17 10,17 C9.74264626,17 9.48853921,16.986118 9.23838683,16.9590618 C9.31873248,15.9634567 8.79376961,14.9745881 7.84179982,14.5102814 C6.88201331,14.0421622 5.76927685,14.2443556 5.03427679,14.9341316 L5.03427679,14.9341316 C4.67624104,14.5738193 4.35716524,14.1747457 4.08389131,13.7437503 L4.08389131,13.7437503 C4.91844982,13.1820565 5.3637546,12.1451687 5.12396582,11.1065294 C4.88520565,10.0723454 4.03672009,9.33747642 3.04588522,9.19397128 C3.10481024,8.67981196 3.21942362,8.1826005 3.38354502,7.70851926 C4.33444168,8.00838115 5.41364857,7.71892709 6.07912879,6.89712746 C6.75273908,6.06528803 6.80470297,4.93221621 6.29410444,4.06005853 L6.29410444,4.06005853 Z M10,13 C11.6568542,13 13,11.6568542 13,10 C13,8.34314575 11.6568542,7 10,7 C8.34314575,7 7,8.34314575 7,10 C7,11.6568542 8.34314575,13 10,13 L10,13 Z" id="Path" fill="#FFFFFF" sketch:type="MSShapeGroup" mask="url(#mask-2)"></path>
                    </g>
                </g>
            </g>
        </g>
    </g>
</svg>