<?xml version="1.0" encoding="UTF-8" standalone="no"?>
<svg width="16px" height="18px" viewBox="0 0 16 18" version="1.1" xmlns="http://www.w3.org/2000/svg" xmlns:xlink="http://www.w3.org/1999/xlink" xmlns:sketch="http://www.bohemiancoding.com/sketch/ns">
    <!-- Generator: Sketch 3.4 (15588) - http://www.bohemiancoding.com/sketch -->
    <title>ic-white-off</title>
    <desc>Created with Sketch.</desc>
    <defs></defs>
    <g id="Guides-&amp;-Graphics" stroke="none" stroke-width="1" fill="none" fill-rule="evenodd" sketch:type="MSPage">
        <g id="Pop-menus" sketch:type="MSArtboardGroup" transform="translate(-80.000000, -487.000000)">
            <g id="Pop-menu" sketch:type="MSLayerGroup" transform="translate(60.000000, 217.000000)">
                <g id="Main-Copy" transform="translate(0.000000, 66.000000)" sketch:type="MSShapeGroup">
                    <g id="Recent-activity" transform="translate(0.000000, 203.000000)">
                        <g id="ic-white-off" transform="translate(18.000000, 0.000000)">
                            <rect id="shape" x="0" y="0" width="20" height="20"></rect>
                            <path d="M13,5.80269317 L13,3.58151705 C15.9318303,4.7682918 18,7.64262245 18,11 C18,15.418278 14.418278,19 10,19 C5.581722,19 2,15.418278 2,11 C2,7.64262245 4.06816966,4.7682918 7,3.58151705 L7,3.58151705 L7,5.80269317 C5.20659589,6.84012143 4,8.77915293 4,11 C4,14.3137085 6.6862915,17 10,17 C13.3137085,17 16,14.3137085 16,11 C16,8.77915293 14.7934041,6.84012143 13,5.80269317 Z" id="Path" fill="#FFFFFF"></path>
                            <rect id="Rectangle-311" fill="#FFFFFF" x="9" y="1" width="2" height="8"></rect>
                        </g>
                    </g>
                </g>
            </g>
        </g>
    </g>
</svg>