<?xml version="1.0" encoding="UTF-8" standalone="no"?>
<svg width="18px" height="18px" viewBox="0 0 18 18" version="1.1" xmlns="http://www.w3.org/2000/svg" xmlns:xlink="http://www.w3.org/1999/xlink" xmlns:sketch="http://www.bohemiancoding.com/sketch/ns">
    <!-- Generator: Sketch 3.3.3 (12081) - http://www.bohemiancoding.com/sketch -->
    <title>ic-question2-yellow-20</title>
    <desc>Created with Sketch.</desc>
    <defs></defs>
    <g id="4-faq-&amp;-others" stroke="none" stroke-width="1" fill="none" fill-rule="evenodd" sketch:type="MSPage">
        <g id="4-faq" sketch:type="MSArtboardGroup" transform="translate(-426.000000, -24.000000)">
            <g id="Menu" sketch:type="MSLayerGroup" transform="translate(170.000000, 0.000000)">
                <g id="Left" transform="translate(15.000000, 0.000000)" sketch:type="MSShapeGroup">
                    <g id="ic-question2-yellow-20" transform="translate(240.000000, 23.000000)">
                        <rect id="shape" x="0" y="0" width="20" height="20"></rect>
                        <path d="M10,19 C14.9705627,19 19,14.9705627 19,10 C19,5.02943725 14.9705627,1 10,1 C5.02943725,1 1,5.02943725 1,10 C1,14.9705627 5.02943725,19 10,19 Z M6.51200841,7.92308494 L8.30438129,7.92308494 C8.36539824,6.97732223 8.99844909,6.37477986 9.98234739,6.37477986 C10.9433643,6.37477986 11.5840423,6.962068 11.5840423,7.77054257 C11.5840423,8.52562732 11.2637033,8.93749172 10.3179406,9.50952562 C9.26539824,10.1273222 8.82302536,10.8137629 8.89166943,11.9425765 L8.89929654,12.4841019 L10.6687881,12.4841019 L10.6687881,12.041729 C10.6687881,11.2790171 10.9509915,10.882407 11.950144,10.302746 C12.9874321,9.68494935 13.5670932,8.86884766 13.5670932,7.7018985 C13.5670932,6.0239324 12.1713304,4.81884766 10.0814999,4.81884766 C7.8162457,4.81884766 6.57302536,6.13071206 6.51200841,7.92308494 Z M9.80692366,16.0688477 C10.4247203,16.0688477 10.9128559,15.5883392 10.9128559,14.9857968 C10.9128559,14.3832544 10.4247203,13.9103731 9.80692366,13.9103731 C9.18912705,13.9103731 8.69336434,14.3832544 8.69336434,14.9857968 C8.69336434,15.5883392 9.18912705,16.0688477 9.80692366,16.0688477 Z" id="Oval-11" fill="#F6AE46"></path>
                    </g>
                </g>
            </g>
        </g>
    </g>
</svg>