<?xml version="1.0" encoding="UTF-8" standalone="no"?>
<svg width="16px" height="16px" viewBox="0 0 16 16" version="1.1" xmlns="http://www.w3.org/2000/svg" xmlns:xlink="http://www.w3.org/1999/xlink" xmlns:sketch="http://www.bohemiancoding.com/sketch/ns">
    <!-- Generator: Sketch 3.4 (15588) - http://www.bohemiancoding.com/sketch -->
    <title>ic-orange-cancel-20</title>
    <desc>Created with Sketch.</desc>
    <defs></defs>
    <g id="2-bets" stroke="none" stroke-width="1" fill="none" fill-rule="evenodd" sketch:type="MSPage">
        <g id="2-bets-lose-full" sketch:type="MSArtboardGroup" transform="translate(-677.000000, -497.000000)">
            <g id="Bet-info" sketch:type="MSLayerGroup">
                <g id="Box" transform="translate(410.000000, 61.000000)" sketch:type="MSShapeGroup">
                    <g id="Achievments" transform="translate(25.000000, 258.000000)">
                        <g id="3" transform="translate(0.000000, 161.000000)">
                            <g id="ic-orange-cancel-20" transform="translate(240.000000, 15.000000)">
                                <rect id="shape" x="0" y="0" width="20" height="20"></rect>
                                <path d="M8.58578644,10 L5.79289322,7.20710678 L7.20710678,5.79289322 L10,8.58578644 L12.7928932,5.79289322 L14.2071068,7.20710678 L11.4142136,10 L14.2071068,12.7928932 L12.7928932,14.2071068 L10,11.4142136 L7.20710678,14.2071068 L5.79289322,12.7928932 L8.58578644,10 Z M18,10 C18,5.581722 14.418278,2 10,2 C5.581722,2 2,5.581722 2,10 C2,14.418278 5.581722,18 10,18 C14.418278,18 18,14.418278 18,10 Z" id="Oval-11" fill="#DA6E6E"></path>
                            </g>
                        </g>
                    </g>
                </g>
            </g>
        </g>
    </g>
</svg>