<?xml version="1.0" encoding="UTF-8" standalone="no"?>
<svg width="16px" height="16px" viewBox="0 0 16 16" version="1.1" xmlns="http://www.w3.org/2000/svg" xmlns:xlink="http://www.w3.org/1999/xlink" xmlns:sketch="http://www.bohemiancoding.com/sketch/ns">
    <!-- Generator: Sketch 3.3.3 (12081) - http://www.bohemiancoding.com/sketch -->
    <title>ic-orange-coins-20px</title>
    <desc>Created with Sketch.</desc>
    <defs></defs>
    <g id="4-faq-&amp;-others" stroke="none" stroke-width="1" fill="none" fill-rule="evenodd" sketch:type="MSPage">
        <g id="4-faq" sketch:type="MSArtboardGroup" transform="translate(-1026.000000, -25.000000)">
            <g id="Menu" sketch:type="MSLayerGroup" transform="translate(170.000000, 0.000000)">
                <g id="Main" transform="translate(837.000000, 0.000000)" sketch:type="MSShapeGroup">
                    <g id="ic-orange-coins-20px" transform="translate(17.000000, 23.000000)">
                        <rect id="bounds" x="0" y="0" width="20" height="20"></rect>
                        <path d="M10,18 C14.418278,18 18,14.418278 18,10 C18,5.581722 14.418278,2 10,2 C5.581722,2 2,5.581722 2,10 C2,14.418278 5.581722,18 10,18 Z M11.2431611,12.0415352 C11.2431611,11.7253752 11.1509634,11.4738004 10.9665653,11.2868034 C10.7821673,11.0998063 10.4691005,10.9272703 10.0273556,10.7691903 C9.58561076,10.6111103 9.20466219,10.4539966 8.88449848,10.2978444 C8.56433477,10.1416922 8.28976812,9.962409 8.06079027,9.75998948 C7.83181243,9.55756997 7.65349608,9.31948963 7.52583587,9.04574132 C7.39817565,8.77199302 7.3343465,8.44619887 7.3343465,8.06834911 C7.3343465,7.41675104 7.5531893,6.88275708 7.99088146,6.46635121 C8.42857362,6.04994534 9.01012809,5.80704556 9.73556231,5.73764458 L9.73556231,4.5 L10.7082067,4.5 L10.7082067,5.75499474 C11.4255355,5.85138499 11.9868267,6.13573195 12.3920973,6.60804416 C12.7973678,7.08035637 13,7.69242526 13,8.44426919 L11.2431611,8.44426919 C11.2431611,7.981596 11.1428581,7.63556021 10.9422492,7.40615142 C10.7416403,7.17674263 10.4731526,7.06203996 10.1367781,7.06203996 C9.80445629,7.06203996 9.54711337,7.15168154 9.36474164,7.3309674 C9.18236991,7.51025326 9.09118541,7.75797248 9.09118541,8.07413249 C9.09118541,8.36715884 9.18034359,8.60234752 9.35866261,8.77970557 C9.53698164,8.95706363 9.86828532,9.13827457 10.3525836,9.32334385 C10.8368819,9.50841312 11.2350542,9.68287685 11.5471125,9.84674027 C11.8591708,10.0106037 12.1225926,10.1956702 12.337386,10.4019453 C12.5521794,10.6082204 12.7163115,10.8434091 12.8297872,11.1075184 C12.943263,11.3716277 13,11.679108 13,12.0299685 C13,12.6854221 12.7852098,13.2174883 12.3556231,13.626183 C11.9260364,14.0348776 11.3343503,14.2758496 10.5805471,14.3491062 L10.5805471,15.5 L9.61398176,15.5 L9.61398176,14.3548896 C8.7831772,14.2700662 8.13981991,13.9895748 7.68389058,13.5134069 C7.22796125,13.0372391 7,12.4039647 7,11.6135647 L8.75683891,11.6135647 C8.75683891,12.0723822 8.87132611,12.4242014 9.10030395,12.6690326 C9.32928179,12.9138638 9.65855915,13.0362776 10.0881459,13.0362776 C10.444784,13.0362776 10.7264427,12.946636 10.9331307,12.7673502 C11.1398187,12.5880643 11.2431611,12.3461284 11.2431611,12.0415352 Z" id="coins" fill="#FFFFFF"></path>
                    </g>
                </g>
            </g>
        </g>
    </g>
</svg>