<?xml version="1.0" encoding="UTF-8" standalone="no"?>
<svg width="16px" height="16px" viewBox="0 0 16 16" version="1.1" xmlns="http://www.w3.org/2000/svg" xmlns:xlink="http://www.w3.org/1999/xlink" xmlns:sketch="http://www.bohemiancoding.com/sketch/ns">
    <!-- Generator: Sketch 3.3.3 (12081) - http://www.bohemiancoding.com/sketch -->
    <title>ic-orange-trophy-20</title>
    <desc>Created with Sketch.</desc>
    <defs></defs>
    <g id="4-faq-&amp;-others" stroke="none" stroke-width="1" fill="none" fill-rule="evenodd" sketch:type="MSPage">
        <g id="4-faq" sketch:type="MSArtboardGroup" transform="translate(-992.000000, -588.000000)">
            <g id="Content" sketch:type="MSLayerGroup" transform="translate(170.000000, 190.000000)">
                <g id="Right" transform="translate(800.000000, 0.000000)" sketch:type="MSShapeGroup">
                    <g id="Last-winner-Copy" transform="translate(0.000000, 376.000000)">
                        <g id="Title">
                            <g id="ic-orange-trophy-20" transform="translate(20.000000, 20.000000)">
                                <rect id="shape" x="0" y="0" width="20" height="20"></rect>
                                <path d="M5,4.56300874 C4.13738639,4.78503014 3.5,5.56808029 3.5,6.5 C3.5,7.43191971 4.13738639,8.21496986 5,8.43699126 L5,4.56300874 L5,4.56300874 Z M5,3.03544443 L5,2.50123084 C5,2.22440869 5.22765279,2 5.50964952,2 L14.4903505,2 C14.7718221,2 15,2.22975063 15,2.50123084 L15,3.03544443 L15,4.56300874 L15,8.43699126 C15.8626136,8.21496986 16.5,7.43191971 16.5,6.5 C16.5,5.56808029 15.8626136,4.78503014 15,4.56300874 L15,3.03544443 C16.6961471,3.27805926 18,4.73676405 18,6.5 C18,8.40516531 16.4777953,9.95480066 14.5832627,9.99902905 L14.5832627,9.99902905 C13.9397467,11.4699643 12.6088094,12.5720504 11,12.8996335 L11,15 L12,15 L12,16 L14,16 L14,18 L6,18 L6,16 L8,16 L8,15 L9,15 L9,12.8999516 L9,12.8999516 C7.38858449,12.5727541 6.05858018,11.4703787 5.4159374,9.99901029 C3.52177632,9.95436447 2,8.40489719 2,6.5 C2,4.73676405 3.30385293,3.27805926 5,3.03544443 L5,3.03544443 L5,3.03544443 Z" id="Rectangle-12-Copy" fill="#F6AE46"></path>
                            </g>
                        </g>
                    </g>
                </g>
            </g>
        </g>
    </g>
</svg>