<?xml version="1.0" encoding="UTF-8" standalone="no"?>
<svg width="16px" height="16px" viewBox="0 0 16 16" version="1.1" xmlns="http://www.w3.org/2000/svg" xmlns:xlink="http://www.w3.org/1999/xlink" xmlns:sketch="http://www.bohemiancoding.com/sketch/ns">
    <!-- Generator: Sketch 3.3.3 (12081) - http://www.bohemiancoding.com/sketch -->
    <title>Shape Copy 3</title>
    <desc>Created with Sketch.</desc>
    <defs></defs>
    <g id="5-settings" stroke="none" stroke-width="1" fill="none" fill-rule="evenodd" sketch:type="MSPage">
        <g sketch:type="MSArtboardGroup" transform="translate(-816.000000, -372.000000)" id="Content" fill="#F6AE46">
            <g sketch:type="MSLayerGroup" transform="translate(170.000000, 190.000000)">
                <g id="Service-client-settings" transform="translate(30.000000, 109.000000)" sketch:type="MSShapeGroup">
                    <g id="1" transform="translate(0.000000, 56.000000)">
                        <g id="Profile" transform="translate(601.000000, 5.000000)">
                            <g id="ic-orange-windows-20" transform="translate(13.000000, 10.000000)">
                                <path d="M6.74878125,15.0626562 C7.17290625,15.0626562 7.5891875,14.8574375 7.84209375,14.4780312 C8.2441875,13.874875 8.0811875,13.06 7.4780625,12.6579062 L6.44565625,11.9697187 C6.62234375,11.9215937 6.8080625,11.8953437 7,11.8953437 C8.162375,11.8953437 9.104625,12.8375937 9.104625,14.0000625 C9.104625,15.1625312 8.16234375,16.1047187 6.99996875,16.1047187 C5.86865625,16.1047187 4.94615625,15.2120937 4.89765625,14.092625 L6.0219375,14.842125 C6.24571875,14.9912812 6.49859375,15.0626562 6.74878125,15.0626562 L6.74878125,15.0626562 Z M16.9953741,2 C17.5502137,2 18,2.44987792 18,3.00485129 L18,4.667 L18,15.3330625 L18,16.9984394 C18,17.5515861 17.5557268,18 17.0056794,18 L15.3334375,18 L4.667,18 C3.95047131,18 2.99759673,17.9999996 2.99759673,17.9999996 C2.44663927,17.9999994 2,17.5535033 2,17.001492 C2,17.001492 2,16.0838251 2,15.3330938 L2,12.1607813 L3.89584375,13.4246563 C3.71378125,14.41175 4.00425,15.468875 4.7676875,16.2323125 C6.0005625,17.4651875 7.99940625,17.4651875 9.2323125,16.2323125 C9.989625,15.4750938 10.2815313,14.4287188 10.1085312,13.4485 L14,9.9643125 C14.7225937,9.8605625 15.419,9.53078125 15.9749063,8.974875 C17.3416562,7.6080625 17.3416562,5.39196875 15.9749063,4.025125 C14.6080312,2.65828125 12.3919688,2.65828125 11.025125,4.025125 C10.4692187,4.58103125 10.139375,5.27740625 10.0356875,6 L6.837375,10.8473438 C6.33975,10.8728438 5.84709375,11.0155313 5.40415625,11.2753125 L2,9.00590625 L2,4.667 L2,2.99177469 C2,2.44403265 2.44930275,2 3.00312201,2 C3.00312201,2 4.04143393,2 4.66696875,2 L15.3334375,2 L16.9953741,2 Z M16,6.5 C16,5.11928125 14.88075,4 13.5,4 C12.11925,4 11,5.11928125 11,6.5 C11,7.88071875 12.11925,9 13.5,9 C14.88075,9 16,7.88071875 16,6.5 L16,6.5 Z M12,6.5 C12,5.6715625 12.6715625,5 13.5,5 C14.3284375,5 15,5.6715625 15,6.5 C15,7.3284375 14.3284375,8 13.5,8 C12.6715625,8 12,7.3284375 12,6.5 L12,6.5 Z" id="Shape-Copy-3"></path>
                            </g>
                        </g>
                    </g>
                </g>
            </g>
        </g>
    </g>
</svg>