<?xml version="1.0" encoding="UTF-8" standalone="no"?>
<svg width="117px" height="50px" viewBox="0 0 117 50" version="1.1" xmlns="http://www.w3.org/2000/svg" xmlns:xlink="http://www.w3.org/1999/xlink" xmlns:sketch="http://www.bohemiancoding.com/sketch/ns">
    <!-- Generator: Sketch 3.3.3 (12072) - http://www.bohemiancoding.com/sketch -->
    <title>Sign in through Steam Copy 3</title>
    <desc>Created with Sketch.</desc>
    <defs>
        <linearGradient x1="50%" y1="0%" x2="50%" y2="100%" id="linearGradient-1">
            <stop stop-color="#799913" offset="0%"></stop>
            <stop stop-color="#536A0A" offset="100%"></stop>
        </linearGradient>
        <linearGradient x1="50%" y1="0%" x2="50%" y2="100%" id="linearGradient-2">
            <stop stop-color="#A5C31F" offset="0%"></stop>
            <stop stop-color="#7A9510" offset="100%"></stop>
        </linearGradient>
        <filter x="-50%" y="-50%" width="200%" height="200%" filterUnits="objectBoundingBox" id="filter-3">
            <feOffset dx="0" dy="-2" in="SourceAlpha" result="shadowOffsetInner1"></feOffset>
            <feGaussianBlur stdDeviation="0" in="shadowOffsetInner1" result="shadowBlurInner1"></feGaussianBlur>
            <feComposite in="shadowBlurInner1" in2="SourceAlpha" operator="arithmetic" k2="-1" k3="1" result="shadowInnerInner1"></feComposite>
            <feColorMatrix values="0 0 0 0 0   0 0 0 0 0   0 0 0 0 0  0 0 0 0.175 0" in="shadowInnerInner1" type="matrix" result="shadowMatrixInner1"></feColorMatrix>
            <feMerge>
                <feMergeNode in="SourceGraphic"></feMergeNode>
                <feMergeNode in="shadowMatrixInner1"></feMergeNode>
            </feMerge>
        </filter>
        <rect id="path-4" x="7" y="0" width="110" height="50" rx="2"></rect>
    </defs>
    <g id="1-landing" stroke="none" stroke-width="1" fill="none" fill-rule="evenodd" sketch:type="MSPage">
        <g sketch:type="MSArtboardGroup" transform="translate(-1385.000000, -78.000000)" id="Menu">
            <g sketch:type="MSLayerGroup" transform="translate(410.000000, 0.000000)">
                <g id="Sign-in-through-Steam-Copy-3" transform="translate(975.000000, 78.000000)">
                    <g id="BG" filter="url(#filter-3)">
                        <use fill="url(#linearGradient-1)" sketch:type="MSShapeGroup" xlink:href="#path-4"></use>
                        <use fill="url(#linearGradient-2)" xlink:href="#path-4"></use>
                    </g>
                    <path d="M39.6965724,25.4786847 C40.6651166,24.7227053 41.8377161,24.2160073 43.117918,24.0550438 C45.152951,21.4402285 47.985308,17.800931 50.004446,15.2065391 L50.0044463,15.2065387 C50.1595215,10.0956104 54.3514702,6 59.5,6 C64.7467051,6 69,10.2532949 69,15.5 C69,20.6485298 64.9043896,24.8404785 59.7934613,24.9955537 C57.2416997,26.9815138 53.6607866,29.7684319 50.9449562,31.882082 L50.9449562,31.882082 C50.5112287,35.3316753 47.5672247,38 44,38 C40.4616259,38 37.5364324,35.3746619 37.066059,31.9656253 L11.3034276,21.5213153 C10.116302,22.4479044 8.62262541,23 7,23 C3.13400675,23 0,19.8659932 0,16 C0,12.1340068 3.13400675,9 7,9 C10.5383741,9 13.4635676,11.6253381 13.933941,15.0343747 L39.6965724,25.4786847 Z M42.0042019,26.4142101 C42.6155556,26.1477695 43.2905211,26 44,26 C46.7614237,26 49,28.2385763 49,31 C49,33.7614237 46.7614237,36 44,36 C41.9117157,36 40.1224431,34.7197788 39.3742068,32.901361 L42.6850321,34.2435874 C44.476416,34.9698241 46.5173507,34.1063518 47.2435874,32.3149679 C47.9698241,30.523584 47.1063518,28.4826493 45.3149679,27.7564126 L42.0042019,26.4142101 Z M8.99579814,20.5857899 C8.38444438,20.8522305 7.7094789,21 7,21 C4.23857625,21 2,18.7614237 2,16 C2,13.2385763 4.23857625,11 7,11 C9.08828428,11 10.8775569,12.2802212 11.6257932,14.098639 L8.31496788,12.7564126 C6.523584,12.0301759 4.48264927,12.8936482 3.75641256,14.6850321 C3.03017585,16.476416 3.89364824,18.5173507 5.68503212,19.2435874 L8.99579814,20.5857899 Z M59.5,22 C63.0898509,22 66,19.0898509 66,15.5 C66,11.9101491 63.0898509,9 59.5,9 C55.9101491,9 53,11.9101491 53,15.5 C53,19.0898509 55.9101491,22 59.5,22 Z M59.5,20.5 C62.2614237,20.5 64.5,18.2614237 64.5,15.5 C64.5,12.7385763 62.2614237,10.5 59.5,10.5 C56.7385763,10.5 54.5,12.7385763 54.5,15.5 C54.5,18.2614237 56.7385763,20.5 59.5,20.5 Z" id="steam" fill="#FFFFFF" sketch:type="MSShapeGroup"></path>
                    <path d="M78.09,13.62 C78.09,13.8933347 78.1366662,14.1266657 78.23,14.32 C78.3233338,14.5133343 78.4533325,14.671666 78.62,14.795 C78.7866675,14.9183339 78.9783322,15.0083331 79.195,15.065 C79.4116677,15.1216669 79.6466654,15.15 79.9,15.15 C80.1733347,15.15 80.4066657,15.1183336 80.6,15.055 C80.7933343,14.9916663 80.9499994,14.9100005 81.07,14.81 C81.1900006,14.7099995 81.2766664,14.5950006 81.33,14.465 C81.3833336,14.3349993 81.41,14.203334 81.41,14.07 C81.41,13.7966653 81.3483339,13.5950006 81.225,13.465 C81.101666,13.3349993 80.9666674,13.2433336 80.82,13.19 C80.5666654,13.0966662 80.2716683,13.0083338 79.935,12.925 C79.5983316,12.8416663 79.1833358,12.733334 78.69,12.6 C78.3833318,12.5199996 78.1283343,12.4150007 77.925,12.285 C77.7216656,12.1549994 77.5600006,12.0100008 77.44,11.85 C77.3199994,11.6899992 77.2350002,11.5200009 77.185,11.34 C77.1349997,11.1599991 77.11,10.9766676 77.11,10.79 C77.11,10.4299982 77.1849992,10.1183347 77.335,9.855 C77.4850007,9.59166535 77.6833321,9.3733342 77.93,9.2 C78.1766679,9.0266658 78.4566651,8.89833375 78.77,8.815 C79.0833349,8.73166625 79.3999984,8.69 79.72,8.69 C80.0933352,8.69 80.4449983,8.73833285 80.775,8.835 C81.1050016,8.93166715 81.3949987,9.0766657 81.645,9.27 C81.8950012,9.4633343 82.0933326,9.70166525 82.24,9.985 C82.3866674,10.2683347 82.46,10.5966648 82.46,10.97 L81.21,10.97 C81.1766665,10.5099977 81.0200014,10.185001 80.74,9.995 C80.4599986,9.80499905 80.1033355,9.71 79.67,9.71 C79.5233326,9.71 79.3733341,9.72499985 79.22,9.755 C79.0666659,9.78500015 78.9266673,9.83499965 78.8,9.905 C78.6733327,9.97500035 78.5683337,10.0699994 78.485,10.19 C78.4016662,10.3100006 78.36,10.4599991 78.36,10.64 C78.36,10.8933346 78.4383325,11.0916659 78.595,11.235 C78.7516674,11.3783341 78.9566654,11.4866663 79.21,11.56 C79.2366668,11.5666667 79.3416657,11.5949998 79.525,11.645 C79.7083342,11.6950002 79.9133322,11.7499997 80.14,11.81 C80.3666678,11.8700003 80.5883322,11.9283331 80.805,11.985 C81.0216677,12.041667 81.1766662,12.0833332 81.27,12.11 C81.5033345,12.1833337 81.7066658,12.2833327 81.88,12.41 C82.0533342,12.5366673 82.1983327,12.6816659 82.315,12.845 C82.4316672,13.0083342 82.518333,13.1833324 82.575,13.37 C82.6316669,13.5566676 82.66,13.7433324 82.66,13.93 C82.66,14.330002 82.5783341,14.6716652 82.415,14.955 C82.2516658,15.2383347 82.036668,15.4699991 81.77,15.65 C81.503332,15.8300009 81.2000017,15.9616663 80.86,16.045 C80.5199983,16.1283337 80.1733351,16.17 79.82,16.17 C79.4133313,16.17 79.0300018,16.1200005 78.67,16.02 C78.3099982,15.9199995 77.996668,15.7666677 77.73,15.56 C77.463332,15.3533323 77.2500008,15.0883349 77.09,14.765 C76.9299992,14.441665 76.8466667,14.0600022 76.84,13.62 L78.09,13.62 Z M83.62,8.86 L84.76,8.86 L84.76,9.94 L83.62,9.94 L83.62,8.86 Z M83.62,10.83 L84.76,10.83 L84.76,16 L83.62,16 L83.62,10.83 Z M90.78,15.73 C90.78,16.5100039 90.5616688,17.0916647 90.125,17.475 C89.6883311,17.8583352 89.0600041,18.05 88.24,18.05 C87.9799987,18.05 87.7183346,18.0233336 87.455,17.97 C87.1916653,17.9166664 86.9516677,17.8266673 86.735,17.7 C86.5183322,17.5733327 86.3366674,17.4066677 86.19,17.2 C86.0433326,16.9933323 85.9566668,16.7400015 85.93,16.44 L87.07,16.44 C87.1033335,16.6000008 87.1599996,16.7299995 87.24,16.83 C87.3200004,16.9300005 87.4149994,17.0083331 87.525,17.065 C87.6350005,17.1216669 87.756666,17.1583333 87.89,17.175 C88.023334,17.1916667 88.1633326,17.2 88.31,17.2 C88.7700023,17.2 89.1066656,17.0866678 89.32,16.86 C89.5333344,16.6333322 89.64,16.3066688 89.64,15.88 L89.64,15.09 L89.62,15.09 C89.4599992,15.3766681 89.241668,15.5999992 88.965,15.76 C88.6883319,15.9200008 88.3900016,16 88.07,16 C87.6566646,16 87.3050014,15.928334 87.015,15.785 C86.7249985,15.641666 86.4850009,15.4450013 86.295,15.195 C86.104999,14.9449988 85.9666671,14.6566683 85.88,14.33 C85.7933329,14.0033317 85.75,13.6533352 85.75,13.28 C85.75,12.9333316 85.8033328,12.6033349 85.91,12.29 C86.0166672,11.9766651 86.169999,11.7016679 86.37,11.465 C86.570001,11.2283321 86.8149985,11.0400007 87.105,10.9 C87.3950014,10.7599993 87.7233315,10.69 88.09,10.69 C88.4166683,10.69 88.7166653,10.7583326 88.99,10.895 C89.2633347,11.0316674 89.4733326,11.2466652 89.62,11.54 L89.64,11.54 L89.64,10.83 L90.78,10.83 L90.78,15.73 Z M88.25,15.1 C88.5033346,15.1 88.7183324,15.0483338 88.895,14.945 C89.0716675,14.8416661 89.2149994,14.7050009 89.325,14.535 C89.4350005,14.3649991 89.5149997,14.1716677 89.565,13.955 C89.6150002,13.7383322 89.64,13.5200011 89.64,13.3 C89.64,13.0799989 89.6133336,12.8666677 89.56,12.66 C89.5066664,12.4533323 89.4250005,12.2700008 89.315,12.11 C89.2049994,11.9499992 89.0616675,11.8233338 88.885,11.73 C88.7083324,11.6366662 88.4966679,11.59 88.25,11.59 C87.9966654,11.59 87.7833342,11.6433328 87.61,11.75 C87.4366658,11.8566672 87.2966672,11.9949991 87.19,12.165 C87.0833328,12.3350009 87.0066669,12.5283322 86.96,12.745 C86.9133331,12.9616677 86.89,13.1766656 86.89,13.39 C86.89,13.6033344 86.9166664,13.8116656 86.97,14.015 C87.0233336,14.2183344 87.1049994,14.3999992 87.215,14.56 C87.3250005,14.7200008 87.4649991,14.8499995 87.635,14.95 C87.8050008,15.0500005 88.0099988,15.1 88.25,15.1 L88.25,15.1 Z M91.93,10.83 L93.01,10.83 L93.01,11.59 L93.03,11.61 C93.2033342,11.3233319 93.4299986,11.0983341 93.71,10.935 C93.9900014,10.7716659 94.2999983,10.69 94.64,10.69 C95.2066695,10.69 95.6533317,10.8366652 95.98,11.13 C96.3066683,11.4233348 96.47,11.8633304 96.47,12.45 L96.47,16 L95.33,16 L95.33,12.75 C95.3166666,12.3433313 95.2300008,12.0483343 95.07,11.865 C94.9099992,11.6816658 94.6600017,11.59 94.32,11.59 C94.1266657,11.59 93.9533341,11.6249997 93.8,11.695 C93.6466659,11.7650004 93.5166672,11.8616661 93.41,11.985 C93.3033328,12.108334 93.2200003,12.2533325 93.16,12.42 C93.0999997,12.5866675 93.07,12.7633324 93.07,12.95 L93.07,16 L91.93,16 L91.93,10.83 Z M100.48,8.86 L101.62,8.86 L101.62,9.94 L100.48,9.94 L100.48,8.86 Z M100.48,10.83 L101.62,10.83 L101.62,16 L100.48,16 L100.48,10.83 Z M102.86,10.83 L103.94,10.83 L103.94,11.59 L103.96,11.61 C104.133334,11.3233319 104.359999,11.0983341 104.64,10.935 C104.920001,10.7716659 105.229998,10.69 105.57,10.69 C106.136669,10.69 106.583332,10.8366652 106.91,11.13 C107.236668,11.4233348 107.4,11.8633304 107.4,12.45 L107.4,16 L106.26,16 L106.26,12.75 C106.246667,12.3433313 106.160001,12.0483343 106,11.865 C105.839999,11.6816658 105.590002,11.59 105.25,11.59 C105.056666,11.59 104.883334,11.6249997 104.73,11.695 C104.576666,11.7650004 104.446667,11.8616661 104.34,11.985 C104.233333,12.108334 104.15,12.2533325 104.09,12.42 C104.03,12.5866675 104,12.7633324 104,12.95 L104,16 L102.86,16 L102.86,10.83 Z" id="Sign-in" fill="#FFFFFF" sketch:type="MSShapeGroup"></path>
                    <path d="M72.33,21.83 L73.19,21.83 L73.19,20.28 L74.33,20.28 L74.33,21.83 L75.36,21.83 L75.36,22.68 L74.33,22.68 L74.33,25.44 C74.33,25.5600006 74.335,25.6633329 74.345,25.75 C74.3550001,25.8366671 74.3783332,25.9099997 74.415,25.97 C74.4516669,26.0300003 74.5066663,26.0749998 74.58,26.105 C74.6533337,26.1350002 74.7533327,26.15 74.88,26.15 C74.9600004,26.15 75.0399996,26.1483334 75.12,26.145 C75.2000004,26.1416666 75.2799996,26.1300001 75.36,26.11 L75.36,26.99 C75.2333327,27.0033334 75.1100006,27.0166666 74.99,27.03 C74.8699994,27.0433334 74.7466673,27.05 74.62,27.05 C74.3199985,27.05 74.0783343,27.0216669 73.895,26.965 C73.7116658,26.908333 73.5683339,26.8250006 73.465,26.715 C73.3616662,26.6049994 73.2916669,26.4666675 73.255,26.3 C73.2183332,26.1333325 73.1966667,25.9433344 73.19,25.73 L73.19,22.68 L72.33,22.68 L72.33,21.83 Z M76.18,19.86 L77.32,19.86 L77.32,22.51 L77.34,22.51 C77.4800007,22.2766655 77.688332,22.0816675 77.965,21.925 C78.2416681,21.7683326 78.5499983,21.69 78.89,21.69 C79.4566695,21.69 79.9033317,21.8366652 80.23,22.13 C80.5566683,22.4233348 80.72,22.8633304 80.72,23.45 L80.72,27 L79.58,27 L79.58,23.75 C79.5666666,23.3433313 79.4800008,23.0483343 79.32,22.865 C79.1599992,22.6816658 78.9100017,22.59 78.57,22.59 C78.3766657,22.59 78.2033341,22.6249997 78.05,22.695 C77.8966659,22.7650004 77.7666672,22.8616661 77.66,22.985 C77.5533328,23.108334 77.4700003,23.2533325 77.41,23.42 C77.3499997,23.5866675 77.32,23.7633324 77.32,23.95 L77.32,27 L76.18,27 L76.18,19.86 Z M81.92,21.83 L82.99,21.83 L82.99,22.83 L83.01,22.83 C83.0433335,22.6899993 83.1083329,22.553334 83.205,22.42 C83.3016672,22.286666 83.4183327,22.1650005 83.555,22.055 C83.6916674,21.9449995 83.8433325,21.856667 84.01,21.79 C84.1766675,21.723333 84.3466658,21.69 84.52,21.69 C84.653334,21.69 84.7449998,21.6933333 84.795,21.7 C84.8450003,21.7066667 84.8966664,21.7133333 84.95,21.72 L84.95,22.82 C84.8699996,22.8066666 84.7883338,22.7950001 84.705,22.785 C84.6216663,22.775 84.5400004,22.77 84.46,22.77 C84.2666657,22.77 84.0850009,22.8083329 83.915,22.885 C83.7449992,22.961667 83.5966673,23.0749992 83.47,23.225 C83.3433327,23.3750008 83.2433337,23.5599989 83.17,23.78 C83.0966663,24.0000011 83.06,24.2533319 83.06,24.54 L83.06,27 L81.92,27 L81.92,21.83 Z M87.63,27.14 C87.2166646,27.14 86.848335,27.0716674 86.525,26.935 C86.2016651,26.7983326 85.9283345,26.6100012 85.705,26.37 C85.4816656,26.1299988 85.3116673,25.843335 85.195,25.51 C85.0783328,25.176665 85.02,24.810002 85.02,24.41 C85.02,24.0166647 85.0783328,23.653335 85.195,23.32 C85.3116673,22.986665 85.4816656,22.7000012 85.705,22.46 C85.9283345,22.2199988 86.2016651,22.0316674 86.525,21.895 C86.848335,21.7583326 87.2166646,21.69 87.63,21.69 C88.0433354,21.69 88.4116651,21.7583326 88.735,21.895 C89.058335,22.0316674 89.3316656,22.2199988 89.555,22.46 C89.7783345,22.7000012 89.9483328,22.986665 90.065,23.32 C90.1816673,23.653335 90.24,24.0166647 90.24,24.41 C90.24,24.810002 90.1816673,25.176665 90.065,25.51 C89.9483328,25.843335 89.7783345,26.1299988 89.555,26.37 C89.3316656,26.6100012 89.058335,26.7983326 88.735,26.935 C88.4116651,27.0716674 88.0433354,27.14 87.63,27.14 L87.63,27.14 Z M87.63,26.24 C87.8833346,26.24 88.1033324,26.1866672 88.29,26.08 C88.4766676,25.9733328 88.6299994,25.8333342 88.75,25.66 C88.8700006,25.4866658 88.9583331,25.2916677 89.015,25.075 C89.071667,24.8583322 89.1,24.6366678 89.1,24.41 C89.1,24.1899989 89.071667,23.9700011 89.015,23.75 C88.9583331,23.5299989 88.8700006,23.3350009 88.75,23.165 C88.6299994,22.9949991 88.4766676,22.8566672 88.29,22.75 C88.1033324,22.6433328 87.8833346,22.59 87.63,22.59 C87.3766654,22.59 87.1566676,22.6433328 86.97,22.75 C86.7833324,22.8566672 86.6300006,22.9949991 86.51,23.165 C86.3899994,23.3350009 86.301667,23.5299989 86.245,23.75 C86.1883331,23.9700011 86.16,24.1899989 86.16,24.41 C86.16,24.6366678 86.1883331,24.8583322 86.245,25.075 C86.301667,25.2916677 86.3899994,25.4866658 86.51,25.66 C86.6300006,25.8333342 86.7833324,25.9733328 86.97,26.08 C87.1566676,26.1866672 87.3766654,26.24 87.63,26.24 L87.63,26.24 Z M95.73,27 L94.61,27 L94.61,26.28 L94.59,26.28 C94.4499993,26.5400013 94.2416681,26.7483325 93.965,26.905 C93.688332,27.0616674 93.4066681,27.14 93.12,27.14 C92.4399966,27.14 91.9483349,26.9716684 91.645,26.635 C91.3416652,26.2983317 91.19,25.7900034 91.19,25.11 L91.19,21.83 L92.33,21.83 L92.33,25 C92.33,25.4533356 92.4166658,25.7733324 92.59,25.96 C92.7633342,26.1466676 93.0066651,26.24 93.32,26.24 C93.5600012,26.24 93.7599992,26.2033337 93.92,26.13 C94.0800008,26.0566663 94.2099995,25.958334 94.31,25.835 C94.4100005,25.711666 94.4816665,25.5633342 94.525,25.39 C94.5683336,25.2166658 94.59,25.030001 94.59,24.83 L94.59,21.83 L95.73,21.83 L95.73,27 Z M101.71,26.73 C101.71,27.5100039 101.491669,28.0916647 101.055,28.475 C100.618331,28.8583352 99.9900041,29.05 99.17,29.05 C98.9099987,29.05 98.6483347,29.0233336 98.385,28.97 C98.1216654,28.9166664 97.8816678,28.8266673 97.665,28.7 C97.4483323,28.5733327 97.2666674,28.4066677 97.12,28.2 C96.9733326,27.9933323 96.8866668,27.7400015 96.86,27.44 L98,27.44 C98.0333335,27.6000008 98.0899996,27.7299995 98.17,27.83 C98.2500004,27.9300005 98.3449995,28.0083331 98.455,28.065 C98.5650006,28.1216669 98.686666,28.1583333 98.82,28.175 C98.953334,28.1916667 99.0933326,28.2 99.24,28.2 C99.7000023,28.2 100.036666,28.0866678 100.25,27.86 C100.463334,27.6333322 100.57,27.3066688 100.57,26.88 L100.57,26.09 L100.55,26.09 C100.389999,26.3766681 100.171668,26.5999992 99.895,26.76 C99.618332,26.9200008 99.3200016,27 99,27 C98.5866646,27 98.2350015,26.928334 97.945,26.785 C97.6549986,26.641666 97.415001,26.4450013 97.225,26.195 C97.0349991,25.9449988 96.8966671,25.6566683 96.81,25.33 C96.7233329,25.0033317 96.68,24.6533352 96.68,24.28 C96.68,23.9333316 96.7333328,23.6033349 96.84,23.29 C96.9466672,22.9766651 97.099999,22.7016679 97.3,22.465 C97.500001,22.2283321 97.7449986,22.0400007 98.035,21.9 C98.3250015,21.7599993 98.6533315,21.69 99.02,21.69 C99.3466683,21.69 99.6466653,21.7583326 99.92,21.895 C100.193335,22.0316674 100.403333,22.2466652 100.55,22.54 L100.57,22.54 L100.57,21.83 L101.71,21.83 L101.71,26.73 Z M99.18,26.1 C99.4333346,26.1 99.6483325,26.0483338 99.825,25.945 C100.001668,25.8416661 100.144999,25.7050009 100.255,25.535 C100.365001,25.3649991 100.445,25.1716677 100.495,24.955 C100.545,24.7383322 100.57,24.5200011 100.57,24.3 C100.57,24.0799989 100.543334,23.8666677 100.49,23.66 C100.436666,23.4533323 100.355001,23.2700008 100.245,23.11 C100.134999,22.9499992 99.9916676,22.8233338 99.815,22.73 C99.6383325,22.6366662 99.4266679,22.59 99.18,22.59 C98.9266654,22.59 98.7133342,22.6433328 98.54,22.75 C98.3666658,22.8566672 98.2266672,22.9949991 98.12,23.165 C98.0133328,23.3350009 97.9366669,23.5283322 97.89,23.745 C97.8433331,23.9616677 97.82,24.1766656 97.82,24.39 C97.82,24.6033344 97.8466664,24.8116656 97.9,25.015 C97.9533336,25.2183344 98.0349995,25.3999992 98.145,25.56 C98.2550006,25.7200008 98.3949992,25.8499995 98.565,25.95 C98.7350009,26.0500005 98.9399988,26.1 99.18,26.1 L99.18,26.1 Z M102.86,19.86 L104,19.86 L104,22.51 L104.02,22.51 C104.160001,22.2766655 104.368332,22.0816675 104.645,21.925 C104.921668,21.7683326 105.229998,21.69 105.57,21.69 C106.13667,21.69 106.583332,21.8366652 106.91,22.13 C107.236668,22.4233348 107.4,22.8633304 107.4,23.45 L107.4,27 L106.26,27 L106.26,23.75 C106.246667,23.3433313 106.160001,23.0483343 106,22.865 C105.839999,22.6816658 105.590002,22.59 105.25,22.59 C105.056666,22.59 104.883334,22.6249997 104.73,22.695 C104.576666,22.7650004 104.446667,22.8616661 104.34,22.985 C104.233333,23.108334 104.15,23.2533325 104.09,23.42 C104.03,23.5866675 104,23.7633324 104,23.95 L104,27 L102.86,27 L102.86,19.86 Z" id="through" fill="#FFFFFF" sketch:type="MSShapeGroup"></path>
                    <path d="M59.706,39.556 C59.706,39.2786653 59.6041677,39.0533342 59.4005,38.88 C59.1968323,38.7066658 58.9411682,38.5485007 58.6335,38.4055 C58.3258318,38.2624993 57.9921685,38.1151674 57.6325,37.9635 C57.2728315,37.8118326 56.9391682,37.6255011 56.6315,37.4045 C56.3238318,37.1834989 56.0681677,36.908335 55.8645,36.579 C55.6608323,36.249665 55.559,35.8293359 55.559,35.318 C55.559,34.8759978 55.6326659,34.4925016 55.78,34.1675 C55.9273341,33.8424984 56.1374986,33.5716678 56.4105,33.355 C56.6835014,33.1383322 57.0063315,32.9780005 57.379,32.874 C57.7516685,32.7699995 58.1676644,32.718 58.627,32.718 C59.1556693,32.718 59.6539977,32.7634995 60.122,32.8545 C60.5900023,32.9455005 60.9756652,33.0776658 61.279,33.251 L60.72,34.746 C60.5293324,34.6246661 60.2433352,34.5141672 59.862,34.4145 C59.4806648,34.3148328 59.0690022,34.265 58.627,34.265 C58.2109979,34.265 57.8925011,34.3473325 57.6715,34.512 C57.4504989,34.6766675 57.34,34.8976653 57.34,35.175 C57.34,35.4350013 57.4418323,35.6516658 57.6455,35.825 C57.8491677,35.9983342 58.1048318,36.1586659 58.4125,36.306 C58.7201682,36.4533341 59.0538315,36.6049992 59.4135,36.761 C59.7731685,36.9170008 60.1068318,37.1054989 60.4145,37.3265 C60.7221682,37.5475011 60.9778323,37.8204984 61.1815,38.1455 C61.3851677,38.4705016 61.487,38.8756642 61.487,39.361 C61.487,39.8463358 61.4068341,40.2644982 61.2465,40.6155 C61.0861659,40.9665018 60.8608348,41.2589988 60.5705,41.493 C60.2801652,41.7270012 59.9291687,41.9003328 59.5175,42.013 C59.1058313,42.1256672 58.6530025,42.182 58.159,42.182 C57.5089968,42.182 56.9370025,42.1213339 56.443,42 C55.9489975,41.8786661 55.5850012,41.7573339 55.351,41.636 L55.923,40.115 C56.0183338,40.1670003 56.1418326,40.223333 56.2935,40.284 C56.4451674,40.344667 56.6163324,40.4009997 56.807,40.453 C56.9976676,40.5050003 57.1991656,40.5483332 57.4115,40.583 C57.6238344,40.6176668 57.8426655,40.635 58.068,40.635 C58.5966693,40.635 59.0018319,40.5461676 59.2835,40.3685 C59.5651681,40.1908324 59.706,39.9200018 59.706,39.556 L59.706,39.556 Z M72.131,34.486 L69.479,34.486 L69.479,42 L67.698,42 L67.698,34.486 L65.033,34.486 L65.033,32.9 L72.131,32.9 L72.131,34.486 Z M76.054,32.9 L81.449,32.9 L81.449,34.486 L77.835,34.486 L77.835,36.605 L81.124,36.605 L81.124,38.191 L77.835,38.191 L77.835,40.414 L81.514,40.414 L81.514,42 L76.054,42 L76.054,32.9 Z M90.325,39.985 L87.53,39.985 L86.841,42 L85.06,42 L88.336,32.835 L89.649,32.835 L92.925,42 L91.053,42 L90.325,39.985 Z M87.985,38.555 L89.935,38.555 L89.259,36.527 L88.986,35.097 L88.921,35.097 L88.648,36.54 L87.985,38.555 Z M103.764,37.281 L103.959,35.474 L103.881,35.474 L103.322,36.93 L101.385,40.323 L100.813,40.323 L98.772,36.917 L98.2,35.474 L98.135,35.474 L98.395,37.268 L98.395,42 L96.705,42 L96.705,32.9 L98.33,32.9 L100.761,37.06 L101.19,38.1 L101.242,38.1 L101.632,37.034 L103.933,32.9 L105.545,32.9 L105.545,42 L103.764,42 L103.764,37.281 Z" id="STEAM" fill="#FFFFFF" sketch:type="MSShapeGroup"></path>
                    <path d="M107.681,33.254 L107.681,35 L108.152,35 L108.152,33.254 L108.794,33.254 L108.794,32.858 L107.039,32.858 L107.039,33.254 L107.681,33.254 Z M109.04,32.858 L109.04,35 L109.481,35 L109.481,33.497 L109.487,33.497 L110.012,35 L110.375,35 L110.9,33.482 L110.906,33.482 L110.906,35 L111.347,35 L111.347,32.858 L110.684,32.858 L110.21,34.331 L110.204,34.331 L109.703,32.858 L109.04,32.858 Z" id="TM" fill="#FFFFFF" sketch:type="MSShapeGroup"></path>
                </g>
            </g>
        </g>
    </g>
</svg>