<?xml version="1.0" encoding="UTF-8" standalone="no"?>
<svg width="16px" height="12px" viewBox="0 0 16 12" version="1.1" xmlns="http://www.w3.org/2000/svg" xmlns:xlink="http://www.w3.org/1999/xlink" xmlns:sketch="http://www.bohemiancoding.com/sketch/ns">
    <!-- Generator: Sketch 3.3.3 (12081) - http://www.bohemiancoding.com/sketch -->
    <title>Fill 1</title>
    <desc>Created with Sketch.</desc>
    <defs></defs>
    <g id="4-faq-&amp;-others" stroke="none" stroke-width="1" fill="none" fill-rule="evenodd" sketch:type="MSPage">
        <g id="4-faq" sketch:type="MSArtboardGroup" transform="translate(-1187.000000, -1299.000000)" fill="#FFFFFF">
            <g id="Content" sketch:type="MSLayerGroup" transform="translate(170.000000, 190.000000)">
                <g id="Right" transform="translate(800.000000, 0.000000)" sketch:type="MSShapeGroup">
                    <g id="Follow" transform="translate(20.000000, 1079.000000)">
                        <g id="tw" transform="translate(190.000000, 21.000000)">
                            <path d="M22.4666058,10.5856577 C21.9159307,10.8190433 21.3241423,10.9767788 20.7030109,11.0477205 C21.3370073,10.6845366 21.8238504,10.1094694 22.0531204,9.42427504 C21.459854,9.7605157 20.8027007,10.0047309 20.1032847,10.1363602 C19.5431387,9.56605381 18.7451277,9.20967115 17.8619891,9.20967115 C16.1661679,9.20967115 14.7913139,10.5235052 14.7913139,12.1440209 C14.7913139,12.374006 14.8185219,12.5979746 14.8708577,12.8127354 C12.3188869,12.6903662 10.0563504,11.52213 8.54189781,9.74680867 C8.27759124,10.1802018 8.12616788,10.684275 8.12616788,11.2220404 C8.12616788,12.2400747 8.66830292,13.1382511 9.49220803,13.6644544 C8.98883212,13.6492302 8.51540146,13.5172347 8.10136861,13.2974514 C8.10114964,13.3096936 8.10114964,13.321988 8.10114964,13.3343348 C8.10114964,14.7560987 9.15958029,15.9421226 10.5642701,16.2116592 C10.3065876,16.2787294 10.0353285,16.3145665 9.75525547,16.3145665 C9.55740876,16.3145665 9.3650365,16.2962033 9.17759124,16.2619357 C9.56830292,17.4277653 10.702281,18.276136 12.0459307,18.2998356 C10.9950547,19.0868386 9.67105839,19.5559641 8.23248175,19.5559641 C7.98465328,19.5559641 7.74021898,19.5421001 7.5,19.515 C8.85886861,20.347571 10.4729015,20.8333333 12.2069343,20.8333333 C17.8548175,20.8333333 20.9432847,16.3619656 20.9432847,12.48429 C20.9432847,12.3570553 20.9403285,12.2305007 20.9344161,12.1046786 C21.5343066,11.6909567 22.054927,11.1741181 22.4666058,10.5856577" id="Fill-1"></path>
                        </g>
                    </g>
                </g>
            </g>
        </g>
    </g>
</svg>