<?xml version="1.0" encoding="utf-8"?>
<!-- Generator: Adobe Illustrator 17.0.2, SVG Export Plug-In . SVG Version: 6.00 Build 0)  -->
<!DOCTYPE svg PUBLIC "-//W3C//DTD SVG 1.1//EN" "http://www.w3.org/Graphics/SVG/1.1/DTD/svg11.dtd">
<svg version="1.1" xmlns="http://www.w3.org/2000/svg" xmlns:xlink="http://www.w3.org/1999/xlink" x="0px" y="0px" width="200px"
	 height="160.109px" viewBox="0 0 200 160.109" enable-background="new 0 0 200 160.109" xml:space="preserve">
<g id="up">
</g>
<g id="down_1_">
	<g>
		<path fill="#E67E22" d="M49,84.528l4-8c4.015,2.916,8.25,5.939,12.77,8.04l-0.043,0.093h0.241
			c9.659,4.46,20.787,6.868,32.032,6.868c20.558,0,39.054-8.455,53-22v15h49v56H0v-56H49z"/>
		<path d="M24,96.528l-0.039,7.927h-3L21,125.528h3v8H10v-8h3v-21h-3v-8H24z"/>
		<path d="M34,96.528l7.24,13.458L48,96.528h8v37h-8v-24l-6.76,13.08L34,109.528v24h-8v-29v-8H34z"/>
		<path fill="#FFFFFF" d="M80,96.528l3,37h-8v-9h-9v9h-8l3-37H80z M74,116.528l-1-12h-5l-1,12H74z"/>
		<path d="M108.9,96.627v7.828H92.896L93,125.528h8v-5h-3v-8h11v21H85v-37L108.9,96.627z"/>
		<path d="M112,104.528v-8h7v29h9v-29h8v37h-24V104.528z"/>
		<path d="M162,96.528v24l-4.501,0.36l6.501,12.64h-8.508l-5.492-12h-4v12h-7v-37H162z M146,113.528h9v-9h-9V113.528z"/>
		<path d="M166,104.528v-8h8v29h8v-29h8v37h-24V104.528z"/>
		<path fill-rule="evenodd" clip-rule="evenodd" fill="#E67E22" d="M81.954,66.241c-0.245-1.264-0.968-1.577-2.041-0.884
			c-1.179,0.753-1.362,1.957-1.362,3.262c0,2.58,1.396,3.173,3.484,2.611c1.593-0.423,2.815-1.486,3.894-2.721
			c1.049-1.204,1.991-2.509,3.108-3.643c1.328-1.346,2.671-2.751,4.22-3.776c2.092-1.395,4.345-0.962,6.182,0.803
			c0.965,0.913,0.999,0.954,1.892,0.011c2.132-2.248,5.327-2.008,7.485-0.02c1.388,1.283,2.63,2.751,3.922,4.147
			c1.167,1.262,2.247,2.629,3.507,3.792c1.197,1.127,2.645,1.808,4.346,1.536c0.866-0.142,1.448-0.66,1.52-1.544
			c0.08-0.964,0.08-1.97-0.064-2.923c-0.144-0.954-1.16-1.737-2.011-1.827c-0.838-0.101-1.174,0.311-1.126,1.335
			c-0.448-0.854-0.514-1.495-0.005-2.077c0.496-0.563,1.107-0.472,1.689-0.151c2.32,1.286,4.051,4.094,3.526,6.685
			c-0.336,1.676-1.323,2.912-2.506,4.017c-2.294,2.146-4.957,3.242-8.094,3.19c-2.964-0.038-5.866-0.31-8.628-1.493
			c-1.612-0.684-2.973-1.769-4.013-3.243c-0.309-0.442-0.531-0.602-0.904-0.069c-1.812,2.619-4.442,3.734-7.345,4.347
			c-2.531,0.519-5.1,0.67-7.631,0.289c-2.772-0.412-5.039-1.949-6.867-4.165c-1.069-1.295-1.748-2.721-1.496-4.518
			c0.264-1.866,1.24-3.232,2.602-4.347c0.279-0.241,0.577-0.451,0.882-0.651c0.645-0.413,1.298-0.354,1.74,0.159
			C82.353,64.945,82.469,65.57,81.954,66.241z"/>
		<path fill-rule="evenodd" clip-rule="evenodd" d="M122.939,41.738c-0.372,0.442-0.718,0.824-1.224,0.362
			c-0.134-0.121-0.197-0.602-0.1-0.703C122.116,40.905,122.531,41.195,122.939,41.738z"/>
		<path fill-rule="evenodd" clip-rule="evenodd" d="M76.757,41.879c0.352-0.552,0.741-0.855,1.266-0.401
			c0.106,0.099,0.092,0.571-0.029,0.701C77.522,42.651,77.142,42.349,76.757,41.879z"/>
		<g>
			<path fill-rule="evenodd" clip-rule="evenodd" d="M123.07,43.261c-0.149-2.59-1.352-4.507-3.821-5.264
				c-1.531-0.467-3.121-0.742-4.675-1.108c-0.02,0.076-0.043,0.154-0.061,0.243c-2.761-0.023-5.34,0.799-7.907,1.765
				c-2.078,0.789-3.05,2.398-3.067,4.517c-0.017,4.14,1.19,7.914,4.293,10.665c3.415,3.019,7.368,2.941,11.37,1.443
				c1.49-0.555,2.46-1.732,2.921-3.339C122.974,49.265,123.245,46.288,123.07,43.261z"/>
			<path fill-rule="evenodd" clip-rule="evenodd" d="M93.925,39.655c-3.607-1.857-7.428-2.934-11.482-2.188
				c-4.686,0.865-6.347,2.741-6.193,7.802c-0.074,0.011,0.501,4.683,0.985,6.971c0.373,1.774,1.548,2.96,3.171,3.518
				c1.171,0.388,2.41,0.664,3.628,0.767c2.549,0.219,5.012-0.189,7.044-1.933c3.437-2.953,4.799-6.903,4.693-11.432
				C95.74,41.739,95.18,40.296,93.925,39.655z"/>
		</g>
		<g>
			<path fill="#FFFFFF" d="M91.597,14.545c-0.621,1.14-4.391,3.756-7.63,7.177c-0.952,1.005,0.222,4.158-0.544,5.285
				c-4.93,7.244-6.272,8.452-8.251,12.476c-6.474,13.166-3.801,29.033-8.318,25.993C51.46,55.112,56.793,44.748,61.12,35.19
				c1.486-3.284,7.316-13.291,11.671-17.105c6.741-5.905,19.096-6.845,19.547-8.741c0.646-2.669,0.375-4.686,0.188-4.757
				c-0.26-0.101-0.226,0.984-0.255,1.335c-0.136,1.726-0.083,3.232-2.089,3.283c-12.742,0.341-23.219,6.768-28.258,15.622
				c-5.042,8.834-5.6,14.47-5.735,15.495c-0.49,3.654-2.095,9.695-2.817,7.949c-0.976-2.369-3.5-11.992,0.542-21.279
				C65.747-0.151,92.439,4.284,91.934,4.145c-3.065-0.824-48.825-9.906-40.435,44.458c0.487,3.154,9.459,16.082,12.941,18.785
				c1.94,1.505,3.22,2.951,5.232,2.415c3.618-0.964,3.114-5.354,3.723-8.855c0.805-4.628,0.943-9.384,2.012-12.678
				c1.347-4.144,2.549-7.513,4.83-10.665c4.741-6.552,9.003-13.354,15.274-12.651c4.773,0.541,8.829-1.215,9.905-4.427
				c4.193-12.508,1.685-26.159-13.876-18.12c-0.054,0.022,6.764-1.072,7.742-0.791c8.967,2.589,6.876,21.864-3.166,21.09
				c-8.873-0.682-6.992-2.088-5.428-3.482c7.718-6.858,5.015-15.981,2.848-16.715c-0.876-0.292-2.266,0.121-2.3,0.151
				c-0.127,0.121-0.255,0.239-0.381,0.362c-1.731,1.737,4.116-4.015,3.104,4.778C93.758,9.555,92.589,12.737,91.597,14.545z"/>
			<path fill="#FFFFFF" d="M118.699,11.212c5.73,1.898,11.285,2.056,18.804,12.829c3.34,4.789,4.345,9.104,5.968,13.641
				c1.787,5.001,1.82,9.115,3.333,8.864c1.421-0.229,1.875-11.814-1.609-20.818c-2.526-6.515-7.474-10.821-11.058-13.362
				c-13.146-9.274-27.129-8.502-26.631-8.642c3.071-0.824,47.307-8.675,40.922,45.562c-0.949,8.01-14.26,19.038-17.798,20.114
				c-4.11,1.25-4.149-6.593-4.881-10.799c-0.591-3.404-2.732-11.278-3.489-14.69c-0.404-1.828-5.5-10.867-8.183-13.416
				c0,0-1.608-1.534-2.214-2.08c-1.273-1.147-2.499-1.615-3.555-2.012c-7.848-2.951-3.663-0.403-2.3-4.752
				c0.284-0.913,0.693-2.168,1.035-3.262c0.697-2.237,0.785-4.779,1.275-3.482c0.169,0.442-1.472,6.714-0.145,7.808
				c3.151,2.619,2.32,2.041,6.976,6.439c4.83,4.562,9.739,7.672,12.744,21.735c1.236,5.786,1.342,9.793,2.147,13.281
				c1.173,5.084,8.15-1.915,12.175-7.751c3.17-4.596-0.395-15.085-1.203-17.614c-0.689-2.158-2.561-15.047-23.863-25.305
				c-5.206-2.509-8.311-2.017-8.613-2.559c-0.377-0.673-0.097-2.03-0.303-3.103c-0.257-1.324-0.713-2.559-0.608-2.871
				c0.169-0.512,1.089,1.255,1.237,1.787c0.693,2.41,0.557,2.209,1.111,3.143C110.619,10.971,116.186,10.377,118.699,11.212z"/>
		</g>
		<circle fill="#F4F4F4" cx="124.215" cy="39.733" r="1.173"/>
		<circle fill="#F4F4F4" cx="75.067" cy="40.085" r="1.173"/>
		<path fill-rule="evenodd" clip-rule="evenodd" fill="#E67E22" d="M85.002,36.023c3.505,0.066,6.811,0.755,10.062,1.676
			c3.005,0.855,5.954,0.744,8.947,0.046c2.204-0.534,4.4-1.144,6.631-1.499c3.648-0.579,7.278-0.024,10.879,0.611
			c1.229,0.21,2.432,0.533,3.655,0.752c0.805,0.136,1.129,0.645,1.133,1.389c0.017,0.831-0.057,1.653-0.111,2.475
			c-0.012,0.155-0.075,0.389-0.186,0.455c-1.248,0.81-1.325,2.164-1.541,3.475c-0.357,2.174-0.767,4.348-1.171,6.513
			c-0.549,2.953-2.236,4.784-5.077,5.295c-1.711,0.31-3.474,0.62-5.197,0.534c-3.784-0.189-6.793-2.009-8.603-5.552
			c-0.956-1.886-1.608-3.939-2.379-5.925c-0.191-0.489-0.302-1.01-0.463-1.519c-0.389-1.211-1.372-1.755-2.563-1.389
			c-0.549,0.167-0.858,0.522-1.055,1.133c-0.682,2.118-1.31,4.283-2.214,6.303c-3.011,6.717-8.783,8.159-14.423,6.449
			c-0.809-0.237-1.581-0.633-2.378-0.932c-1.687-0.623-2.462-2.032-2.82-3.698c-0.542-2.553-0.984-5.14-1.399-7.736
			c-0.172-1.086-0.489-2.03-1.346-2.739c-0.198-0.169-0.393-0.478-0.394-0.733c-0.032-0.998-0.053-2.008,0.08-2.997
			c0.037-0.288,0.549-0.664,0.899-0.732c2.692-0.512,5.394-0.987,8.103-1.418C83.071,36.1,84.098,36.089,85.002,36.023z
			 M114.514,37.132c-2.761-0.023-5.34,0.799-7.907,1.765c-2.078,0.789-3.05,2.398-3.067,4.517c-0.017,4.14,1.19,7.914,4.293,10.665
			c3.415,3.019,7.368,2.941,11.37,1.443c1.49-0.555,2.46-1.732,2.921-3.339c0.851-2.919,1.122-5.896,0.947-8.923
			c-0.149-2.59-1.352-4.507-3.821-5.264C117.718,37.531,114.531,37.043,114.514,37.132z M76.25,45.269
			c-0.074,0.011,0.501,4.683,0.985,6.971c0.373,1.774,1.548,2.96,3.171,3.518c1.171,0.388,2.41,0.664,3.628,0.767
			c2.549,0.219,5.012-0.189,7.044-1.933c3.437-2.953,4.799-6.903,4.693-11.432c-0.031-1.42-0.59-2.863-1.846-3.504
			c-3.607-1.857-7.428-2.934-11.482-2.188C77.756,38.332,76.096,40.207,76.25,45.269z M125.215,39.807
			c-0.451-0.599-0.91-0.921-1.464-0.376c-0.107,0.111-0.039,0.643,0.11,0.777C124.421,40.718,124.804,40.296,125.215,39.807z
			 M74.154,39.964c0.426,0.52,0.846,0.854,1.368,0.333c0.133-0.145,0.149-0.666,0.031-0.775
			C74.973,39.018,74.543,39.354,74.154,39.964z"/>
		<g>
			<path fill="#FFFFFF" d="M9.17,146.804h7.147v2.285h-4.867v1.775h4.867v6.588H9.17V146.804z M14.037,155.168v-2.023h-2.586v2.023
				H14.037z"/>
			<path fill="#FFFFFF" d="M21.658,146.804v2.285h-0.912v6.078h0.912v2.285h-4.104v-2.285h0.909v-6.078h-0.909v-2.285H21.658z"/>
			<path fill="#FFFFFF" d="M29.62,146.804v2.285l-2.555,3.039l2.555,3.039v2.285h-6.846v-2.285h4.092l-2.555-3.039l2.555-3.039
				h-4.092v-2.285H29.62z"/>
			<path fill="#FFFFFF" d="M33.098,146.804v4.137h2.587v-4.137h2.28v10.648h-2.28v-4.227h-2.587v4.227h-2.28v-8.363v-2.285H33.098z"
				/>
			<path fill="#FFFFFF" d="M46.309,157.452h-7.147v-2.285h4.867v-1.899h-2.404v-2.28h2.404v-1.899h-4.867v-2.285h7.147V157.452z"/>
			<path fill="#FFFFFF" d="M54.767,146.804v3.318h-2.28v-1.033h-2.587v6.078h2.587v-1.033h2.28v3.318H47.62v-10.648H54.767z"/>
			<path fill="#FFFFFF" d="M61.897,157.452h-2.28v-8.363v-2.285h2.28v4.137h1.049l1.995-4.137h2.399l-2.57,5.141l2.726,5.507h-2.511
				l-2.039-4.227h-1.049V157.452z"/>
			<path fill="#FFFFFF" d="M75.734,146.804v10.648h-2.28v-8.363h-1.613l-1.032,8.363h-2.721v-2.285h0.818l0.945-8.363H75.734z"/>
			<path fill="#FFFFFF" d="M79.326,146.804v4.367h2.511v-4.367h2.28v10.648h-7.071v-2.285h4.791v-1.716h-4.791v-4.362v-2.285H79.326
				z"/>
			<path fill="#FFFFFF" d="M85.42,146.804h7.147v2.285h-4.867v1.775h4.867v6.588H85.42V146.804z M90.288,155.168v-2.023h-2.587
				v2.023H90.288z"/>
		</g>
		<g>
			<path fill="#FFFFFF" d="M111.346,146.804v2.285h-4.56v1.852h4.56v6.511h-6.84v-2.285h4.56v-1.943h-4.56v-6.421H111.346z"/>
			<path fill="#FFFFFF" d="M119.505,146.804v2.285h-2.447v8.363h-2.28v-8.363h-2.431v-2.285H119.505z"/>
			<path fill="#FFFFFF" d="M126.378,146.804l1.033,10.648h-2.28l-0.221-2.511h-2.511l-0.232,2.511h-2.28l1.033-10.648H126.378z
				 M124.711,152.661l-0.334-3.572h-1.446l-0.333,3.572H124.711z"/>
			<path fill="#FFFFFF" d="M135.605,146.804v7.072h-1.43l1.946,3.576h-2.581l-1.726-3.501h-1.071v3.501h-2.281v-10.648H135.605z
				 M130.743,151.672h2.581v-2.582h-2.581V151.672z"/>
			<path fill="#FFFFFF" d="M143.845,146.804v2.285h-2.447v8.363h-2.28v-8.363h-2.431v-2.285H143.845z"/>
			<path fill="#FFFFFF" d="M144.879,149.089v-2.285h2.28v8.363h2.592v-8.363h2.28v10.648h-7.152V149.089z"/>
			<path fill="#FFFFFF" d="M160.49,146.804v7.453h-4.873v3.195h-2.28v-10.648H160.49z M155.618,151.977h2.592v-2.888h-2.592V151.977
				z"/>
			<path fill="#FFFFFF" d="M167.695,146.804v4.137h2.581v-4.137h2.28v10.648h-2.28v-4.227h-2.581v4.227h-2.28v-8.363v-2.285H167.695
				z"/>
			<path fill="#FFFFFF" d="M173.873,149.089v-2.285h2.28v8.363h2.582v-8.363h2.28v10.648h-7.142V149.089z"/>
			<path fill="#FFFFFF" d="M189.474,146.804v4.259l-1.319,1.065l1.319,1.065v4.259h-7.142v-10.648H189.474z M184.612,149.089v1.974
				h1.764l0.817-0.774v-1.2H184.612z M184.612,155.168h2.581v-1.2l-0.817-0.774h-1.764V155.168z"/>
		</g>
		<rect x="97.417" y="144.148" fill="#FFFFFF" width="2.388" height="15.961"/>
	</g>
</g>
</svg>
